%TF.GenerationSoftware,KiCad,Pcbnew,7.0.5*%
%TF.CreationDate,2024-01-03T16:25:20+01:00*%
%TF.ProjectId,no-escape,6e6f2d65-7363-4617-9065-2e6b69636164,rev?*%
%TF.SameCoordinates,Original*%
%TF.FileFunction,Soldermask,Bot*%
%TF.FilePolarity,Negative*%
%FSLAX46Y46*%
G04 Gerber Fmt 4.6, Leading zero omitted, Abs format (unit mm)*
G04 Created by KiCad (PCBNEW 7.0.5) date 2024-01-03 16:25:20*
%MOMM*%
%LPD*%
G01*
G04 APERTURE LIST*
G04 Aperture macros list*
%AMRoundRect*
0 Rectangle with rounded corners*
0 $1 Rounding radius*
0 $2 $3 $4 $5 $6 $7 $8 $9 X,Y pos of 4 corners*
0 Add a 4 corners polygon primitive as box body*
4,1,4,$2,$3,$4,$5,$6,$7,$8,$9,$2,$3,0*
0 Add four circle primitives for the rounded corners*
1,1,$1+$1,$2,$3*
1,1,$1+$1,$4,$5*
1,1,$1+$1,$6,$7*
1,1,$1+$1,$8,$9*
0 Add four rect primitives between the rounded corners*
20,1,$1+$1,$2,$3,$4,$5,0*
20,1,$1+$1,$4,$5,$6,$7,0*
20,1,$1+$1,$6,$7,$8,$9,0*
20,1,$1+$1,$8,$9,$2,$3,0*%
%AMRotRect*
0 Rectangle, with rotation*
0 The origin of the aperture is its center*
0 $1 length*
0 $2 width*
0 $3 Rotation angle, in degrees counterclockwise*
0 Add horizontal line*
21,1,$1,$2,0,0,$3*%
G04 Aperture macros list end*
%ADD10C,1.750000*%
%ADD11C,3.987800*%
%ADD12C,2.500000*%
%ADD13C,1.701800*%
%ADD14C,3.048000*%
%ADD15R,1.200000X0.900000*%
%ADD16RoundRect,0.135000X-0.185000X0.135000X-0.185000X-0.135000X0.185000X-0.135000X0.185000X0.135000X0*%
%ADD17RoundRect,0.140000X0.021213X-0.219203X0.219203X-0.021213X-0.021213X0.219203X-0.219203X0.021213X0*%
%ADD18C,3.500001*%
%ADD19RoundRect,0.140000X-0.140000X-0.170000X0.140000X-0.170000X0.140000X0.170000X-0.140000X0.170000X0*%
%ADD20RoundRect,0.150000X-0.275000X0.150000X-0.275000X-0.150000X0.275000X-0.150000X0.275000X0.150000X0*%
%ADD21RoundRect,0.175000X-0.225000X0.175000X-0.225000X-0.175000X0.225000X-0.175000X0.225000X0.175000X0*%
%ADD22RoundRect,0.140000X-0.021213X0.219203X-0.219203X0.021213X0.021213X-0.219203X0.219203X-0.021213X0*%
%ADD23RoundRect,0.140000X0.170000X-0.140000X0.170000X0.140000X-0.170000X0.140000X-0.170000X-0.140000X0*%
%ADD24RoundRect,0.243750X0.456250X-0.243750X0.456250X0.243750X-0.456250X0.243750X-0.456250X-0.243750X0*%
%ADD25RoundRect,0.225000X0.375000X-0.225000X0.375000X0.225000X-0.375000X0.225000X-0.375000X-0.225000X0*%
%ADD26RoundRect,0.150000X0.650000X0.150000X-0.650000X0.150000X-0.650000X-0.150000X0.650000X-0.150000X0*%
%ADD27RoundRect,0.250000X-0.250000X-0.350000X0.250000X-0.350000X0.250000X0.350000X-0.250000X0.350000X0*%
%ADD28RoundRect,0.135000X0.135000X0.185000X-0.135000X0.185000X-0.135000X-0.185000X0.135000X-0.185000X0*%
%ADD29RoundRect,0.050000X0.309359X-0.238649X-0.238649X0.309359X-0.309359X0.238649X0.238649X-0.309359X0*%
%ADD30RoundRect,0.050000X0.309359X0.238649X0.238649X0.309359X-0.309359X-0.238649X-0.238649X-0.309359X0*%
%ADD31RoundRect,0.144000X2.059095X0.000000X0.000000X2.059095X-2.059095X0.000000X0.000000X-2.059095X0*%
%ADD32RoundRect,0.250000X-0.625000X0.375000X-0.625000X-0.375000X0.625000X-0.375000X0.625000X0.375000X0*%
%ADD33RoundRect,0.250000X0.625000X-0.375000X0.625000X0.375000X-0.625000X0.375000X-0.625000X-0.375000X0*%
%ADD34RoundRect,0.150000X0.587500X0.150000X-0.587500X0.150000X-0.587500X-0.150000X0.587500X-0.150000X0*%
%ADD35R,1.200000X1.800000*%
%ADD36R,0.600000X1.550000*%
%ADD37R,1.700000X1.700000*%
%ADD38O,1.700000X1.700000*%
%ADD39RoundRect,0.140000X0.140000X0.170000X-0.140000X0.170000X-0.140000X-0.170000X0.140000X-0.170000X0*%
%ADD40R,0.900000X0.500000*%
%ADD41RoundRect,0.125000X0.000000X0.150000X0.000000X0.150000X0.000000X-0.150000X0.000000X-0.150000X0*%
%ADD42R,0.250000X0.550000*%
%ADD43R,0.300000X0.550000*%
%ADD44RoundRect,0.140000X0.219203X0.021213X0.021213X0.219203X-0.219203X-0.021213X-0.021213X-0.219203X0*%
%ADD45RotRect,1.400000X1.200000X315.000000*%
%ADD46RoundRect,0.140000X-0.219203X-0.021213X-0.021213X-0.219203X0.219203X0.021213X0.021213X0.219203X0*%
%ADD47RoundRect,0.150000X-0.625000X0.150000X-0.625000X-0.150000X0.625000X-0.150000X0.625000X0.150000X0*%
%ADD48RoundRect,0.250000X-0.650000X0.350000X-0.650000X-0.350000X0.650000X-0.350000X0.650000X0.350000X0*%
%ADD49C,0.650000*%
%ADD50RoundRect,0.150000X-0.150000X-0.575000X0.150000X-0.575000X0.150000X0.575000X-0.150000X0.575000X0*%
%ADD51RoundRect,0.075000X-0.075000X-0.650000X0.075000X-0.650000X0.075000X0.650000X-0.075000X0.650000X0*%
%ADD52O,1.300000X1.900000*%
%ADD53O,1.100000X2.200000*%
%ADD54R,1.000000X0.700000*%
%ADD55R,0.600000X0.700000*%
%ADD56RoundRect,0.135000X0.035355X-0.226274X0.226274X-0.035355X-0.035355X0.226274X-0.226274X0.035355X0*%
G04 APERTURE END LIST*
D10*
%TO.C,MX45*%
X56832500Y-101600000D03*
D11*
X61912500Y-101600000D03*
D10*
X66992500Y-101600000D03*
D12*
X58102500Y-99060000D03*
X64452500Y-96520000D03*
%TD*%
D11*
%TO.C,MX41*%
X251301000Y-42036750D03*
X251301000Y-65912750D03*
D13*
X259556000Y-48894750D03*
D11*
X259556000Y-53974750D03*
D13*
X259556000Y-59054750D03*
D14*
X266541000Y-42036750D03*
X266541000Y-65912750D03*
D12*
X262096000Y-50164750D03*
X264636000Y-56514750D03*
%TD*%
D10*
%TO.C,MX29*%
X128270000Y-82550000D03*
D11*
X133350000Y-82550000D03*
D10*
X138430000Y-82550000D03*
D12*
X129540000Y-80010000D03*
X135890000Y-77470000D03*
%TD*%
D11*
%TO.C,MX39*%
X100012500Y-93345000D03*
D14*
X100012500Y-108585000D03*
D10*
X152082500Y-101600000D03*
D11*
X157162500Y-101600000D03*
D10*
X162242500Y-101600000D03*
D11*
X214312500Y-93345000D03*
D14*
X214312500Y-108585000D03*
D12*
X153352500Y-99060000D03*
X159702500Y-96520000D03*
%TD*%
D10*
%TO.C,MX30*%
X147320000Y-82550000D03*
D11*
X152400000Y-82550000D03*
D10*
X157480000Y-82550000D03*
D12*
X148590000Y-80010000D03*
X154940000Y-77470000D03*
%TD*%
D10*
%TO.C,MX37*%
X54451250Y-101600000D03*
D11*
X59531250Y-101600000D03*
D10*
X64611250Y-101600000D03*
D12*
X55721250Y-99060000D03*
X62071250Y-96520000D03*
%TD*%
D11*
%TO.C,MX51*%
X90487916Y-93344991D03*
D14*
X90487916Y-108584991D03*
D10*
X142557916Y-101599991D03*
D11*
X147637916Y-101599991D03*
D10*
X152717916Y-101599991D03*
D11*
X204787916Y-93344991D03*
D14*
X204787916Y-108584991D03*
D12*
X143827916Y-99059991D03*
X150177916Y-96519991D03*
%TD*%
D10*
%TO.C,MX40*%
X228282500Y-101600000D03*
D11*
X233362500Y-101600000D03*
D10*
X238442500Y-101600000D03*
D12*
X229552500Y-99060000D03*
X235902500Y-96520000D03*
%TD*%
D11*
%TO.C,MX48*%
X114268000Y-93345000D03*
D14*
X114268000Y-108585000D03*
D10*
X121126250Y-101600000D03*
D11*
X126206250Y-101600000D03*
D10*
X131286250Y-101600000D03*
D11*
X138144500Y-93345000D03*
D14*
X138144500Y-108585000D03*
D12*
X122396250Y-99060000D03*
X128746250Y-96520000D03*
%TD*%
D10*
%TO.C,MX46*%
X33020000Y-101600000D03*
D11*
X38100000Y-101600000D03*
D10*
X43180000Y-101600000D03*
D12*
X34290000Y-99060000D03*
X40640000Y-96520000D03*
%TD*%
D10*
%TO.C,MX7*%
X171132500Y-44450000D03*
D11*
X176212500Y-44450000D03*
D10*
X181292500Y-44450000D03*
D12*
X172402500Y-41910000D03*
X178752500Y-39370000D03*
%TD*%
D10*
%TO.C,MX27*%
X90170000Y-82550000D03*
D11*
X95250000Y-82550000D03*
D10*
X100330000Y-82550000D03*
D12*
X91440000Y-80010000D03*
X97790000Y-77470000D03*
%TD*%
D10*
%TO.C,MX17*%
X137795000Y-63500000D03*
D11*
X142875000Y-63500000D03*
D10*
X147955000Y-63500000D03*
D12*
X139065000Y-60960000D03*
X145415000Y-58420000D03*
%TD*%
D10*
%TO.C,MX1*%
X56832500Y-44450000D03*
D11*
X61912500Y-44450000D03*
D10*
X66992500Y-44450000D03*
D12*
X58102500Y-41910000D03*
X64452500Y-39370000D03*
%TD*%
D10*
%TO.C,MX15*%
X99695000Y-63500000D03*
D11*
X104775000Y-63500000D03*
D10*
X109855000Y-63500000D03*
D12*
X100965000Y-60960000D03*
X107315000Y-58420000D03*
%TD*%
D10*
%TO.C,MX32*%
X185420000Y-82550000D03*
D11*
X190500000Y-82550000D03*
D10*
X195580000Y-82550000D03*
D12*
X186690000Y-80010000D03*
X193040000Y-77470000D03*
%TD*%
D10*
%TO.C,MX35*%
X249713750Y-82550000D03*
D11*
X254793750Y-82550000D03*
D10*
X259873750Y-82550000D03*
D12*
X250983750Y-80010000D03*
X257333750Y-77470000D03*
%TD*%
D10*
%TO.C,MX47*%
X80645000Y-101600000D03*
D11*
X85725000Y-101600000D03*
D10*
X90805000Y-101600000D03*
D12*
X81915000Y-99060000D03*
X88265000Y-96520000D03*
%TD*%
D10*
%TO.C,MX24*%
X30638750Y-82550000D03*
D11*
X35718750Y-82550000D03*
D10*
X40798750Y-82550000D03*
D12*
X31908750Y-80010000D03*
X38258750Y-77470000D03*
%TD*%
D10*
%TO.C,MX13*%
X61595000Y-63500000D03*
D11*
X66675000Y-63500000D03*
D10*
X71755000Y-63500000D03*
D12*
X62865000Y-60960000D03*
X69215000Y-58420000D03*
%TD*%
D10*
%TO.C,MX23*%
X254476250Y-63500000D03*
D11*
X259556250Y-63500000D03*
D10*
X264636250Y-63500000D03*
D12*
X255746250Y-60960000D03*
X262096250Y-58420000D03*
%TD*%
D11*
%TO.C,MX49*%
X161893250Y-93345000D03*
D14*
X161893250Y-108585000D03*
D10*
X168751250Y-101600000D03*
D11*
X173831250Y-101600000D03*
D10*
X178911250Y-101600000D03*
D11*
X185769250Y-93345000D03*
D14*
X185769250Y-108585000D03*
D12*
X170021250Y-99060000D03*
X176371250Y-96520000D03*
%TD*%
D10*
%TO.C,MX9*%
X209232500Y-44450000D03*
D11*
X214312500Y-44450000D03*
D10*
X219392500Y-44450000D03*
D12*
X210502500Y-41910000D03*
X216852500Y-39370000D03*
%TD*%
D10*
%TO.C,MX31*%
X166370000Y-82550000D03*
D11*
X171450000Y-82550000D03*
D10*
X176530000Y-82550000D03*
D12*
X167640000Y-80010000D03*
X173990000Y-77470000D03*
%TD*%
D10*
%TO.C,MX14*%
X80645000Y-63500000D03*
D11*
X85725000Y-63500000D03*
D10*
X90805000Y-63500000D03*
D12*
X81915000Y-60960000D03*
X88265000Y-58420000D03*
%TD*%
D10*
%TO.C,MX10*%
X228282500Y-44450000D03*
D11*
X233362500Y-44450000D03*
D10*
X238442500Y-44450000D03*
D12*
X229552500Y-41910000D03*
X235902500Y-39370000D03*
%TD*%
D10*
%TO.C,MX20*%
X194945000Y-63500000D03*
D11*
X200025000Y-63500000D03*
D10*
X205105000Y-63500000D03*
D12*
X196215000Y-60960000D03*
X202565000Y-58420000D03*
%TD*%
D10*
%TO.C,MX25*%
X52070000Y-82550000D03*
D11*
X57150000Y-82550000D03*
D10*
X62230000Y-82550000D03*
D12*
X53340000Y-80010000D03*
X59690000Y-77470000D03*
%TD*%
D10*
%TO.C,MX22*%
X233045000Y-63500000D03*
D11*
X238125000Y-63500000D03*
D10*
X243205000Y-63500000D03*
D12*
X234315000Y-60960000D03*
X240665000Y-58420000D03*
%TD*%
D10*
%TO.C,MX5*%
X133032500Y-44450000D03*
D11*
X138112500Y-44450000D03*
D10*
X143192500Y-44450000D03*
D12*
X134302500Y-41910000D03*
X140652500Y-39370000D03*
%TD*%
D10*
%TO.C,MX36*%
X30638750Y-101600000D03*
D11*
X35718750Y-101600000D03*
D10*
X40798750Y-101600000D03*
D12*
X31908750Y-99060000D03*
X38258750Y-96520000D03*
%TD*%
D14*
%TO.C,MX42*%
X238092916Y-56514991D03*
D11*
X238092916Y-71754991D03*
D10*
X244951166Y-63499991D03*
D11*
X250031166Y-63499991D03*
D10*
X255111166Y-63499991D03*
D14*
X261969416Y-56514991D03*
D11*
X261969416Y-71754991D03*
D12*
X246221166Y-60959991D03*
X252571166Y-58419991D03*
%TD*%
D14*
%TO.C,MX43*%
X33305500Y-75565000D03*
D11*
X33305500Y-90805000D03*
D10*
X40163750Y-82550000D03*
D11*
X45243750Y-82550000D03*
D10*
X50323750Y-82550000D03*
D14*
X57182000Y-75565000D03*
D11*
X57182000Y-90805000D03*
D12*
X41433750Y-80010000D03*
X47783750Y-77470000D03*
%TD*%
D10*
%TO.C,MX18*%
X156845000Y-63500000D03*
D11*
X161925000Y-63500000D03*
D10*
X167005000Y-63500000D03*
D12*
X158115000Y-60960000D03*
X164465000Y-58420000D03*
%TD*%
D11*
%TO.C,MX44*%
X80962916Y-93344991D03*
D14*
X80962916Y-108584991D03*
D13*
X142557916Y-101599991D03*
D11*
X147637916Y-101599991D03*
D13*
X152717916Y-101599991D03*
D11*
X214312916Y-93344991D03*
D14*
X214312916Y-108584991D03*
D12*
X143827916Y-99059991D03*
X150177916Y-96519991D03*
%TD*%
D10*
%TO.C,MX6*%
X152082500Y-44450000D03*
D11*
X157162500Y-44450000D03*
D10*
X162242500Y-44450000D03*
D12*
X153352500Y-41910000D03*
X159702500Y-39370000D03*
%TD*%
D10*
%TO.C,MX21*%
X213995000Y-63500000D03*
D11*
X219075000Y-63500000D03*
D10*
X224155000Y-63500000D03*
D12*
X215265000Y-60960000D03*
X221615000Y-58420000D03*
%TD*%
D10*
%TO.C,MX16*%
X118745000Y-63500000D03*
D11*
X123825000Y-63500000D03*
D10*
X128905000Y-63500000D03*
D12*
X120015000Y-60960000D03*
X126365000Y-58420000D03*
%TD*%
D10*
%TO.C,MX8*%
X190182500Y-44450000D03*
D11*
X195262500Y-44450000D03*
D10*
X200342500Y-44450000D03*
D12*
X191452500Y-41910000D03*
X197802500Y-39370000D03*
%TD*%
D10*
%TO.C,MX50*%
X204470000Y-101600000D03*
D11*
X209550000Y-101600000D03*
D10*
X214630000Y-101600000D03*
D12*
X205740000Y-99060000D03*
X212090000Y-96520000D03*
%TD*%
D10*
%TO.C,MX11*%
X252095000Y-44450000D03*
D11*
X257175000Y-44450000D03*
D10*
X262255000Y-44450000D03*
D12*
X253365000Y-41910000D03*
X259715000Y-39370000D03*
%TD*%
D10*
%TO.C,MX12*%
X30638250Y-63500000D03*
D11*
X35718250Y-63500000D03*
X40481250Y-63500000D03*
D10*
X45561250Y-63500000D03*
D12*
X31908250Y-60960000D03*
X36671250Y-60960000D03*
X38258250Y-58420000D03*
X43021250Y-58420000D03*
%TD*%
D10*
%TO.C,MX3*%
X94932500Y-44450000D03*
D11*
X100012500Y-44450000D03*
D10*
X105092500Y-44450000D03*
D12*
X96202500Y-41910000D03*
X102552500Y-39370000D03*
%TD*%
D10*
%TO.C,MX33*%
X204470000Y-82550000D03*
D11*
X209550000Y-82550000D03*
D10*
X214630000Y-82550000D03*
D12*
X205740000Y-80010000D03*
X212090000Y-77470000D03*
%TD*%
D10*
%TO.C,MX34*%
X223520000Y-82550000D03*
D11*
X228600000Y-82550000D03*
D10*
X233680000Y-82550000D03*
D12*
X224790000Y-80010000D03*
X231140000Y-77470000D03*
%TD*%
D10*
%TO.C,MX4*%
X113982500Y-44450000D03*
D11*
X119062500Y-44450000D03*
D10*
X124142500Y-44450000D03*
D12*
X115252500Y-41910000D03*
X121602500Y-39370000D03*
%TD*%
D10*
%TO.C,MX19*%
X175895000Y-63500000D03*
D11*
X180975000Y-63500000D03*
D10*
X186055000Y-63500000D03*
D12*
X177165000Y-60960000D03*
X183515000Y-58420000D03*
%TD*%
D10*
%TO.C,MX28*%
X109220000Y-82550000D03*
D11*
X114300000Y-82550000D03*
D10*
X119380000Y-82550000D03*
D12*
X110490000Y-80010000D03*
X116840000Y-77470000D03*
%TD*%
D10*
%TO.C,MX26*%
X71120000Y-82550000D03*
D11*
X76200000Y-82550000D03*
D10*
X81280000Y-82550000D03*
D12*
X72390000Y-80010000D03*
X78740000Y-77470000D03*
%TD*%
D10*
%TO.C,MX38*%
X75882500Y-101600000D03*
D11*
X80962500Y-101600000D03*
D10*
X86042500Y-101600000D03*
D12*
X77152500Y-99060000D03*
X83502500Y-96520000D03*
%TD*%
D10*
%TO.C,MX2*%
X75882500Y-44450000D03*
D11*
X80962500Y-44450000D03*
D10*
X86042500Y-44450000D03*
D12*
X77152500Y-41910000D03*
X83502500Y-39370000D03*
%TD*%
D15*
%TO.C,D17*%
X145987000Y-66037000D03*
X145987000Y-62737000D03*
%TD*%
D16*
%TO.C,R_DATA1*%
X50165000Y-63117000D03*
X50165000Y-64137000D03*
%TD*%
D17*
%TO.C,C_3V-Decoup2*%
X107229589Y-91398411D03*
X107908411Y-90719589D03*
%TD*%
D18*
%TO.C,MH4*%
X26337000Y-49950000D03*
%TD*%
D17*
%TO.C,C_1V-Decoup1*%
X108118589Y-92160411D03*
X108797411Y-91481589D03*
%TD*%
D19*
%TO.C,C_LDO2*%
X63909000Y-52832000D03*
X64869000Y-52832000D03*
%TD*%
D20*
%TO.C,J1*%
X55814750Y-54778500D03*
X55814750Y-55978500D03*
X55814750Y-57178500D03*
X55814750Y-58378500D03*
D21*
X59589750Y-53628500D03*
X59589750Y-59528500D03*
%TD*%
D15*
%TO.C,D9*%
X217424500Y-46987000D03*
X217424500Y-43687000D03*
%TD*%
%TO.C,D20*%
X203137000Y-66037000D03*
X203137000Y-62737000D03*
%TD*%
%TO.C,D18*%
X165037000Y-66037000D03*
X165037000Y-62737000D03*
%TD*%
D22*
%TO.C,C_Crystal1*%
X99036462Y-104230456D03*
X98357640Y-104909278D03*
%TD*%
D23*
%TO.C,C_3V-Decoup4*%
X115189000Y-90142000D03*
X115189000Y-89182000D03*
%TD*%
D15*
%TO.C,D4*%
X122174500Y-46987000D03*
X122174500Y-43687000D03*
%TD*%
D24*
%TO.C,F1*%
X55753000Y-51278000D03*
X55753000Y-49403000D03*
%TD*%
D15*
%TO.C,D8*%
X198374500Y-46987000D03*
X198374500Y-43687000D03*
%TD*%
D25*
%TO.C,D41*%
X129318250Y-104137000D03*
X129318250Y-100837000D03*
%TD*%
D15*
%TO.C,D34*%
X231712000Y-85087000D03*
X231712000Y-81787000D03*
%TD*%
%TO.C,D40*%
X236474500Y-104137000D03*
X236474500Y-100837000D03*
%TD*%
%TO.C,D13*%
X69787000Y-66037000D03*
X69787000Y-62737000D03*
%TD*%
%TO.C,D32*%
X193612000Y-85087000D03*
X193612000Y-81787000D03*
%TD*%
%TO.C,D7*%
X179324500Y-46987000D03*
X179324500Y-43687000D03*
%TD*%
%TO.C,D38*%
X72771000Y-104137000D03*
X72771000Y-100837000D03*
%TD*%
D22*
%TO.C,C_1V-Decoup3*%
X98510411Y-98847589D03*
X97831589Y-99526411D03*
%TD*%
D18*
%TO.C,MH3*%
X40337000Y-49950000D03*
%TD*%
D26*
%TO.C,U3*%
X127425000Y-85979000D03*
X127425000Y-87249000D03*
X127425000Y-88519000D03*
X127425000Y-89789000D03*
X120225000Y-89789000D03*
X120225000Y-88519000D03*
X120225000Y-87249000D03*
X120225000Y-85979000D03*
%TD*%
D27*
%TO.C,D43*%
X38039000Y-45797000D03*
X41339000Y-45797000D03*
%TD*%
D28*
%TO.C,R_RST1*%
X95760000Y-97155000D03*
X94740000Y-97155000D03*
%TD*%
D29*
%TO.C,U1*%
X110466279Y-99017202D03*
X110183436Y-99300045D03*
X109900594Y-99582887D03*
X109617751Y-99865730D03*
X109334908Y-100148573D03*
X109052066Y-100431415D03*
X108769223Y-100714258D03*
X108486380Y-100997101D03*
X108203537Y-101279944D03*
X107920695Y-101562786D03*
X107637852Y-101845629D03*
X107355009Y-102128472D03*
X107072167Y-102411314D03*
X106789324Y-102694157D03*
D30*
X105604920Y-102694157D03*
X105322077Y-102411314D03*
X105039235Y-102128472D03*
X104756392Y-101845629D03*
X104473549Y-101562786D03*
X104190707Y-101279944D03*
X103907864Y-100997101D03*
X103625021Y-100714258D03*
X103342178Y-100431415D03*
X103059336Y-100148573D03*
X102776493Y-99865730D03*
X102493650Y-99582887D03*
X102210808Y-99300045D03*
X101927965Y-99017202D03*
D29*
X101927965Y-97832798D03*
X102210808Y-97549955D03*
X102493650Y-97267113D03*
X102776493Y-96984270D03*
X103059336Y-96701427D03*
X103342178Y-96418585D03*
X103625021Y-96135742D03*
X103907864Y-95852899D03*
X104190707Y-95570056D03*
X104473549Y-95287214D03*
X104756392Y-95004371D03*
X105039235Y-94721528D03*
X105322077Y-94438686D03*
X105604920Y-94155843D03*
D30*
X106789324Y-94155843D03*
X107072167Y-94438686D03*
X107355009Y-94721528D03*
X107637852Y-95004371D03*
X107920695Y-95287214D03*
X108203537Y-95570056D03*
X108486380Y-95852899D03*
X108769223Y-96135742D03*
X109052066Y-96418585D03*
X109334908Y-96701427D03*
X109617751Y-96984270D03*
X109900594Y-97267113D03*
X110183436Y-97549955D03*
X110466279Y-97832798D03*
D31*
X106197122Y-98425000D03*
%TD*%
D22*
%TO.C,C_3V-Decoup3*%
X99272411Y-99609589D03*
X98593589Y-100288411D03*
%TD*%
D15*
%TO.C,D10*%
X236474500Y-46987000D03*
X236474500Y-43687000D03*
%TD*%
D32*
%TO.C,F2*%
X40451000Y-40714000D03*
X40451000Y-43514000D03*
%TD*%
D33*
%TO.C,L1*%
X26354000Y-46181001D03*
X26354000Y-43381001D03*
%TD*%
D34*
%TO.C,U2*%
X62073000Y-49596000D03*
X62073000Y-51496000D03*
X60198000Y-50546000D03*
%TD*%
D15*
%TO.C,D28*%
X117412000Y-85087000D03*
X117412000Y-81787000D03*
%TD*%
D35*
%TO.C,J5*%
X36137000Y-50800000D03*
X30537000Y-50800000D03*
D36*
X34837000Y-46925000D03*
X33837000Y-46925000D03*
X32837000Y-46925000D03*
X31837000Y-46925000D03*
%TD*%
D37*
%TO.C,J2*%
X94361000Y-94361000D03*
D38*
X94361000Y-91821000D03*
%TD*%
D15*
%TO.C,D2*%
X84074500Y-46987000D03*
X84074500Y-43687000D03*
%TD*%
%TO.C,D29*%
X136462000Y-85087000D03*
X136462000Y-81787000D03*
%TD*%
%TO.C,D16*%
X126937000Y-66037000D03*
X126937000Y-62737000D03*
%TD*%
D23*
%TO.C,C_LDO1*%
X58039000Y-50772000D03*
X58039000Y-49812000D03*
%TD*%
D15*
%TO.C,D15*%
X107887000Y-66037000D03*
X107887000Y-62737000D03*
%TD*%
D39*
%TO.C,C_Flash1*%
X117066000Y-87122000D03*
X116106000Y-87122000D03*
%TD*%
D15*
%TO.C,D3*%
X103124500Y-46987000D03*
X103124500Y-43687000D03*
%TD*%
D17*
%TO.C,C_Crystal2*%
X94675735Y-100508952D03*
X95354557Y-99830130D03*
%TD*%
D40*
%TO.C,R2*%
X36387000Y-45286000D03*
X36387000Y-46786000D03*
%TD*%
D16*
%TO.C,R_DATA2*%
X49022000Y-63117000D03*
X49022000Y-64137000D03*
%TD*%
D41*
%TO.C,U5*%
X34339000Y-45318400D03*
D42*
X33839000Y-45318400D03*
D43*
X33339000Y-45318400D03*
D42*
X32839000Y-45318400D03*
X32339000Y-45318400D03*
X32339000Y-44548400D03*
X32839000Y-44548400D03*
D43*
X33339000Y-44548400D03*
D42*
X33839000Y-44548400D03*
X34339000Y-44548400D03*
%TD*%
D15*
%TO.C,D26*%
X79312000Y-85087000D03*
X79312000Y-81787000D03*
%TD*%
%TO.C,D39*%
X160274500Y-104137000D03*
X160274500Y-100837000D03*
%TD*%
D44*
%TO.C,C_3V-Decoup9*%
X105368411Y-91271411D03*
X104689589Y-90592589D03*
%TD*%
D15*
%TO.C,D23*%
X262668250Y-66037000D03*
X262668250Y-62737000D03*
%TD*%
%TO.C,D30*%
X155512000Y-85087000D03*
X155512000Y-81787000D03*
%TD*%
D45*
%TO.C,Y1*%
X96724223Y-100856142D03*
X98279858Y-102411777D03*
X97077777Y-103613858D03*
X95522142Y-102058223D03*
%TD*%
D18*
%TO.C,MH2*%
X26337000Y-37450000D03*
%TD*%
D46*
%TO.C,C_3V-Decoup8*%
X111928589Y-100117589D03*
X112607411Y-100796411D03*
%TD*%
%TO.C,C_3V-Decoup5*%
X108753589Y-103038589D03*
X109432411Y-103717411D03*
%TD*%
D15*
%TO.C,D12*%
X43593250Y-66037000D03*
X43593250Y-62737000D03*
%TD*%
%TO.C,D21*%
X222187000Y-66037000D03*
X222187000Y-62737000D03*
%TD*%
%TO.C,D14*%
X88837000Y-66037000D03*
X88837000Y-62737000D03*
%TD*%
D47*
%TO.C,J3*%
X55689750Y-55078500D03*
X55689750Y-56078500D03*
X55689750Y-57078500D03*
X55689750Y-58078500D03*
D48*
X59564750Y-53778500D03*
X59564750Y-59378500D03*
%TD*%
D49*
%TO.C,J4*%
X30448999Y-41699000D03*
X36228999Y-41699000D03*
D50*
X30088999Y-43025000D03*
X30888999Y-43025000D03*
D51*
X32088999Y-43025000D03*
X33084999Y-43025000D03*
X33588999Y-43025000D03*
X34588999Y-43025000D03*
D50*
X36588999Y-43025000D03*
X35788999Y-43025000D03*
D51*
X35088999Y-43025000D03*
X34088999Y-43025000D03*
X32588999Y-43025000D03*
X31588999Y-43025000D03*
D52*
X29038999Y-38050000D03*
D53*
X29038999Y-42250000D03*
D52*
X37638999Y-38050000D03*
D53*
X37638999Y-42250000D03*
%TD*%
D40*
%TO.C,R1*%
X30418000Y-45286001D03*
X30418000Y-46786001D03*
%TD*%
D54*
%TO.C,U4*%
X53709000Y-57642000D03*
D55*
X52009000Y-57642000D03*
X52009000Y-55642000D03*
X53909000Y-55642000D03*
%TD*%
D15*
%TO.C,D27*%
X98362000Y-85087000D03*
X98362000Y-81787000D03*
%TD*%
D18*
%TO.C,MH1*%
X40337000Y-37450000D03*
%TD*%
D15*
%TO.C,D6*%
X160274500Y-46987000D03*
X160274500Y-43687000D03*
%TD*%
%TO.C,D36*%
X27432000Y-104137000D03*
X27432000Y-100837000D03*
%TD*%
D25*
%TO.C,D42*%
X212662000Y-104137000D03*
X212662000Y-100837000D03*
%TD*%
D15*
%TO.C,D11*%
X260287000Y-46987000D03*
X260287000Y-43687000D03*
%TD*%
%TO.C,D19*%
X184087000Y-66037000D03*
X184087000Y-62737000D03*
%TD*%
D39*
%TO.C,C_3V-Decoup6*%
X97762000Y-96139000D03*
X96802000Y-96139000D03*
%TD*%
D56*
%TO.C,R_Crystal1*%
X99461376Y-101325624D03*
X100182624Y-100604376D03*
%TD*%
D37*
%TO.C,SW1*%
X123825000Y-76195000D03*
D38*
X123825000Y-78735000D03*
%TD*%
D15*
%TO.C,D35*%
X257905750Y-85087000D03*
X257905750Y-81787000D03*
%TD*%
%TO.C,D25*%
X60262000Y-85087000D03*
X60262000Y-81787000D03*
%TD*%
D17*
%TO.C,C_1V-Decoup2*%
X110277589Y-94700411D03*
X110956411Y-94021589D03*
%TD*%
D16*
%TO.C,R_Flash1*%
X123825000Y-82675000D03*
X123825000Y-83695000D03*
%TD*%
D15*
%TO.C,D1*%
X65024500Y-46987000D03*
X65024500Y-43687000D03*
%TD*%
%TO.C,D24*%
X38830750Y-88010000D03*
X38830750Y-84710000D03*
%TD*%
%TO.C,D22*%
X241237000Y-66037000D03*
X241237000Y-62737000D03*
%TD*%
%TO.C,D37*%
X69977000Y-104137000D03*
X69977000Y-100837000D03*
%TD*%
%TO.C,D33*%
X212662000Y-85087000D03*
X212662000Y-81787000D03*
%TD*%
%TO.C,D5*%
X141224500Y-46987000D03*
X141224500Y-43687000D03*
%TD*%
%TO.C,D31*%
X174562000Y-85087000D03*
X174562000Y-81787000D03*
%TD*%
D44*
%TO.C,C_3V-Decoup7*%
X106130411Y-90509411D03*
X105451589Y-89830589D03*
%TD*%
D19*
%TO.C,C_3V-Decoup1*%
X63909000Y-53975000D03*
X64869000Y-53975000D03*
%TD*%
M02*
