%TF.GenerationSoftware,KiCad,Pcbnew,7.0.1*%
%TF.CreationDate,2023-04-12T22:37:38+02:00*%
%TF.ProjectId,no-escape,6e6f2d65-7363-4617-9065-2e6b69636164,rev?*%
%TF.SameCoordinates,Original*%
%TF.FileFunction,Legend,Top*%
%TF.FilePolarity,Positive*%
%FSLAX46Y46*%
G04 Gerber Fmt 4.6, Leading zero omitted, Abs format (unit mm)*
G04 Created by KiCad (PCBNEW 7.0.1) date 2023-04-12 22:37:38*
%MOMM*%
%LPD*%
G01*
G04 APERTURE LIST*
%ADD10C,0.150000*%
%ADD11C,3.987800*%
%ADD12C,1.701800*%
%ADD13C,3.048000*%
%ADD14C,1.750000*%
%ADD15R,1.700000X1.700000*%
%ADD16O,1.700000X1.700000*%
G04 APERTURE END LIST*
D10*
%TO.C,MX41*%
X253635047Y-51389369D02*
X253635047Y-50722702D01*
X253635047Y-50389369D02*
X253587428Y-50436988D01*
X253587428Y-50436988D02*
X253635047Y-50484607D01*
X253635047Y-50484607D02*
X253682666Y-50436988D01*
X253682666Y-50436988D02*
X253635047Y-50389369D01*
X253635047Y-50389369D02*
X253635047Y-50484607D01*
X254063618Y-51341750D02*
X254158856Y-51389369D01*
X254158856Y-51389369D02*
X254349332Y-51389369D01*
X254349332Y-51389369D02*
X254444570Y-51341750D01*
X254444570Y-51341750D02*
X254492189Y-51246511D01*
X254492189Y-51246511D02*
X254492189Y-51198892D01*
X254492189Y-51198892D02*
X254444570Y-51103654D01*
X254444570Y-51103654D02*
X254349332Y-51056035D01*
X254349332Y-51056035D02*
X254206475Y-51056035D01*
X254206475Y-51056035D02*
X254111237Y-51008416D01*
X254111237Y-51008416D02*
X254063618Y-50913178D01*
X254063618Y-50913178D02*
X254063618Y-50865559D01*
X254063618Y-50865559D02*
X254111237Y-50770321D01*
X254111237Y-50770321D02*
X254206475Y-50722702D01*
X254206475Y-50722702D02*
X254349332Y-50722702D01*
X254349332Y-50722702D02*
X254444570Y-50770321D01*
X255063618Y-51389369D02*
X254968380Y-51341750D01*
X254968380Y-51341750D02*
X254920761Y-51294130D01*
X254920761Y-51294130D02*
X254873142Y-51198892D01*
X254873142Y-51198892D02*
X254873142Y-50913178D01*
X254873142Y-50913178D02*
X254920761Y-50817940D01*
X254920761Y-50817940D02*
X254968380Y-50770321D01*
X254968380Y-50770321D02*
X255063618Y-50722702D01*
X255063618Y-50722702D02*
X255206475Y-50722702D01*
X255206475Y-50722702D02*
X255301713Y-50770321D01*
X255301713Y-50770321D02*
X255349332Y-50817940D01*
X255349332Y-50817940D02*
X255396951Y-50913178D01*
X255396951Y-50913178D02*
X255396951Y-51198892D01*
X255396951Y-51198892D02*
X255349332Y-51294130D01*
X255349332Y-51294130D02*
X255301713Y-51341750D01*
X255301713Y-51341750D02*
X255206475Y-51389369D01*
X255206475Y-51389369D02*
X255063618Y-51389369D01*
X255825523Y-51008416D02*
X256587428Y-51008416D01*
X257444570Y-51341750D02*
X257349332Y-51389369D01*
X257349332Y-51389369D02*
X257158856Y-51389369D01*
X257158856Y-51389369D02*
X257063618Y-51341750D01*
X257063618Y-51341750D02*
X257015999Y-51246511D01*
X257015999Y-51246511D02*
X257015999Y-50865559D01*
X257015999Y-50865559D02*
X257063618Y-50770321D01*
X257063618Y-50770321D02*
X257158856Y-50722702D01*
X257158856Y-50722702D02*
X257349332Y-50722702D01*
X257349332Y-50722702D02*
X257444570Y-50770321D01*
X257444570Y-50770321D02*
X257492189Y-50865559D01*
X257492189Y-50865559D02*
X257492189Y-50960797D01*
X257492189Y-50960797D02*
X257015999Y-51056035D01*
X257920761Y-50722702D02*
X257920761Y-51389369D01*
X257920761Y-50817940D02*
X257968380Y-50770321D01*
X257968380Y-50770321D02*
X258063618Y-50722702D01*
X258063618Y-50722702D02*
X258206475Y-50722702D01*
X258206475Y-50722702D02*
X258301713Y-50770321D01*
X258301713Y-50770321D02*
X258349332Y-50865559D01*
X258349332Y-50865559D02*
X258349332Y-51389369D01*
X258682666Y-50722702D02*
X259063618Y-50722702D01*
X258825523Y-50389369D02*
X258825523Y-51246511D01*
X258825523Y-51246511D02*
X258873142Y-51341750D01*
X258873142Y-51341750D02*
X258968380Y-51389369D01*
X258968380Y-51389369D02*
X259063618Y-51389369D01*
X259777904Y-51341750D02*
X259682666Y-51389369D01*
X259682666Y-51389369D02*
X259492190Y-51389369D01*
X259492190Y-51389369D02*
X259396952Y-51341750D01*
X259396952Y-51341750D02*
X259349333Y-51246511D01*
X259349333Y-51246511D02*
X259349333Y-50865559D01*
X259349333Y-50865559D02*
X259396952Y-50770321D01*
X259396952Y-50770321D02*
X259492190Y-50722702D01*
X259492190Y-50722702D02*
X259682666Y-50722702D01*
X259682666Y-50722702D02*
X259777904Y-50770321D01*
X259777904Y-50770321D02*
X259825523Y-50865559D01*
X259825523Y-50865559D02*
X259825523Y-50960797D01*
X259825523Y-50960797D02*
X259349333Y-51056035D01*
X260254095Y-51389369D02*
X260254095Y-50722702D01*
X260254095Y-50913178D02*
X260301714Y-50817940D01*
X260301714Y-50817940D02*
X260349333Y-50770321D01*
X260349333Y-50770321D02*
X260444571Y-50722702D01*
X260444571Y-50722702D02*
X260539809Y-50722702D01*
%TO.C,MX39*%
X156305357Y-97760619D02*
X156972023Y-97760619D01*
X156972023Y-97760619D02*
X156543452Y-98760619D01*
X157352976Y-97760619D02*
X157352976Y-98570142D01*
X157352976Y-98570142D02*
X157400595Y-98665380D01*
X157400595Y-98665380D02*
X157448214Y-98713000D01*
X157448214Y-98713000D02*
X157543452Y-98760619D01*
X157543452Y-98760619D02*
X157733928Y-98760619D01*
X157733928Y-98760619D02*
X157829166Y-98713000D01*
X157829166Y-98713000D02*
X157876785Y-98665380D01*
X157876785Y-98665380D02*
X157924404Y-98570142D01*
X157924404Y-98570142D02*
X157924404Y-97760619D01*
%TO.C,MX37*%
X58102678Y-98760619D02*
X57531250Y-98760619D01*
X57816964Y-98760619D02*
X57816964Y-97760619D01*
X57816964Y-97760619D02*
X57721726Y-97903476D01*
X57721726Y-97903476D02*
X57626488Y-97998714D01*
X57626488Y-97998714D02*
X57531250Y-98046333D01*
X58531250Y-98665380D02*
X58578869Y-98713000D01*
X58578869Y-98713000D02*
X58531250Y-98760619D01*
X58531250Y-98760619D02*
X58483631Y-98713000D01*
X58483631Y-98713000D02*
X58531250Y-98665380D01*
X58531250Y-98665380D02*
X58531250Y-98760619D01*
X58959821Y-97855857D02*
X59007440Y-97808238D01*
X59007440Y-97808238D02*
X59102678Y-97760619D01*
X59102678Y-97760619D02*
X59340773Y-97760619D01*
X59340773Y-97760619D02*
X59436011Y-97808238D01*
X59436011Y-97808238D02*
X59483630Y-97855857D01*
X59483630Y-97855857D02*
X59531249Y-97951095D01*
X59531249Y-97951095D02*
X59531249Y-98046333D01*
X59531249Y-98046333D02*
X59483630Y-98189190D01*
X59483630Y-98189190D02*
X58912202Y-98760619D01*
X58912202Y-98760619D02*
X59531249Y-98760619D01*
X60436011Y-97760619D02*
X59959821Y-97760619D01*
X59959821Y-97760619D02*
X59912202Y-98236809D01*
X59912202Y-98236809D02*
X59959821Y-98189190D01*
X59959821Y-98189190D02*
X60055059Y-98141571D01*
X60055059Y-98141571D02*
X60293154Y-98141571D01*
X60293154Y-98141571D02*
X60388392Y-98189190D01*
X60388392Y-98189190D02*
X60436011Y-98236809D01*
X60436011Y-98236809D02*
X60483630Y-98332047D01*
X60483630Y-98332047D02*
X60483630Y-98570142D01*
X60483630Y-98570142D02*
X60436011Y-98665380D01*
X60436011Y-98665380D02*
X60388392Y-98713000D01*
X60388392Y-98713000D02*
X60293154Y-98760619D01*
X60293154Y-98760619D02*
X60055059Y-98760619D01*
X60055059Y-98760619D02*
X59959821Y-98713000D01*
X59959821Y-98713000D02*
X59912202Y-98665380D01*
X60912202Y-97760619D02*
X60912202Y-98570142D01*
X60912202Y-98570142D02*
X60959821Y-98665380D01*
X60959821Y-98665380D02*
X61007440Y-98713000D01*
X61007440Y-98713000D02*
X61102678Y-98760619D01*
X61102678Y-98760619D02*
X61293154Y-98760619D01*
X61293154Y-98760619D02*
X61388392Y-98713000D01*
X61388392Y-98713000D02*
X61436011Y-98665380D01*
X61436011Y-98665380D02*
X61483630Y-98570142D01*
X61483630Y-98570142D02*
X61483630Y-97760619D01*
%TO.C,MX35*%
X253365178Y-79710619D02*
X252793750Y-79710619D01*
X253079464Y-79710619D02*
X253079464Y-78710619D01*
X253079464Y-78710619D02*
X252984226Y-78853476D01*
X252984226Y-78853476D02*
X252888988Y-78948714D01*
X252888988Y-78948714D02*
X252793750Y-78996333D01*
X253793750Y-79615380D02*
X253841369Y-79663000D01*
X253841369Y-79663000D02*
X253793750Y-79710619D01*
X253793750Y-79710619D02*
X253746131Y-79663000D01*
X253746131Y-79663000D02*
X253793750Y-79615380D01*
X253793750Y-79615380D02*
X253793750Y-79710619D01*
X254174702Y-78710619D02*
X254841368Y-78710619D01*
X254841368Y-78710619D02*
X254412797Y-79710619D01*
X255698511Y-78710619D02*
X255222321Y-78710619D01*
X255222321Y-78710619D02*
X255174702Y-79186809D01*
X255174702Y-79186809D02*
X255222321Y-79139190D01*
X255222321Y-79139190D02*
X255317559Y-79091571D01*
X255317559Y-79091571D02*
X255555654Y-79091571D01*
X255555654Y-79091571D02*
X255650892Y-79139190D01*
X255650892Y-79139190D02*
X255698511Y-79186809D01*
X255698511Y-79186809D02*
X255746130Y-79282047D01*
X255746130Y-79282047D02*
X255746130Y-79520142D01*
X255746130Y-79520142D02*
X255698511Y-79615380D01*
X255698511Y-79615380D02*
X255650892Y-79663000D01*
X255650892Y-79663000D02*
X255555654Y-79710619D01*
X255555654Y-79710619D02*
X255317559Y-79710619D01*
X255317559Y-79710619D02*
X255222321Y-79663000D01*
X255222321Y-79663000D02*
X255174702Y-79615380D01*
X256174702Y-78710619D02*
X256174702Y-79520142D01*
X256174702Y-79520142D02*
X256222321Y-79615380D01*
X256222321Y-79615380D02*
X256269940Y-79663000D01*
X256269940Y-79663000D02*
X256365178Y-79710619D01*
X256365178Y-79710619D02*
X256555654Y-79710619D01*
X256555654Y-79710619D02*
X256650892Y-79663000D01*
X256650892Y-79663000D02*
X256698511Y-79615380D01*
X256698511Y-79615380D02*
X256746130Y-79520142D01*
X256746130Y-79520142D02*
X256746130Y-78710619D01*
%TO.C,MX24*%
X34290178Y-79710619D02*
X33718750Y-79710619D01*
X34004464Y-79710619D02*
X34004464Y-78710619D01*
X34004464Y-78710619D02*
X33909226Y-78853476D01*
X33909226Y-78853476D02*
X33813988Y-78948714D01*
X33813988Y-78948714D02*
X33718750Y-78996333D01*
X34718750Y-79615380D02*
X34766369Y-79663000D01*
X34766369Y-79663000D02*
X34718750Y-79710619D01*
X34718750Y-79710619D02*
X34671131Y-79663000D01*
X34671131Y-79663000D02*
X34718750Y-79615380D01*
X34718750Y-79615380D02*
X34718750Y-79710619D01*
X35147321Y-78805857D02*
X35194940Y-78758238D01*
X35194940Y-78758238D02*
X35290178Y-78710619D01*
X35290178Y-78710619D02*
X35528273Y-78710619D01*
X35528273Y-78710619D02*
X35623511Y-78758238D01*
X35623511Y-78758238D02*
X35671130Y-78805857D01*
X35671130Y-78805857D02*
X35718749Y-78901095D01*
X35718749Y-78901095D02*
X35718749Y-78996333D01*
X35718749Y-78996333D02*
X35671130Y-79139190D01*
X35671130Y-79139190D02*
X35099702Y-79710619D01*
X35099702Y-79710619D02*
X35718749Y-79710619D01*
X36623511Y-78710619D02*
X36147321Y-78710619D01*
X36147321Y-78710619D02*
X36099702Y-79186809D01*
X36099702Y-79186809D02*
X36147321Y-79139190D01*
X36147321Y-79139190D02*
X36242559Y-79091571D01*
X36242559Y-79091571D02*
X36480654Y-79091571D01*
X36480654Y-79091571D02*
X36575892Y-79139190D01*
X36575892Y-79139190D02*
X36623511Y-79186809D01*
X36623511Y-79186809D02*
X36671130Y-79282047D01*
X36671130Y-79282047D02*
X36671130Y-79520142D01*
X36671130Y-79520142D02*
X36623511Y-79615380D01*
X36623511Y-79615380D02*
X36575892Y-79663000D01*
X36575892Y-79663000D02*
X36480654Y-79710619D01*
X36480654Y-79710619D02*
X36242559Y-79710619D01*
X36242559Y-79710619D02*
X36147321Y-79663000D01*
X36147321Y-79663000D02*
X36099702Y-79615380D01*
X37099702Y-78710619D02*
X37099702Y-79520142D01*
X37099702Y-79520142D02*
X37147321Y-79615380D01*
X37147321Y-79615380D02*
X37194940Y-79663000D01*
X37194940Y-79663000D02*
X37290178Y-79710619D01*
X37290178Y-79710619D02*
X37480654Y-79710619D01*
X37480654Y-79710619D02*
X37575892Y-79663000D01*
X37575892Y-79663000D02*
X37623511Y-79615380D01*
X37623511Y-79615380D02*
X37671130Y-79520142D01*
X37671130Y-79520142D02*
X37671130Y-78710619D01*
%TO.C,MX23*%
X258127678Y-60660619D02*
X257556250Y-60660619D01*
X257841964Y-60660619D02*
X257841964Y-59660619D01*
X257841964Y-59660619D02*
X257746726Y-59803476D01*
X257746726Y-59803476D02*
X257651488Y-59898714D01*
X257651488Y-59898714D02*
X257556250Y-59946333D01*
X258556250Y-60565380D02*
X258603869Y-60613000D01*
X258603869Y-60613000D02*
X258556250Y-60660619D01*
X258556250Y-60660619D02*
X258508631Y-60613000D01*
X258508631Y-60613000D02*
X258556250Y-60565380D01*
X258556250Y-60565380D02*
X258556250Y-60660619D01*
X258984821Y-59755857D02*
X259032440Y-59708238D01*
X259032440Y-59708238D02*
X259127678Y-59660619D01*
X259127678Y-59660619D02*
X259365773Y-59660619D01*
X259365773Y-59660619D02*
X259461011Y-59708238D01*
X259461011Y-59708238D02*
X259508630Y-59755857D01*
X259508630Y-59755857D02*
X259556249Y-59851095D01*
X259556249Y-59851095D02*
X259556249Y-59946333D01*
X259556249Y-59946333D02*
X259508630Y-60089190D01*
X259508630Y-60089190D02*
X258937202Y-60660619D01*
X258937202Y-60660619D02*
X259556249Y-60660619D01*
X260461011Y-59660619D02*
X259984821Y-59660619D01*
X259984821Y-59660619D02*
X259937202Y-60136809D01*
X259937202Y-60136809D02*
X259984821Y-60089190D01*
X259984821Y-60089190D02*
X260080059Y-60041571D01*
X260080059Y-60041571D02*
X260318154Y-60041571D01*
X260318154Y-60041571D02*
X260413392Y-60089190D01*
X260413392Y-60089190D02*
X260461011Y-60136809D01*
X260461011Y-60136809D02*
X260508630Y-60232047D01*
X260508630Y-60232047D02*
X260508630Y-60470142D01*
X260508630Y-60470142D02*
X260461011Y-60565380D01*
X260461011Y-60565380D02*
X260413392Y-60613000D01*
X260413392Y-60613000D02*
X260318154Y-60660619D01*
X260318154Y-60660619D02*
X260080059Y-60660619D01*
X260080059Y-60660619D02*
X259984821Y-60613000D01*
X259984821Y-60613000D02*
X259937202Y-60565380D01*
X260937202Y-59660619D02*
X260937202Y-60470142D01*
X260937202Y-60470142D02*
X260984821Y-60565380D01*
X260984821Y-60565380D02*
X261032440Y-60613000D01*
X261032440Y-60613000D02*
X261127678Y-60660619D01*
X261127678Y-60660619D02*
X261318154Y-60660619D01*
X261318154Y-60660619D02*
X261413392Y-60613000D01*
X261413392Y-60613000D02*
X261461011Y-60565380D01*
X261461011Y-60565380D02*
X261508630Y-60470142D01*
X261508630Y-60470142D02*
X261508630Y-59660619D01*
%TO.C,MX36*%
X34290178Y-98760619D02*
X33718750Y-98760619D01*
X34004464Y-98760619D02*
X34004464Y-97760619D01*
X34004464Y-97760619D02*
X33909226Y-97903476D01*
X33909226Y-97903476D02*
X33813988Y-97998714D01*
X33813988Y-97998714D02*
X33718750Y-98046333D01*
X34718750Y-98665380D02*
X34766369Y-98713000D01*
X34766369Y-98713000D02*
X34718750Y-98760619D01*
X34718750Y-98760619D02*
X34671131Y-98713000D01*
X34671131Y-98713000D02*
X34718750Y-98665380D01*
X34718750Y-98665380D02*
X34718750Y-98760619D01*
X35147321Y-97855857D02*
X35194940Y-97808238D01*
X35194940Y-97808238D02*
X35290178Y-97760619D01*
X35290178Y-97760619D02*
X35528273Y-97760619D01*
X35528273Y-97760619D02*
X35623511Y-97808238D01*
X35623511Y-97808238D02*
X35671130Y-97855857D01*
X35671130Y-97855857D02*
X35718749Y-97951095D01*
X35718749Y-97951095D02*
X35718749Y-98046333D01*
X35718749Y-98046333D02*
X35671130Y-98189190D01*
X35671130Y-98189190D02*
X35099702Y-98760619D01*
X35099702Y-98760619D02*
X35718749Y-98760619D01*
X36623511Y-97760619D02*
X36147321Y-97760619D01*
X36147321Y-97760619D02*
X36099702Y-98236809D01*
X36099702Y-98236809D02*
X36147321Y-98189190D01*
X36147321Y-98189190D02*
X36242559Y-98141571D01*
X36242559Y-98141571D02*
X36480654Y-98141571D01*
X36480654Y-98141571D02*
X36575892Y-98189190D01*
X36575892Y-98189190D02*
X36623511Y-98236809D01*
X36623511Y-98236809D02*
X36671130Y-98332047D01*
X36671130Y-98332047D02*
X36671130Y-98570142D01*
X36671130Y-98570142D02*
X36623511Y-98665380D01*
X36623511Y-98665380D02*
X36575892Y-98713000D01*
X36575892Y-98713000D02*
X36480654Y-98760619D01*
X36480654Y-98760619D02*
X36242559Y-98760619D01*
X36242559Y-98760619D02*
X36147321Y-98713000D01*
X36147321Y-98713000D02*
X36099702Y-98665380D01*
X37099702Y-97760619D02*
X37099702Y-98570142D01*
X37099702Y-98570142D02*
X37147321Y-98665380D01*
X37147321Y-98665380D02*
X37194940Y-98713000D01*
X37194940Y-98713000D02*
X37290178Y-98760619D01*
X37290178Y-98760619D02*
X37480654Y-98760619D01*
X37480654Y-98760619D02*
X37575892Y-98713000D01*
X37575892Y-98713000D02*
X37623511Y-98665380D01*
X37623511Y-98665380D02*
X37671130Y-98570142D01*
X37671130Y-98570142D02*
X37671130Y-97760619D01*
%TO.C,MX42*%
X248507357Y-59755848D02*
X248554976Y-59708229D01*
X248554976Y-59708229D02*
X248650214Y-59660610D01*
X248650214Y-59660610D02*
X248888309Y-59660610D01*
X248888309Y-59660610D02*
X248983547Y-59708229D01*
X248983547Y-59708229D02*
X249031166Y-59755848D01*
X249031166Y-59755848D02*
X249078785Y-59851086D01*
X249078785Y-59851086D02*
X249078785Y-59946324D01*
X249078785Y-59946324D02*
X249031166Y-60089181D01*
X249031166Y-60089181D02*
X248459738Y-60660610D01*
X248459738Y-60660610D02*
X249078785Y-60660610D01*
X249507357Y-60565371D02*
X249554976Y-60612991D01*
X249554976Y-60612991D02*
X249507357Y-60660610D01*
X249507357Y-60660610D02*
X249459738Y-60612991D01*
X249459738Y-60612991D02*
X249507357Y-60565371D01*
X249507357Y-60565371D02*
X249507357Y-60660610D01*
X250459737Y-59660610D02*
X249983547Y-59660610D01*
X249983547Y-59660610D02*
X249935928Y-60136800D01*
X249935928Y-60136800D02*
X249983547Y-60089181D01*
X249983547Y-60089181D02*
X250078785Y-60041562D01*
X250078785Y-60041562D02*
X250316880Y-60041562D01*
X250316880Y-60041562D02*
X250412118Y-60089181D01*
X250412118Y-60089181D02*
X250459737Y-60136800D01*
X250459737Y-60136800D02*
X250507356Y-60232038D01*
X250507356Y-60232038D02*
X250507356Y-60470133D01*
X250507356Y-60470133D02*
X250459737Y-60565371D01*
X250459737Y-60565371D02*
X250412118Y-60612991D01*
X250412118Y-60612991D02*
X250316880Y-60660610D01*
X250316880Y-60660610D02*
X250078785Y-60660610D01*
X250078785Y-60660610D02*
X249983547Y-60612991D01*
X249983547Y-60612991D02*
X249935928Y-60565371D01*
X250935928Y-59660610D02*
X250935928Y-60470133D01*
X250935928Y-60470133D02*
X250983547Y-60565371D01*
X250983547Y-60565371D02*
X251031166Y-60612991D01*
X251031166Y-60612991D02*
X251126404Y-60660610D01*
X251126404Y-60660610D02*
X251316880Y-60660610D01*
X251316880Y-60660610D02*
X251412118Y-60612991D01*
X251412118Y-60612991D02*
X251459737Y-60565371D01*
X251459737Y-60565371D02*
X251507356Y-60470133D01*
X251507356Y-60470133D02*
X251507356Y-59660610D01*
%TO.C,MX43*%
X43719941Y-78805857D02*
X43767560Y-78758238D01*
X43767560Y-78758238D02*
X43862798Y-78710619D01*
X43862798Y-78710619D02*
X44100893Y-78710619D01*
X44100893Y-78710619D02*
X44196131Y-78758238D01*
X44196131Y-78758238D02*
X44243750Y-78805857D01*
X44243750Y-78805857D02*
X44291369Y-78901095D01*
X44291369Y-78901095D02*
X44291369Y-78996333D01*
X44291369Y-78996333D02*
X44243750Y-79139190D01*
X44243750Y-79139190D02*
X43672322Y-79710619D01*
X43672322Y-79710619D02*
X44291369Y-79710619D01*
X44719941Y-79615380D02*
X44767560Y-79663000D01*
X44767560Y-79663000D02*
X44719941Y-79710619D01*
X44719941Y-79710619D02*
X44672322Y-79663000D01*
X44672322Y-79663000D02*
X44719941Y-79615380D01*
X44719941Y-79615380D02*
X44719941Y-79710619D01*
X45672321Y-78710619D02*
X45196131Y-78710619D01*
X45196131Y-78710619D02*
X45148512Y-79186809D01*
X45148512Y-79186809D02*
X45196131Y-79139190D01*
X45196131Y-79139190D02*
X45291369Y-79091571D01*
X45291369Y-79091571D02*
X45529464Y-79091571D01*
X45529464Y-79091571D02*
X45624702Y-79139190D01*
X45624702Y-79139190D02*
X45672321Y-79186809D01*
X45672321Y-79186809D02*
X45719940Y-79282047D01*
X45719940Y-79282047D02*
X45719940Y-79520142D01*
X45719940Y-79520142D02*
X45672321Y-79615380D01*
X45672321Y-79615380D02*
X45624702Y-79663000D01*
X45624702Y-79663000D02*
X45529464Y-79710619D01*
X45529464Y-79710619D02*
X45291369Y-79710619D01*
X45291369Y-79710619D02*
X45196131Y-79663000D01*
X45196131Y-79663000D02*
X45148512Y-79615380D01*
X46148512Y-78710619D02*
X46148512Y-79520142D01*
X46148512Y-79520142D02*
X46196131Y-79615380D01*
X46196131Y-79615380D02*
X46243750Y-79663000D01*
X46243750Y-79663000D02*
X46338988Y-79710619D01*
X46338988Y-79710619D02*
X46529464Y-79710619D01*
X46529464Y-79710619D02*
X46624702Y-79663000D01*
X46624702Y-79663000D02*
X46672321Y-79615380D01*
X46672321Y-79615380D02*
X46719940Y-79520142D01*
X46719940Y-79520142D02*
X46719940Y-78710619D01*
%TO.C,MX44*%
X147081952Y-98316190D02*
X146986714Y-98268571D01*
X146986714Y-98268571D02*
X146939095Y-98220952D01*
X146939095Y-98220952D02*
X146891476Y-98125714D01*
X146891476Y-98125714D02*
X146891476Y-98078095D01*
X146891476Y-98078095D02*
X146939095Y-97982857D01*
X146939095Y-97982857D02*
X146986714Y-97935238D01*
X146986714Y-97935238D02*
X147081952Y-97887619D01*
X147081952Y-97887619D02*
X147272428Y-97887619D01*
X147272428Y-97887619D02*
X147367666Y-97935238D01*
X147367666Y-97935238D02*
X147415285Y-97982857D01*
X147415285Y-97982857D02*
X147462904Y-98078095D01*
X147462904Y-98078095D02*
X147462904Y-98125714D01*
X147462904Y-98125714D02*
X147415285Y-98220952D01*
X147415285Y-98220952D02*
X147367666Y-98268571D01*
X147367666Y-98268571D02*
X147272428Y-98316190D01*
X147272428Y-98316190D02*
X147081952Y-98316190D01*
X147081952Y-98316190D02*
X146986714Y-98363809D01*
X146986714Y-98363809D02*
X146939095Y-98411428D01*
X146939095Y-98411428D02*
X146891476Y-98506666D01*
X146891476Y-98506666D02*
X146891476Y-98697142D01*
X146891476Y-98697142D02*
X146939095Y-98792380D01*
X146939095Y-98792380D02*
X146986714Y-98840000D01*
X146986714Y-98840000D02*
X147081952Y-98887619D01*
X147081952Y-98887619D02*
X147272428Y-98887619D01*
X147272428Y-98887619D02*
X147367666Y-98840000D01*
X147367666Y-98840000D02*
X147415285Y-98792380D01*
X147415285Y-98792380D02*
X147462904Y-98697142D01*
X147462904Y-98697142D02*
X147462904Y-98506666D01*
X147462904Y-98506666D02*
X147415285Y-98411428D01*
X147415285Y-98411428D02*
X147367666Y-98363809D01*
X147367666Y-98363809D02*
X147272428Y-98316190D01*
X147891476Y-97887619D02*
X147891476Y-98697142D01*
X147891476Y-98697142D02*
X147939095Y-98792380D01*
X147939095Y-98792380D02*
X147986714Y-98840000D01*
X147986714Y-98840000D02*
X148081952Y-98887619D01*
X148081952Y-98887619D02*
X148272428Y-98887619D01*
X148272428Y-98887619D02*
X148367666Y-98840000D01*
X148367666Y-98840000D02*
X148415285Y-98792380D01*
X148415285Y-98792380D02*
X148462904Y-98697142D01*
X148462904Y-98697142D02*
X148462904Y-97887619D01*
%TO.C,MX11*%
X256222619Y-41610619D02*
X255651191Y-41610619D01*
X255936905Y-41610619D02*
X255936905Y-40610619D01*
X255936905Y-40610619D02*
X255841667Y-40753476D01*
X255841667Y-40753476D02*
X255746429Y-40848714D01*
X255746429Y-40848714D02*
X255651191Y-40896333D01*
X256651191Y-41515380D02*
X256698810Y-41563000D01*
X256698810Y-41563000D02*
X256651191Y-41610619D01*
X256651191Y-41610619D02*
X256603572Y-41563000D01*
X256603572Y-41563000D02*
X256651191Y-41515380D01*
X256651191Y-41515380D02*
X256651191Y-41610619D01*
X257603571Y-40610619D02*
X257127381Y-40610619D01*
X257127381Y-40610619D02*
X257079762Y-41086809D01*
X257079762Y-41086809D02*
X257127381Y-41039190D01*
X257127381Y-41039190D02*
X257222619Y-40991571D01*
X257222619Y-40991571D02*
X257460714Y-40991571D01*
X257460714Y-40991571D02*
X257555952Y-41039190D01*
X257555952Y-41039190D02*
X257603571Y-41086809D01*
X257603571Y-41086809D02*
X257651190Y-41182047D01*
X257651190Y-41182047D02*
X257651190Y-41420142D01*
X257651190Y-41420142D02*
X257603571Y-41515380D01*
X257603571Y-41515380D02*
X257555952Y-41563000D01*
X257555952Y-41563000D02*
X257460714Y-41610619D01*
X257460714Y-41610619D02*
X257222619Y-41610619D01*
X257222619Y-41610619D02*
X257127381Y-41563000D01*
X257127381Y-41563000D02*
X257079762Y-41515380D01*
X258079762Y-40610619D02*
X258079762Y-41420142D01*
X258079762Y-41420142D02*
X258127381Y-41515380D01*
X258127381Y-41515380D02*
X258175000Y-41563000D01*
X258175000Y-41563000D02*
X258270238Y-41610619D01*
X258270238Y-41610619D02*
X258460714Y-41610619D01*
X258460714Y-41610619D02*
X258555952Y-41563000D01*
X258555952Y-41563000D02*
X258603571Y-41515380D01*
X258603571Y-41515380D02*
X258651190Y-41420142D01*
X258651190Y-41420142D02*
X258651190Y-40610619D01*
%TO.C,MX41*%
X252556000Y-58974750D02*
X252556000Y-60974750D01*
X252556000Y-60974750D02*
X254556000Y-60974750D01*
X264556000Y-46974750D02*
X266556000Y-46974750D01*
X266556000Y-46974750D02*
X266556000Y-48974750D01*
%TO.C,MX29*%
X126350000Y-87550000D02*
X126350000Y-89550000D01*
X126350000Y-89550000D02*
X128350000Y-89550000D01*
X138350000Y-75550000D02*
X140350000Y-75550000D01*
X140350000Y-75550000D02*
X140350000Y-77550000D01*
%TO.C,MX39*%
X150162500Y-106600000D02*
X150162500Y-108600000D01*
X150162500Y-108600000D02*
X152162500Y-108600000D01*
X162162500Y-94600000D02*
X164162500Y-94600000D01*
X164162500Y-94600000D02*
X164162500Y-96600000D01*
%TO.C,MX30*%
X145400000Y-87550000D02*
X145400000Y-89550000D01*
X145400000Y-89550000D02*
X147400000Y-89550000D01*
X157400000Y-75550000D02*
X159400000Y-75550000D01*
X159400000Y-75550000D02*
X159400000Y-77550000D01*
%TO.C,MX37*%
X52531250Y-106600000D02*
X52531250Y-108600000D01*
X52531250Y-108600000D02*
X54531250Y-108600000D01*
X64531250Y-94600000D02*
X66531250Y-94600000D01*
X66531250Y-94600000D02*
X66531250Y-96600000D01*
%TO.C,MX40*%
X226362500Y-106600000D02*
X226362500Y-108600000D01*
X226362500Y-108600000D02*
X228362500Y-108600000D01*
X238362500Y-94600000D02*
X240362500Y-94600000D01*
X240362500Y-94600000D02*
X240362500Y-96600000D01*
%TO.C,MX7*%
X169212500Y-49450000D02*
X169212500Y-51450000D01*
X169212500Y-51450000D02*
X171212500Y-51450000D01*
X181212500Y-37450000D02*
X183212500Y-37450000D01*
X183212500Y-37450000D02*
X183212500Y-39450000D01*
%TO.C,MX27*%
X88250000Y-87550000D02*
X88250000Y-89550000D01*
X88250000Y-89550000D02*
X90250000Y-89550000D01*
X100250000Y-75550000D02*
X102250000Y-75550000D01*
X102250000Y-75550000D02*
X102250000Y-77550000D01*
%TO.C,MX17*%
X135875000Y-68500000D02*
X135875000Y-70500000D01*
X135875000Y-70500000D02*
X137875000Y-70500000D01*
X147875000Y-56500000D02*
X149875000Y-56500000D01*
X149875000Y-56500000D02*
X149875000Y-58500000D01*
%TO.C,MX1*%
X54912500Y-49450000D02*
X54912500Y-51450000D01*
X54912500Y-51450000D02*
X56912500Y-51450000D01*
X66912500Y-37450000D02*
X68912500Y-37450000D01*
X68912500Y-37450000D02*
X68912500Y-39450000D01*
%TO.C,MX15*%
X97775000Y-68500000D02*
X97775000Y-70500000D01*
X97775000Y-70500000D02*
X99775000Y-70500000D01*
X109775000Y-56500000D02*
X111775000Y-56500000D01*
X111775000Y-56500000D02*
X111775000Y-58500000D01*
%TO.C,MX32*%
X183500000Y-87550000D02*
X183500000Y-89550000D01*
X183500000Y-89550000D02*
X185500000Y-89550000D01*
X195500000Y-75550000D02*
X197500000Y-75550000D01*
X197500000Y-75550000D02*
X197500000Y-77550000D01*
%TO.C,MX35*%
X247793750Y-87550000D02*
X247793750Y-89550000D01*
X247793750Y-89550000D02*
X249793750Y-89550000D01*
X259793750Y-75550000D02*
X261793750Y-75550000D01*
X261793750Y-75550000D02*
X261793750Y-77550000D01*
%TO.C,MX24*%
X28718750Y-87550000D02*
X28718750Y-89550000D01*
X28718750Y-89550000D02*
X30718750Y-89550000D01*
X40718750Y-75550000D02*
X42718750Y-75550000D01*
X42718750Y-75550000D02*
X42718750Y-77550000D01*
%TO.C,MX13*%
X59675000Y-68500000D02*
X59675000Y-70500000D01*
X59675000Y-70500000D02*
X61675000Y-70500000D01*
X71675000Y-56500000D02*
X73675000Y-56500000D01*
X73675000Y-56500000D02*
X73675000Y-58500000D01*
%TO.C,MX23*%
X252556250Y-68500000D02*
X252556250Y-70500000D01*
X252556250Y-70500000D02*
X254556250Y-70500000D01*
X264556250Y-56500000D02*
X266556250Y-56500000D01*
X266556250Y-56500000D02*
X266556250Y-58500000D01*
%TO.C,MX9*%
X207312500Y-49450000D02*
X207312500Y-51450000D01*
X207312500Y-51450000D02*
X209312500Y-51450000D01*
X219312500Y-37450000D02*
X221312500Y-37450000D01*
X221312500Y-37450000D02*
X221312500Y-39450000D01*
%TO.C,MX31*%
X164450000Y-87550000D02*
X164450000Y-89550000D01*
X164450000Y-89550000D02*
X166450000Y-89550000D01*
X176450000Y-75550000D02*
X178450000Y-75550000D01*
X178450000Y-75550000D02*
X178450000Y-77550000D01*
%TO.C,MX14*%
X78725000Y-68500000D02*
X78725000Y-70500000D01*
X78725000Y-70500000D02*
X80725000Y-70500000D01*
X90725000Y-56500000D02*
X92725000Y-56500000D01*
X92725000Y-56500000D02*
X92725000Y-58500000D01*
%TO.C,MX10*%
X226362500Y-49450000D02*
X226362500Y-51450000D01*
X226362500Y-51450000D02*
X228362500Y-51450000D01*
X238362500Y-37450000D02*
X240362500Y-37450000D01*
X240362500Y-37450000D02*
X240362500Y-39450000D01*
%TO.C,MX20*%
X193025000Y-68500000D02*
X193025000Y-70500000D01*
X193025000Y-70500000D02*
X195025000Y-70500000D01*
X205025000Y-56500000D02*
X207025000Y-56500000D01*
X207025000Y-56500000D02*
X207025000Y-58500000D01*
%TO.C,MX25*%
X50150000Y-87550000D02*
X50150000Y-89550000D01*
X50150000Y-89550000D02*
X52150000Y-89550000D01*
X62150000Y-75550000D02*
X64150000Y-75550000D01*
X64150000Y-75550000D02*
X64150000Y-77550000D01*
%TO.C,MX22*%
X231125000Y-68500000D02*
X231125000Y-70500000D01*
X231125000Y-70500000D02*
X233125000Y-70500000D01*
X243125000Y-56500000D02*
X245125000Y-56500000D01*
X245125000Y-56500000D02*
X245125000Y-58500000D01*
%TO.C,MX5*%
X131112500Y-49450000D02*
X131112500Y-51450000D01*
X131112500Y-51450000D02*
X133112500Y-51450000D01*
X143112500Y-37450000D02*
X145112500Y-37450000D01*
X145112500Y-37450000D02*
X145112500Y-39450000D01*
%TO.C,MX36*%
X28718750Y-106600000D02*
X28718750Y-108600000D01*
X28718750Y-108600000D02*
X30718750Y-108600000D01*
X40718750Y-94600000D02*
X42718750Y-94600000D01*
X42718750Y-94600000D02*
X42718750Y-96600000D01*
%TO.C,MX42*%
X243031166Y-68499991D02*
X243031166Y-70499991D01*
X243031166Y-70499991D02*
X245031166Y-70499991D01*
X255031166Y-56499991D02*
X257031166Y-56499991D01*
X257031166Y-56499991D02*
X257031166Y-58499991D01*
%TO.C,MX43*%
X38243750Y-87550000D02*
X38243750Y-89550000D01*
X38243750Y-89550000D02*
X40243750Y-89550000D01*
X50243750Y-75550000D02*
X52243750Y-75550000D01*
X52243750Y-75550000D02*
X52243750Y-77550000D01*
%TO.C,MX18*%
X154925000Y-68500000D02*
X154925000Y-70500000D01*
X154925000Y-70500000D02*
X156925000Y-70500000D01*
X166925000Y-56500000D02*
X168925000Y-56500000D01*
X168925000Y-56500000D02*
X168925000Y-58500000D01*
%TO.C,MX44*%
X140637916Y-106599991D02*
X140637916Y-108599991D01*
X140637916Y-108599991D02*
X142637916Y-108599991D01*
X152637916Y-94599991D02*
X154637916Y-94599991D01*
X154637916Y-94599991D02*
X154637916Y-96599991D01*
%TO.C,MX6*%
X150162500Y-49450000D02*
X150162500Y-51450000D01*
X150162500Y-51450000D02*
X152162500Y-51450000D01*
X162162500Y-37450000D02*
X164162500Y-37450000D01*
X164162500Y-37450000D02*
X164162500Y-39450000D01*
%TO.C,MX21*%
X212075000Y-68500000D02*
X212075000Y-70500000D01*
X212075000Y-70500000D02*
X214075000Y-70500000D01*
X224075000Y-56500000D02*
X226075000Y-56500000D01*
X226075000Y-56500000D02*
X226075000Y-58500000D01*
%TO.C,MX16*%
X116825000Y-68500000D02*
X116825000Y-70500000D01*
X116825000Y-70500000D02*
X118825000Y-70500000D01*
X128825000Y-56500000D02*
X130825000Y-56500000D01*
X130825000Y-56500000D02*
X130825000Y-58500000D01*
%TO.C,MX8*%
X188262500Y-49450000D02*
X188262500Y-51450000D01*
X188262500Y-51450000D02*
X190262500Y-51450000D01*
X200262500Y-37450000D02*
X202262500Y-37450000D01*
X202262500Y-37450000D02*
X202262500Y-39450000D01*
%TO.C,MX11*%
X250175000Y-49450000D02*
X250175000Y-51450000D01*
X250175000Y-51450000D02*
X252175000Y-51450000D01*
X262175000Y-37450000D02*
X264175000Y-37450000D01*
X264175000Y-37450000D02*
X264175000Y-39450000D01*
%TO.C,MX12*%
X28718250Y-68500000D02*
X28718250Y-70500000D01*
X28718250Y-70500000D02*
X30718250Y-70500000D01*
X45481250Y-56500000D02*
X47481250Y-56500000D01*
X47481250Y-56500000D02*
X47481250Y-58500000D01*
%TO.C,MX3*%
X93012500Y-49450000D02*
X93012500Y-51450000D01*
X93012500Y-51450000D02*
X95012500Y-51450000D01*
X105012500Y-37450000D02*
X107012500Y-37450000D01*
X107012500Y-37450000D02*
X107012500Y-39450000D01*
%TO.C,MX33*%
X202550000Y-87550000D02*
X202550000Y-89550000D01*
X202550000Y-89550000D02*
X204550000Y-89550000D01*
X214550000Y-75550000D02*
X216550000Y-75550000D01*
X216550000Y-75550000D02*
X216550000Y-77550000D01*
%TO.C,MX34*%
X221600000Y-87550000D02*
X221600000Y-89550000D01*
X221600000Y-89550000D02*
X223600000Y-89550000D01*
X233600000Y-75550000D02*
X235600000Y-75550000D01*
X235600000Y-75550000D02*
X235600000Y-77550000D01*
%TO.C,MX4*%
X112062500Y-49450000D02*
X112062500Y-51450000D01*
X112062500Y-51450000D02*
X114062500Y-51450000D01*
X124062500Y-37450000D02*
X126062500Y-37450000D01*
X126062500Y-37450000D02*
X126062500Y-39450000D01*
%TO.C,MX19*%
X173975000Y-68500000D02*
X173975000Y-70500000D01*
X173975000Y-70500000D02*
X175975000Y-70500000D01*
X185975000Y-56500000D02*
X187975000Y-56500000D01*
X187975000Y-56500000D02*
X187975000Y-58500000D01*
%TO.C,MX28*%
X107300000Y-87550000D02*
X107300000Y-89550000D01*
X107300000Y-89550000D02*
X109300000Y-89550000D01*
X119300000Y-75550000D02*
X121300000Y-75550000D01*
X121300000Y-75550000D02*
X121300000Y-77550000D01*
%TO.C,MX26*%
X69200000Y-87550000D02*
X69200000Y-89550000D01*
X69200000Y-89550000D02*
X71200000Y-89550000D01*
X81200000Y-75550000D02*
X83200000Y-75550000D01*
X83200000Y-75550000D02*
X83200000Y-77550000D01*
%TO.C,MX38*%
X73962500Y-106600000D02*
X73962500Y-108600000D01*
X73962500Y-108600000D02*
X75962500Y-108600000D01*
X85962500Y-94600000D02*
X87962500Y-94600000D01*
X87962500Y-94600000D02*
X87962500Y-96600000D01*
%TO.C,MX2*%
X73962500Y-49450000D02*
X73962500Y-51450000D01*
X73962500Y-51450000D02*
X75962500Y-51450000D01*
X85962500Y-37450000D02*
X87962500Y-37450000D01*
X87962500Y-37450000D02*
X87962500Y-39450000D01*
%TD*%
%LPC*%
D11*
%TO.C,MX41*%
X251301000Y-42036750D03*
X251301000Y-65912750D03*
D12*
X259556000Y-48894750D03*
D11*
X259556000Y-53974750D03*
D12*
X259556000Y-59054750D03*
D13*
X266541000Y-42036750D03*
X266541000Y-65912750D03*
%TD*%
D14*
%TO.C,MX29*%
X128270000Y-82550000D03*
D11*
X133350000Y-82550000D03*
D14*
X138430000Y-82550000D03*
%TD*%
D11*
%TO.C,MX39*%
X100012500Y-93345000D03*
D13*
X100012500Y-108585000D03*
D14*
X152082500Y-101600000D03*
D11*
X157162500Y-101600000D03*
D14*
X162242500Y-101600000D03*
D11*
X214312500Y-93345000D03*
D13*
X214312500Y-108585000D03*
%TD*%
D14*
%TO.C,MX30*%
X147320000Y-82550000D03*
D11*
X152400000Y-82550000D03*
D14*
X157480000Y-82550000D03*
%TD*%
%TO.C,MX37*%
X54451250Y-101600000D03*
D11*
X59531250Y-101600000D03*
D14*
X64611250Y-101600000D03*
%TD*%
%TO.C,MX40*%
X228282500Y-101600000D03*
D11*
X233362500Y-101600000D03*
D14*
X238442500Y-101600000D03*
%TD*%
%TO.C,MX7*%
X171132500Y-44450000D03*
D11*
X176212500Y-44450000D03*
D14*
X181292500Y-44450000D03*
%TD*%
%TO.C,MX27*%
X90170000Y-82550000D03*
D11*
X95250000Y-82550000D03*
D14*
X100330000Y-82550000D03*
%TD*%
%TO.C,MX17*%
X137795000Y-63500000D03*
D11*
X142875000Y-63500000D03*
D14*
X147955000Y-63500000D03*
%TD*%
%TO.C,MX1*%
X56832500Y-44450000D03*
D11*
X61912500Y-44450000D03*
D14*
X66992500Y-44450000D03*
%TD*%
%TO.C,MX15*%
X99695000Y-63500000D03*
D11*
X104775000Y-63500000D03*
D14*
X109855000Y-63500000D03*
%TD*%
%TO.C,MX32*%
X185420000Y-82550000D03*
D11*
X190500000Y-82550000D03*
D14*
X195580000Y-82550000D03*
%TD*%
%TO.C,MX35*%
X249713750Y-82550000D03*
D11*
X254793750Y-82550000D03*
D14*
X259873750Y-82550000D03*
%TD*%
%TO.C,MX24*%
X30638750Y-82550000D03*
D11*
X35718750Y-82550000D03*
D14*
X40798750Y-82550000D03*
%TD*%
%TO.C,MX13*%
X61595000Y-63500000D03*
D11*
X66675000Y-63500000D03*
D14*
X71755000Y-63500000D03*
%TD*%
%TO.C,MX23*%
X254476250Y-63500000D03*
D11*
X259556250Y-63500000D03*
D14*
X264636250Y-63500000D03*
%TD*%
%TO.C,MX9*%
X209232500Y-44450000D03*
D11*
X214312500Y-44450000D03*
D14*
X219392500Y-44450000D03*
%TD*%
%TO.C,MX31*%
X166370000Y-82550000D03*
D11*
X171450000Y-82550000D03*
D14*
X176530000Y-82550000D03*
%TD*%
%TO.C,MX14*%
X80645000Y-63500000D03*
D11*
X85725000Y-63500000D03*
D14*
X90805000Y-63500000D03*
%TD*%
%TO.C,MX10*%
X228282500Y-44450000D03*
D11*
X233362500Y-44450000D03*
D14*
X238442500Y-44450000D03*
%TD*%
%TO.C,MX20*%
X194945000Y-63500000D03*
D11*
X200025000Y-63500000D03*
D14*
X205105000Y-63500000D03*
%TD*%
%TO.C,MX25*%
X52070000Y-82550000D03*
D11*
X57150000Y-82550000D03*
D14*
X62230000Y-82550000D03*
%TD*%
%TO.C,MX22*%
X233045000Y-63500000D03*
D11*
X238125000Y-63500000D03*
D14*
X243205000Y-63500000D03*
%TD*%
%TO.C,MX5*%
X133032500Y-44450000D03*
D11*
X138112500Y-44450000D03*
D14*
X143192500Y-44450000D03*
%TD*%
%TO.C,MX36*%
X30638750Y-101600000D03*
D11*
X35718750Y-101600000D03*
D14*
X40798750Y-101600000D03*
%TD*%
D13*
%TO.C,MX42*%
X238092916Y-56514991D03*
D11*
X238092916Y-71754991D03*
D14*
X244951166Y-63499991D03*
D11*
X250031166Y-63499991D03*
D14*
X255111166Y-63499991D03*
D13*
X261969416Y-56514991D03*
D11*
X261969416Y-71754991D03*
%TD*%
D13*
%TO.C,MX43*%
X33305500Y-75565000D03*
D11*
X33305500Y-90805000D03*
D14*
X40163750Y-82550000D03*
D11*
X45243750Y-82550000D03*
D14*
X50323750Y-82550000D03*
D13*
X57182000Y-75565000D03*
D11*
X57182000Y-90805000D03*
%TD*%
D14*
%TO.C,MX18*%
X156845000Y-63500000D03*
D11*
X161925000Y-63500000D03*
D14*
X167005000Y-63500000D03*
%TD*%
D11*
%TO.C,MX44*%
X80962916Y-93344991D03*
D13*
X80962916Y-108584991D03*
D12*
X142557916Y-101599991D03*
D11*
X147637916Y-101599991D03*
D12*
X152717916Y-101599991D03*
D11*
X214312916Y-93344991D03*
D13*
X214312916Y-108584991D03*
%TD*%
D14*
%TO.C,MX6*%
X152082500Y-44450000D03*
D11*
X157162500Y-44450000D03*
D14*
X162242500Y-44450000D03*
%TD*%
%TO.C,MX21*%
X213995000Y-63500000D03*
D11*
X219075000Y-63500000D03*
D14*
X224155000Y-63500000D03*
%TD*%
%TO.C,MX16*%
X118745000Y-63500000D03*
D11*
X123825000Y-63500000D03*
D14*
X128905000Y-63500000D03*
%TD*%
%TO.C,MX8*%
X190182500Y-44450000D03*
D11*
X195262500Y-44450000D03*
D14*
X200342500Y-44450000D03*
%TD*%
%TO.C,MX11*%
X252095000Y-44450000D03*
D11*
X257175000Y-44450000D03*
D14*
X262255000Y-44450000D03*
%TD*%
%TO.C,MX12*%
X30638250Y-63500000D03*
D11*
X35718250Y-63500000D03*
X40481250Y-63500000D03*
D14*
X45561250Y-63500000D03*
%TD*%
%TO.C,MX3*%
X94932500Y-44450000D03*
D11*
X100012500Y-44450000D03*
D14*
X105092500Y-44450000D03*
%TD*%
%TO.C,MX33*%
X204470000Y-82550000D03*
D11*
X209550000Y-82550000D03*
D14*
X214630000Y-82550000D03*
%TD*%
%TO.C,MX34*%
X223520000Y-82550000D03*
D11*
X228600000Y-82550000D03*
D14*
X233680000Y-82550000D03*
%TD*%
%TO.C,MX4*%
X113982500Y-44450000D03*
D11*
X119062500Y-44450000D03*
D14*
X124142500Y-44450000D03*
%TD*%
%TO.C,MX19*%
X175895000Y-63500000D03*
D11*
X180975000Y-63500000D03*
D14*
X186055000Y-63500000D03*
%TD*%
%TO.C,MX28*%
X109220000Y-82550000D03*
D11*
X114300000Y-82550000D03*
D14*
X119380000Y-82550000D03*
%TD*%
%TO.C,MX26*%
X71120000Y-82550000D03*
D11*
X76200000Y-82550000D03*
D14*
X81280000Y-82550000D03*
%TD*%
%TO.C,MX38*%
X75882500Y-101600000D03*
D11*
X80962500Y-101600000D03*
D14*
X86042500Y-101600000D03*
%TD*%
%TO.C,MX2*%
X75882500Y-44450000D03*
D11*
X80962500Y-44450000D03*
D14*
X86042500Y-44450000D03*
%TD*%
D15*
%TO.C,J2*%
X106843750Y-108743750D03*
D16*
X109383750Y-108743750D03*
X111923750Y-108743750D03*
X114463750Y-108743750D03*
X117003750Y-108743750D03*
%TD*%
D15*
%TO.C,SW1*%
X142875000Y-78735000D03*
D16*
X142875000Y-81275000D03*
%TD*%
M02*
