%TF.GenerationSoftware,KiCad,Pcbnew,7.0.5*%
%TF.CreationDate,2024-01-03T16:25:20+01:00*%
%TF.ProjectId,no-escape,6e6f2d65-7363-4617-9065-2e6b69636164,rev?*%
%TF.SameCoordinates,Original*%
%TF.FileFunction,Legend,Bot*%
%TF.FilePolarity,Positive*%
%FSLAX46Y46*%
G04 Gerber Fmt 4.6, Leading zero omitted, Abs format (unit mm)*
G04 Created by KiCad (PCBNEW 7.0.5) date 2024-01-03 16:25:20*
%MOMM*%
%LPD*%
G01*
G04 APERTURE LIST*
G04 Aperture macros list*
%AMRoundRect*
0 Rectangle with rounded corners*
0 $1 Rounding radius*
0 $2 $3 $4 $5 $6 $7 $8 $9 X,Y pos of 4 corners*
0 Add a 4 corners polygon primitive as box body*
4,1,4,$2,$3,$4,$5,$6,$7,$8,$9,$2,$3,0*
0 Add four circle primitives for the rounded corners*
1,1,$1+$1,$2,$3*
1,1,$1+$1,$4,$5*
1,1,$1+$1,$6,$7*
1,1,$1+$1,$8,$9*
0 Add four rect primitives between the rounded corners*
20,1,$1+$1,$2,$3,$4,$5,0*
20,1,$1+$1,$4,$5,$6,$7,0*
20,1,$1+$1,$6,$7,$8,$9,0*
20,1,$1+$1,$8,$9,$2,$3,0*%
%AMRotRect*
0 Rectangle, with rotation*
0 The origin of the aperture is its center*
0 $1 length*
0 $2 width*
0 $3 Rotation angle, in degrees counterclockwise*
0 Add horizontal line*
21,1,$1,$2,0,0,$3*%
G04 Aperture macros list end*
%ADD10C,0.150000*%
%ADD11C,0.120000*%
%ADD12C,0.101600*%
%ADD13C,0.100000*%
%ADD14C,0.400000*%
%ADD15C,1.750000*%
%ADD16C,3.987800*%
%ADD17C,2.500000*%
%ADD18C,1.701800*%
%ADD19C,3.048000*%
%ADD20R,1.200000X0.900000*%
%ADD21RoundRect,0.135000X-0.185000X0.135000X-0.185000X-0.135000X0.185000X-0.135000X0.185000X0.135000X0*%
%ADD22RoundRect,0.140000X0.021213X-0.219203X0.219203X-0.021213X-0.021213X0.219203X-0.219203X0.021213X0*%
%ADD23C,3.500001*%
%ADD24RoundRect,0.140000X-0.140000X-0.170000X0.140000X-0.170000X0.140000X0.170000X-0.140000X0.170000X0*%
%ADD25RoundRect,0.150000X-0.275000X0.150000X-0.275000X-0.150000X0.275000X-0.150000X0.275000X0.150000X0*%
%ADD26RoundRect,0.175000X-0.225000X0.175000X-0.225000X-0.175000X0.225000X-0.175000X0.225000X0.175000X0*%
%ADD27RoundRect,0.140000X-0.021213X0.219203X-0.219203X0.021213X0.021213X-0.219203X0.219203X-0.021213X0*%
%ADD28RoundRect,0.140000X0.170000X-0.140000X0.170000X0.140000X-0.170000X0.140000X-0.170000X-0.140000X0*%
%ADD29RoundRect,0.243750X0.456250X-0.243750X0.456250X0.243750X-0.456250X0.243750X-0.456250X-0.243750X0*%
%ADD30RoundRect,0.225000X0.375000X-0.225000X0.375000X0.225000X-0.375000X0.225000X-0.375000X-0.225000X0*%
%ADD31RoundRect,0.150000X0.650000X0.150000X-0.650000X0.150000X-0.650000X-0.150000X0.650000X-0.150000X0*%
%ADD32RoundRect,0.250000X-0.250000X-0.350000X0.250000X-0.350000X0.250000X0.350000X-0.250000X0.350000X0*%
%ADD33RoundRect,0.135000X0.135000X0.185000X-0.135000X0.185000X-0.135000X-0.185000X0.135000X-0.185000X0*%
%ADD34RoundRect,0.050000X0.309359X-0.238649X-0.238649X0.309359X-0.309359X0.238649X0.238649X-0.309359X0*%
%ADD35RoundRect,0.050000X0.309359X0.238649X0.238649X0.309359X-0.309359X-0.238649X-0.238649X-0.309359X0*%
%ADD36RoundRect,0.144000X2.059095X0.000000X0.000000X2.059095X-2.059095X0.000000X0.000000X-2.059095X0*%
%ADD37RoundRect,0.250000X-0.625000X0.375000X-0.625000X-0.375000X0.625000X-0.375000X0.625000X0.375000X0*%
%ADD38RoundRect,0.250000X0.625000X-0.375000X0.625000X0.375000X-0.625000X0.375000X-0.625000X-0.375000X0*%
%ADD39RoundRect,0.150000X0.587500X0.150000X-0.587500X0.150000X-0.587500X-0.150000X0.587500X-0.150000X0*%
%ADD40R,1.200000X1.800000*%
%ADD41R,0.600000X1.550000*%
%ADD42R,1.700000X1.700000*%
%ADD43O,1.700000X1.700000*%
%ADD44RoundRect,0.140000X0.140000X0.170000X-0.140000X0.170000X-0.140000X-0.170000X0.140000X-0.170000X0*%
%ADD45R,0.900000X0.500000*%
%ADD46RoundRect,0.125000X0.000000X0.150000X0.000000X0.150000X0.000000X-0.150000X0.000000X-0.150000X0*%
%ADD47R,0.250000X0.550000*%
%ADD48R,0.300000X0.550000*%
%ADD49RoundRect,0.140000X0.219203X0.021213X0.021213X0.219203X-0.219203X-0.021213X-0.021213X-0.219203X0*%
%ADD50RotRect,1.400000X1.200000X315.000000*%
%ADD51RoundRect,0.140000X-0.219203X-0.021213X-0.021213X-0.219203X0.219203X0.021213X0.021213X0.219203X0*%
%ADD52RoundRect,0.150000X-0.625000X0.150000X-0.625000X-0.150000X0.625000X-0.150000X0.625000X0.150000X0*%
%ADD53RoundRect,0.250000X-0.650000X0.350000X-0.650000X-0.350000X0.650000X-0.350000X0.650000X0.350000X0*%
%ADD54C,0.650000*%
%ADD55RoundRect,0.150000X-0.150000X-0.575000X0.150000X-0.575000X0.150000X0.575000X-0.150000X0.575000X0*%
%ADD56RoundRect,0.075000X-0.075000X-0.650000X0.075000X-0.650000X0.075000X0.650000X-0.075000X0.650000X0*%
%ADD57O,1.300000X1.900000*%
%ADD58O,1.100000X2.200000*%
%ADD59R,1.000000X0.700000*%
%ADD60R,0.600000X0.700000*%
%ADD61RoundRect,0.135000X0.035355X-0.226274X0.226274X-0.035355X-0.035355X0.226274X-0.226274X0.035355X0*%
G04 APERTURE END LIST*
D10*
%TO.C,F1*%
X57334009Y-50007166D02*
X57334009Y-49673833D01*
X57857819Y-49673833D02*
X56857819Y-49673833D01*
X56857819Y-49673833D02*
X56857819Y-50150023D01*
X57857819Y-51054785D02*
X57857819Y-50483357D01*
X57857819Y-50769071D02*
X56857819Y-50769071D01*
X56857819Y-50769071D02*
X57000676Y-50673833D01*
X57000676Y-50673833D02*
X57095914Y-50578595D01*
X57095914Y-50578595D02*
X57143533Y-50483357D01*
%TO.C,J2*%
X95599095Y-89945819D02*
X95932428Y-89469628D01*
X96170523Y-89945819D02*
X96170523Y-88945819D01*
X96170523Y-88945819D02*
X95789571Y-88945819D01*
X95789571Y-88945819D02*
X95694333Y-88993438D01*
X95694333Y-88993438D02*
X95646714Y-89041057D01*
X95646714Y-89041057D02*
X95599095Y-89136295D01*
X95599095Y-89136295D02*
X95599095Y-89279152D01*
X95599095Y-89279152D02*
X95646714Y-89374390D01*
X95646714Y-89374390D02*
X95694333Y-89422009D01*
X95694333Y-89422009D02*
X95789571Y-89469628D01*
X95789571Y-89469628D02*
X96170523Y-89469628D01*
X94789571Y-89898200D02*
X94884809Y-89945819D01*
X94884809Y-89945819D02*
X95075285Y-89945819D01*
X95075285Y-89945819D02*
X95170523Y-89898200D01*
X95170523Y-89898200D02*
X95218142Y-89802961D01*
X95218142Y-89802961D02*
X95218142Y-89422009D01*
X95218142Y-89422009D02*
X95170523Y-89326771D01*
X95170523Y-89326771D02*
X95075285Y-89279152D01*
X95075285Y-89279152D02*
X94884809Y-89279152D01*
X94884809Y-89279152D02*
X94789571Y-89326771D01*
X94789571Y-89326771D02*
X94741952Y-89422009D01*
X94741952Y-89422009D02*
X94741952Y-89517247D01*
X94741952Y-89517247D02*
X95218142Y-89612485D01*
X94360999Y-89898200D02*
X94265761Y-89945819D01*
X94265761Y-89945819D02*
X94075285Y-89945819D01*
X94075285Y-89945819D02*
X93980047Y-89898200D01*
X93980047Y-89898200D02*
X93932428Y-89802961D01*
X93932428Y-89802961D02*
X93932428Y-89755342D01*
X93932428Y-89755342D02*
X93980047Y-89660104D01*
X93980047Y-89660104D02*
X94075285Y-89612485D01*
X94075285Y-89612485D02*
X94218142Y-89612485D01*
X94218142Y-89612485D02*
X94313380Y-89564866D01*
X94313380Y-89564866D02*
X94360999Y-89469628D01*
X94360999Y-89469628D02*
X94360999Y-89422009D01*
X94360999Y-89422009D02*
X94313380Y-89326771D01*
X94313380Y-89326771D02*
X94218142Y-89279152D01*
X94218142Y-89279152D02*
X94075285Y-89279152D01*
X94075285Y-89279152D02*
X93980047Y-89326771D01*
X93122904Y-89898200D02*
X93218142Y-89945819D01*
X93218142Y-89945819D02*
X93408618Y-89945819D01*
X93408618Y-89945819D02*
X93503856Y-89898200D01*
X93503856Y-89898200D02*
X93551475Y-89802961D01*
X93551475Y-89802961D02*
X93551475Y-89422009D01*
X93551475Y-89422009D02*
X93503856Y-89326771D01*
X93503856Y-89326771D02*
X93408618Y-89279152D01*
X93408618Y-89279152D02*
X93218142Y-89279152D01*
X93218142Y-89279152D02*
X93122904Y-89326771D01*
X93122904Y-89326771D02*
X93075285Y-89422009D01*
X93075285Y-89422009D02*
X93075285Y-89517247D01*
X93075285Y-89517247D02*
X93551475Y-89612485D01*
X92789570Y-89279152D02*
X92408618Y-89279152D01*
X92646713Y-88945819D02*
X92646713Y-89802961D01*
X92646713Y-89802961D02*
X92599094Y-89898200D01*
X92599094Y-89898200D02*
X92503856Y-89945819D01*
X92503856Y-89945819D02*
X92408618Y-89945819D01*
%TO.C,J3*%
X53164569Y-56245166D02*
X53878854Y-56245166D01*
X53878854Y-56245166D02*
X54021711Y-56197547D01*
X54021711Y-56197547D02*
X54116950Y-56102309D01*
X54116950Y-56102309D02*
X54164569Y-55959452D01*
X54164569Y-55959452D02*
X54164569Y-55864214D01*
X53164569Y-56626119D02*
X53164569Y-57245166D01*
X53164569Y-57245166D02*
X53545521Y-56911833D01*
X53545521Y-56911833D02*
X53545521Y-57054690D01*
X53545521Y-57054690D02*
X53593140Y-57149928D01*
X53593140Y-57149928D02*
X53640759Y-57197547D01*
X53640759Y-57197547D02*
X53735997Y-57245166D01*
X53735997Y-57245166D02*
X53974092Y-57245166D01*
X53974092Y-57245166D02*
X54069330Y-57197547D01*
X54069330Y-57197547D02*
X54116950Y-57149928D01*
X54116950Y-57149928D02*
X54164569Y-57054690D01*
X54164569Y-57054690D02*
X54164569Y-56768976D01*
X54164569Y-56768976D02*
X54116950Y-56673738D01*
X54116950Y-56673738D02*
X54069330Y-56626119D01*
%TO.C,SW1*%
X124944047Y-80996009D02*
X124801190Y-81043628D01*
X124801190Y-81043628D02*
X124753571Y-81091247D01*
X124753571Y-81091247D02*
X124705952Y-81186485D01*
X124705952Y-81186485D02*
X124705952Y-81329342D01*
X124705952Y-81329342D02*
X124753571Y-81424580D01*
X124753571Y-81424580D02*
X124801190Y-81472200D01*
X124801190Y-81472200D02*
X124896428Y-81519819D01*
X124896428Y-81519819D02*
X125277380Y-81519819D01*
X125277380Y-81519819D02*
X125277380Y-80519819D01*
X125277380Y-80519819D02*
X124944047Y-80519819D01*
X124944047Y-80519819D02*
X124848809Y-80567438D01*
X124848809Y-80567438D02*
X124801190Y-80615057D01*
X124801190Y-80615057D02*
X124753571Y-80710295D01*
X124753571Y-80710295D02*
X124753571Y-80805533D01*
X124753571Y-80805533D02*
X124801190Y-80900771D01*
X124801190Y-80900771D02*
X124848809Y-80948390D01*
X124848809Y-80948390D02*
X124944047Y-80996009D01*
X124944047Y-80996009D02*
X125277380Y-80996009D01*
X124134523Y-81519819D02*
X124229761Y-81472200D01*
X124229761Y-81472200D02*
X124277380Y-81424580D01*
X124277380Y-81424580D02*
X124324999Y-81329342D01*
X124324999Y-81329342D02*
X124324999Y-81043628D01*
X124324999Y-81043628D02*
X124277380Y-80948390D01*
X124277380Y-80948390D02*
X124229761Y-80900771D01*
X124229761Y-80900771D02*
X124134523Y-80853152D01*
X124134523Y-80853152D02*
X123991666Y-80853152D01*
X123991666Y-80853152D02*
X123896428Y-80900771D01*
X123896428Y-80900771D02*
X123848809Y-80948390D01*
X123848809Y-80948390D02*
X123801190Y-81043628D01*
X123801190Y-81043628D02*
X123801190Y-81329342D01*
X123801190Y-81329342D02*
X123848809Y-81424580D01*
X123848809Y-81424580D02*
X123896428Y-81472200D01*
X123896428Y-81472200D02*
X123991666Y-81519819D01*
X123991666Y-81519819D02*
X124134523Y-81519819D01*
X123229761Y-81519819D02*
X123324999Y-81472200D01*
X123324999Y-81472200D02*
X123372618Y-81424580D01*
X123372618Y-81424580D02*
X123420237Y-81329342D01*
X123420237Y-81329342D02*
X123420237Y-81043628D01*
X123420237Y-81043628D02*
X123372618Y-80948390D01*
X123372618Y-80948390D02*
X123324999Y-80900771D01*
X123324999Y-80900771D02*
X123229761Y-80853152D01*
X123229761Y-80853152D02*
X123086904Y-80853152D01*
X123086904Y-80853152D02*
X122991666Y-80900771D01*
X122991666Y-80900771D02*
X122944047Y-80948390D01*
X122944047Y-80948390D02*
X122896428Y-81043628D01*
X122896428Y-81043628D02*
X122896428Y-81329342D01*
X122896428Y-81329342D02*
X122944047Y-81424580D01*
X122944047Y-81424580D02*
X122991666Y-81472200D01*
X122991666Y-81472200D02*
X123086904Y-81519819D01*
X123086904Y-81519819D02*
X123229761Y-81519819D01*
X122610713Y-80853152D02*
X122229761Y-80853152D01*
X122467856Y-80519819D02*
X122467856Y-81376961D01*
X122467856Y-81376961D02*
X122420237Y-81472200D01*
X122420237Y-81472200D02*
X122324999Y-81519819D01*
X122324999Y-81519819D02*
X122229761Y-81519819D01*
D11*
%TO.C,D17*%
X144987000Y-66637000D02*
X144987000Y-62737000D01*
X146987000Y-66637000D02*
X144987000Y-66637000D01*
X146987000Y-66637000D02*
X146987000Y-62737000D01*
%TO.C,R_DATA1*%
X50545000Y-63473359D02*
X50545000Y-63780641D01*
X49785000Y-63473359D02*
X49785000Y-63780641D01*
%TO.C,C_3V-Decoup2*%
X107238190Y-90880693D02*
X107390693Y-90728190D01*
X107747307Y-91389810D02*
X107899810Y-91237307D01*
%TO.C,C_1V-Decoup1*%
X108127190Y-91642693D02*
X108279693Y-91490190D01*
X108636307Y-92151810D02*
X108788810Y-91999307D01*
%TO.C,C_LDO2*%
X64281164Y-52472000D02*
X64496836Y-52472000D01*
X64281164Y-53192000D02*
X64496836Y-53192000D01*
%TO.C,J1*%
X58929750Y-53168500D02*
X55599750Y-53168500D01*
X55599750Y-53168500D02*
X55599750Y-54218500D01*
X55599750Y-54218500D02*
X55389750Y-54218500D01*
X60319750Y-54238500D02*
X60319750Y-54738500D01*
X54536197Y-54528500D02*
X54889750Y-54778500D01*
X60319750Y-54738500D02*
X59819750Y-55038500D01*
X54889750Y-54778500D02*
X54536197Y-55028500D01*
X54536197Y-55028500D02*
X54536197Y-54528500D01*
X59819750Y-55038500D02*
X59819750Y-58118500D01*
X59819750Y-58118500D02*
X60319750Y-58418500D01*
X60319750Y-58418500D02*
X60319750Y-58918500D01*
X58929750Y-59988500D02*
X55599750Y-59988500D01*
X55599750Y-59988500D02*
X55599750Y-58938500D01*
%TO.C,D9*%
X216424500Y-47587000D02*
X216424500Y-43687000D01*
X218424500Y-47587000D02*
X216424500Y-47587000D01*
X218424500Y-47587000D02*
X218424500Y-43687000D01*
%TO.C,D20*%
X202137000Y-66637000D02*
X202137000Y-62737000D01*
X204137000Y-66637000D02*
X202137000Y-66637000D01*
X204137000Y-66637000D02*
X204137000Y-62737000D01*
%TO.C,D18*%
X164037000Y-66637000D02*
X164037000Y-62737000D01*
X166037000Y-66637000D02*
X164037000Y-66637000D01*
X166037000Y-66637000D02*
X166037000Y-62737000D01*
%TO.C,C_Crystal1*%
X99027861Y-104748174D02*
X98875358Y-104900677D01*
X98518744Y-104239057D02*
X98366241Y-104391560D01*
%TO.C,C_3V-Decoup4*%
X114829000Y-89769836D02*
X114829000Y-89554164D01*
X115549000Y-89769836D02*
X115549000Y-89554164D01*
%TO.C,D4*%
X121174500Y-47587000D02*
X121174500Y-43687000D01*
X123174500Y-47587000D02*
X121174500Y-47587000D01*
X123174500Y-47587000D02*
X123174500Y-43687000D01*
%TO.C,F1*%
X55043000Y-50599078D02*
X55043000Y-50081922D01*
X56463000Y-50599078D02*
X56463000Y-50081922D01*
%TO.C,D8*%
X197374500Y-47587000D02*
X197374500Y-43687000D01*
X199374500Y-47587000D02*
X197374500Y-47587000D01*
X199374500Y-47587000D02*
X199374500Y-43687000D01*
%TO.C,D41*%
X128318250Y-104847000D02*
X128318250Y-100837000D01*
X130318250Y-104847000D02*
X128318250Y-104847000D01*
X130318250Y-104847000D02*
X130318250Y-100837000D01*
%TO.C,D34*%
X230712000Y-85687000D02*
X230712000Y-81787000D01*
X232712000Y-85687000D02*
X230712000Y-85687000D01*
X232712000Y-85687000D02*
X232712000Y-81787000D01*
%TO.C,D40*%
X235474500Y-104737000D02*
X235474500Y-100837000D01*
X237474500Y-104737000D02*
X235474500Y-104737000D01*
X237474500Y-104737000D02*
X237474500Y-100837000D01*
%TO.C,D13*%
X68787000Y-66637000D02*
X68787000Y-62737000D01*
X70787000Y-66637000D02*
X68787000Y-66637000D01*
X70787000Y-66637000D02*
X70787000Y-62737000D01*
%TO.C,D32*%
X192612000Y-85687000D02*
X192612000Y-81787000D01*
X194612000Y-85687000D02*
X192612000Y-85687000D01*
X194612000Y-85687000D02*
X194612000Y-81787000D01*
%TO.C,D7*%
X178324500Y-47587000D02*
X178324500Y-43687000D01*
X180324500Y-47587000D02*
X178324500Y-47587000D01*
X180324500Y-47587000D02*
X180324500Y-43687000D01*
%TO.C,D38*%
X71771000Y-104737000D02*
X71771000Y-100837000D01*
X73771000Y-104737000D02*
X71771000Y-104737000D01*
X73771000Y-104737000D02*
X73771000Y-100837000D01*
%TO.C,C_1V-Decoup3*%
X98501810Y-99365307D02*
X98349307Y-99517810D01*
X97992693Y-98856190D02*
X97840190Y-99008693D01*
%TO.C,U3*%
X126550000Y-90609000D02*
X126550000Y-90349000D01*
X126550000Y-85419000D02*
X128225000Y-85419000D01*
X126550000Y-85159000D02*
X126550000Y-85419000D01*
X123825000Y-90609000D02*
X126550000Y-90609000D01*
X123825000Y-90609000D02*
X121100000Y-90609000D01*
X123825000Y-85159000D02*
X126550000Y-85159000D01*
X123825000Y-85159000D02*
X121100000Y-85159000D01*
X121100000Y-90609000D02*
X121100000Y-90349000D01*
X121100000Y-85159000D02*
X121100000Y-85419000D01*
D12*
%TO.C,D43*%
X37339000Y-44647000D02*
X37339000Y-46947000D01*
X37339000Y-44647000D02*
X38289000Y-44647000D01*
X37339000Y-46947000D02*
X38289000Y-46947000D01*
D11*
X39689000Y-45162000D02*
X39435000Y-45162000D01*
X39689000Y-45162000D02*
X39689000Y-46432000D01*
X39689000Y-46432000D02*
X39943000Y-46432000D01*
D12*
X42039000Y-44647000D02*
X41089000Y-44647000D01*
X42039000Y-46947000D02*
X41089000Y-46947000D01*
X42039000Y-46947000D02*
X42039000Y-44647000D01*
D13*
X39689000Y-45797000D02*
X38978000Y-46397000D01*
X38978000Y-45197000D01*
X39689000Y-45797000D01*
G36*
X39689000Y-45797000D02*
G01*
X38978000Y-46397000D01*
X38978000Y-45197000D01*
X39689000Y-45797000D01*
G37*
X40400000Y-46397000D02*
X39689000Y-45797000D01*
X40400000Y-45197000D01*
X40400000Y-46397000D01*
G36*
X40400000Y-46397000D02*
G01*
X39689000Y-45797000D01*
X40400000Y-45197000D01*
X40400000Y-46397000D01*
G37*
D11*
%TO.C,R_RST1*%
X95403641Y-97535000D02*
X95096359Y-97535000D01*
X95403641Y-96775000D02*
X95096359Y-96775000D01*
%TO.C,U1*%
X106197122Y-103530311D02*
X106656741Y-103070692D01*
X105737503Y-103070692D02*
X106197122Y-103530311D01*
X110842814Y-97965381D02*
X111302433Y-98425000D01*
X101551430Y-98884619D02*
X101091811Y-98425000D01*
X106656741Y-93779308D02*
X106197122Y-93319689D01*
X101091811Y-98425000D02*
X101551430Y-97965381D01*
X106197122Y-93319689D02*
X105737503Y-93779308D01*
%TO.C,C_3V-Decoup3*%
X99263810Y-100127307D02*
X99111307Y-100279810D01*
X98754693Y-99618190D02*
X98602190Y-99770693D01*
%TO.C,D10*%
X235474500Y-47587000D02*
X235474500Y-43687000D01*
X237474500Y-47587000D02*
X235474500Y-47587000D01*
X237474500Y-47587000D02*
X237474500Y-43687000D01*
%TO.C,G\u002A\u002A\u002A*%
G36*
X66949091Y-106855928D02*
G01*
X67030350Y-106999429D01*
X67034950Y-107150958D01*
X66993578Y-107203948D01*
X66857246Y-107243053D01*
X66703320Y-107214289D01*
X66604677Y-107122478D01*
X66598357Y-107000875D01*
X66683237Y-106855589D01*
X66831275Y-106791881D01*
X66831687Y-106791881D01*
X66949091Y-106855928D01*
G37*
G36*
X98678368Y-67642251D02*
G01*
X98747740Y-67744891D01*
X98783471Y-67961888D01*
X98722447Y-68176021D01*
X98574361Y-68323773D01*
X98405827Y-68375219D01*
X98183729Y-68342024D01*
X98023263Y-68199491D01*
X97961530Y-67969091D01*
X97975907Y-67848929D01*
X98084367Y-67649323D01*
X98264974Y-67535859D01*
X98476662Y-67527261D01*
X98678368Y-67642251D01*
G37*
G36*
X60773805Y-67522418D02*
G01*
X60967704Y-67607091D01*
X61091454Y-67774600D01*
X61133667Y-67979906D01*
X61082956Y-68177968D01*
X60927932Y-68323745D01*
X60759380Y-68375212D01*
X60537294Y-68342022D01*
X60376833Y-68199491D01*
X60315102Y-67969091D01*
X60357440Y-67763220D01*
X60503736Y-67586084D01*
X60724559Y-67519377D01*
X60773805Y-67522418D01*
G37*
G36*
X68956237Y-67536569D02*
G01*
X68980987Y-67537998D01*
X69177751Y-67558411D01*
X69306721Y-67612574D01*
X69414662Y-67733462D01*
X69548339Y-67954049D01*
X69574553Y-67999602D01*
X69685198Y-68199045D01*
X69725165Y-68303751D01*
X69699414Y-68344213D01*
X69612908Y-68350924D01*
X69474321Y-68298522D01*
X69266297Y-68152198D01*
X69020805Y-67933444D01*
X68592780Y-67515964D01*
X68956237Y-67536569D01*
G37*
G36*
X64032689Y-67552824D02*
G01*
X64203970Y-67687387D01*
X64304057Y-67886769D01*
X64286389Y-68084417D01*
X64122467Y-68269842D01*
X64034773Y-68338518D01*
X63921414Y-68409662D01*
X63829468Y-68406455D01*
X63693019Y-68339607D01*
X63621643Y-68298765D01*
X63462999Y-68146169D01*
X63415664Y-67941103D01*
X63467459Y-67747059D01*
X63618108Y-67597569D01*
X63821960Y-67527854D01*
X64032689Y-67552824D01*
G37*
G36*
X91563010Y-69768335D02*
G01*
X91569358Y-69807564D01*
X91598442Y-70013162D01*
X91610698Y-70146311D01*
X91586432Y-70182354D01*
X91466279Y-70216278D01*
X91229913Y-70235036D01*
X90860039Y-70240805D01*
X90647676Y-70238516D01*
X90362335Y-70227036D01*
X90160103Y-70208081D01*
X90075009Y-70184109D01*
X90065223Y-70160563D01*
X90028423Y-70017078D01*
X89988308Y-69806132D01*
X89935146Y-69484853D01*
X90725649Y-69484853D01*
X91516153Y-69484853D01*
X91563010Y-69768335D01*
G37*
G36*
X66957018Y-107476750D02*
G01*
X67049722Y-107513536D01*
X67111059Y-107612513D01*
X67156272Y-107803121D01*
X67200606Y-108114797D01*
X67217947Y-108241335D01*
X67255565Y-108474143D01*
X67287650Y-108625065D01*
X67297021Y-108673877D01*
X67254049Y-108740139D01*
X67094356Y-108757357D01*
X67088048Y-108757350D01*
X66928061Y-108751634D01*
X66860965Y-108738458D01*
X66859272Y-108726437D01*
X66840193Y-108605019D01*
X66804531Y-108382853D01*
X66758045Y-108095898D01*
X66656636Y-107472238D01*
X66867855Y-107472238D01*
X66957018Y-107476750D01*
G37*
G36*
X64537044Y-69692740D02*
G01*
X64554153Y-69802269D01*
X64611545Y-70181428D01*
X64657917Y-70505849D01*
X64688887Y-70744029D01*
X64700069Y-70864466D01*
X64698934Y-70885932D01*
X64659245Y-70955056D01*
X64537559Y-70988221D01*
X64299572Y-70996757D01*
X63899518Y-70996757D01*
X63732608Y-69919226D01*
X63709645Y-69770093D01*
X63652965Y-69393585D01*
X63607281Y-69078003D01*
X63576793Y-68852818D01*
X63565697Y-68747500D01*
X63576116Y-68719230D01*
X63700875Y-68669643D01*
X63969635Y-68653305D01*
X64373574Y-68653305D01*
X64537044Y-69692740D01*
G37*
G36*
X54390199Y-106716328D02*
G01*
X54550498Y-106733676D01*
X54617615Y-106772982D01*
X54617638Y-106773593D01*
X54630457Y-106869479D01*
X54663168Y-107082682D01*
X54710902Y-107382147D01*
X54768788Y-107736821D01*
X54770291Y-107745937D01*
X54827857Y-108099618D01*
X54874947Y-108397333D01*
X54906738Y-108608031D01*
X54918411Y-108700660D01*
X54856843Y-108740183D01*
X54702131Y-108757357D01*
X54485832Y-108757357D01*
X54356928Y-107906910D01*
X54310657Y-107607632D01*
X54257988Y-107281213D01*
X54214671Y-107028079D01*
X54187055Y-106886375D01*
X54173418Y-106795321D01*
X54220797Y-106730601D01*
X54381067Y-106716285D01*
X54390199Y-106716328D01*
G37*
G36*
X98465095Y-68668360D02*
G01*
X98897875Y-68691103D01*
X99023646Y-69484853D01*
X99058556Y-69705986D01*
X99116914Y-70078881D01*
X99167651Y-70406840D01*
X99202665Y-70637680D01*
X99255913Y-70996757D01*
X98835507Y-70996757D01*
X98660214Y-70993180D01*
X98483530Y-70978997D01*
X98415102Y-70957709D01*
X98411555Y-70921937D01*
X98388746Y-70759374D01*
X98349458Y-70500192D01*
X98299134Y-70178380D01*
X98243219Y-69827930D01*
X98187161Y-69482832D01*
X98136402Y-69177075D01*
X98096390Y-68944651D01*
X98072568Y-68819550D01*
X98072353Y-68818618D01*
X98058837Y-68721648D01*
X98097966Y-68672686D01*
X98222474Y-68659126D01*
X98465095Y-68668360D01*
G37*
G36*
X50232832Y-107415998D02*
G01*
X50506847Y-107537553D01*
X50705556Y-107745562D01*
X50811626Y-108007403D01*
X50807725Y-108290457D01*
X50676519Y-108562101D01*
X50571294Y-108675130D01*
X50426259Y-108740356D01*
X50204049Y-108742385D01*
X50032261Y-108721232D01*
X49912269Y-108665094D01*
X49867861Y-108554601D01*
X49864943Y-108474945D01*
X49923567Y-108399142D01*
X50094647Y-108365613D01*
X50169155Y-108356046D01*
X50314446Y-108296696D01*
X50369619Y-108167333D01*
X50346600Y-107958308D01*
X50212615Y-107819572D01*
X49991037Y-107792755D01*
X49972766Y-107795260D01*
X49810817Y-107782825D01*
X49732962Y-107676361D01*
X49728371Y-107553830D01*
X49835660Y-107440128D01*
X50057878Y-107397800D01*
X50232832Y-107415998D01*
G37*
G36*
X52251894Y-107488365D02*
G01*
X52330021Y-107568323D01*
X52375265Y-107755720D01*
X52410542Y-108008356D01*
X52419950Y-108308184D01*
X52369549Y-108509839D01*
X52255775Y-108639677D01*
X52153292Y-108694296D01*
X51882053Y-108751171D01*
X51597912Y-108727701D01*
X51372083Y-108625065D01*
X51337424Y-108591493D01*
X51211897Y-108365932D01*
X51110717Y-108001404D01*
X51010661Y-107510035D01*
X51194968Y-107485448D01*
X51206995Y-107483863D01*
X51341027Y-107477346D01*
X51421834Y-107523285D01*
X51475139Y-107653955D01*
X51526664Y-107901632D01*
X51596663Y-108170511D01*
X51700181Y-108376680D01*
X51806318Y-108454901D01*
X51895356Y-108404522D01*
X51947574Y-108224894D01*
X51943253Y-107915367D01*
X51896937Y-107472238D01*
X52112673Y-107472238D01*
X52251894Y-107488365D01*
G37*
G36*
X56086936Y-107475069D02*
G01*
X56211184Y-107511168D01*
X56303794Y-107617897D01*
X56405492Y-107831315D01*
X56559822Y-108190392D01*
X56655242Y-107831315D01*
X56684058Y-107727362D01*
X56749165Y-107560189D01*
X56832876Y-107487866D01*
X56968475Y-107472238D01*
X57120384Y-107477652D01*
X57185152Y-107491136D01*
X57183306Y-107499163D01*
X57151414Y-107608519D01*
X57088195Y-107816692D01*
X57004438Y-108088050D01*
X56824858Y-108666064D01*
X57009857Y-108976294D01*
X57194855Y-109286523D01*
X56967485Y-109286523D01*
X56939527Y-109286112D01*
X56821983Y-109264985D01*
X56721602Y-109191587D01*
X56610690Y-109037987D01*
X56461554Y-108776256D01*
X56300063Y-108480549D01*
X56117428Y-108146328D01*
X55965839Y-107869113D01*
X55748684Y-107472238D01*
X55999923Y-107472238D01*
X56086936Y-107475069D01*
G37*
G36*
X47855264Y-108444840D02*
G01*
X47681231Y-108662863D01*
X47640992Y-108689465D01*
X47396375Y-108758125D01*
X47108458Y-108735989D01*
X46832624Y-108633606D01*
X46624256Y-108461527D01*
X46568075Y-108351284D01*
X46533021Y-108108475D01*
X46932045Y-108108475D01*
X47051876Y-108299137D01*
X47193591Y-108419205D01*
X47314837Y-108441595D01*
X47431047Y-108345744D01*
X47501606Y-108186098D01*
X47480615Y-108007023D01*
X47384667Y-107860019D01*
X47240643Y-107784756D01*
X47075423Y-107820905D01*
X46957871Y-107933577D01*
X46932045Y-108108475D01*
X46533021Y-108108475D01*
X46531853Y-108100387D01*
X46567758Y-107830961D01*
X46671869Y-107612904D01*
X46686896Y-107595471D01*
X46896581Y-107465150D01*
X47168970Y-107424129D01*
X47449929Y-107472536D01*
X47685322Y-107610500D01*
X47705257Y-107629971D01*
X47867453Y-107883356D01*
X47917396Y-108169992D01*
X47913755Y-108186098D01*
X47855264Y-108444840D01*
G37*
G36*
X61106836Y-68667237D02*
G01*
X61190795Y-68719413D01*
X61250504Y-68831432D01*
X61298437Y-69025583D01*
X61347071Y-69324155D01*
X61408881Y-69749436D01*
X61449911Y-70026194D01*
X61501180Y-70361864D01*
X61543799Y-70629733D01*
X61571369Y-70788871D01*
X61572472Y-70794489D01*
X61587908Y-70910868D01*
X61552736Y-70970978D01*
X61433429Y-70993411D01*
X61196460Y-70996757D01*
X61108339Y-70997778D01*
X60968150Y-70998027D01*
X60868320Y-70978041D01*
X60797596Y-70916403D01*
X60744722Y-70791699D01*
X60698443Y-70582513D01*
X60647504Y-70267429D01*
X60580649Y-69825031D01*
X60549336Y-69622990D01*
X60496580Y-69293056D01*
X60451646Y-69024419D01*
X60421803Y-68861192D01*
X60420316Y-68854017D01*
X60403863Y-68738405D01*
X60438684Y-68678771D01*
X60558084Y-68656583D01*
X60795370Y-68653305D01*
X60816268Y-68653259D01*
X60986152Y-68652616D01*
X61106836Y-68667237D01*
G37*
G36*
X43191697Y-107474101D02*
G01*
X43361851Y-107614670D01*
X43427953Y-107810537D01*
X43365166Y-107983571D01*
X43163369Y-108152595D01*
X43162939Y-108152861D01*
X42964841Y-108297237D01*
X42905747Y-108394986D01*
X42984807Y-108439944D01*
X43201167Y-108425946D01*
X43213288Y-108424021D01*
X43401424Y-108404035D01*
X43484737Y-108432823D01*
X43503548Y-108523378D01*
X43488154Y-108609096D01*
X43409054Y-108707291D01*
X43309867Y-108736983D01*
X43044271Y-108754436D01*
X42783241Y-108707942D01*
X42596405Y-108606166D01*
X42489276Y-108473395D01*
X42450666Y-108298068D01*
X42555229Y-108134405D01*
X42806764Y-107970935D01*
X42937184Y-107885864D01*
X43001388Y-107781921D01*
X42935137Y-107719539D01*
X42745265Y-107725948D01*
X42621816Y-107732270D01*
X42502620Y-107677428D01*
X42485870Y-107578490D01*
X42594250Y-107473391D01*
X42708145Y-107427163D01*
X42959719Y-107405906D01*
X43191697Y-107474101D01*
G37*
G36*
X68213981Y-107473853D02*
G01*
X68384043Y-107617800D01*
X68449976Y-107819252D01*
X68449098Y-107843740D01*
X68380442Y-108009506D01*
X68185393Y-108162611D01*
X67987552Y-108300904D01*
X67928010Y-108395974D01*
X68006896Y-108440027D01*
X68223191Y-108425946D01*
X68293984Y-108415532D01*
X68459448Y-108400445D01*
X68525572Y-108410102D01*
X68530429Y-108437667D01*
X68568920Y-108555574D01*
X68573307Y-108627210D01*
X68474426Y-108704178D01*
X68203578Y-108751374D01*
X67881569Y-108731876D01*
X67644816Y-108618377D01*
X67514395Y-108417178D01*
X67508429Y-108395066D01*
X67506424Y-108238017D01*
X67605687Y-108107319D01*
X67828787Y-107970935D01*
X67959207Y-107885864D01*
X68023412Y-107781921D01*
X67957160Y-107719539D01*
X67767289Y-107725948D01*
X67643839Y-107732270D01*
X67524643Y-107677428D01*
X67507894Y-107578490D01*
X67616274Y-107473391D01*
X67727901Y-107427519D01*
X67981398Y-107404672D01*
X68213981Y-107473853D01*
G37*
G36*
X54051727Y-108346533D02*
G01*
X53922513Y-108582395D01*
X53737099Y-108713063D01*
X53463972Y-108757357D01*
X53436822Y-108757176D01*
X53121782Y-108712858D01*
X52905136Y-108576782D01*
X52753842Y-108329015D01*
X52707114Y-108180789D01*
X52706222Y-108010799D01*
X53118938Y-108010799D01*
X53132145Y-108164400D01*
X53218831Y-108332079D01*
X53317153Y-108416390D01*
X53445630Y-108441742D01*
X53590112Y-108336183D01*
X53595404Y-108330876D01*
X53689847Y-108212214D01*
X53687549Y-108102066D01*
X53588213Y-107938328D01*
X53495782Y-107841507D01*
X53333068Y-107783952D01*
X53192656Y-107842668D01*
X53118938Y-108010799D01*
X52706222Y-108010799D01*
X52705547Y-107882081D01*
X52822569Y-107632107D01*
X53039644Y-107460437D01*
X53338240Y-107396642D01*
X53399942Y-107401431D01*
X53635906Y-107476545D01*
X53862390Y-107612612D01*
X54009045Y-107770431D01*
X54014744Y-107781374D01*
X54084901Y-108056711D01*
X54067102Y-108212214D01*
X54051727Y-108346533D01*
G37*
G36*
X44401481Y-107473853D02*
G01*
X44571543Y-107617800D01*
X44637476Y-107819252D01*
X44636598Y-107843740D01*
X44567942Y-108009506D01*
X44372893Y-108162611D01*
X44175052Y-108300904D01*
X44115510Y-108395974D01*
X44194396Y-108440027D01*
X44410691Y-108425946D01*
X44481484Y-108415532D01*
X44646948Y-108400445D01*
X44713072Y-108410102D01*
X44717929Y-108437667D01*
X44756420Y-108555574D01*
X44760807Y-108627210D01*
X44661926Y-108704178D01*
X44391078Y-108751374D01*
X44069069Y-108731876D01*
X43832316Y-108618377D01*
X43701895Y-108417178D01*
X43695929Y-108395066D01*
X43693924Y-108238017D01*
X43793187Y-108107319D01*
X44016287Y-107970935D01*
X44146707Y-107885864D01*
X44210912Y-107781921D01*
X44144660Y-107719539D01*
X43954789Y-107725948D01*
X43831339Y-107732270D01*
X43712143Y-107677428D01*
X43695394Y-107578490D01*
X43803774Y-107473391D01*
X43915401Y-107427519D01*
X44168898Y-107404672D01*
X44401481Y-107473853D01*
G37*
G36*
X46085432Y-107505023D02*
G01*
X46179781Y-107625431D01*
X46233798Y-107854130D01*
X46255885Y-108211650D01*
X46255333Y-108312826D01*
X46217964Y-108522531D01*
X46116034Y-108650023D01*
X46085957Y-108668580D01*
X45893464Y-108731820D01*
X45656741Y-108757357D01*
X45452043Y-108735043D01*
X45223134Y-108616547D01*
X45060094Y-108382217D01*
X44948124Y-108016582D01*
X44906521Y-107814115D01*
X44875797Y-107617329D01*
X44888404Y-107515738D01*
X44951522Y-107477867D01*
X45072336Y-107472238D01*
X45077859Y-107472248D01*
X45191778Y-107485404D01*
X45267176Y-107546179D01*
X45326856Y-107688104D01*
X45393616Y-107944708D01*
X45427492Y-108079569D01*
X45495564Y-108287464D01*
X45566714Y-108389833D01*
X45658012Y-108417178D01*
X45735841Y-108405465D01*
X45780426Y-108345596D01*
X45793631Y-108203392D01*
X45784605Y-107944708D01*
X45780750Y-107869259D01*
X45774508Y-107643369D01*
X45792897Y-107525099D01*
X45848339Y-107479654D01*
X45953254Y-107472238D01*
X46085432Y-107505023D01*
G37*
G36*
X75070420Y-106848045D02*
G01*
X75322599Y-106893040D01*
X75505104Y-106965382D01*
X75743934Y-107195975D01*
X75893923Y-107498436D01*
X75949000Y-107832532D01*
X75908457Y-108161517D01*
X75771586Y-108448647D01*
X75537681Y-108657176D01*
X75485014Y-108680538D01*
X75269822Y-108732624D01*
X75016680Y-108754678D01*
X74982602Y-108754822D01*
X74776826Y-108742589D01*
X74671161Y-108693049D01*
X74620837Y-108587267D01*
X74595471Y-108486666D01*
X74590285Y-108362783D01*
X74672923Y-108317299D01*
X74874855Y-108316694D01*
X74898992Y-108317325D01*
X75190308Y-108264825D01*
X75388616Y-108118860D01*
X75480000Y-107909668D01*
X75450545Y-107667487D01*
X75286334Y-107422557D01*
X75253923Y-107391634D01*
X75072418Y-107281274D01*
X74856601Y-107271309D01*
X74563943Y-107357935D01*
X74546818Y-107363801D01*
X74454341Y-107342377D01*
X74399669Y-107193140D01*
X74390384Y-107029173D01*
X74428895Y-106907973D01*
X74431187Y-106905706D01*
X74571179Y-106851523D01*
X74802102Y-106833255D01*
X75070420Y-106848045D01*
G37*
G36*
X49354931Y-107604529D02*
G01*
X49407233Y-107943596D01*
X49458697Y-108261819D01*
X49499944Y-108500681D01*
X49525118Y-108625065D01*
X49533011Y-108665440D01*
X49494912Y-108738120D01*
X49340216Y-108757357D01*
X49304857Y-108756917D01*
X49177287Y-108731774D01*
X49104036Y-108638439D01*
X49047956Y-108436077D01*
X48976835Y-108114797D01*
X48808893Y-108436077D01*
X48775552Y-108498633D01*
X48664850Y-108666849D01*
X48548441Y-108740850D01*
X48376956Y-108757357D01*
X48112961Y-108757357D01*
X48302897Y-108456478D01*
X48361315Y-108361261D01*
X48455617Y-108192152D01*
X48492834Y-108100588D01*
X48471739Y-108058091D01*
X48370187Y-107929544D01*
X48212908Y-107758907D01*
X47932983Y-107472238D01*
X48213974Y-107472238D01*
X48328421Y-107478635D01*
X48528567Y-107547155D01*
X48725716Y-107717922D01*
X48956467Y-107963607D01*
X48909823Y-107585631D01*
X48895599Y-107474044D01*
X48856217Y-107189630D01*
X48820783Y-106961970D01*
X48803037Y-106798053D01*
X48851017Y-106729026D01*
X48999685Y-106716285D01*
X49220981Y-106716285D01*
X49354931Y-107604529D01*
G37*
G36*
X86259841Y-70394905D02*
G01*
X86092460Y-70717869D01*
X85811581Y-70942946D01*
X85412721Y-71075764D01*
X85204244Y-71099404D01*
X84790452Y-71062342D01*
X84407335Y-70928196D01*
X84107082Y-70711528D01*
X83928048Y-70481468D01*
X83791615Y-70142396D01*
X83762337Y-69846409D01*
X84526067Y-69846409D01*
X84655940Y-70146311D01*
X84729290Y-70254169D01*
X84867564Y-70364284D01*
X85066031Y-70391996D01*
X85293116Y-70353419D01*
X85480617Y-70217599D01*
X85561795Y-70010145D01*
X85527406Y-69758637D01*
X85368203Y-69490653D01*
X85330236Y-69448066D01*
X85104406Y-69288717D01*
X84875192Y-69275241D01*
X84656768Y-69409257D01*
X84535718Y-69595084D01*
X84526067Y-69846409D01*
X83762337Y-69846409D01*
X83749625Y-69717896D01*
X83771183Y-69488557D01*
X83905522Y-69134371D01*
X84142606Y-68856859D01*
X84458842Y-68668017D01*
X84830635Y-68579841D01*
X85234390Y-68604327D01*
X85646515Y-68753470D01*
X85759974Y-68819963D01*
X86068654Y-69104997D01*
X86255149Y-69478476D01*
X86318337Y-69938424D01*
X86318206Y-69968422D01*
X86312496Y-70010145D01*
X86259841Y-70394905D01*
G37*
G36*
X70027031Y-107901718D02*
G01*
X70065067Y-108179968D01*
X70001983Y-108448310D01*
X69830636Y-108662863D01*
X69785074Y-108690040D01*
X69586567Y-108743114D01*
X69345034Y-108753643D01*
X69123435Y-108722535D01*
X68984729Y-108650694D01*
X68962277Y-108619265D01*
X68959872Y-108512046D01*
X69093973Y-108443047D01*
X69355370Y-108418050D01*
X69389967Y-108417489D01*
X69572363Y-108382828D01*
X69644395Y-108284886D01*
X69643484Y-108220492D01*
X69584702Y-108177193D01*
X69435465Y-108157350D01*
X69165479Y-108152595D01*
X68660372Y-108152595D01*
X68709211Y-107944708D01*
X68752964Y-107831315D01*
X69149232Y-107831315D01*
X69183835Y-107900849D01*
X69357119Y-107925809D01*
X69525669Y-107903001D01*
X69565006Y-107831315D01*
X69506737Y-107772457D01*
X69357119Y-107736821D01*
X69240349Y-107757526D01*
X69149232Y-107831315D01*
X68752964Y-107831315D01*
X68757685Y-107819079D01*
X68904788Y-107615609D01*
X69093144Y-107459188D01*
X69274459Y-107396642D01*
X69431743Y-107418763D01*
X69637381Y-107475854D01*
X69676179Y-107491017D01*
X69895021Y-107657440D01*
X69988985Y-107831315D01*
X70027031Y-107901718D01*
G37*
G36*
X62961730Y-107838555D02*
G01*
X63013269Y-108111946D01*
X62978413Y-108388776D01*
X62855929Y-108606166D01*
X62805086Y-108647192D01*
X62595161Y-108731795D01*
X62342061Y-108760744D01*
X62106019Y-108731652D01*
X61947270Y-108642137D01*
X61914990Y-108598046D01*
X61899793Y-108494339D01*
X62017492Y-108435662D01*
X62275138Y-108417178D01*
X62401041Y-108412933D01*
X62554644Y-108374600D01*
X62613875Y-108284886D01*
X62613826Y-108222242D01*
X62557262Y-108177841D01*
X62410578Y-108157479D01*
X62143317Y-108152595D01*
X61997811Y-108151102D01*
X61767448Y-108129926D01*
X61659432Y-108068230D01*
X61654104Y-107946567D01*
X61698640Y-107831315D01*
X62118875Y-107831315D01*
X62153478Y-107900849D01*
X62326762Y-107925809D01*
X62495311Y-107903001D01*
X62534649Y-107831315D01*
X62476380Y-107772457D01*
X62326762Y-107736821D01*
X62209992Y-107757526D01*
X62118875Y-107831315D01*
X61698640Y-107831315D01*
X61731806Y-107745487D01*
X61808629Y-107624430D01*
X62021644Y-107472135D01*
X62290479Y-107421864D01*
X62575488Y-107477321D01*
X62837030Y-107642209D01*
X62957132Y-107831315D01*
X62961730Y-107838555D01*
G37*
G36*
X42192059Y-107877216D02*
G01*
X42247537Y-108167367D01*
X42186874Y-108443661D01*
X42011588Y-108662863D01*
X41959778Y-108692543D01*
X41762504Y-108742513D01*
X41524079Y-108753674D01*
X41306978Y-108726216D01*
X41173676Y-108660327D01*
X41145089Y-108619731D01*
X41137109Y-108501788D01*
X41259358Y-108427062D01*
X41497752Y-108406579D01*
X41619405Y-108406737D01*
X41767177Y-108373754D01*
X41824575Y-108284886D01*
X41824801Y-108222091D01*
X41768408Y-108177773D01*
X41621823Y-108157462D01*
X41354627Y-108152595D01*
X41209121Y-108151102D01*
X40978758Y-108129926D01*
X40870742Y-108068230D01*
X40865414Y-107946567D01*
X40909950Y-107831315D01*
X41330185Y-107831315D01*
X41364787Y-107900849D01*
X41538072Y-107925809D01*
X41706621Y-107903001D01*
X41745959Y-107831315D01*
X41687690Y-107772457D01*
X41538072Y-107736821D01*
X41421301Y-107757526D01*
X41330185Y-107831315D01*
X40909950Y-107831315D01*
X40943116Y-107745487D01*
X41046744Y-107597716D01*
X41270418Y-107461533D01*
X41541224Y-107421578D01*
X41814932Y-107481824D01*
X42047310Y-107646248D01*
X42163293Y-107831315D01*
X42192059Y-107877216D01*
G37*
G36*
X79626601Y-68678261D02*
G01*
X79937468Y-68841288D01*
X80143131Y-69035322D01*
X80360381Y-69382959D01*
X80464928Y-69769134D01*
X80454494Y-70161824D01*
X80326802Y-70529008D01*
X80079572Y-70838662D01*
X80003391Y-70903143D01*
X79835221Y-71011745D01*
X79648341Y-71060850D01*
X79376920Y-71072353D01*
X79360911Y-71072324D01*
X79041121Y-71049975D01*
X78837052Y-70971323D01*
X78718306Y-70814754D01*
X78654485Y-70558653D01*
X78640294Y-70459210D01*
X78630433Y-70314439D01*
X78664242Y-70275745D01*
X78753928Y-70312969D01*
X78853840Y-70357576D01*
X79125817Y-70395883D01*
X79362114Y-70321063D01*
X79528787Y-70149882D01*
X79591887Y-69899105D01*
X79555617Y-69666009D01*
X79418341Y-69434199D01*
X79208355Y-69296885D01*
X78957265Y-69272423D01*
X78696676Y-69379170D01*
X78693632Y-69381303D01*
X78574525Y-69458230D01*
X78507829Y-69457601D01*
X78468162Y-69355496D01*
X78430143Y-69127995D01*
X78417399Y-69039915D01*
X78412416Y-68873232D01*
X78472255Y-68774351D01*
X78622530Y-68684183D01*
X78895923Y-68600910D01*
X79259952Y-68595809D01*
X79626601Y-68678261D01*
G37*
G36*
X60032202Y-70363067D02*
G01*
X59861529Y-70700977D01*
X59577462Y-70939243D01*
X59181173Y-71076386D01*
X59106798Y-71088777D01*
X58651177Y-71087835D01*
X58233325Y-70960629D01*
X57881608Y-70719879D01*
X57624391Y-70378304D01*
X57560860Y-70200051D01*
X57514124Y-69877153D01*
X57517648Y-69667691D01*
X58284118Y-69667691D01*
X58305183Y-69939660D01*
X58430707Y-70192813D01*
X58581228Y-70325690D01*
X58814506Y-70399512D01*
X59045073Y-70359015D01*
X59225561Y-70203558D01*
X59227439Y-70200673D01*
X59307214Y-69971035D01*
X59278959Y-69738618D01*
X59167870Y-69528036D01*
X58999145Y-69363901D01*
X58797984Y-69270826D01*
X58589582Y-69273425D01*
X58399139Y-69396311D01*
X58369738Y-69433033D01*
X58284118Y-69667691D01*
X57517648Y-69667691D01*
X57519857Y-69536434D01*
X57580893Y-69251364D01*
X57626855Y-69157962D01*
X57828561Y-68917707D01*
X58103076Y-68720062D01*
X58394437Y-68609204D01*
X58733628Y-68579150D01*
X59169728Y-68648192D01*
X59542592Y-68833280D01*
X59832875Y-69119290D01*
X60021231Y-69491096D01*
X60088316Y-69933572D01*
X60083421Y-69971035D01*
X60032202Y-70363067D01*
G37*
G36*
X63922174Y-107490780D02*
G01*
X63948567Y-107505366D01*
X64085328Y-107558574D01*
X64141048Y-107539296D01*
X64198053Y-107492822D01*
X64347238Y-107486115D01*
X64376937Y-107489463D01*
X64456592Y-107503723D01*
X64513476Y-107541958D01*
X64556874Y-107629241D01*
X64596068Y-107790641D01*
X64640340Y-108051229D01*
X64698975Y-108436077D01*
X64716408Y-108557636D01*
X64719265Y-108696244D01*
X64663966Y-108748991D01*
X64528501Y-108757357D01*
X64451610Y-108754933D01*
X64351289Y-108720895D01*
X64295914Y-108615132D01*
X64255563Y-108398279D01*
X64223527Y-108213727D01*
X64147636Y-107955619D01*
X64044204Y-107816329D01*
X63901163Y-107774619D01*
X63881856Y-107774814D01*
X63806011Y-107790381D01*
X63770807Y-107854977D01*
X63768797Y-108002285D01*
X63792535Y-108265988D01*
X63842877Y-108757357D01*
X63624262Y-108757357D01*
X63553114Y-108755400D01*
X63450059Y-108723301D01*
X63394991Y-108620343D01*
X63357573Y-108406627D01*
X63329432Y-108183786D01*
X63306917Y-107872104D01*
X63326039Y-107665063D01*
X63391100Y-107535156D01*
X63506401Y-107454878D01*
X63577677Y-107425896D01*
X63737061Y-107410803D01*
X63922174Y-107490780D01*
G37*
G36*
X81386627Y-68654940D02*
G01*
X81490047Y-68682617D01*
X81558431Y-68760294D01*
X81607609Y-68912601D01*
X81653411Y-69164167D01*
X81711665Y-69539625D01*
X81775729Y-69849329D01*
X81899523Y-70184425D01*
X82056852Y-70394703D01*
X82240548Y-70467591D01*
X82316351Y-70461137D01*
X82415146Y-70412696D01*
X82474962Y-70302307D01*
X82496971Y-70112856D01*
X82482344Y-69827228D01*
X82432252Y-69428311D01*
X82347865Y-68898990D01*
X82306465Y-68653305D01*
X82717904Y-68653305D01*
X83129343Y-68653305D01*
X83209592Y-69125775D01*
X83274268Y-69517750D01*
X83326321Y-69879410D01*
X83350449Y-70142008D01*
X83347668Y-70332488D01*
X83318997Y-70477793D01*
X83265453Y-70604864D01*
X83264859Y-70606011D01*
X83117632Y-70805693D01*
X82936026Y-70954017D01*
X82776740Y-71014629D01*
X82456359Y-71065179D01*
X82096765Y-71066114D01*
X81759058Y-71018704D01*
X81504337Y-70924223D01*
X81363470Y-70823141D01*
X81241624Y-70690176D01*
X81138877Y-70509403D01*
X81047815Y-70260361D01*
X80961027Y-69922586D01*
X80871097Y-69475616D01*
X80770614Y-68898990D01*
X80729596Y-68653305D01*
X81142039Y-68653305D01*
X81232342Y-68652630D01*
X81386627Y-68654940D01*
G37*
G36*
X77597000Y-107812416D02*
G01*
X77640778Y-108097895D01*
X77685502Y-108370760D01*
X77718911Y-108554795D01*
X77720535Y-108562763D01*
X77736389Y-108701652D01*
X77679078Y-108750426D01*
X77510301Y-108743783D01*
X77478794Y-108740329D01*
X77302541Y-108685767D01*
X77235599Y-108568369D01*
X77221433Y-108474658D01*
X77177423Y-108250019D01*
X77116847Y-108131380D01*
X77012248Y-108084965D01*
X76836171Y-108077000D01*
X76685734Y-108063572D01*
X76410631Y-107949995D01*
X76227547Y-107739952D01*
X76161848Y-107456775D01*
X76162576Y-107428075D01*
X76629491Y-107428075D01*
X76690656Y-107586593D01*
X76758516Y-107644117D01*
X76925899Y-107699023D01*
X76952567Y-107697696D01*
X77042625Y-107640114D01*
X77067834Y-107472238D01*
X77063152Y-107371916D01*
X77013119Y-107269396D01*
X76876473Y-107245452D01*
X76868049Y-107245538D01*
X76696242Y-107300399D01*
X76629491Y-107428075D01*
X76162576Y-107428075D01*
X76163115Y-107406854D01*
X76219416Y-107154776D01*
X76370432Y-106988009D01*
X76631775Y-106895820D01*
X77019060Y-106867476D01*
X77135940Y-106866628D01*
X77281146Y-106871813D01*
X77379461Y-106906018D01*
X77445543Y-106993211D01*
X77494054Y-107157362D01*
X77539653Y-107422441D01*
X77546976Y-107472238D01*
X77597000Y-107812416D01*
G37*
G36*
X61406766Y-108320733D02*
G01*
X61301940Y-108589346D01*
X61216007Y-108670538D01*
X61008292Y-108749804D01*
X60780921Y-108751061D01*
X60603191Y-108666642D01*
X60534789Y-108614049D01*
X60512476Y-108666642D01*
X60451953Y-108729688D01*
X60298362Y-108757357D01*
X60084247Y-108757357D01*
X59972607Y-107996706D01*
X60395531Y-107996706D01*
X60424146Y-108192631D01*
X60443380Y-108227536D01*
X60585067Y-108347778D01*
X60764725Y-108387762D01*
X60915651Y-108328984D01*
X60916381Y-108328246D01*
X60963520Y-108192970D01*
X60947363Y-108010214D01*
X60875334Y-107865333D01*
X60791877Y-107802721D01*
X60619332Y-107772782D01*
X60473904Y-107847100D01*
X60395531Y-107996706D01*
X59972607Y-107996706D01*
X59953880Y-107869113D01*
X59902794Y-107530397D01*
X59851976Y-107212015D01*
X59810746Y-106973025D01*
X59784925Y-106848577D01*
X59775971Y-106805656D01*
X59813956Y-106734857D01*
X59968766Y-106716285D01*
X60072279Y-106722679D01*
X60182179Y-106785139D01*
X60238444Y-106952520D01*
X60270285Y-107161232D01*
X60285691Y-107377111D01*
X60288143Y-107446326D01*
X60329671Y-107529097D01*
X60455780Y-107508862D01*
X60703453Y-107453886D01*
X61008014Y-107487933D01*
X61244713Y-107655304D01*
X61299672Y-107730377D01*
X61404705Y-108013121D01*
X61405910Y-108192970D01*
X61406766Y-108320733D01*
G37*
G36*
X77189725Y-67383134D02*
G01*
X77584586Y-67405984D01*
X77818857Y-68880091D01*
X77821639Y-68897592D01*
X77897522Y-69374714D01*
X77968533Y-69820580D01*
X78029963Y-70205673D01*
X78077103Y-70500477D01*
X78105247Y-70675478D01*
X78157365Y-70996757D01*
X77747342Y-70996757D01*
X77337320Y-70996757D01*
X77288637Y-70675478D01*
X77238418Y-70364337D01*
X77149147Y-69923247D01*
X77053166Y-69608138D01*
X76943273Y-69402946D01*
X76812261Y-69291610D01*
X76652929Y-69258067D01*
X76635617Y-69258268D01*
X76492130Y-69287331D01*
X76404518Y-69380073D01*
X76368123Y-69557209D01*
X76378285Y-69839451D01*
X76430343Y-70247513D01*
X76543389Y-71003566D01*
X76121061Y-70981263D01*
X75698733Y-70958960D01*
X75608983Y-70391996D01*
X75583572Y-70220367D01*
X75533410Y-69745684D01*
X75521601Y-69345459D01*
X75548086Y-69043638D01*
X75612803Y-68864164D01*
X75813050Y-68690242D01*
X76105637Y-68597870D01*
X76429700Y-68621460D01*
X76746517Y-68764420D01*
X76825752Y-68817486D01*
X76966042Y-68906787D01*
X77021546Y-68934509D01*
X77019441Y-68919496D01*
X76998270Y-68792672D01*
X76959198Y-68566250D01*
X76908256Y-68275329D01*
X76883565Y-68135622D01*
X76825814Y-67795575D01*
X76801525Y-67573237D01*
X76818234Y-67444715D01*
X76883479Y-67386118D01*
X77004797Y-67373555D01*
X77189725Y-67383134D01*
G37*
G36*
X71802824Y-108273938D02*
G01*
X71737003Y-108530542D01*
X71601348Y-108697964D01*
X71475252Y-108743125D01*
X71239313Y-108746397D01*
X71015245Y-108679102D01*
X70915299Y-108639459D01*
X70869024Y-108679102D01*
X70822838Y-108730389D01*
X70681476Y-108757357D01*
X70625787Y-108756656D01*
X70557392Y-108742587D01*
X70505481Y-108692714D01*
X70462067Y-108584323D01*
X70419165Y-108394704D01*
X70368788Y-108101146D01*
X70345152Y-107950292D01*
X70807457Y-107950292D01*
X70824514Y-108190561D01*
X70834470Y-108225866D01*
X70918538Y-108347160D01*
X71092156Y-108379381D01*
X71257575Y-108350434D01*
X71359487Y-108231045D01*
X71365827Y-108208595D01*
X71355330Y-108000777D01*
X71239874Y-107839478D01*
X71052980Y-107774619D01*
X70899424Y-107810582D01*
X70807457Y-107950292D01*
X70345152Y-107950292D01*
X70302950Y-107680938D01*
X70286727Y-107576360D01*
X70232122Y-107213538D01*
X70203022Y-106970513D01*
X70201345Y-106823281D01*
X70229008Y-106747835D01*
X70287929Y-106720172D01*
X70380028Y-106716285D01*
X70427114Y-106717148D01*
X70528358Y-106739016D01*
X70592092Y-106814817D01*
X70636032Y-106976698D01*
X70677894Y-107256810D01*
X70724836Y-107608347D01*
X70943187Y-107499419D01*
X71079935Y-107441883D01*
X71229115Y-107434361D01*
X71426602Y-107501241D01*
X71532797Y-107552339D01*
X71682410Y-107688165D01*
X71772643Y-107912724D01*
X71787889Y-107978208D01*
X71799524Y-108208595D01*
X71802824Y-108273938D01*
G37*
G36*
X62503659Y-67975663D02*
G01*
X62656040Y-67995141D01*
X62721083Y-68046082D01*
X62735182Y-68143037D01*
X62757885Y-68396718D01*
X62845011Y-68589856D01*
X62999462Y-68653305D01*
X63122693Y-68680119D01*
X63229379Y-68815389D01*
X63263316Y-69075262D01*
X63262333Y-69111627D01*
X63216111Y-69228266D01*
X63069234Y-69258067D01*
X63040287Y-69258514D01*
X62919728Y-69290585D01*
X62912428Y-69390359D01*
X62914813Y-69399301D01*
X62945661Y-69550101D01*
X62988318Y-69796418D01*
X63034309Y-70089615D01*
X63038397Y-70116930D01*
X63084567Y-70415709D01*
X63126212Y-70669774D01*
X63154758Y-70826668D01*
X63165660Y-70910196D01*
X63131267Y-70968350D01*
X63012834Y-70992172D01*
X62776813Y-70996757D01*
X62727789Y-70997104D01*
X62574917Y-70998916D01*
X62467040Y-70984809D01*
X62392151Y-70932643D01*
X62338244Y-70820281D01*
X62293313Y-70625584D01*
X62245350Y-70326412D01*
X62182350Y-69900627D01*
X62155857Y-69729209D01*
X62110951Y-69492709D01*
X62063129Y-69358348D01*
X61998355Y-69294451D01*
X61902594Y-69269345D01*
X61748334Y-69225342D01*
X61635057Y-69097594D01*
X61601378Y-68861192D01*
X61603775Y-68789309D01*
X61651670Y-68679597D01*
X61793841Y-68653305D01*
X61869422Y-68651172D01*
X61945470Y-68620542D01*
X61962199Y-68521250D01*
X61936448Y-68313127D01*
X61885435Y-67972948D01*
X62309792Y-67972948D01*
X62503659Y-67975663D01*
G37*
G36*
X58852425Y-108388579D02*
G01*
X58881128Y-108549470D01*
X58896361Y-108663177D01*
X58854894Y-108741471D01*
X58702600Y-108757357D01*
X58541928Y-108731024D01*
X58449356Y-108662863D01*
X58404256Y-108606278D01*
X58314545Y-108662863D01*
X58239592Y-108713931D01*
X58019017Y-108758145D01*
X57776548Y-108710892D01*
X57574446Y-108579209D01*
X57499864Y-108484698D01*
X57380472Y-108209423D01*
X57371374Y-108094596D01*
X57797285Y-108094596D01*
X57870096Y-108270149D01*
X57877536Y-108278514D01*
X58024040Y-108357983D01*
X58207583Y-108378220D01*
X58345413Y-108328984D01*
X58351969Y-108321806D01*
X58395435Y-108177454D01*
X58370224Y-107993823D01*
X58286578Y-107853667D01*
X58187878Y-107804828D01*
X58003096Y-107787714D01*
X57946715Y-107803464D01*
X57828144Y-107919736D01*
X57797285Y-108094596D01*
X57371374Y-108094596D01*
X57357381Y-107917997D01*
X57439202Y-107668423D01*
X57597486Y-107498746D01*
X57826428Y-107427287D01*
X58097839Y-107500904D01*
X58248533Y-107570255D01*
X58303343Y-107567170D01*
X58291807Y-107487272D01*
X58282541Y-107450720D01*
X58244727Y-107265554D01*
X58204727Y-107031809D01*
X58184437Y-106894559D01*
X58182080Y-106763860D01*
X58236798Y-106721497D01*
X58369294Y-106729428D01*
X58427224Y-106737169D01*
X58506146Y-106764275D01*
X58562723Y-106831613D01*
X58608409Y-106966465D01*
X58654659Y-107196111D01*
X58712929Y-107547833D01*
X58752007Y-107788160D01*
X58807016Y-108120703D01*
X58816636Y-108177454D01*
X58852425Y-108388579D01*
G37*
G36*
X74143518Y-107680125D02*
G01*
X74184689Y-107947128D01*
X74214293Y-108152595D01*
X74229814Y-108260324D01*
X74260451Y-108498696D01*
X74271563Y-108625065D01*
X74270381Y-108646762D01*
X74231052Y-108715451D01*
X74110435Y-108747181D01*
X73873935Y-108753090D01*
X73584156Y-108738203D01*
X73232869Y-108665490D01*
X73002803Y-108528071D01*
X72882281Y-108320856D01*
X72855742Y-108210365D01*
X72863784Y-108076840D01*
X73347490Y-108076840D01*
X73369865Y-108239771D01*
X73438159Y-108318590D01*
X73593112Y-108379381D01*
X73628695Y-108377328D01*
X73717505Y-108319076D01*
X73741643Y-108152595D01*
X73741218Y-108122232D01*
X73707221Y-107969729D01*
X73605572Y-107925809D01*
X73448713Y-107960696D01*
X73347490Y-108076840D01*
X72863784Y-108076840D01*
X72865305Y-108051591D01*
X72971769Y-107902830D01*
X72974299Y-107900137D01*
X73078423Y-107779079D01*
X73080591Y-107710749D01*
X72983229Y-107639434D01*
X72937236Y-107602873D01*
X72847145Y-107425482D01*
X72848320Y-107387256D01*
X73304032Y-107387256D01*
X73357409Y-107469373D01*
X73503787Y-107535116D01*
X73571873Y-107542258D01*
X73646874Y-107511991D01*
X73625916Y-107383926D01*
X73619709Y-107363755D01*
X73568818Y-107220613D01*
X73513637Y-107182941D01*
X73408573Y-107215387D01*
X73343989Y-107260599D01*
X73304032Y-107387256D01*
X72848320Y-107387256D01*
X72853867Y-107206705D01*
X72959609Y-107005720D01*
X73069674Y-106925901D01*
X73255115Y-106880509D01*
X73549719Y-106867476D01*
X74014719Y-106867476D01*
X74116870Y-107511991D01*
X74143518Y-107680125D01*
G37*
G36*
X70745718Y-69938424D02*
G01*
X70745573Y-69969582D01*
X70686631Y-70396361D01*
X70518589Y-70719473D01*
X70237671Y-70943652D01*
X69840102Y-71073631D01*
X69687383Y-71092695D01*
X69348344Y-71083885D01*
X69021672Y-71018371D01*
X68753073Y-70907508D01*
X68588254Y-70762648D01*
X68582518Y-70746792D01*
X68617964Y-70629971D01*
X68734097Y-70480901D01*
X68776587Y-70438701D01*
X68898144Y-70338889D01*
X69000522Y-70334065D01*
X69151955Y-70413167D01*
X69357604Y-70504946D01*
X69543432Y-70543186D01*
X69556983Y-70542912D01*
X69762197Y-70478722D01*
X69925001Y-70334120D01*
X69991292Y-70155893D01*
X69990253Y-70135289D01*
X69965711Y-70082510D01*
X69889632Y-70046785D01*
X69737104Y-70023673D01*
X69483214Y-70008732D01*
X69103048Y-69997520D01*
X68214804Y-69976222D01*
X68238664Y-69673841D01*
X68242462Y-69632642D01*
X68289541Y-69456311D01*
X69008554Y-69456311D01*
X69048167Y-69515579D01*
X69191643Y-69550111D01*
X69462125Y-69560448D01*
X69507460Y-69560293D01*
X69766711Y-69547074D01*
X69888739Y-69505554D01*
X69885015Y-69425863D01*
X69767011Y-69298132D01*
X69655427Y-69224129D01*
X69441609Y-69172136D01*
X69231774Y-69199916D01*
X69072047Y-69297847D01*
X69008554Y-69456311D01*
X68289541Y-69456311D01*
X68351746Y-69223325D01*
X68576477Y-68906959D01*
X68905259Y-68694811D01*
X69326699Y-68598147D01*
X69390144Y-68594530D01*
X69835758Y-68643586D01*
X70209677Y-68817195D01*
X70496346Y-69100665D01*
X70680212Y-69479305D01*
X70683957Y-69505554D01*
X70745718Y-69938424D01*
G37*
G36*
X75021471Y-69546164D02*
G01*
X75076400Y-69906395D01*
X75034415Y-70314095D01*
X74879153Y-70656467D01*
X74620698Y-70913168D01*
X74269131Y-71063857D01*
X74208994Y-71076567D01*
X73977986Y-71107506D01*
X73808852Y-71104724D01*
X73716000Y-71089803D01*
X73506471Y-71073102D01*
X73480429Y-71071072D01*
X73303048Y-71017737D01*
X73098057Y-70914974D01*
X72840833Y-70758160D01*
X73064720Y-70534273D01*
X73133549Y-70466445D01*
X73257648Y-70368611D01*
X73363186Y-70360137D01*
X73510932Y-70426320D01*
X73565038Y-70452598D01*
X73842406Y-70526847D01*
X74077070Y-70496154D01*
X74239514Y-70370487D01*
X74300221Y-70159810D01*
X74298619Y-70129011D01*
X74274476Y-70076214D01*
X74201121Y-70042591D01*
X74053063Y-70023868D01*
X73804812Y-70015769D01*
X73430875Y-70014019D01*
X72561530Y-70014019D01*
X72561530Y-69685020D01*
X72566434Y-69578390D01*
X72600039Y-69456311D01*
X73317483Y-69456311D01*
X73357095Y-69515579D01*
X73500572Y-69550111D01*
X73771054Y-69560448D01*
X73816388Y-69560293D01*
X74075640Y-69547074D01*
X74197668Y-69505554D01*
X74193944Y-69425863D01*
X74075940Y-69298132D01*
X73964356Y-69224129D01*
X73750538Y-69172136D01*
X73540702Y-69199916D01*
X73380975Y-69297847D01*
X73317483Y-69456311D01*
X72600039Y-69456311D01*
X72666460Y-69215023D01*
X72877011Y-68922150D01*
X73173765Y-68712986D01*
X73532399Y-68600744D01*
X73928591Y-68598639D01*
X74338018Y-68719884D01*
X74379649Y-68739472D01*
X74687166Y-68934236D01*
X74888956Y-69188443D01*
X75006427Y-69505554D01*
X75021471Y-69546164D01*
G37*
G36*
X66407473Y-108207798D02*
G01*
X66342379Y-108501145D01*
X66186324Y-108675405D01*
X65947489Y-108725311D01*
X65634054Y-108645597D01*
X65599149Y-108634293D01*
X65513081Y-108660342D01*
X65508303Y-108761943D01*
X65592476Y-108893428D01*
X65677019Y-108946009D01*
X65831128Y-108980639D01*
X65970352Y-108968885D01*
X66030929Y-108908547D01*
X66030946Y-108907607D01*
X66098481Y-108854849D01*
X66257714Y-108832952D01*
X66348088Y-108840234D01*
X66470267Y-108907114D01*
X66461122Y-109024582D01*
X66316489Y-109168844D01*
X66209712Y-109222430D01*
X65945287Y-109277891D01*
X65657524Y-109274632D01*
X65422930Y-109209196D01*
X65328331Y-109139983D01*
X65197154Y-108979981D01*
X65184814Y-108950974D01*
X65136005Y-108783786D01*
X65075072Y-108528302D01*
X65011364Y-108229762D01*
X64970141Y-108015923D01*
X65406822Y-108015923D01*
X65431859Y-108192857D01*
X65562704Y-108360482D01*
X65656728Y-108425679D01*
X65777439Y-108439828D01*
X65914702Y-108333617D01*
X65988340Y-108179328D01*
X65967101Y-107984525D01*
X65850651Y-107832473D01*
X65769688Y-107790282D01*
X65595424Y-107778534D01*
X65467906Y-107865782D01*
X65406822Y-108015923D01*
X64970141Y-108015923D01*
X64954234Y-107933408D01*
X64913030Y-107684481D01*
X64897104Y-107528221D01*
X64908514Y-107513377D01*
X65022160Y-107486279D01*
X65218280Y-107479664D01*
X65272832Y-107480382D01*
X65533844Y-107467382D01*
X65744930Y-107434249D01*
X65806728Y-107423838D01*
X66025265Y-107472486D01*
X66218436Y-107630615D01*
X66356297Y-107866091D01*
X66408905Y-108146780D01*
X66408141Y-108179328D01*
X66407473Y-108207798D01*
G37*
G36*
X55475127Y-68616230D02*
G01*
X55798286Y-68757721D01*
X55897637Y-68824625D01*
X56021813Y-68895814D01*
X56072250Y-68886627D01*
X56081768Y-68802217D01*
X56083135Y-68770792D01*
X56119119Y-68695764D01*
X56231839Y-68661480D01*
X56458304Y-68653305D01*
X56545073Y-68653985D01*
X56735334Y-68670085D01*
X56830505Y-68720773D01*
X56872857Y-68823394D01*
X56884167Y-68881106D01*
X56917634Y-69072129D01*
X56964212Y-69350374D01*
X57018485Y-69682075D01*
X57075037Y-70033466D01*
X57128451Y-70370781D01*
X57173310Y-70660253D01*
X57204197Y-70868115D01*
X57215697Y-70960602D01*
X57181212Y-70975110D01*
X57033056Y-70990702D01*
X56807753Y-70996757D01*
X56399809Y-70996757D01*
X56304209Y-70354178D01*
X56304107Y-70353492D01*
X56208230Y-69867324D01*
X56085795Y-69525772D01*
X55934479Y-69324224D01*
X55751957Y-69258067D01*
X55622594Y-69269977D01*
X55498996Y-69337917D01*
X55437563Y-69485563D01*
X55431057Y-69734908D01*
X55472240Y-70107940D01*
X55484593Y-70193867D01*
X55530293Y-70491787D01*
X55571137Y-70730412D01*
X55599507Y-70864466D01*
X55608233Y-70909837D01*
X55577283Y-70965377D01*
X55457954Y-70990725D01*
X55218958Y-70996757D01*
X55200603Y-70996788D01*
X55013654Y-70997122D01*
X54889702Y-70979370D01*
X54809927Y-70917559D01*
X54755511Y-70785713D01*
X54707631Y-70557859D01*
X54647469Y-70208022D01*
X54578787Y-69702048D01*
X54570517Y-69297258D01*
X54627746Y-69004646D01*
X54751421Y-68811476D01*
X54841424Y-68738256D01*
X55144432Y-68610344D01*
X55475127Y-68616230D01*
G37*
G36*
X97733218Y-69938424D02*
G01*
X97733073Y-69969582D01*
X97674131Y-70396361D01*
X97506089Y-70719473D01*
X97225171Y-70943652D01*
X96827602Y-71073631D01*
X96674883Y-71092695D01*
X96335844Y-71083885D01*
X96009172Y-71018371D01*
X95740573Y-70907508D01*
X95575754Y-70762648D01*
X95570018Y-70746792D01*
X95605464Y-70629971D01*
X95721597Y-70480901D01*
X95764087Y-70438701D01*
X95885644Y-70338889D01*
X95988022Y-70334065D01*
X96139455Y-70413167D01*
X96345104Y-70504946D01*
X96530932Y-70543186D01*
X96542887Y-70542974D01*
X96749164Y-70479145D01*
X96912412Y-70333703D01*
X96978792Y-70153494D01*
X96977627Y-70129713D01*
X96953984Y-70077263D01*
X96880419Y-70043519D01*
X96731621Y-70024430D01*
X96482276Y-70015947D01*
X96107074Y-70014019D01*
X96014645Y-70013966D01*
X95636980Y-70009055D01*
X95386038Y-69987070D01*
X95241435Y-69935284D01*
X95182786Y-69840973D01*
X95189707Y-69691413D01*
X95241814Y-69473877D01*
X95248193Y-69456311D01*
X95996054Y-69456311D01*
X96035667Y-69515579D01*
X96179143Y-69550111D01*
X96449625Y-69560448D01*
X96494960Y-69560293D01*
X96754211Y-69547074D01*
X96876239Y-69505554D01*
X96872515Y-69425863D01*
X96754511Y-69298132D01*
X96642927Y-69224129D01*
X96429109Y-69172136D01*
X96219274Y-69199916D01*
X96059547Y-69297847D01*
X95996054Y-69456311D01*
X95248193Y-69456311D01*
X95323989Y-69247598D01*
X95552040Y-68919100D01*
X95863782Y-68695946D01*
X96235239Y-68587628D01*
X96642435Y-68603639D01*
X97061396Y-68753470D01*
X97174855Y-68819963D01*
X97483535Y-69104997D01*
X97670030Y-69478476D01*
X97673750Y-69505554D01*
X97733218Y-69938424D01*
G37*
G36*
X94831037Y-70260212D02*
G01*
X94778412Y-70463530D01*
X94622521Y-70755866D01*
X94406122Y-70979305D01*
X94162228Y-71092750D01*
X94139620Y-71096535D01*
X93769286Y-71077905D01*
X93369120Y-70914853D01*
X93234063Y-70843702D01*
X93145630Y-70825290D01*
X93123435Y-70885914D01*
X93101151Y-70940955D01*
X92984865Y-70984095D01*
X92745459Y-70996757D01*
X92609483Y-70994759D01*
X92435525Y-70984005D01*
X92367483Y-70967057D01*
X92365048Y-70947801D01*
X92343848Y-70806983D01*
X92303660Y-70548549D01*
X92247898Y-70194250D01*
X92180331Y-69768052D01*
X92970685Y-69768052D01*
X93019520Y-70024415D01*
X93147206Y-70227628D01*
X93234044Y-70294274D01*
X93503030Y-70382503D01*
X93789779Y-70340302D01*
X93830177Y-70318843D01*
X93941122Y-70168063D01*
X93983275Y-69945662D01*
X93959649Y-69700074D01*
X93873257Y-69479735D01*
X93727113Y-69333082D01*
X93536082Y-69269922D01*
X93286137Y-69276796D01*
X93091037Y-69376859D01*
X93004848Y-69521377D01*
X92970685Y-69768052D01*
X92180331Y-69768052D01*
X92179980Y-69765838D01*
X92103321Y-69285063D01*
X92070251Y-69077164D01*
X91996328Y-68604329D01*
X91932721Y-68186224D01*
X91882923Y-67846472D01*
X91850431Y-67608699D01*
X91838738Y-67496527D01*
X91840990Y-67461440D01*
X91881753Y-67399515D01*
X92001278Y-67376809D01*
X92235191Y-67383134D01*
X92632066Y-67405984D01*
X92745459Y-68176908D01*
X92858852Y-68947833D01*
X93047840Y-68802213D01*
X93355314Y-68636650D01*
X93690039Y-68591105D01*
X94015187Y-68663994D01*
X94311724Y-68839753D01*
X94560612Y-69102819D01*
X94742818Y-69437627D01*
X94839304Y-69828613D01*
X94837062Y-69945662D01*
X94831037Y-70260212D01*
G37*
G36*
X89461774Y-70332107D02*
G01*
X89506127Y-70602865D01*
X89531553Y-70751073D01*
X89577310Y-70996757D01*
X89199664Y-70996757D01*
X89152431Y-70996311D01*
X88886661Y-70965543D01*
X88759864Y-70885692D01*
X88714572Y-70830094D01*
X88629621Y-70832117D01*
X88472625Y-70922992D01*
X88333731Y-70994008D01*
X87999144Y-71066079D01*
X87643599Y-71044407D01*
X87332479Y-70928667D01*
X87243734Y-70868162D01*
X86970108Y-70574470D01*
X86791671Y-70197848D01*
X86721217Y-69774517D01*
X86728076Y-69715392D01*
X87529387Y-69715392D01*
X87540092Y-69811904D01*
X87617156Y-70033293D01*
X87739638Y-70232131D01*
X87872953Y-70345037D01*
X88095297Y-70390738D01*
X88330557Y-70338087D01*
X88499840Y-70189654D01*
X88585068Y-69974197D01*
X88568162Y-69720476D01*
X88431044Y-69457250D01*
X88402421Y-69424018D01*
X88200764Y-69296752D01*
X87970394Y-69274350D01*
X87753549Y-69344717D01*
X87592468Y-69495762D01*
X87529387Y-69715392D01*
X86728076Y-69715392D01*
X86771541Y-69340695D01*
X86868861Y-69084118D01*
X87085390Y-68798042D01*
X87370668Y-68635771D01*
X87705970Y-68606256D01*
X88072576Y-68718454D01*
X88175455Y-68768095D01*
X88335310Y-68838677D01*
X88404488Y-68859017D01*
X88405457Y-68849955D01*
X88393757Y-68735499D01*
X88362964Y-68519254D01*
X88318125Y-68237531D01*
X88299707Y-68127092D01*
X88244544Y-67787321D01*
X88220852Y-67566467D01*
X88236841Y-67440074D01*
X88300722Y-67383691D01*
X88420706Y-67372862D01*
X88605004Y-67383134D01*
X89000263Y-67405984D01*
X89243030Y-68955686D01*
X89258280Y-69052948D01*
X89333536Y-69530305D01*
X89402805Y-69965639D01*
X89404182Y-69974197D01*
X89461774Y-70332107D01*
G37*
G36*
X67868871Y-69977121D02*
G01*
X67830844Y-70340746D01*
X67711586Y-70663835D01*
X67515388Y-70914950D01*
X67246540Y-71062650D01*
X67055991Y-71098731D01*
X66734207Y-71068472D01*
X66381620Y-70914853D01*
X66246563Y-70843702D01*
X66158130Y-70825290D01*
X66135935Y-70885914D01*
X66113651Y-70940955D01*
X65997365Y-70984095D01*
X65757959Y-70996757D01*
X65621969Y-70994363D01*
X65448020Y-70981485D01*
X65379983Y-70961188D01*
X65377321Y-70939376D01*
X65355791Y-70793902D01*
X65315455Y-70531282D01*
X65259691Y-70173268D01*
X65197639Y-69778269D01*
X65982999Y-69778269D01*
X66022711Y-70019638D01*
X66159706Y-70227628D01*
X66171609Y-70238528D01*
X66412078Y-70368810D01*
X66667234Y-70369840D01*
X66891887Y-70240805D01*
X66998910Y-70092879D01*
X67032725Y-69855750D01*
X66932481Y-69565855D01*
X66856925Y-69443880D01*
X66674146Y-69300041D01*
X66406052Y-69258067D01*
X66343538Y-69263304D01*
X66153814Y-69359162D01*
X66030167Y-69544464D01*
X65982999Y-69778269D01*
X65197639Y-69778269D01*
X65191880Y-69741612D01*
X65115399Y-69258067D01*
X65079855Y-69033042D01*
X65006548Y-68562120D01*
X64943560Y-68148232D01*
X64894322Y-67814435D01*
X64862264Y-67583789D01*
X64850816Y-67479351D01*
X64872066Y-67424940D01*
X64986714Y-67381063D01*
X65224331Y-67368186D01*
X65353914Y-67371623D01*
X65543344Y-67392195D01*
X65633059Y-67425163D01*
X65645813Y-67466080D01*
X65678761Y-67633722D01*
X65720953Y-67894579D01*
X65766366Y-68213057D01*
X65864460Y-68943974D01*
X66069431Y-68798022D01*
X66115064Y-68767001D01*
X66470708Y-68616674D01*
X66835039Y-68612080D01*
X67191604Y-68750599D01*
X67523945Y-69029612D01*
X67684077Y-69254019D01*
X67821379Y-69604399D01*
X67853406Y-69855750D01*
X67868871Y-69977121D01*
G37*
G36*
X102321583Y-70165210D02*
G01*
X102328083Y-70205074D01*
X102402458Y-70670782D01*
X102467529Y-71095197D01*
X102519365Y-71451366D01*
X102554031Y-71712335D01*
X102567595Y-71851154D01*
X102564676Y-71965683D01*
X102523641Y-72030618D01*
X102406663Y-72049407D01*
X102176283Y-72040143D01*
X101779726Y-72017293D01*
X101690592Y-71412531D01*
X101677683Y-71325157D01*
X101637796Y-71058188D01*
X101608636Y-70867592D01*
X101595780Y-70789982D01*
X101590118Y-70789355D01*
X101502613Y-70830465D01*
X101344417Y-70921991D01*
X101206093Y-70992798D01*
X100842618Y-71070473D01*
X100473141Y-71012751D01*
X100123758Y-70826540D01*
X99820564Y-70518744D01*
X99759028Y-70422891D01*
X99699633Y-70261662D01*
X99670294Y-70037899D01*
X99662423Y-69707549D01*
X99662451Y-69702235D01*
X100460160Y-69702235D01*
X100483255Y-69931021D01*
X100564467Y-70154680D01*
X100686213Y-70324557D01*
X100830911Y-70391996D01*
X100860680Y-70394283D01*
X100998056Y-70427760D01*
X101141350Y-70419048D01*
X101319974Y-70335032D01*
X101456652Y-70209468D01*
X101499588Y-70099236D01*
X101502429Y-69862115D01*
X101428491Y-69605565D01*
X101368737Y-69508689D01*
X101174192Y-69361975D01*
X100933722Y-69310851D01*
X100697082Y-69360241D01*
X100514027Y-69515068D01*
X100512764Y-69516979D01*
X100460160Y-69702235D01*
X99662451Y-69702235D01*
X99663529Y-69500110D01*
X99675609Y-69269098D01*
X99711880Y-69115802D01*
X99785483Y-68995295D01*
X99909561Y-68862646D01*
X100082415Y-68711946D01*
X100263662Y-68634208D01*
X100514323Y-68615507D01*
X100821249Y-68649934D01*
X101110589Y-68785730D01*
X101176959Y-68832843D01*
X101293479Y-68907082D01*
X101327506Y-68895520D01*
X101308536Y-68800333D01*
X101295734Y-68728981D01*
X101326259Y-68675582D01*
X101441469Y-68659203D01*
X101674328Y-68667909D01*
X102080816Y-68691103D01*
X102272078Y-69862115D01*
X102321583Y-70165210D01*
G37*
G36*
X121018592Y-54154896D02*
G01*
X121627747Y-55515571D01*
X122214721Y-56826601D01*
X122776687Y-58081675D01*
X123310819Y-59274482D01*
X123814289Y-60398711D01*
X124284270Y-61448050D01*
X124717936Y-62416188D01*
X125112459Y-63296814D01*
X125465013Y-64083617D01*
X125772770Y-64770286D01*
X126032904Y-65350509D01*
X126242587Y-65817975D01*
X126398993Y-66166373D01*
X126499295Y-66389392D01*
X126540665Y-66480720D01*
X126655864Y-66726404D01*
X122508426Y-66726404D01*
X118360988Y-66726404D01*
X117010096Y-63742616D01*
X115659203Y-60758828D01*
X110666722Y-60756604D01*
X105674242Y-60754381D01*
X105108662Y-63721494D01*
X104543082Y-66688607D01*
X100669023Y-66708193D01*
X96794965Y-66727779D01*
X96835487Y-66557002D01*
X96844660Y-66511489D01*
X96880909Y-66324430D01*
X96943063Y-66000623D01*
X97029787Y-65547087D01*
X97139745Y-64970845D01*
X97271604Y-64278916D01*
X97424027Y-63478322D01*
X97595681Y-62576083D01*
X97785230Y-61579221D01*
X97991339Y-60494756D01*
X98212674Y-59329710D01*
X98447899Y-58091104D01*
X98695680Y-56785957D01*
X98954682Y-55421292D01*
X99223570Y-54004129D01*
X99291041Y-53648428D01*
X106764749Y-53648428D01*
X109756768Y-53648428D01*
X109964277Y-53648330D01*
X110606502Y-53646733D01*
X111194060Y-53643351D01*
X111710862Y-53638406D01*
X112140823Y-53632118D01*
X112467856Y-53624708D01*
X112675872Y-53616396D01*
X112748786Y-53607402D01*
X112741678Y-53586291D01*
X112686667Y-53445785D01*
X112581682Y-53185040D01*
X112432021Y-52817009D01*
X112242986Y-52354644D01*
X112019877Y-51810895D01*
X111767995Y-51198715D01*
X111492641Y-50531055D01*
X111199114Y-49820866D01*
X111175039Y-49762642D01*
X110854474Y-48980914D01*
X110533136Y-48186143D01*
X110219533Y-47400093D01*
X109922173Y-46644525D01*
X109649563Y-45941203D01*
X109410209Y-45311889D01*
X109212620Y-44778347D01*
X109065302Y-44362339D01*
X108481163Y-42649321D01*
X108390696Y-43707654D01*
X108348293Y-44146089D01*
X108284180Y-44708595D01*
X108211910Y-45267322D01*
X108140499Y-45748726D01*
X108124645Y-45845247D01*
X108073128Y-46152765D01*
X108002621Y-46568220D01*
X107916308Y-47073257D01*
X107817373Y-47649524D01*
X107708998Y-48278668D01*
X107594367Y-48942334D01*
X107476662Y-49622169D01*
X107359069Y-50299821D01*
X107244769Y-50956935D01*
X107136946Y-51575158D01*
X107038783Y-52136137D01*
X106953463Y-52621518D01*
X106884171Y-53012948D01*
X106834088Y-53292074D01*
X106806400Y-53440541D01*
X106764749Y-53648428D01*
X99291041Y-53648428D01*
X99501009Y-52541489D01*
X99785665Y-51040392D01*
X99980084Y-50015084D01*
X100259956Y-48539399D01*
X100531690Y-47106949D01*
X100793953Y-45724754D01*
X101045409Y-44399835D01*
X101284725Y-43139213D01*
X101510566Y-41949909D01*
X101721598Y-40838943D01*
X101916487Y-39813337D01*
X102093899Y-38880111D01*
X102252499Y-38046287D01*
X102390954Y-37318884D01*
X102507929Y-36704923D01*
X102602089Y-36211426D01*
X102672102Y-35845413D01*
X102716632Y-35613905D01*
X102734345Y-35523923D01*
X102773370Y-35353288D01*
X107696879Y-35372732D01*
X112620389Y-35392178D01*
X119522927Y-50813607D01*
X119745049Y-51309857D01*
X120390084Y-52750888D01*
X120773505Y-53607402D01*
X121018592Y-54154896D01*
G37*
G36*
X139781797Y-35760781D02*
G01*
X140661694Y-36233575D01*
X141868863Y-37024498D01*
X142986959Y-37936605D01*
X144016584Y-38970519D01*
X144958339Y-40126866D01*
X145812827Y-41406269D01*
X146580651Y-42809353D01*
X147100674Y-43944882D01*
X147667867Y-45462968D01*
X148104538Y-47020246D01*
X148413792Y-48630515D01*
X148598731Y-50307575D01*
X148662460Y-52065225D01*
X148662519Y-52204397D01*
X148636275Y-53444983D01*
X148558470Y-54581747D01*
X148424697Y-55650835D01*
X148230548Y-56688395D01*
X147971615Y-57730571D01*
X147855287Y-58129252D01*
X147379453Y-59457107D01*
X146791809Y-60711695D01*
X146099791Y-61884445D01*
X145310836Y-62966784D01*
X144432380Y-63950138D01*
X143471859Y-64825935D01*
X142436709Y-65585602D01*
X141334366Y-66220565D01*
X140172266Y-66722253D01*
X139733350Y-66873641D01*
X139179845Y-67038464D01*
X138602636Y-67178269D01*
X137969854Y-67299769D01*
X137249630Y-67409675D01*
X136410095Y-67514702D01*
X136401280Y-67515622D01*
X136231839Y-67523158D01*
X135942144Y-67526774D01*
X135560403Y-67526477D01*
X135114821Y-67522277D01*
X134633607Y-67514182D01*
X133520157Y-67473371D01*
X132257517Y-67374284D01*
X131095698Y-67218347D01*
X130011785Y-67002350D01*
X128982863Y-66723087D01*
X128760362Y-66653540D01*
X128494355Y-66567974D01*
X128312150Y-66506276D01*
X128244169Y-66478519D01*
X128240397Y-66452010D01*
X128217810Y-66295850D01*
X128176570Y-66011604D01*
X128118656Y-65612902D01*
X128046052Y-65113378D01*
X127960737Y-64526661D01*
X127864695Y-63866385D01*
X127759906Y-63146180D01*
X127648352Y-62379678D01*
X127583087Y-61930585D01*
X127475820Y-61189279D01*
X127376971Y-60502151D01*
X127288468Y-59882833D01*
X127212237Y-59344956D01*
X127150207Y-58902150D01*
X127104305Y-58568046D01*
X127076460Y-58356274D01*
X127068600Y-58280466D01*
X127070395Y-58280076D01*
X127156638Y-58308027D01*
X127351734Y-58383706D01*
X127628964Y-58496484D01*
X127961607Y-58635731D01*
X129098149Y-59073098D01*
X130349860Y-59451300D01*
X131571963Y-59712086D01*
X132755275Y-59855300D01*
X133890613Y-59880786D01*
X134968795Y-59788388D01*
X135980638Y-59577951D01*
X136916962Y-59249317D01*
X137768582Y-58802331D01*
X138015442Y-58634952D01*
X138595010Y-58149328D01*
X139144051Y-57566275D01*
X139629728Y-56922939D01*
X140019204Y-56256464D01*
X140048195Y-56197273D01*
X140402191Y-55314803D01*
X140664788Y-54337690D01*
X140836144Y-53289876D01*
X140916418Y-52195303D01*
X140905767Y-51077911D01*
X140804350Y-49961643D01*
X140612325Y-48870441D01*
X140329851Y-47828247D01*
X139957086Y-46859001D01*
X139479603Y-45940544D01*
X138870907Y-45040018D01*
X138173384Y-44237065D01*
X137398294Y-43541701D01*
X136556899Y-42963941D01*
X135660460Y-42513802D01*
X134720236Y-42201298D01*
X133999891Y-42064382D01*
X133048240Y-41991602D01*
X132044808Y-42019752D01*
X131020532Y-42146207D01*
X130006348Y-42368346D01*
X129033192Y-42683544D01*
X128399063Y-42961523D01*
X127652427Y-43361956D01*
X126904479Y-43831426D01*
X126200468Y-44341327D01*
X125585643Y-44863055D01*
X125231130Y-45193911D01*
X125187705Y-44942151D01*
X125169567Y-44832089D01*
X125126706Y-44556618D01*
X125068777Y-44172661D01*
X124998088Y-43696347D01*
X124916946Y-43143808D01*
X124827658Y-42531174D01*
X124732532Y-41874575D01*
X124633875Y-41190143D01*
X124533994Y-40494008D01*
X124435196Y-39802300D01*
X124339789Y-39131151D01*
X124250079Y-38496691D01*
X124168375Y-37915050D01*
X124096983Y-37402359D01*
X124038211Y-36974750D01*
X123994365Y-36648352D01*
X123967754Y-36439296D01*
X123960684Y-36363712D01*
X123981990Y-36351234D01*
X124114778Y-36283687D01*
X124347652Y-36169175D01*
X124656333Y-36019585D01*
X125016544Y-35846802D01*
X126047915Y-35354381D01*
X132502939Y-35354381D01*
X138957963Y-35354381D01*
X139781797Y-35760781D01*
G37*
G36*
X239798895Y-53081464D02*
G01*
X239767292Y-53829554D01*
X239691968Y-54789617D01*
X239574066Y-55673987D01*
X239406197Y-56525123D01*
X239180971Y-57385486D01*
X238890996Y-58297535D01*
X238847318Y-58424118D01*
X238328963Y-59737547D01*
X237728695Y-60934067D01*
X237037274Y-62028454D01*
X236245460Y-63035484D01*
X235344013Y-63969934D01*
X235319175Y-63993256D01*
X234250702Y-64892451D01*
X233102896Y-65662979D01*
X231875916Y-66304776D01*
X230569921Y-66817779D01*
X229185071Y-67201926D01*
X227721524Y-67457154D01*
X226179441Y-67583400D01*
X225619525Y-67596647D01*
X224044371Y-67538719D01*
X222515648Y-67340043D01*
X221038134Y-67002389D01*
X219616608Y-66527525D01*
X218255851Y-65917221D01*
X216960640Y-65173246D01*
X215735755Y-64297370D01*
X214585976Y-63291362D01*
X213518772Y-62165998D01*
X212520608Y-60900614D01*
X211637626Y-59542713D01*
X210872580Y-58098125D01*
X210228227Y-56572683D01*
X209707324Y-54972220D01*
X209312625Y-53302568D01*
X209046887Y-51569559D01*
X209025875Y-51354351D01*
X208993102Y-50849624D01*
X208970494Y-50255302D01*
X208963083Y-49868666D01*
X216883957Y-49868666D01*
X216884561Y-50045536D01*
X216912428Y-50973759D01*
X216987268Y-51797845D01*
X217116554Y-52553637D01*
X217307759Y-53276978D01*
X217568357Y-54003711D01*
X217905821Y-54769679D01*
X218383601Y-55667007D01*
X219012273Y-56603951D01*
X219719155Y-57436406D01*
X220494696Y-58155653D01*
X221329345Y-58752970D01*
X222213553Y-59219637D01*
X223137768Y-59546934D01*
X223313359Y-59591137D01*
X224070113Y-59721440D01*
X224892828Y-59779468D01*
X225725869Y-59760629D01*
X226575501Y-59646090D01*
X227498810Y-59387245D01*
X228353797Y-58997584D01*
X229134098Y-58482166D01*
X229833348Y-57846051D01*
X230445184Y-57094300D01*
X230963243Y-56231971D01*
X231381160Y-55264125D01*
X231400711Y-55208919D01*
X231664131Y-54268870D01*
X231835236Y-53241515D01*
X231914296Y-52157164D01*
X231901579Y-51046130D01*
X231797354Y-49938724D01*
X231601891Y-48865258D01*
X231315457Y-47856044D01*
X230981262Y-47013788D01*
X230470851Y-46037868D01*
X229862054Y-45140190D01*
X229166454Y-44332447D01*
X228395632Y-43626334D01*
X227561171Y-43033545D01*
X226674654Y-42565772D01*
X225747663Y-42234709D01*
X225440905Y-42161020D01*
X224764921Y-42053779D01*
X224039135Y-41999170D01*
X223311062Y-41998141D01*
X222628221Y-42051642D01*
X222038128Y-42160622D01*
X221908034Y-42195926D01*
X221011027Y-42526632D01*
X220174058Y-42988562D01*
X219407958Y-43570973D01*
X218723556Y-44263124D01*
X218131686Y-45054273D01*
X217643177Y-45933678D01*
X217268861Y-46890597D01*
X217156461Y-47258153D01*
X217054204Y-47638524D01*
X216980754Y-47993805D01*
X216931558Y-48359227D01*
X216902062Y-48770024D01*
X216887713Y-49261426D01*
X216883957Y-49868666D01*
X208963083Y-49868666D01*
X208958043Y-49605736D01*
X208955744Y-48935274D01*
X208963587Y-48278267D01*
X208981566Y-47669063D01*
X209009674Y-47142012D01*
X209047904Y-46731464D01*
X209071487Y-46552400D01*
X209343659Y-45036447D01*
X209735484Y-43609936D01*
X210249524Y-42266981D01*
X210888340Y-41001693D01*
X211654493Y-39808185D01*
X212550546Y-38680571D01*
X212612958Y-38610002D01*
X213490443Y-37722155D01*
X214465904Y-36908746D01*
X215505831Y-36195351D01*
X216576713Y-35607548D01*
X217103747Y-35354381D01*
X223289381Y-35354381D01*
X229475015Y-35354381D01*
X230246276Y-35718947D01*
X231191939Y-36206675D01*
X232251802Y-36867678D01*
X233263173Y-37633931D01*
X234258258Y-38527983D01*
X234466371Y-38731292D01*
X234946906Y-39221519D01*
X235368796Y-39690297D01*
X235764260Y-40176459D01*
X236165517Y-40718840D01*
X236604786Y-41356275D01*
X236925323Y-41851311D01*
X237718312Y-43263258D01*
X238388006Y-44754735D01*
X238931886Y-46316496D01*
X239347434Y-47939295D01*
X239632130Y-49613887D01*
X239783457Y-51331025D01*
X239790743Y-52157164D01*
X239798895Y-53081464D01*
G37*
G36*
X189816322Y-35524470D02*
G01*
X189822299Y-35560727D01*
X189848529Y-35736944D01*
X189894176Y-36051542D01*
X189958236Y-36497407D01*
X190039698Y-37067427D01*
X190137558Y-37754488D01*
X190250807Y-38551477D01*
X190378438Y-39451282D01*
X190519444Y-40446790D01*
X190672818Y-41530888D01*
X190837553Y-42696462D01*
X191012640Y-43936400D01*
X191197074Y-45243589D01*
X191389846Y-46610916D01*
X191589950Y-48031268D01*
X191796378Y-49497532D01*
X192008123Y-51002595D01*
X192133667Y-51895148D01*
X192342440Y-53378960D01*
X192545289Y-54820094D01*
X192741206Y-56211413D01*
X192929183Y-57545782D01*
X193108213Y-58816063D01*
X193277288Y-60015122D01*
X193435401Y-61135822D01*
X193581544Y-62171027D01*
X193714709Y-63113601D01*
X193833890Y-63956407D01*
X193938078Y-64692311D01*
X194026265Y-65314175D01*
X194097445Y-65814864D01*
X194150610Y-66187241D01*
X194184752Y-66424171D01*
X194198863Y-66518517D01*
X194236673Y-66726404D01*
X186014761Y-66726404D01*
X177792849Y-66726404D01*
X177320634Y-63305720D01*
X177239934Y-62719469D01*
X177148611Y-62051768D01*
X177065782Y-61441524D01*
X176993502Y-60904120D01*
X176933828Y-60454938D01*
X176888813Y-60109360D01*
X176860513Y-59882767D01*
X176850984Y-59790541D01*
X176850997Y-59790237D01*
X176881758Y-59769562D01*
X176977688Y-59751937D01*
X177148343Y-59737157D01*
X177403280Y-59725015D01*
X177752059Y-59715306D01*
X178204235Y-59707824D01*
X178769367Y-59702363D01*
X179457012Y-59698717D01*
X180276728Y-59696680D01*
X181238072Y-59696047D01*
X181918515Y-59695738D01*
X182678131Y-59694623D01*
X183379580Y-59692770D01*
X184009574Y-59690257D01*
X184554824Y-59687161D01*
X185002040Y-59683559D01*
X185337934Y-59679529D01*
X185549215Y-59675149D01*
X185622595Y-59670495D01*
X185617477Y-59627094D01*
X185593811Y-59452430D01*
X185553671Y-59164524D01*
X185500126Y-58784800D01*
X185436247Y-58334676D01*
X185365105Y-57835575D01*
X185289770Y-57308917D01*
X185213313Y-56776122D01*
X185138804Y-56258613D01*
X185069313Y-55777808D01*
X185007912Y-55355131D01*
X184957671Y-55012000D01*
X184921660Y-54769838D01*
X184902951Y-54650065D01*
X184859792Y-54404381D01*
X180778702Y-54404381D01*
X180237234Y-54404160D01*
X179389341Y-54402593D01*
X178677197Y-54399329D01*
X178090930Y-54394139D01*
X177620668Y-54386798D01*
X177256541Y-54377079D01*
X176988676Y-54364755D01*
X176807203Y-54349599D01*
X176702249Y-54331385D01*
X176663943Y-54309886D01*
X176663643Y-54308960D01*
X176646541Y-54212821D01*
X176611754Y-53986270D01*
X176561876Y-53647904D01*
X176499498Y-53216320D01*
X176427213Y-52710115D01*
X176347614Y-52147885D01*
X176263291Y-51548228D01*
X176176839Y-50929740D01*
X176090849Y-50311018D01*
X176007914Y-49710659D01*
X175930625Y-49147260D01*
X175861576Y-48639418D01*
X175803358Y-48205729D01*
X175758565Y-47864790D01*
X175729788Y-47635199D01*
X175719619Y-47535552D01*
X175742155Y-47520762D01*
X175852293Y-47502794D01*
X176060930Y-47487736D01*
X176375590Y-47475429D01*
X176803799Y-47465715D01*
X177353085Y-47458435D01*
X178030972Y-47453431D01*
X178844987Y-47450545D01*
X179802655Y-47449619D01*
X183885692Y-47449619D01*
X183839558Y-47161113D01*
X183834143Y-47125951D01*
X183805952Y-46932315D01*
X183761283Y-46617544D01*
X183703109Y-46202882D01*
X183634403Y-45709571D01*
X183558136Y-45158855D01*
X183477282Y-44571977D01*
X183161140Y-42271345D01*
X178744548Y-42233547D01*
X174327956Y-42195750D01*
X173855116Y-38831761D01*
X173778935Y-38289321D01*
X173686206Y-37627743D01*
X173601807Y-37024154D01*
X173527866Y-36493839D01*
X173466511Y-36052086D01*
X173419867Y-35714184D01*
X173390062Y-35495418D01*
X173379222Y-35411077D01*
X173379966Y-35410289D01*
X173468420Y-35402714D01*
X173697361Y-35395445D01*
X174057076Y-35388549D01*
X174537852Y-35382095D01*
X175129977Y-35376148D01*
X175823740Y-35370776D01*
X176609428Y-35366046D01*
X177477328Y-35362026D01*
X178417728Y-35358782D01*
X179420917Y-35356381D01*
X180477182Y-35354892D01*
X181576810Y-35354381D01*
X189777453Y-35354381D01*
X189816322Y-35524470D01*
G37*
G36*
X65158086Y-35524470D02*
G01*
X65164290Y-35562885D01*
X65190745Y-35741990D01*
X65236592Y-36059345D01*
X65300827Y-36507847D01*
X65382444Y-37080392D01*
X65480440Y-37769876D01*
X65593811Y-38569194D01*
X65721550Y-39471242D01*
X65862655Y-40468918D01*
X66016120Y-41555115D01*
X66180941Y-42722732D01*
X66356113Y-43964662D01*
X66540632Y-45273804D01*
X66733494Y-46643051D01*
X66933693Y-48065301D01*
X67140225Y-49533450D01*
X67352086Y-51040392D01*
X67482931Y-51971158D01*
X67691653Y-53455091D01*
X67894446Y-54895862D01*
X68090302Y-56286366D01*
X68278217Y-57619500D01*
X68457186Y-58888159D01*
X68626203Y-60085239D01*
X68784262Y-61203636D01*
X68930360Y-62236247D01*
X69063489Y-63175966D01*
X69182645Y-64015691D01*
X69286823Y-64748316D01*
X69375017Y-65366739D01*
X69446221Y-65863854D01*
X69499431Y-66232557D01*
X69533641Y-66465746D01*
X69547846Y-66556315D01*
X69586785Y-66726404D01*
X61354798Y-66726404D01*
X53122811Y-66726404D01*
X53033069Y-66027148D01*
X53004543Y-65811309D01*
X52956166Y-65454643D01*
X52892511Y-64991079D01*
X52816651Y-64442822D01*
X52731659Y-63832081D01*
X52640609Y-63181061D01*
X52546574Y-62511970D01*
X52149821Y-59696047D01*
X56515676Y-59696047D01*
X57174270Y-59695348D01*
X57935815Y-59692711D01*
X58640473Y-59688291D01*
X59274773Y-59682275D01*
X59825242Y-59674850D01*
X60278409Y-59666204D01*
X60620802Y-59656523D01*
X60838949Y-59645995D01*
X60919378Y-59634808D01*
X60919884Y-59578060D01*
X60902306Y-59385907D01*
X60866439Y-59075754D01*
X60814526Y-58665239D01*
X60748814Y-58171996D01*
X60671546Y-57613662D01*
X60584969Y-57007873D01*
X60514533Y-56522227D01*
X60432576Y-55956666D01*
X60359865Y-55454372D01*
X60298896Y-55032615D01*
X60252165Y-54708667D01*
X60222169Y-54499798D01*
X60211404Y-54423279D01*
X60190127Y-54421355D01*
X60041600Y-54417898D01*
X59763018Y-54414695D01*
X59368169Y-54411809D01*
X58870837Y-54409305D01*
X58284810Y-54407247D01*
X57623873Y-54405697D01*
X56901813Y-54404720D01*
X56132414Y-54404381D01*
X55723262Y-54404063D01*
X54974890Y-54401779D01*
X54280012Y-54397475D01*
X53652585Y-54391363D01*
X53106564Y-54383659D01*
X52655908Y-54374576D01*
X52314571Y-54364329D01*
X52096511Y-54353132D01*
X52015684Y-54341199D01*
X52014829Y-54339133D01*
X51996237Y-54241166D01*
X51960165Y-54013771D01*
X51909188Y-53675344D01*
X51845886Y-53244281D01*
X51772835Y-52738980D01*
X51692613Y-52177837D01*
X51607798Y-51579248D01*
X51520967Y-50961611D01*
X51434698Y-50343321D01*
X51351569Y-49742775D01*
X51274157Y-49178370D01*
X51205040Y-48668503D01*
X51146795Y-48231569D01*
X51102001Y-47885966D01*
X51073233Y-47650090D01*
X51063072Y-47542337D01*
X51070325Y-47531718D01*
X51134945Y-47512175D01*
X51274361Y-47495743D01*
X51498122Y-47482205D01*
X51815778Y-47471345D01*
X52236875Y-47462945D01*
X52770963Y-47456790D01*
X53427590Y-47452661D01*
X54216305Y-47450343D01*
X55146655Y-47449619D01*
X59230238Y-47449619D01*
X59192885Y-47279529D01*
X59188471Y-47256092D01*
X59163147Y-47094064D01*
X59121670Y-46809073D01*
X59066862Y-46421225D01*
X59001545Y-45950624D01*
X58928542Y-45417375D01*
X58850673Y-44841583D01*
X58823937Y-44643130D01*
X58747340Y-44079535D01*
X58676500Y-43565321D01*
X58614247Y-43120586D01*
X58563412Y-42765430D01*
X58526827Y-42519950D01*
X58507322Y-42404245D01*
X58468830Y-42234764D01*
X54067598Y-42215257D01*
X49666365Y-42195750D01*
X49196194Y-38869559D01*
X49125057Y-38365480D01*
X49031885Y-37702627D01*
X48947017Y-37095830D01*
X48872612Y-36560695D01*
X48810831Y-36112826D01*
X48763832Y-35767830D01*
X48733775Y-35541311D01*
X48722821Y-35448875D01*
X48741559Y-35435877D01*
X48818421Y-35421858D01*
X48961305Y-35409430D01*
X49177307Y-35398513D01*
X49473525Y-35389023D01*
X49857056Y-35380880D01*
X50334998Y-35374001D01*
X50914448Y-35368305D01*
X51602503Y-35363709D01*
X52406260Y-35360133D01*
X53332818Y-35357493D01*
X54389272Y-35355709D01*
X55582721Y-35354699D01*
X56920262Y-35354381D01*
X65120905Y-35354381D01*
X65158086Y-35524470D01*
G37*
G36*
X165366505Y-35696841D02*
G01*
X165596554Y-35858637D01*
X166047444Y-36212629D01*
X166516281Y-36618849D01*
X166954959Y-37034809D01*
X167315369Y-37418023D01*
X167921325Y-38186992D01*
X168533269Y-39160804D01*
X169025458Y-40202657D01*
X169402043Y-41323172D01*
X169667173Y-42532974D01*
X169824999Y-43842686D01*
X169863525Y-44909360D01*
X169794447Y-46009315D01*
X169605252Y-47024929D01*
X169293615Y-47963040D01*
X168857209Y-48830486D01*
X168293709Y-49634105D01*
X167600787Y-50380733D01*
X167195145Y-50750769D01*
X166763893Y-51111646D01*
X166288851Y-51476263D01*
X165751809Y-51857548D01*
X165134558Y-52268431D01*
X164418886Y-52721841D01*
X163586584Y-53230705D01*
X162806814Y-53719727D01*
X162038132Y-54252977D01*
X161404563Y-54758964D01*
X160900266Y-55244101D01*
X160519404Y-55714800D01*
X160256135Y-56177475D01*
X160104620Y-56638537D01*
X160059021Y-57104400D01*
X160071395Y-57367756D01*
X160191654Y-58003768D01*
X160437145Y-58555738D01*
X160805501Y-59020365D01*
X161294356Y-59394348D01*
X161901343Y-59674386D01*
X162071032Y-59728200D01*
X162757979Y-59855610D01*
X163507217Y-59868060D01*
X164293704Y-59768269D01*
X165092399Y-59558953D01*
X165878261Y-59242830D01*
X165879799Y-59242095D01*
X166372375Y-58989093D01*
X166830610Y-58712812D01*
X167279777Y-58393917D01*
X167745152Y-58013073D01*
X168252010Y-57550947D01*
X168825627Y-56988203D01*
X168970268Y-56842975D01*
X169295534Y-56519280D01*
X169576955Y-56243212D01*
X169798975Y-56029800D01*
X169946039Y-55894074D01*
X170002592Y-55851062D01*
X170030453Y-55895321D01*
X170129460Y-56054700D01*
X170290981Y-56315456D01*
X170505623Y-56662377D01*
X170763991Y-57080249D01*
X171056693Y-57553860D01*
X171374335Y-58067996D01*
X171707523Y-58607446D01*
X172046864Y-59156996D01*
X172382965Y-59701434D01*
X172706431Y-60225546D01*
X173007870Y-60714121D01*
X173277888Y-61151944D01*
X173507092Y-61523804D01*
X173686087Y-61814487D01*
X173805481Y-62008781D01*
X173855880Y-62091473D01*
X173854062Y-62140738D01*
X173772419Y-62296278D01*
X173605574Y-62529871D01*
X173367962Y-62824546D01*
X173074019Y-63163335D01*
X172738182Y-63529269D01*
X172374886Y-63905378D01*
X171998568Y-64274694D01*
X171291924Y-64901379D01*
X170224635Y-65690080D01*
X169101169Y-66345590D01*
X167929802Y-66863852D01*
X166718809Y-67240809D01*
X165476464Y-67472405D01*
X164467036Y-67551888D01*
X163327974Y-67544205D01*
X162165654Y-67444946D01*
X161011983Y-67259331D01*
X159898867Y-66992578D01*
X158858214Y-66649908D01*
X157921929Y-66236540D01*
X157257326Y-65871930D01*
X156633054Y-65466395D01*
X156038935Y-65003980D01*
X155422735Y-64447291D01*
X155373778Y-64400168D01*
X154560923Y-63508821D01*
X153870714Y-62530040D01*
X153303927Y-61465814D01*
X152861336Y-60318132D01*
X152543715Y-59088980D01*
X152351838Y-57780349D01*
X152286480Y-56394226D01*
X152298641Y-55727754D01*
X152382510Y-54675623D01*
X152550352Y-53723139D01*
X152807228Y-52850663D01*
X153158204Y-52038556D01*
X153608341Y-51267178D01*
X153728441Y-51091116D01*
X154153123Y-50541064D01*
X154650233Y-50001071D01*
X155231568Y-49461382D01*
X155908924Y-48912243D01*
X156694100Y-48343897D01*
X157598891Y-47746590D01*
X158635095Y-47110567D01*
X159412199Y-46635227D01*
X160134798Y-46160415D01*
X160731147Y-45725321D01*
X161208868Y-45321974D01*
X161575587Y-44942397D01*
X161838925Y-44578618D01*
X162006508Y-44222663D01*
X162085958Y-43866558D01*
X162084899Y-43502330D01*
X161997379Y-43037402D01*
X161768873Y-42492498D01*
X161409604Y-42021073D01*
X161065456Y-41710135D01*
X160571981Y-41406324D01*
X160026811Y-41232216D01*
X159401960Y-41176032D01*
X159315448Y-41177080D01*
X158619637Y-41265501D01*
X157880469Y-41494463D01*
X157102392Y-41861577D01*
X156289855Y-42364452D01*
X155447304Y-43000698D01*
X154579189Y-43767923D01*
X154265246Y-44064910D01*
X154154869Y-43886282D01*
X154090825Y-43772421D01*
X153968859Y-43545185D01*
X153798222Y-43222245D01*
X153587384Y-42820013D01*
X153344814Y-42354901D01*
X153078982Y-41843320D01*
X152798359Y-41301681D01*
X152511414Y-40746396D01*
X152226617Y-40193877D01*
X151952438Y-39660536D01*
X151697347Y-39162783D01*
X151469812Y-38717031D01*
X151278306Y-38339690D01*
X151131296Y-38047174D01*
X151037253Y-37855892D01*
X151004647Y-37782257D01*
X151050160Y-37709046D01*
X151203975Y-37556138D01*
X151446931Y-37347343D01*
X151758895Y-37097933D01*
X152119732Y-36823182D01*
X152509306Y-36538364D01*
X152907485Y-36258752D01*
X153294132Y-35999619D01*
X153649114Y-35776240D01*
X154348885Y-35354381D01*
X159600127Y-35354381D01*
X164851370Y-35354381D01*
X165366505Y-35696841D01*
G37*
G36*
X269971242Y-43008398D02*
G01*
X271048784Y-50662416D01*
X271046999Y-58694410D01*
X271045214Y-66726404D01*
X268361584Y-66726404D01*
X268236884Y-66726392D01*
X267547465Y-66725626D01*
X266992649Y-66723211D01*
X266558150Y-66718509D01*
X266229686Y-66710883D01*
X265992972Y-66699695D01*
X265833726Y-66684307D01*
X265737663Y-66664081D01*
X265690500Y-66638380D01*
X265677953Y-66606564D01*
X265670095Y-66533363D01*
X265643371Y-66318302D01*
X265598979Y-65972285D01*
X265538239Y-65505296D01*
X265462470Y-64927317D01*
X265372989Y-64248333D01*
X265271117Y-63478326D01*
X265158170Y-62627280D01*
X265035469Y-61705177D01*
X264904331Y-60722002D01*
X264766076Y-59687738D01*
X264622022Y-58612368D01*
X264475818Y-57521283D01*
X264301906Y-56220184D01*
X264146439Y-55051830D01*
X264008304Y-54006553D01*
X263886388Y-53074688D01*
X263779575Y-52246568D01*
X263686754Y-51512527D01*
X263606809Y-50862898D01*
X263538627Y-50288014D01*
X263481095Y-49778210D01*
X263433098Y-49323818D01*
X263393524Y-48915173D01*
X263361258Y-48542608D01*
X263335186Y-48196456D01*
X263314195Y-47867051D01*
X263297171Y-47544727D01*
X263283000Y-47219817D01*
X263270569Y-46882654D01*
X263221107Y-45446345D01*
X262926905Y-46542476D01*
X262881316Y-46711825D01*
X262830437Y-46898089D01*
X262778890Y-47081522D01*
X262724391Y-47268100D01*
X262664659Y-47463804D01*
X262597410Y-47674611D01*
X262520362Y-47906500D01*
X262431232Y-48165450D01*
X262327737Y-48457440D01*
X262207596Y-48788447D01*
X262068525Y-49164451D01*
X261908242Y-49591430D01*
X261724464Y-50075363D01*
X261514909Y-50622228D01*
X261277293Y-51238005D01*
X261009335Y-51928671D01*
X260708751Y-52700205D01*
X260373259Y-53558587D01*
X260000576Y-54509793D01*
X259588421Y-55559804D01*
X259134509Y-56714598D01*
X258636558Y-57980153D01*
X258092287Y-59362448D01*
X257499412Y-60867462D01*
X256855650Y-62501172D01*
X256158719Y-64269559D01*
X255205330Y-66688607D01*
X250992237Y-66708140D01*
X250978895Y-66708202D01*
X250045164Y-66711900D01*
X249252421Y-66713559D01*
X248590609Y-66712998D01*
X248049670Y-66710031D01*
X247619547Y-66704477D01*
X247290181Y-66696153D01*
X247051515Y-66684876D01*
X246893492Y-66670462D01*
X246806054Y-66652729D01*
X246779143Y-66631493D01*
X246773623Y-66585539D01*
X246748458Y-66398005D01*
X246703838Y-66072877D01*
X246640746Y-65617170D01*
X246560166Y-65037896D01*
X246463081Y-64342071D01*
X246350476Y-63536708D01*
X246223333Y-62628820D01*
X246082637Y-61625423D01*
X245929370Y-60533529D01*
X245764517Y-59360153D01*
X245589062Y-58112308D01*
X245403987Y-56797008D01*
X245210278Y-55421268D01*
X245008916Y-53992101D01*
X244800886Y-52516522D01*
X244587172Y-51001543D01*
X244430438Y-49890685D01*
X244220836Y-48404676D01*
X244017631Y-46963517D01*
X243821806Y-45574197D01*
X243634345Y-44243707D01*
X243456229Y-42979038D01*
X243288441Y-41787179D01*
X243131966Y-40675122D01*
X242987786Y-39649857D01*
X242856883Y-38718373D01*
X242740241Y-37887662D01*
X242638843Y-37164714D01*
X242553671Y-36556519D01*
X242485709Y-36070067D01*
X242435940Y-35712349D01*
X242405346Y-35490356D01*
X242394910Y-35411077D01*
X242399091Y-35408406D01*
X242505910Y-35397486D01*
X242746267Y-35387334D01*
X243105887Y-35378162D01*
X243570494Y-35370183D01*
X244125812Y-35363610D01*
X244757567Y-35358656D01*
X245451481Y-35355534D01*
X246193280Y-35354456D01*
X249991941Y-35354532D01*
X251072671Y-43084069D01*
X251111049Y-43358578D01*
X251299494Y-44707614D01*
X251468215Y-45918388D01*
X251618378Y-47000510D01*
X251751146Y-47963590D01*
X251867686Y-48817238D01*
X251969162Y-49571063D01*
X252056740Y-50234676D01*
X252131584Y-50817685D01*
X252194860Y-51329702D01*
X252247733Y-51780335D01*
X252291369Y-52179195D01*
X252326931Y-52535892D01*
X252355586Y-52860035D01*
X252378498Y-53161233D01*
X252396833Y-53449098D01*
X252411756Y-53733238D01*
X252424431Y-54023264D01*
X252436025Y-54328785D01*
X252486584Y-55727297D01*
X252663433Y-55009142D01*
X252694930Y-54883792D01*
X252772817Y-54592422D01*
X252864923Y-54272925D01*
X252974159Y-53917251D01*
X253103435Y-53517349D01*
X253255661Y-53065166D01*
X253433749Y-52552652D01*
X253640609Y-51971756D01*
X253879151Y-51314425D01*
X254152286Y-50572609D01*
X254462924Y-49738256D01*
X254813976Y-48803315D01*
X255208353Y-47759734D01*
X255648964Y-46599463D01*
X256138720Y-45314449D01*
X256680533Y-43896642D01*
X256721926Y-43788437D01*
X257119570Y-42748916D01*
X257503760Y-41744458D01*
X257870805Y-40784713D01*
X258217019Y-39879331D01*
X258538713Y-39037961D01*
X258832197Y-38270253D01*
X259093784Y-37585855D01*
X259319784Y-36994417D01*
X259506511Y-36505589D01*
X259650274Y-36129020D01*
X259747385Y-35874359D01*
X259794156Y-35751256D01*
X259943577Y-35354381D01*
X264418638Y-35354381D01*
X268893699Y-35354381D01*
X269971242Y-43008398D01*
G37*
G36*
X92993471Y-50927000D02*
G01*
X93150286Y-52028308D01*
X93362006Y-53516150D01*
X93567288Y-54959817D01*
X93765137Y-56352276D01*
X93954559Y-57686493D01*
X94134559Y-58955435D01*
X94304144Y-60152069D01*
X94462318Y-61269360D01*
X94608089Y-62300277D01*
X94740460Y-63237786D01*
X94858439Y-64074853D01*
X94961030Y-64804445D01*
X95047239Y-65419528D01*
X95116072Y-65913070D01*
X95166536Y-66278037D01*
X95197634Y-66507396D01*
X95208374Y-66594113D01*
X95207206Y-66609097D01*
X95191051Y-66636608D01*
X95146222Y-66659461D01*
X95060468Y-66678088D01*
X94921537Y-66692916D01*
X94717177Y-66704375D01*
X94435138Y-66712894D01*
X94063166Y-66718902D01*
X93589011Y-66722828D01*
X93000421Y-66725101D01*
X92285144Y-66726150D01*
X91430929Y-66726404D01*
X90889035Y-66725877D01*
X90078926Y-66722807D01*
X89371081Y-66717130D01*
X88773652Y-66709001D01*
X88294794Y-66698573D01*
X87942659Y-66686001D01*
X87725399Y-66671438D01*
X87651167Y-66655038D01*
X87649390Y-66636435D01*
X87630621Y-66491684D01*
X87593066Y-66217855D01*
X87538825Y-65829548D01*
X87469998Y-65341360D01*
X87388683Y-64767893D01*
X87296981Y-64123743D01*
X87196993Y-63423512D01*
X87090816Y-62681797D01*
X86980553Y-61913198D01*
X86868301Y-61132314D01*
X86756162Y-60353743D01*
X86646235Y-59592086D01*
X86540620Y-58861941D01*
X86441416Y-58177907D01*
X86350724Y-57554584D01*
X86270642Y-57006570D01*
X86203273Y-56548464D01*
X86150713Y-56194866D01*
X86115065Y-55960375D01*
X86098427Y-55859589D01*
X86096718Y-55851932D01*
X86077719Y-55792346D01*
X86037386Y-55749412D01*
X85954075Y-55720344D01*
X85806145Y-55702352D01*
X85571952Y-55692649D01*
X85229854Y-55688448D01*
X84758209Y-55686961D01*
X84441807Y-55685521D01*
X83705687Y-55676695D01*
X82940200Y-55660875D01*
X82167914Y-55638998D01*
X81411399Y-55612005D01*
X80693225Y-55580832D01*
X80035962Y-55546419D01*
X79462179Y-55509706D01*
X78994446Y-55471629D01*
X78655334Y-55433129D01*
X77862529Y-55290392D01*
X76809870Y-54994239D01*
X75852242Y-54585451D01*
X74980021Y-54057914D01*
X74183577Y-53405515D01*
X73453286Y-52622139D01*
X72779519Y-51701674D01*
X72443034Y-51150779D01*
X71884519Y-50025426D01*
X71441460Y-48820935D01*
X71116612Y-47552569D01*
X70912731Y-46235591D01*
X70845685Y-45106166D01*
X78166021Y-45106166D01*
X78167307Y-45379184D01*
X78174689Y-45758066D01*
X78191968Y-46039404D01*
X78223070Y-46257323D01*
X78271924Y-46445950D01*
X78342456Y-46639412D01*
X78427851Y-46837526D01*
X78715607Y-47334267D01*
X79082583Y-47745205D01*
X79541822Y-48078563D01*
X80106367Y-48342563D01*
X80789261Y-48545430D01*
X81603548Y-48695385D01*
X81787566Y-48718852D01*
X82206608Y-48761129D01*
X82703024Y-48801034D01*
X83229598Y-48834946D01*
X83739113Y-48859241D01*
X83781353Y-48860830D01*
X84250106Y-48877701D01*
X84590057Y-48886715D01*
X84821868Y-48886357D01*
X84966199Y-48875116D01*
X85043712Y-48851477D01*
X85075068Y-48813926D01*
X85080929Y-48760951D01*
X85073688Y-48684946D01*
X85046904Y-48469137D01*
X85002412Y-48132346D01*
X84942360Y-47690232D01*
X84868899Y-47158456D01*
X84784178Y-46552679D01*
X84690349Y-45888560D01*
X84589560Y-45181761D01*
X84503594Y-44580668D01*
X84408830Y-43915725D01*
X84322795Y-43309534D01*
X84247623Y-42777244D01*
X84185444Y-42334005D01*
X84138391Y-41994968D01*
X84108596Y-41775282D01*
X84098191Y-41690097D01*
X84080297Y-41670236D01*
X83944112Y-41642247D01*
X83694640Y-41629308D01*
X83356582Y-41629979D01*
X82954636Y-41642821D01*
X82513503Y-41666396D01*
X82057881Y-41699262D01*
X81612471Y-41739982D01*
X81201971Y-41787115D01*
X80851081Y-41839222D01*
X80584501Y-41894864D01*
X80277552Y-41984706D01*
X79631601Y-42251791D01*
X79106187Y-42597591D01*
X78690966Y-43029888D01*
X78375594Y-43556464D01*
X78356020Y-43598625D01*
X78278382Y-43777675D01*
X78225146Y-43941136D01*
X78191803Y-44122362D01*
X78173842Y-44354707D01*
X78166751Y-44671524D01*
X78166021Y-45106166D01*
X70845685Y-45106166D01*
X70832572Y-44885264D01*
X70878890Y-43516851D01*
X71054440Y-42145614D01*
X71124022Y-41789653D01*
X71433131Y-40684339D01*
X71865649Y-39655575D01*
X72415199Y-38710860D01*
X73075408Y-37857693D01*
X73839900Y-37103573D01*
X74702299Y-36455999D01*
X75656231Y-35922469D01*
X76695319Y-35510483D01*
X76711599Y-35505240D01*
X76797220Y-35478903D01*
X76885928Y-35455845D01*
X76987595Y-35435880D01*
X77112095Y-35418819D01*
X77269301Y-35404479D01*
X77469088Y-35392670D01*
X77721328Y-35383208D01*
X78035896Y-35375906D01*
X78422665Y-35370577D01*
X78891508Y-35367034D01*
X79452300Y-35365091D01*
X80114913Y-35364562D01*
X80889222Y-35365260D01*
X81785099Y-35366999D01*
X82812420Y-35369592D01*
X83981056Y-35372852D01*
X90780885Y-35392178D01*
X92684966Y-48760951D01*
X92993471Y-50927000D01*
G37*
G36*
X35398530Y-107618802D02*
G01*
X35532364Y-107704079D01*
X35875078Y-107911330D01*
X35892339Y-107920887D01*
X36175314Y-108077564D01*
X36252888Y-108114797D01*
X36405579Y-108188084D01*
X36413221Y-108190392D01*
X36538379Y-108228190D01*
X36542881Y-108227757D01*
X36615592Y-108155053D01*
X36690707Y-107995500D01*
X36789068Y-107823605D01*
X36905589Y-107779247D01*
X37005993Y-107866194D01*
X37059612Y-108077619D01*
X37075191Y-108212520D01*
X37099722Y-108374459D01*
X37106193Y-108417178D01*
X37115978Y-108481771D01*
X37124273Y-108530571D01*
X37173886Y-108822460D01*
X37187083Y-108894110D01*
X37210627Y-109021940D01*
X37224551Y-109097535D01*
X37238475Y-109173131D01*
X37241921Y-109191843D01*
X37293545Y-109469768D01*
X37294455Y-109475511D01*
X37341895Y-109774759D01*
X37354747Y-109929083D01*
X37359438Y-109985408D01*
X37348206Y-110133192D01*
X37316147Y-110231464D01*
X37310234Y-110249591D01*
X37215696Y-110457080D01*
X37014109Y-110231464D01*
X37153548Y-110231464D01*
X37191345Y-110269261D01*
X37229143Y-110231464D01*
X37191345Y-110193666D01*
X37153548Y-110231464D01*
X37014109Y-110231464D01*
X36995634Y-110210787D01*
X36838541Y-109979852D01*
X36824924Y-109929083D01*
X36926762Y-109929083D01*
X36964560Y-109966881D01*
X37002357Y-109929083D01*
X36964560Y-109891285D01*
X36926762Y-109929083D01*
X36824924Y-109929083D01*
X36775572Y-109745085D01*
X36761851Y-109547454D01*
X36739448Y-109475511D01*
X37153548Y-109475511D01*
X37191345Y-109513309D01*
X37229143Y-109475511D01*
X37191345Y-109437714D01*
X37153548Y-109475511D01*
X36739448Y-109475511D01*
X36702324Y-109356296D01*
X36604929Y-109286523D01*
X36537656Y-109303527D01*
X36363177Y-109372549D01*
X36137663Y-109476547D01*
X36090099Y-109497892D01*
X36041470Y-109519715D01*
X35889218Y-109566431D01*
X35667612Y-109634427D01*
X35256412Y-109696518D01*
X34843942Y-109706708D01*
X34466277Y-109665716D01*
X34159488Y-109574263D01*
X34146502Y-109565088D01*
X34551588Y-109565088D01*
X34658905Y-109576968D01*
X34762896Y-109566431D01*
X34753399Y-109538839D01*
X34719181Y-109528855D01*
X34564411Y-109538839D01*
X34551588Y-109565088D01*
X34146502Y-109565088D01*
X33959649Y-109433070D01*
X33901850Y-109357940D01*
X33854101Y-109253964D01*
X33985909Y-109253964D01*
X33995884Y-109310020D01*
X34085990Y-109420615D01*
X34162443Y-109492086D01*
X34186703Y-109497892D01*
X34122149Y-109384455D01*
X34045720Y-109282172D01*
X33985909Y-109253964D01*
X33854101Y-109253964D01*
X33839116Y-109221332D01*
X33862450Y-109173131D01*
X36699976Y-109173131D01*
X36737774Y-109210928D01*
X36775572Y-109173131D01*
X36737774Y-109135333D01*
X36699976Y-109173131D01*
X33862450Y-109173131D01*
X33892497Y-109111062D01*
X33911615Y-109097535D01*
X35641643Y-109097535D01*
X35679441Y-109135333D01*
X35717238Y-109097535D01*
X35679441Y-109059738D01*
X35641643Y-109097535D01*
X33911615Y-109097535D01*
X34018452Y-109021940D01*
X35036881Y-109021940D01*
X35074679Y-109059738D01*
X35112476Y-109021940D01*
X35074679Y-108984142D01*
X35036881Y-109021940D01*
X34018452Y-109021940D01*
X34073042Y-108983314D01*
X34102641Y-108965890D01*
X34149552Y-108945085D01*
X36106554Y-108945085D01*
X36134447Y-108959253D01*
X36209134Y-108916078D01*
X36246405Y-108805234D01*
X36233059Y-108773957D01*
X36156951Y-108816573D01*
X36116987Y-108867421D01*
X36106554Y-108945085D01*
X34149552Y-108945085D01*
X34252229Y-108899548D01*
X34439725Y-108859071D01*
X34702802Y-108838840D01*
X35079129Y-108833235D01*
X35135373Y-108833085D01*
X35550327Y-108820398D01*
X35828292Y-108786353D01*
X35969080Y-108733996D01*
X36927920Y-108733996D01*
X36938180Y-108779280D01*
X36951065Y-108805234D01*
X37002357Y-108908547D01*
X37012301Y-108923759D01*
X37064561Y-108978710D01*
X37076795Y-108894110D01*
X37068133Y-108827442D01*
X37002357Y-108719559D01*
X36974195Y-108706556D01*
X36927920Y-108733996D01*
X35969080Y-108733996D01*
X35980847Y-108729620D01*
X36039839Y-108676896D01*
X36024912Y-108639191D01*
X35903815Y-108614178D01*
X35654101Y-108592431D01*
X35262184Y-108530571D01*
X36246405Y-108530571D01*
X36249481Y-108551291D01*
X36326462Y-108606166D01*
X36353804Y-108600231D01*
X36359798Y-108530571D01*
X36344282Y-108507948D01*
X36279741Y-108454976D01*
X36272197Y-108456941D01*
X36246405Y-108530571D01*
X35262184Y-108530571D01*
X35255221Y-108529472D01*
X35005515Y-108417178D01*
X36473191Y-108417178D01*
X36510988Y-108454976D01*
X36548786Y-108417178D01*
X36510988Y-108379381D01*
X36473191Y-108417178D01*
X35005515Y-108417178D01*
X34979169Y-108405330D01*
X34820648Y-108267275D01*
X34792683Y-108233112D01*
X35206606Y-108233112D01*
X35225869Y-108303785D01*
X35241400Y-108326163D01*
X35310387Y-108379381D01*
X35320728Y-108374459D01*
X35301464Y-108303785D01*
X35285934Y-108281408D01*
X35216946Y-108228190D01*
X35206606Y-108233112D01*
X34792683Y-108233112D01*
X34757713Y-108190392D01*
X35566048Y-108190392D01*
X35603845Y-108228190D01*
X35641643Y-108190392D01*
X35603845Y-108152595D01*
X35566048Y-108190392D01*
X34757713Y-108190392D01*
X34695833Y-108114797D01*
X35868429Y-108114797D01*
X35906226Y-108152595D01*
X35944024Y-108114797D01*
X35906226Y-108077000D01*
X35868429Y-108114797D01*
X34695833Y-108114797D01*
X34618273Y-108020048D01*
X34491640Y-107779541D01*
X35055416Y-107779541D01*
X35074679Y-107850214D01*
X35090210Y-107872592D01*
X35159197Y-107925809D01*
X35169537Y-107920887D01*
X35150274Y-107850214D01*
X35134743Y-107827836D01*
X35065756Y-107774619D01*
X35055416Y-107779541D01*
X34491640Y-107779541D01*
X34484438Y-107765863D01*
X34453593Y-107585631D01*
X34885691Y-107585631D01*
X34923488Y-107623428D01*
X34961286Y-107585631D01*
X34923488Y-107547833D01*
X34885691Y-107585631D01*
X34453593Y-107585631D01*
X34447569Y-107550435D01*
X34460226Y-107487537D01*
X34565362Y-107354376D01*
X34762038Y-107332243D01*
X35042385Y-107420574D01*
X35338934Y-107585631D01*
X35398530Y-107618802D01*
G37*
G36*
X39527217Y-107940723D02*
G01*
X39607673Y-108125182D01*
X39650388Y-108262136D01*
X39664489Y-108370161D01*
X39659916Y-108435646D01*
X39653483Y-108454591D01*
X39612747Y-108574559D01*
X39503362Y-108756527D01*
X39317590Y-109003544D01*
X39041261Y-109337610D01*
X38779648Y-109643834D01*
X38520699Y-109942679D01*
X38299283Y-110194041D01*
X38145229Y-110363756D01*
X38087255Y-110422661D01*
X37974782Y-110511355D01*
X37928903Y-110547534D01*
X37750037Y-110621458D01*
X37526010Y-110645256D01*
X37232172Y-110619751D01*
X36843877Y-110545765D01*
X36336477Y-110424121D01*
X35534162Y-110234870D01*
X34780109Y-110087290D01*
X34141019Y-109997309D01*
X33628467Y-109966881D01*
X33395803Y-109958422D01*
X33215880Y-109934071D01*
X33147000Y-109899395D01*
X33161938Y-109823842D01*
X33176368Y-109773056D01*
X33381549Y-109773056D01*
X33443998Y-109790346D01*
X33630746Y-109819386D01*
X33909015Y-109853422D01*
X34246561Y-109888164D01*
X34322014Y-109895956D01*
X34740016Y-109954198D01*
X35239584Y-110042333D01*
X35768443Y-110150543D01*
X36274320Y-110269010D01*
X36539449Y-110334829D01*
X36934525Y-110428817D01*
X37270740Y-110503890D01*
X37518947Y-110553636D01*
X37650001Y-110571642D01*
X37742185Y-110565334D01*
X37792663Y-110511355D01*
X37759487Y-110363756D01*
X37746099Y-110315317D01*
X37702023Y-110102726D01*
X37652262Y-109806636D01*
X37605232Y-109475511D01*
X37596107Y-109406457D01*
X37537352Y-109010484D01*
X37469359Y-108610962D01*
X37405056Y-108284801D01*
X37363504Y-108107577D01*
X37297081Y-107897762D01*
X37224281Y-107786858D01*
X37128570Y-107742434D01*
X36780711Y-107669644D01*
X36223477Y-107539906D01*
X35626271Y-107388642D01*
X35048981Y-107230592D01*
X34788267Y-107157754D01*
X34514169Y-107085674D01*
X34324035Y-107041150D01*
X34248398Y-107031765D01*
X34242666Y-107040012D01*
X34180354Y-107171900D01*
X34089561Y-107408553D01*
X33978985Y-107722470D01*
X33857322Y-108086148D01*
X33733270Y-108472085D01*
X33615524Y-108852777D01*
X33512783Y-109200723D01*
X33433742Y-109488419D01*
X33387098Y-109688365D01*
X33381549Y-109773056D01*
X33176368Y-109773056D01*
X33219238Y-109622172D01*
X33310543Y-109328691D01*
X33426297Y-108971698D01*
X33556941Y-108579493D01*
X33692918Y-108180374D01*
X33824669Y-107802641D01*
X33942636Y-107474594D01*
X34037262Y-107224531D01*
X34098988Y-107080752D01*
X34116890Y-107050293D01*
X34249935Y-106879358D01*
X34266821Y-106860781D01*
X34356905Y-106860781D01*
X34407572Y-106888950D01*
X34579340Y-106949219D01*
X34845585Y-107031491D01*
X35178119Y-107127965D01*
X35548753Y-107230840D01*
X35929298Y-107332314D01*
X36291565Y-107424586D01*
X36607365Y-107499855D01*
X36848511Y-107550321D01*
X37017657Y-107584957D01*
X37216821Y-107637793D01*
X37317082Y-107681248D01*
X37334848Y-107705783D01*
X37399965Y-107868087D01*
X37475021Y-108135662D01*
X37552143Y-108474920D01*
X37623459Y-108852275D01*
X37681094Y-109234139D01*
X37688047Y-109287786D01*
X37732147Y-109621137D01*
X37773564Y-109924139D01*
X37804145Y-110136970D01*
X37827502Y-110266420D01*
X37881374Y-110395126D01*
X37966198Y-110383422D01*
X38102627Y-110238323D01*
X38119789Y-110217357D01*
X38243941Y-110070180D01*
X38438775Y-109842841D01*
X38681133Y-109562269D01*
X38947859Y-109255392D01*
X39646039Y-108454591D01*
X39477025Y-108105674D01*
X39308012Y-107756756D01*
X39289895Y-107888011D01*
X39279460Y-107963607D01*
X39267468Y-108050489D01*
X39211434Y-108253444D01*
X39094173Y-108530582D01*
X38943342Y-108811047D01*
X38752293Y-109098432D01*
X38702803Y-109157002D01*
X38497680Y-109399758D01*
X38404002Y-109475511D01*
X38262933Y-109589587D01*
X38059838Y-109664409D01*
X37900179Y-109620717D01*
X37808665Y-109475511D01*
X38060691Y-109475511D01*
X38098488Y-109513309D01*
X38136286Y-109475511D01*
X38098488Y-109437714D01*
X38060691Y-109475511D01*
X37808665Y-109475511D01*
X37795741Y-109455004D01*
X37769803Y-109253187D01*
X38363072Y-109253187D01*
X38363808Y-109263755D01*
X38407567Y-109280403D01*
X38483683Y-109199248D01*
X38502076Y-109157002D01*
X38450347Y-109165912D01*
X38416765Y-109189247D01*
X38363072Y-109253187D01*
X37769803Y-109253187D01*
X37758310Y-109163761D01*
X37769713Y-108990885D01*
X37820354Y-108846959D01*
X37933333Y-108711104D01*
X38131741Y-108555825D01*
X38438667Y-108353626D01*
X38490298Y-108317899D01*
X38650819Y-108163595D01*
X38727407Y-108017706D01*
X38729962Y-107998791D01*
X38729008Y-107963607D01*
X39119024Y-107963607D01*
X39156822Y-108001404D01*
X39194619Y-107963607D01*
X39156822Y-107925809D01*
X39119024Y-107963607D01*
X38729008Y-107963607D01*
X38727014Y-107890075D01*
X38721987Y-107888011D01*
X38892238Y-107888011D01*
X38930036Y-107925809D01*
X38967834Y-107888011D01*
X38930036Y-107850214D01*
X38892238Y-107888011D01*
X38721987Y-107888011D01*
X38666922Y-107865401D01*
X38528986Y-107927737D01*
X38292504Y-108080051D01*
X38289709Y-108081944D01*
X38056109Y-108225543D01*
X37902424Y-108269152D01*
X37793932Y-108210978D01*
X37695911Y-108049227D01*
X37641536Y-107903020D01*
X37652725Y-107761062D01*
X37663563Y-107736821D01*
X37758310Y-107736821D01*
X37796107Y-107774619D01*
X37833905Y-107736821D01*
X37796107Y-107699023D01*
X37758310Y-107736821D01*
X37663563Y-107736821D01*
X37741081Y-107563440D01*
X37838762Y-107409571D01*
X38062259Y-107189839D01*
X38314644Y-107061776D01*
X38555782Y-107050643D01*
X38664445Y-107089547D01*
X38792215Y-107176435D01*
X38947376Y-107332879D01*
X39160148Y-107585631D01*
X39193354Y-107611738D01*
X39164708Y-107532456D01*
X39074890Y-107358845D01*
X38999284Y-107220862D01*
X38839066Y-106925533D01*
X38703035Y-106671447D01*
X38539241Y-106362026D01*
X38092079Y-106874104D01*
X37995544Y-106983110D01*
X37802975Y-107190773D01*
X37656328Y-107335627D01*
X37581523Y-107391412D01*
X37579502Y-107378646D01*
X37644263Y-107282822D01*
X37783627Y-107113372D01*
X37978398Y-106894340D01*
X38076589Y-106785648D01*
X38262190Y-106570386D01*
X38390659Y-106407394D01*
X38438667Y-106325505D01*
X38387006Y-106260765D01*
X38244758Y-106185248D01*
X38185398Y-106162752D01*
X38052272Y-106120309D01*
X38014182Y-106145040D01*
X38034871Y-106247740D01*
X38017115Y-106362095D01*
X37911808Y-106574575D01*
X37741110Y-106829678D01*
X37728520Y-106848494D01*
X37612825Y-107000593D01*
X37603699Y-107012590D01*
X37564330Y-107056464D01*
X37431657Y-107204319D01*
X37426944Y-107207654D01*
X37279778Y-107311792D01*
X37113072Y-107364335D01*
X36902149Y-107379054D01*
X36637495Y-107320885D01*
X36617775Y-107312293D01*
X36426747Y-107251113D01*
X36250363Y-107207654D01*
X36775572Y-107207654D01*
X36813369Y-107245452D01*
X36851167Y-107207654D01*
X36813369Y-107169857D01*
X36775572Y-107207654D01*
X36250363Y-107207654D01*
X36148187Y-107182479D01*
X35835103Y-107119682D01*
X35764292Y-107106684D01*
X35531416Y-107056464D01*
X36397595Y-107056464D01*
X36435393Y-107094261D01*
X36473191Y-107056464D01*
X36435393Y-107018666D01*
X36397595Y-107056464D01*
X35531416Y-107056464D01*
X35477830Y-107044908D01*
X35253852Y-106982470D01*
X35232085Y-106972994D01*
X35737712Y-106972994D01*
X35738883Y-106998800D01*
X35836931Y-107012698D01*
X35911237Y-107000593D01*
X35882603Y-106967026D01*
X35838888Y-106954948D01*
X35737712Y-106972994D01*
X35232085Y-106972994D01*
X35135847Y-106931098D01*
X35067502Y-106829678D01*
X36624381Y-106829678D01*
X36662179Y-106867476D01*
X36699976Y-106829678D01*
X36662179Y-106791881D01*
X36624381Y-106829678D01*
X35067502Y-106829678D01*
X35046789Y-106798941D01*
X35065005Y-106637996D01*
X35185663Y-106489539D01*
X35385665Y-106380626D01*
X35641917Y-106338309D01*
X35681790Y-106339484D01*
X35962856Y-106389200D01*
X36226661Y-106489500D01*
X36434184Y-106585104D01*
X36712354Y-106634828D01*
X36970496Y-106558043D01*
X37249731Y-106349104D01*
X37387424Y-106228610D01*
X37566511Y-106087308D01*
X37682714Y-106014894D01*
X37741887Y-105980118D01*
X37656068Y-105966301D01*
X37606661Y-105959031D01*
X37420082Y-105912771D01*
X37150840Y-105833794D01*
X36839118Y-105733547D01*
X36683172Y-105682607D01*
X36384456Y-105592387D01*
X36146361Y-105530036D01*
X36009868Y-105506761D01*
X35954716Y-105528078D01*
X35797916Y-105628451D01*
X35575470Y-105791470D01*
X35314068Y-105995270D01*
X35040403Y-106217989D01*
X34781163Y-106437764D01*
X34563040Y-106632729D01*
X34412724Y-106781023D01*
X34356905Y-106860781D01*
X34266821Y-106860781D01*
X34463509Y-106644401D01*
X34730013Y-106372303D01*
X35021846Y-106089944D01*
X35311407Y-105824205D01*
X35571095Y-105601966D01*
X35773311Y-105450108D01*
X35845957Y-105411824D01*
X35939615Y-105394489D01*
X36074490Y-105406142D01*
X36276223Y-105451219D01*
X36570457Y-105534156D01*
X36982834Y-105659392D01*
X37076756Y-105688317D01*
X37561341Y-105838463D01*
X37927069Y-105957515D01*
X38195702Y-106057643D01*
X38388998Y-106151018D01*
X38528719Y-106249812D01*
X38636624Y-106366195D01*
X38734473Y-106512339D01*
X38844026Y-106700414D01*
X38968126Y-106916568D01*
X39216571Y-107354992D01*
X39399892Y-107690185D01*
X39423593Y-107736821D01*
X39527217Y-107940723D01*
G37*
%TO.C,F2*%
X41361000Y-41511936D02*
X41361000Y-42716064D01*
X39541000Y-41511936D02*
X39541000Y-42716064D01*
%TO.C,L1*%
X25444000Y-45383065D02*
X25444000Y-44178937D01*
X27264000Y-45383065D02*
X27264000Y-44178937D01*
%TO.C,U2*%
X61135500Y-52106000D02*
X61785500Y-52106000D01*
X61135500Y-52106000D02*
X60485500Y-52106000D01*
X61135500Y-48986000D02*
X62810500Y-48986000D01*
X61135500Y-48986000D02*
X60485500Y-48986000D01*
%TO.C,D28*%
X116412000Y-85687000D02*
X116412000Y-81787000D01*
X118412000Y-85687000D02*
X116412000Y-85687000D01*
X118412000Y-85687000D02*
X118412000Y-81787000D01*
D10*
%TO.C,J5*%
X36337000Y-49700000D02*
X36337000Y-47300000D01*
X36337000Y-47300000D02*
X35337000Y-47300000D01*
X31337000Y-51500000D02*
X35337000Y-51500000D01*
X31337000Y-47300000D02*
X30337000Y-47300000D01*
X30337000Y-47300000D02*
X30337000Y-49700000D01*
D11*
%TO.C,J2*%
X93031000Y-90491000D02*
X95691000Y-90491000D01*
X93031000Y-93091000D02*
X93031000Y-90491000D01*
X93031000Y-93091000D02*
X95691000Y-93091000D01*
X93031000Y-94361000D02*
X93031000Y-95691000D01*
X93031000Y-95691000D02*
X94361000Y-95691000D01*
X95691000Y-93091000D02*
X95691000Y-90491000D01*
%TO.C,REF\u002A\u002A*%
G36*
X192091375Y-85847978D02*
G01*
X192409714Y-86377145D01*
X192128781Y-86374623D01*
X192033795Y-86370420D01*
X191909266Y-86339569D01*
X191790607Y-86257888D01*
X191646681Y-86101232D01*
X191446348Y-85845456D01*
X191044849Y-85318812D01*
X191408943Y-85318812D01*
X191773036Y-85318812D01*
X192091375Y-85847978D01*
G37*
G36*
X199595038Y-89594847D02*
G01*
X199753201Y-89718127D01*
X199794627Y-89898076D01*
X199704850Y-90086729D01*
X199596488Y-90183657D01*
X199431891Y-90221686D01*
X199261581Y-90113710D01*
X199209994Y-90052169D01*
X199146597Y-89863081D01*
X199197576Y-89694171D01*
X199340401Y-89586638D01*
X199552542Y-89581677D01*
X199595038Y-89594847D01*
G37*
G36*
X196890933Y-85319754D02*
G01*
X196991583Y-85462757D01*
X197019260Y-85640856D01*
X196947073Y-85814342D01*
X196883705Y-85869053D01*
X196723741Y-85923574D01*
X196630363Y-85907518D01*
X196494101Y-85796907D01*
X196435212Y-85623484D01*
X196464170Y-85437479D01*
X196591449Y-85289121D01*
X196744196Y-85251557D01*
X196890933Y-85319754D01*
G37*
G36*
X185929623Y-85319754D02*
G01*
X186030274Y-85462757D01*
X186057950Y-85640856D01*
X185985764Y-85814342D01*
X185922396Y-85869053D01*
X185762431Y-85923574D01*
X185669054Y-85907518D01*
X185532791Y-85796907D01*
X185473902Y-85623484D01*
X185502861Y-85437479D01*
X185630140Y-85289121D01*
X185782886Y-85251557D01*
X185929623Y-85319754D01*
G37*
G36*
X173166944Y-85301011D02*
G01*
X173188051Y-85311455D01*
X173332645Y-85459150D01*
X173364048Y-85652823D01*
X173271201Y-85835756D01*
X173130190Y-85905892D01*
X172945431Y-85871826D01*
X172785601Y-85726545D01*
X172738204Y-85644533D01*
X172730922Y-85531438D01*
X172824754Y-85389085D01*
X172902653Y-85302018D01*
X173012881Y-85252216D01*
X173166944Y-85301011D01*
G37*
G36*
X207588779Y-89667174D02*
G01*
X207666685Y-89820216D01*
X207666618Y-89989505D01*
X207564388Y-90133773D01*
X207474361Y-90192786D01*
X207382669Y-90232502D01*
X207327803Y-90212793D01*
X207200951Y-90133773D01*
X207169263Y-90106051D01*
X207094896Y-89939195D01*
X207123917Y-89748368D01*
X207250378Y-89598050D01*
X207295808Y-89574910D01*
X207457090Y-89571649D01*
X207588779Y-89667174D01*
G37*
G36*
X207834948Y-90893961D02*
G01*
X207877350Y-91150319D01*
X207929905Y-91507325D01*
X207967216Y-91806329D01*
X208009662Y-92208430D01*
X207715250Y-92184306D01*
X207420838Y-92160181D01*
X207332915Y-91668812D01*
X207293068Y-91436029D01*
X207237183Y-91081040D01*
X207194998Y-90780568D01*
X207145005Y-90383693D01*
X207445065Y-90383693D01*
X207745125Y-90383693D01*
X207834948Y-90893961D01*
G37*
G36*
X208623581Y-89672006D02*
G01*
X208743991Y-89770206D01*
X208874725Y-89955412D01*
X209045091Y-90251401D01*
X209286983Y-90686074D01*
X209024233Y-90686074D01*
X208961284Y-90684312D01*
X208834083Y-90657821D01*
X208713425Y-90580388D01*
X208568108Y-90427790D01*
X208366932Y-90175806D01*
X207972380Y-89665538D01*
X208293587Y-89641740D01*
X208296506Y-89641525D01*
X208484189Y-89637038D01*
X208623581Y-89672006D01*
G37*
G36*
X198245888Y-89563838D02*
G01*
X198311241Y-89593982D01*
X198303378Y-89615215D01*
X198229607Y-89729472D01*
X198103354Y-89896360D01*
X198046618Y-89962285D01*
X197890917Y-90101464D01*
X197768789Y-90156905D01*
X197733178Y-90155811D01*
X197682878Y-90130567D01*
X197694749Y-90042972D01*
X197768789Y-89855295D01*
X197851042Y-89686726D01*
X197956037Y-89580374D01*
X198103354Y-89552914D01*
X198245888Y-89563838D01*
G37*
G36*
X186214710Y-86585032D02*
G01*
X186257112Y-86841391D01*
X186309666Y-87198396D01*
X186346978Y-87497401D01*
X186389424Y-87899502D01*
X186094826Y-87875377D01*
X185800229Y-87851252D01*
X185672748Y-87095300D01*
X185622321Y-86796747D01*
X185571974Y-86479172D01*
X185550840Y-86271525D01*
X185562510Y-86150533D01*
X185610576Y-86092924D01*
X185698631Y-86075425D01*
X185830266Y-86074764D01*
X186124887Y-86074764D01*
X186214710Y-86585032D01*
G37*
G36*
X173119128Y-86089100D02*
G01*
X173164345Y-86092947D01*
X173303746Y-86115962D01*
X173385564Y-86177577D01*
X173438566Y-86314403D01*
X173491518Y-86563055D01*
X173524194Y-86739062D01*
X173584999Y-87112188D01*
X173631232Y-87451299D01*
X173682038Y-87889050D01*
X173383821Y-87889050D01*
X173085603Y-87889050D01*
X172960625Y-87136514D01*
X172914441Y-86857121D01*
X172862752Y-86519731D01*
X172840923Y-86295571D01*
X172852301Y-86162533D01*
X172900231Y-86098513D01*
X172988058Y-86081404D01*
X173119128Y-86089100D01*
G37*
G36*
X196965278Y-86096081D02*
G01*
X197065643Y-86153148D01*
X197089089Y-86221057D01*
X197133055Y-86413813D01*
X197184638Y-86684560D01*
X197236893Y-86991873D01*
X197282871Y-87294327D01*
X197315628Y-87550498D01*
X197328215Y-87718961D01*
X197312315Y-87822031D01*
X197230609Y-87876449D01*
X197040774Y-87889050D01*
X196753046Y-87889050D01*
X196624247Y-87076401D01*
X196582289Y-86806221D01*
X196537551Y-86503244D01*
X196507201Y-86279209D01*
X196496202Y-86169258D01*
X196513010Y-86135206D01*
X196627538Y-86088847D01*
X196798769Y-86075227D01*
X196965278Y-86096081D01*
G37*
G36*
X199532339Y-90397901D02*
G01*
X199860368Y-90421490D01*
X199987383Y-91215240D01*
X200027260Y-91467429D01*
X200073574Y-91769208D01*
X200106250Y-91993120D01*
X200119962Y-92103484D01*
X200119606Y-92112965D01*
X200037882Y-92175995D01*
X199824586Y-92197978D01*
X199788735Y-92198121D01*
X199663372Y-92195726D01*
X199577778Y-92169778D01*
X199518880Y-92095185D01*
X199473605Y-91946858D01*
X199428880Y-91699704D01*
X199371631Y-91328633D01*
X199326372Y-91042866D01*
X199280775Y-90770451D01*
X199247289Y-90586889D01*
X199231729Y-90502102D01*
X199241435Y-90415205D01*
X199329600Y-90388454D01*
X199532339Y-90397901D01*
G37*
G36*
X161809554Y-85175546D02*
G01*
X161874336Y-85202116D01*
X161878384Y-85234294D01*
X161902152Y-85392423D01*
X161943638Y-85658161D01*
X161998732Y-86005289D01*
X162063324Y-86407592D01*
X162099265Y-86633117D01*
X162159844Y-87027553D01*
X162208380Y-87362376D01*
X162240620Y-87607743D01*
X162252312Y-87733811D01*
X162237974Y-87819674D01*
X162155767Y-87875349D01*
X161964268Y-87889050D01*
X161676223Y-87889050D01*
X161470995Y-86585032D01*
X161414927Y-86226141D01*
X161355690Y-85840342D01*
X161308879Y-85527892D01*
X161278278Y-85314111D01*
X161267671Y-85224318D01*
X161324190Y-85195063D01*
X161473686Y-85174244D01*
X161655739Y-85166997D01*
X161809554Y-85175546D01*
G37*
G36*
X172058890Y-86089100D02*
G01*
X172340467Y-86112562D01*
X172427050Y-86641728D01*
X172472422Y-86923455D01*
X172525309Y-87261089D01*
X172565878Y-87529973D01*
X172618124Y-87889050D01*
X172318871Y-87889050D01*
X172019618Y-87889050D01*
X171930801Y-87378782D01*
X171871615Y-87101768D01*
X171763364Y-86815419D01*
X171620463Y-86654360D01*
X171433505Y-86603931D01*
X171342557Y-86589546D01*
X171215123Y-86466971D01*
X171172550Y-86219772D01*
X171175482Y-86184879D01*
X171251218Y-86089174D01*
X171406214Y-86091045D01*
X171609301Y-86192444D01*
X171697383Y-86250988D01*
X171764045Y-86266837D01*
X171777312Y-86187880D01*
X171786344Y-86137755D01*
X171866689Y-86088429D01*
X172058890Y-86089100D01*
G37*
G36*
X195685316Y-85171685D02*
G01*
X195760510Y-85201676D01*
X195817852Y-85277552D01*
X195865932Y-85419955D01*
X195913340Y-85649526D01*
X195968665Y-85986908D01*
X196040498Y-86452740D01*
X196052490Y-86530174D01*
X196113771Y-86920355D01*
X196169462Y-87266446D01*
X196213844Y-87533321D01*
X196241200Y-87685853D01*
X196256455Y-87768391D01*
X196247743Y-87856823D01*
X196160782Y-87884212D01*
X195959360Y-87874841D01*
X195634478Y-87851252D01*
X195464492Y-86755121D01*
X195442617Y-86614404D01*
X195379291Y-86210786D01*
X195322354Y-85853052D01*
X195277331Y-85575720D01*
X195249746Y-85413306D01*
X195235835Y-85333182D01*
X195236554Y-85217418D01*
X195314118Y-85174124D01*
X195505697Y-85167621D01*
X195583680Y-85166939D01*
X195685316Y-85171685D01*
G37*
G36*
X151799643Y-86089100D02*
G01*
X152081498Y-86112562D01*
X152210718Y-86868514D01*
X152246491Y-87081857D01*
X152295673Y-87390709D01*
X152330348Y-87628677D01*
X152344637Y-87756758D01*
X152333290Y-87821736D01*
X152247208Y-87874830D01*
X152046955Y-87889050D01*
X151979362Y-87887613D01*
X151811538Y-87867871D01*
X151744136Y-87832353D01*
X151736523Y-87762184D01*
X151709892Y-87577674D01*
X151670804Y-87330539D01*
X151648542Y-87210683D01*
X151539280Y-86870746D01*
X151382069Y-86669921D01*
X151173981Y-86603931D01*
X151083033Y-86589546D01*
X150955600Y-86466971D01*
X150913027Y-86219772D01*
X150915958Y-86184879D01*
X150991694Y-86089174D01*
X151146690Y-86091045D01*
X151349778Y-86192444D01*
X151437859Y-86250988D01*
X151504521Y-86266837D01*
X151517788Y-86187880D01*
X151526875Y-86137640D01*
X151607327Y-86088407D01*
X151799643Y-86089100D01*
G37*
G36*
X206319077Y-86567792D02*
G01*
X206384844Y-86915160D01*
X206453561Y-87178678D01*
X206529307Y-87337291D01*
X206623944Y-87414918D01*
X206749331Y-87435478D01*
X206951283Y-87435478D01*
X206903685Y-86872389D01*
X206900797Y-86838480D01*
X206875017Y-86555263D01*
X206851811Y-86330744D01*
X206835896Y-86210931D01*
X206834703Y-86192606D01*
X206907268Y-86131996D01*
X207116368Y-86112562D01*
X207417030Y-86112562D01*
X207509404Y-86641728D01*
X207557977Y-86999805D01*
X207554667Y-87347318D01*
X207471346Y-87596956D01*
X207299775Y-87770226D01*
X207031715Y-87888635D01*
X206848209Y-87924820D01*
X206664515Y-87923100D01*
X206569935Y-87906516D01*
X206395287Y-87890082D01*
X206256894Y-87852890D01*
X206072572Y-87680069D01*
X205910404Y-87377652D01*
X205776533Y-86958092D01*
X205677099Y-86433842D01*
X205626812Y-86074764D01*
X205930016Y-86074764D01*
X206233220Y-86074764D01*
X206319077Y-86567792D01*
G37*
G36*
X184223112Y-90397599D02*
G01*
X184512483Y-90421490D01*
X184604452Y-90950657D01*
X184612863Y-91000043D01*
X184660684Y-91393692D01*
X184648348Y-91679352D01*
X184570932Y-91886813D01*
X184423516Y-92045867D01*
X184399523Y-92063522D01*
X184136551Y-92171587D01*
X183813601Y-92203849D01*
X183493945Y-92160524D01*
X183240855Y-92041828D01*
X183155932Y-91955133D01*
X183000886Y-91674550D01*
X182873102Y-91265614D01*
X182777727Y-90742770D01*
X182729358Y-90383693D01*
X183030364Y-90383693D01*
X183128121Y-90383877D01*
X183240785Y-90397010D01*
X183314311Y-90449881D01*
X183364626Y-90569852D01*
X183407659Y-90784283D01*
X183459339Y-91120533D01*
X183506209Y-91327147D01*
X183615411Y-91566255D01*
X183755488Y-91705055D01*
X183907429Y-91718190D01*
X183942835Y-91701489D01*
X183992013Y-91645811D01*
X184013442Y-91534802D01*
X184010759Y-91336823D01*
X183987597Y-91020234D01*
X183933742Y-90373707D01*
X184223112Y-90397599D01*
G37*
G36*
X196162437Y-89868333D02*
G01*
X196344570Y-89896457D01*
X196451825Y-89972848D01*
X196513642Y-90138008D01*
X196590038Y-90315889D01*
X196717322Y-90383693D01*
X196829754Y-90434342D01*
X196891056Y-90610478D01*
X196901042Y-90700935D01*
X196877890Y-90810174D01*
X196776352Y-90837264D01*
X196686134Y-90854111D01*
X196654907Y-90934844D01*
X196676000Y-91120746D01*
X196692552Y-91224399D01*
X196733941Y-91510516D01*
X196772508Y-91806324D01*
X196821379Y-92208419D01*
X196526876Y-92184300D01*
X196232372Y-92160181D01*
X196123290Y-91498723D01*
X196081944Y-91256768D01*
X196034053Y-91030162D01*
X195985938Y-90903853D01*
X195925292Y-90849125D01*
X195839808Y-90837264D01*
X195773292Y-90832805D01*
X195686742Y-90773601D01*
X195665407Y-90610478D01*
X195665828Y-90580253D01*
X195699804Y-90427654D01*
X195801418Y-90383693D01*
X195867806Y-90372890D01*
X195913523Y-90296884D01*
X195905946Y-90114018D01*
X195874463Y-89844342D01*
X196162437Y-89868333D01*
G37*
G36*
X202066511Y-86187071D02*
G01*
X202137800Y-86234329D01*
X202223097Y-86257781D01*
X202271800Y-86182242D01*
X202357138Y-86102268D01*
X202562953Y-86088835D01*
X202578017Y-86090317D01*
X202709821Y-86114276D01*
X202790202Y-86177123D01*
X202845079Y-86315520D01*
X202900371Y-86566133D01*
X202934547Y-86747039D01*
X202996069Y-87118621D01*
X203042427Y-87454377D01*
X203093270Y-87889050D01*
X202794550Y-87889050D01*
X202495831Y-87889050D01*
X202413433Y-87356710D01*
X202397700Y-87259340D01*
X202327831Y-86936833D01*
X202241080Y-86735992D01*
X202123068Y-86632972D01*
X201959412Y-86603931D01*
X201770739Y-86603931D01*
X201824264Y-87246490D01*
X201877789Y-87889050D01*
X201580078Y-87889050D01*
X201282367Y-87889050D01*
X201195219Y-87265389D01*
X201160037Y-87010343D01*
X201126186Y-86728942D01*
X201117382Y-86543514D01*
X201135738Y-86421774D01*
X201183373Y-86331435D01*
X201262400Y-86240209D01*
X201305605Y-86199981D01*
X201540008Y-86092387D01*
X201814181Y-86086726D01*
X202066511Y-86187071D01*
G37*
G36*
X192222505Y-90383983D02*
G01*
X192419890Y-90411176D01*
X192489546Y-90478187D01*
X192479263Y-90539269D01*
X192432866Y-90726522D01*
X192357706Y-90998648D01*
X192263274Y-91320330D01*
X192037864Y-92067979D01*
X192264136Y-92463460D01*
X192365310Y-92645339D01*
X192455616Y-92820400D01*
X192490407Y-92906436D01*
X192484841Y-92915695D01*
X192385315Y-92942962D01*
X192200576Y-92953931D01*
X191910745Y-92953931D01*
X191255636Y-91737475D01*
X191058151Y-91367564D01*
X190875026Y-91017866D01*
X190730120Y-90733870D01*
X190634823Y-90537918D01*
X190600527Y-90452356D01*
X190609091Y-90436272D01*
X190716532Y-90398705D01*
X190907648Y-90383693D01*
X191025181Y-90385474D01*
X191145247Y-90408266D01*
X191235111Y-90481151D01*
X191325675Y-90633319D01*
X191447842Y-90893961D01*
X191471989Y-90946167D01*
X191581850Y-91166087D01*
X191664255Y-91302839D01*
X191702897Y-91328633D01*
X191720304Y-91255554D01*
X191760586Y-91066257D01*
X191810622Y-90818365D01*
X191896365Y-90383693D01*
X192193386Y-90383693D01*
X192222505Y-90383983D01*
G37*
G36*
X184689152Y-85621511D02*
G01*
X184852288Y-85637448D01*
X184918445Y-85700620D01*
X184930884Y-85842721D01*
X184931987Y-85889250D01*
X184974327Y-86033409D01*
X185100973Y-86088405D01*
X185164118Y-86109595D01*
X185264758Y-86213285D01*
X185309955Y-86352976D01*
X185288891Y-86475661D01*
X185190749Y-86528336D01*
X185142390Y-86537527D01*
X185106121Y-86585315D01*
X185094254Y-86693996D01*
X185107159Y-86885588D01*
X185145203Y-87182106D01*
X185208754Y-87605568D01*
X185252588Y-87889050D01*
X184945177Y-87889050D01*
X184637767Y-87889050D01*
X184586037Y-87529973D01*
X184529651Y-87146430D01*
X184483964Y-86872850D01*
X184443495Y-86700449D01*
X184400467Y-86604496D01*
X184347101Y-86560265D01*
X184275621Y-86543026D01*
X184265055Y-86541227D01*
X184135120Y-86461183D01*
X184070385Y-86321735D01*
X184082627Y-86180325D01*
X184183627Y-86094394D01*
X184284206Y-86025570D01*
X184326122Y-85839162D01*
X184326525Y-85797649D01*
X184348224Y-85678853D01*
X184434481Y-85630417D01*
X184628503Y-85621193D01*
X184689152Y-85621511D01*
G37*
G36*
X202158838Y-90862355D02*
G01*
X202167382Y-90911986D01*
X202225761Y-91324827D01*
X202234106Y-91623444D01*
X202186726Y-91835511D01*
X202077927Y-91988700D01*
X201902015Y-92110686D01*
X201749761Y-92161657D01*
X201474346Y-92192046D01*
X201176984Y-92180395D01*
X200927818Y-92125631D01*
X200833398Y-92076537D01*
X200669509Y-91899171D01*
X200539149Y-91605074D01*
X200433560Y-91177443D01*
X200393556Y-90971204D01*
X200343459Y-90717848D01*
X200308976Y-90549310D01*
X200300011Y-90502997D01*
X200307498Y-90418698D01*
X200392497Y-90390229D01*
X200591375Y-90398120D01*
X200911157Y-90421490D01*
X201003833Y-90925745D01*
X201003905Y-90926135D01*
X201087794Y-91311606D01*
X201177110Y-91564263D01*
X201280899Y-91702424D01*
X201408211Y-91744407D01*
X201485882Y-91730113D01*
X201584410Y-91614934D01*
X201610679Y-91378745D01*
X201566132Y-91014883D01*
X201562520Y-90995344D01*
X201510249Y-90696586D01*
X201495925Y-90515503D01*
X201529570Y-90422634D01*
X201621208Y-90388518D01*
X201780862Y-90383693D01*
X202075482Y-90383693D01*
X202158838Y-90862355D01*
G37*
G36*
X178148372Y-91642623D02*
G01*
X178011790Y-91925718D01*
X177798552Y-92113237D01*
X177693803Y-92144860D01*
X177462286Y-92171738D01*
X177190033Y-92172511D01*
X177043556Y-92162702D01*
X176827191Y-92126871D01*
X176676106Y-92050984D01*
X176532628Y-91912203D01*
X176335302Y-91606734D01*
X176276624Y-91320952D01*
X176844773Y-91320952D01*
X176936687Y-91533337D01*
X177011292Y-91610900D01*
X177205840Y-91705432D01*
X177396143Y-91688439D01*
X177540734Y-91570620D01*
X177598146Y-91362674D01*
X177584118Y-91260063D01*
X177495743Y-91061187D01*
X177359647Y-90902248D01*
X177215200Y-90837264D01*
X177164638Y-90840733D01*
X176976804Y-90929523D01*
X176864164Y-91104638D01*
X176844773Y-91320952D01*
X176276624Y-91320952D01*
X176262943Y-91254322D01*
X176338390Y-90893162D01*
X176475358Y-90651691D01*
X176685825Y-90476984D01*
X176982492Y-90389126D01*
X177391369Y-90375325D01*
X177403487Y-90375984D01*
X177658417Y-90460380D01*
X177897775Y-90653122D01*
X178084409Y-90915087D01*
X178181171Y-91207146D01*
X178189709Y-91307973D01*
X178182952Y-91362674D01*
X178148372Y-91642623D01*
G37*
G36*
X210051553Y-89892661D02*
G01*
X210216496Y-89909864D01*
X210289128Y-89978501D01*
X210316426Y-90133332D01*
X210321365Y-90175679D01*
X210378273Y-90336747D01*
X210505414Y-90397916D01*
X210565311Y-90417790D01*
X210664888Y-90520729D01*
X210709111Y-90660768D01*
X210687625Y-90784187D01*
X210590080Y-90837264D01*
X210579331Y-90837766D01*
X210521685Y-90873628D01*
X210495195Y-90979910D01*
X210500136Y-91175933D01*
X210536783Y-91481021D01*
X210605411Y-91914496D01*
X210653047Y-92197978D01*
X210347605Y-92197978D01*
X210042163Y-92197978D01*
X209955655Y-91649913D01*
X209952186Y-91627918D01*
X209907887Y-91345081D01*
X209872553Y-91115999D01*
X209853559Y-90988455D01*
X209808243Y-90913857D01*
X209668653Y-90850905D01*
X209563658Y-90813811D01*
X209499336Y-90724796D01*
X209494913Y-90669725D01*
X209453451Y-90503268D01*
X209453406Y-90413585D01*
X209572541Y-90383693D01*
X209656452Y-90374898D01*
X209714800Y-90308083D01*
X209712920Y-90138008D01*
X209706194Y-90063856D01*
X209716437Y-89945009D01*
X209797960Y-89899607D01*
X209990705Y-89892324D01*
X210051553Y-89892661D01*
G37*
G36*
X193481404Y-86106280D02*
G01*
X193762342Y-86237406D01*
X193934481Y-86471485D01*
X193978345Y-86611165D01*
X193963225Y-86785531D01*
X193835691Y-86942373D01*
X193579290Y-87111320D01*
X193497340Y-87161593D01*
X193344704Y-87282688D01*
X193284157Y-87375904D01*
X193290649Y-87402094D01*
X193391094Y-87454076D01*
X193582592Y-87453417D01*
X193825751Y-87398476D01*
X193971583Y-87392443D01*
X194078438Y-87512065D01*
X194102713Y-87562928D01*
X194116239Y-87705855D01*
X194008127Y-87809031D01*
X193763632Y-87890166D01*
X193706585Y-87902475D01*
X193357814Y-87920887D01*
X193049012Y-87847270D01*
X192814063Y-87694652D01*
X192686851Y-87476066D01*
X192686284Y-87473790D01*
X192685298Y-87227547D01*
X192819911Y-87016732D01*
X193097697Y-86829427D01*
X193181602Y-86783977D01*
X193336235Y-86681620D01*
X193397550Y-86610482D01*
X193397152Y-86602506D01*
X193326596Y-86519020D01*
X193179129Y-86489749D01*
X193019068Y-86528607D01*
X192885844Y-86590408D01*
X192795551Y-86572323D01*
X192710282Y-86439826D01*
X192678400Y-86346292D01*
X192724821Y-86202700D01*
X192897258Y-86108562D01*
X193181656Y-86074764D01*
X193481404Y-86106280D01*
G37*
G36*
X205389238Y-87366460D02*
G01*
X205253544Y-87648027D01*
X205010268Y-87843123D01*
X204841018Y-87902023D01*
X204536489Y-87897669D01*
X204264366Y-87753788D01*
X204210089Y-87708368D01*
X204145124Y-87682180D01*
X204132074Y-87768504D01*
X204121131Y-87828585D01*
X204040757Y-87876249D01*
X203850497Y-87874714D01*
X203568919Y-87851252D01*
X203482337Y-87322086D01*
X203436964Y-87040359D01*
X203412189Y-86882197D01*
X204014957Y-86882197D01*
X204039710Y-87104868D01*
X204180224Y-87321638D01*
X204292542Y-87401587D01*
X204495263Y-87420537D01*
X204687322Y-87297234D01*
X204789585Y-87134731D01*
X204784250Y-86933604D01*
X204631777Y-86718785D01*
X204478672Y-86603299D01*
X204289205Y-86580474D01*
X204289007Y-86580526D01*
X204100033Y-86693968D01*
X204014957Y-86882197D01*
X203412189Y-86882197D01*
X203384077Y-86702725D01*
X203343508Y-86433842D01*
X203291263Y-86074764D01*
X203562850Y-86074764D01*
X203766695Y-86101706D01*
X203878992Y-86190870D01*
X203906318Y-86247193D01*
X203969377Y-86264851D01*
X204100746Y-86190870D01*
X204258070Y-86113429D01*
X204562589Y-86076912D01*
X204862786Y-86163202D01*
X205124348Y-86359246D01*
X205312961Y-86651993D01*
X205410725Y-87024499D01*
X205403799Y-87134731D01*
X205389238Y-87366460D01*
G37*
G36*
X180518135Y-86652979D02*
G01*
X180586850Y-86940315D01*
X180562024Y-87267891D01*
X180444237Y-87564074D01*
X180249164Y-87791312D01*
X179992482Y-87912057D01*
X179772142Y-87946498D01*
X179566740Y-87941950D01*
X179320669Y-87885829D01*
X179207182Y-87850673D01*
X179027275Y-87756866D01*
X178988561Y-87645014D01*
X179083914Y-87503612D01*
X179173418Y-87427377D01*
X179292044Y-87400457D01*
X179472987Y-87452941D01*
X179717180Y-87497056D01*
X179905976Y-87429839D01*
X180003837Y-87257287D01*
X180006703Y-87233082D01*
X179982007Y-87181256D01*
X179887394Y-87150909D01*
X179695804Y-87136652D01*
X179380177Y-87133098D01*
X178732074Y-87133098D01*
X178732074Y-86909869D01*
X178769448Y-86706101D01*
X179306952Y-86706101D01*
X179394066Y-86744584D01*
X179603792Y-86755121D01*
X179763115Y-86747211D01*
X179912367Y-86703703D01*
X179922292Y-86628024D01*
X179787552Y-86526807D01*
X179618151Y-86480031D01*
X179427796Y-86518293D01*
X179308395Y-86644606D01*
X179306952Y-86706101D01*
X178769448Y-86706101D01*
X178789666Y-86595871D01*
X178952482Y-86344312D01*
X179191631Y-86172379D01*
X179478136Y-86084239D01*
X179783016Y-86084062D01*
X180077295Y-86176014D01*
X180331994Y-86364263D01*
X180502046Y-86628024D01*
X180518135Y-86652979D01*
G37*
G36*
X175858162Y-90893961D02*
G01*
X175900564Y-91150319D01*
X175953119Y-91507325D01*
X175990431Y-91806329D01*
X176032876Y-92208430D01*
X175739964Y-92184306D01*
X175624310Y-92172754D01*
X175497343Y-92132409D01*
X175433617Y-92029347D01*
X175391455Y-91820002D01*
X175379489Y-91747061D01*
X175320554Y-91405152D01*
X175272707Y-91179422D01*
X175226952Y-91041345D01*
X175174290Y-90962396D01*
X175105726Y-90914049D01*
X175004221Y-90879857D01*
X174835752Y-90886738D01*
X174773765Y-90927518D01*
X174740523Y-91016889D01*
X174737750Y-91187014D01*
X174761053Y-91472330D01*
X174762593Y-91487958D01*
X174790315Y-91762096D01*
X174813187Y-91976019D01*
X174826394Y-92084586D01*
X174821177Y-92101947D01*
X174722583Y-92143545D01*
X174536792Y-92160181D01*
X174234666Y-92160181D01*
X174140315Y-91555419D01*
X174138223Y-91541940D01*
X174086921Y-91102766D01*
X174090907Y-90787368D01*
X174152278Y-90578435D01*
X174273130Y-90458659D01*
X174330339Y-90432858D01*
X174582098Y-90386744D01*
X174843399Y-90413656D01*
X175040854Y-90508802D01*
X175110109Y-90569110D01*
X175168294Y-90591813D01*
X175179098Y-90508802D01*
X175187856Y-90460214D01*
X175272616Y-90400558D01*
X175473719Y-90383693D01*
X175768339Y-90383693D01*
X175858162Y-90893961D01*
G37*
G36*
X171054194Y-86810832D02*
G01*
X171081770Y-87139361D01*
X171003268Y-87449676D01*
X170828628Y-87704332D01*
X170567788Y-87865884D01*
X170474604Y-87896429D01*
X170226748Y-87951185D01*
X170007702Y-87934121D01*
X169737771Y-87843044D01*
X169574595Y-87772616D01*
X169458839Y-87689243D01*
X169467693Y-87598148D01*
X169589279Y-87469449D01*
X169632955Y-87431863D01*
X169759058Y-87371499D01*
X169890634Y-87419935D01*
X170065465Y-87491289D01*
X170273847Y-87489200D01*
X170430434Y-87398064D01*
X170492193Y-87231371D01*
X170480892Y-87202115D01*
X170387818Y-87161732D01*
X170184068Y-87139746D01*
X169849634Y-87133098D01*
X169207074Y-87133098D01*
X169207074Y-86860955D01*
X169247221Y-86688782D01*
X169811836Y-86688782D01*
X169819530Y-86703637D01*
X169924838Y-86740403D01*
X170114217Y-86755121D01*
X170267423Y-86745223D01*
X170396240Y-86695655D01*
X170385654Y-86615099D01*
X170229849Y-86515601D01*
X170214053Y-86508865D01*
X170027653Y-86487513D01*
X169875054Y-86555161D01*
X169811836Y-86688782D01*
X169247221Y-86688782D01*
X169276255Y-86564266D01*
X169462262Y-86313115D01*
X169731398Y-86139856D01*
X170049961Y-86075879D01*
X170397112Y-86115782D01*
X170687483Y-86257994D01*
X170924597Y-86521717D01*
X171002565Y-86695655D01*
X171054194Y-86810832D01*
G37*
G36*
X165460146Y-86810832D02*
G01*
X165487723Y-87139361D01*
X165409221Y-87449676D01*
X165234580Y-87704332D01*
X164973741Y-87865884D01*
X164880557Y-87896429D01*
X164632700Y-87951185D01*
X164413654Y-87934121D01*
X164143723Y-87843044D01*
X163980547Y-87772616D01*
X163864791Y-87689243D01*
X163873645Y-87598148D01*
X163995231Y-87469449D01*
X164038907Y-87431863D01*
X164165010Y-87371499D01*
X164296587Y-87419935D01*
X164471418Y-87491289D01*
X164679799Y-87489200D01*
X164836387Y-87398064D01*
X164898146Y-87231371D01*
X164886845Y-87202115D01*
X164793771Y-87161732D01*
X164590020Y-87139746D01*
X164255586Y-87133098D01*
X163613027Y-87133098D01*
X163613027Y-86860955D01*
X163653173Y-86688782D01*
X164217788Y-86688782D01*
X164225483Y-86703637D01*
X164330790Y-86740403D01*
X164520169Y-86755121D01*
X164673375Y-86745223D01*
X164802192Y-86695655D01*
X164791606Y-86615099D01*
X164635801Y-86515601D01*
X164620006Y-86508865D01*
X164433606Y-86487513D01*
X164281006Y-86555161D01*
X164217788Y-86688782D01*
X163653173Y-86688782D01*
X163682207Y-86564266D01*
X163868215Y-86313115D01*
X164137350Y-86139856D01*
X164455913Y-86075879D01*
X164803064Y-86115782D01*
X165093436Y-86257994D01*
X165330549Y-86521717D01*
X165408517Y-86695655D01*
X165460146Y-86810832D01*
G37*
G36*
X154421684Y-86848104D02*
G01*
X154424627Y-87229869D01*
X154418452Y-87262349D01*
X154297184Y-87557953D01*
X154090548Y-87790176D01*
X153836093Y-87915289D01*
X153795289Y-87922743D01*
X153552902Y-87931553D01*
X153289394Y-87898445D01*
X153047841Y-87834237D01*
X152871320Y-87749747D01*
X152802907Y-87655796D01*
X152834502Y-87598091D01*
X152939842Y-87486178D01*
X153012458Y-87429874D01*
X153135578Y-87401965D01*
X153319741Y-87453963D01*
X153561248Y-87497252D01*
X153749928Y-87429757D01*
X153847885Y-87257287D01*
X153850750Y-87233082D01*
X153826054Y-87181256D01*
X153731441Y-87150909D01*
X153539851Y-87136652D01*
X153224224Y-87133098D01*
X152576122Y-87133098D01*
X152576122Y-86860955D01*
X152612217Y-86706101D01*
X153151000Y-86706101D01*
X153238113Y-86744584D01*
X153447840Y-86755121D01*
X153607163Y-86747211D01*
X153756415Y-86703703D01*
X153766340Y-86628024D01*
X153631600Y-86526807D01*
X153462198Y-86480031D01*
X153271844Y-86518293D01*
X153152442Y-86644606D01*
X153151000Y-86706101D01*
X152612217Y-86706101D01*
X152645161Y-86564765D01*
X152831111Y-86313447D01*
X153100289Y-86139739D01*
X153419009Y-86075047D01*
X153718591Y-86113229D01*
X154049364Y-86267617D01*
X154290163Y-86519964D01*
X154333474Y-86628024D01*
X154421684Y-86848104D01*
G37*
G36*
X148441311Y-87010126D02*
G01*
X148410900Y-87318121D01*
X148296689Y-87592919D01*
X148101129Y-87802107D01*
X147826669Y-87913271D01*
X147593377Y-87928185D01*
X147322625Y-87903490D01*
X147077364Y-87845662D01*
X146899486Y-87764879D01*
X146830884Y-87671321D01*
X146862012Y-87604399D01*
X146967818Y-87486178D01*
X147040434Y-87429874D01*
X147163554Y-87401965D01*
X147347717Y-87453963D01*
X147589224Y-87497252D01*
X147777904Y-87429757D01*
X147875861Y-87257287D01*
X147878277Y-87223721D01*
X147845147Y-87176711D01*
X147740044Y-87149209D01*
X147536587Y-87136307D01*
X147208396Y-87133098D01*
X146516490Y-87133098D01*
X146564697Y-86887413D01*
X146619038Y-86677905D01*
X147133265Y-86677905D01*
X147153053Y-86703199D01*
X147281621Y-86740465D01*
X147490242Y-86755121D01*
X147847220Y-86755121D01*
X147682435Y-86590337D01*
X147605364Y-86519589D01*
X147480972Y-86467062D01*
X147325457Y-86513121D01*
X147194621Y-86593515D01*
X147133265Y-86677905D01*
X146619038Y-86677905D01*
X146627482Y-86645349D01*
X146775488Y-86360783D01*
X146994546Y-86181708D01*
X147280510Y-86093410D01*
X147636091Y-86089647D01*
X147957340Y-86184293D01*
X148005254Y-86211101D01*
X148240938Y-86424203D01*
X148385474Y-86701349D01*
X148395198Y-86755121D01*
X148441311Y-87010126D01*
G37*
G36*
X206801806Y-91196342D02*
G01*
X206843670Y-91466151D01*
X206888455Y-91770363D01*
X206918838Y-91996123D01*
X206929851Y-92108048D01*
X206928879Y-92119394D01*
X206852365Y-92179493D01*
X206645616Y-92183643D01*
X206540149Y-92172988D01*
X206413061Y-92132675D01*
X206347058Y-92029483D01*
X206301002Y-91820002D01*
X206271104Y-91658767D01*
X206194111Y-91306224D01*
X206118547Y-91072912D01*
X206035551Y-90935800D01*
X205936264Y-90871857D01*
X205779984Y-90852496D01*
X205659401Y-90936917D01*
X205615056Y-91144966D01*
X205644682Y-91481383D01*
X205667187Y-91619696D01*
X205708313Y-91905349D01*
X205713631Y-92078093D01*
X205675276Y-92164404D01*
X205585385Y-92190762D01*
X205436092Y-92183643D01*
X205432098Y-92183312D01*
X205271118Y-92162202D01*
X205177870Y-92107522D01*
X205120063Y-91981011D01*
X205065405Y-91744407D01*
X205056321Y-91700398D01*
X204981069Y-91206208D01*
X204983530Y-90835009D01*
X205066010Y-90579234D01*
X205230816Y-90431317D01*
X205480255Y-90383693D01*
X205501176Y-90384004D01*
X205739081Y-90421156D01*
X205929539Y-90501372D01*
X206016132Y-90559041D01*
X206083885Y-90576792D01*
X206097550Y-90501372D01*
X206102225Y-90468555D01*
X206183301Y-90403129D01*
X206385279Y-90383693D01*
X206673007Y-90383693D01*
X206801806Y-91196342D01*
G37*
G36*
X176332183Y-85159849D02*
G01*
X176554847Y-85202159D01*
X176724799Y-85271441D01*
X176815369Y-85337816D01*
X176898174Y-85438873D01*
X176959682Y-85596871D01*
X177023328Y-85857844D01*
X177087717Y-85998307D01*
X177208642Y-86093653D01*
X177311320Y-86167692D01*
X177387974Y-86329472D01*
X177397233Y-86386341D01*
X177381425Y-86499787D01*
X177275832Y-86528336D01*
X177223259Y-86531747D01*
X177156090Y-86585019D01*
X177167140Y-86736223D01*
X177190429Y-86873527D01*
X177226974Y-87131988D01*
X177262535Y-87421760D01*
X177316466Y-87899411D01*
X177022633Y-87875331D01*
X176728800Y-87851252D01*
X176635067Y-87284288D01*
X176614882Y-87162763D01*
X176562212Y-86866913D01*
X176516753Y-86682798D01*
X176466015Y-86581861D01*
X176397511Y-86535547D01*
X176298750Y-86515300D01*
X176161645Y-86452408D01*
X176100118Y-86282651D01*
X176093817Y-86190611D01*
X176133444Y-86095831D01*
X176275302Y-86074764D01*
X176357333Y-86071557D01*
X176438871Y-86028920D01*
X176421325Y-85904675D01*
X176392615Y-85827899D01*
X176274120Y-85679385D01*
X176119173Y-85671318D01*
X176096375Y-85671619D01*
X176025668Y-85594669D01*
X175966054Y-85448633D01*
X175937660Y-85294299D01*
X175960615Y-85192454D01*
X175974865Y-85181584D01*
X176118343Y-85150870D01*
X176332183Y-85159849D01*
G37*
G36*
X198981256Y-91158190D02*
G01*
X198980071Y-91491020D01*
X198874474Y-91805876D01*
X198661471Y-92064006D01*
X198557555Y-92122007D01*
X198300447Y-92183740D01*
X197996308Y-92197154D01*
X197706152Y-92161601D01*
X197490995Y-92076434D01*
X197317465Y-91954889D01*
X197480590Y-91781250D01*
X197484836Y-91776734D01*
X197604389Y-91666590D01*
X197705937Y-91655013D01*
X197862637Y-91732706D01*
X197880710Y-91742660D01*
X198102855Y-91802382D01*
X198278101Y-91739986D01*
X198373480Y-91566215D01*
X198376345Y-91539743D01*
X198349721Y-91489082D01*
X198252701Y-91459425D01*
X198058383Y-91445497D01*
X197739866Y-91442026D01*
X197081810Y-91442026D01*
X197124894Y-91120746D01*
X197143427Y-91023483D01*
X197152887Y-91003574D01*
X197706479Y-91003574D01*
X197724932Y-91022858D01*
X197851437Y-91052410D01*
X198058374Y-91064050D01*
X198219201Y-91062863D01*
X198338718Y-91048741D01*
X198348625Y-91004485D01*
X198273443Y-90912859D01*
X198153915Y-90814247D01*
X198012263Y-90761669D01*
X197909718Y-90784838D01*
X197768930Y-90881575D01*
X197706479Y-91003574D01*
X197152887Y-91003574D01*
X197286359Y-90722673D01*
X197526695Y-90506936D01*
X197835271Y-90389091D01*
X198182927Y-90381960D01*
X198540501Y-90498365D01*
X198682365Y-90593623D01*
X198881022Y-90846140D01*
X198931884Y-91004485D01*
X198981256Y-91158190D01*
G37*
G36*
X171323283Y-90991488D02*
G01*
X171385682Y-91306944D01*
X171359285Y-91619653D01*
X171242127Y-91891245D01*
X171032241Y-92083346D01*
X170984386Y-92106279D01*
X170719211Y-92174564D01*
X170407882Y-92192096D01*
X170113392Y-92159257D01*
X169898733Y-92076434D01*
X169725203Y-91954889D01*
X169888328Y-91781250D01*
X169892574Y-91776734D01*
X170012127Y-91666590D01*
X170113675Y-91655013D01*
X170270375Y-91732706D01*
X170288448Y-91742660D01*
X170510593Y-91802382D01*
X170685839Y-91739986D01*
X170781218Y-91566215D01*
X170784084Y-91542011D01*
X170759388Y-91490185D01*
X170664775Y-91459838D01*
X170473185Y-91445581D01*
X170157558Y-91442026D01*
X169509455Y-91442026D01*
X169509455Y-91208005D01*
X169509706Y-91189666D01*
X169561863Y-90952097D01*
X170114217Y-90952097D01*
X170119019Y-90981985D01*
X170205312Y-91044888D01*
X170416598Y-91064050D01*
X170488160Y-91062679D01*
X170670166Y-91031551D01*
X170708940Y-90957511D01*
X170606568Y-90838079D01*
X170498892Y-90789793D01*
X170327054Y-90790177D01*
X170177894Y-90849127D01*
X170114217Y-90952097D01*
X169561863Y-90952097D01*
X169574220Y-90895812D01*
X169729351Y-90635121D01*
X169941280Y-90465730D01*
X170022610Y-90435071D01*
X170337169Y-90387473D01*
X170672991Y-90414549D01*
X170951778Y-90512663D01*
X171174054Y-90711660D01*
X171305163Y-90957511D01*
X171323283Y-90991488D01*
G37*
G36*
X191080898Y-87259322D02*
G01*
X190989925Y-87551051D01*
X190815870Y-87779331D01*
X190562729Y-87910274D01*
X190470105Y-87932678D01*
X190373741Y-87955410D01*
X190370016Y-87955700D01*
X190273810Y-87923815D01*
X190110670Y-87846249D01*
X189939072Y-87780149D01*
X189858686Y-87808917D01*
X189850133Y-87822403D01*
X189738055Y-87869868D01*
X189547480Y-87889050D01*
X189262984Y-87889050D01*
X189138005Y-87136514D01*
X189099193Y-86901793D01*
X189096210Y-86882560D01*
X189713916Y-86882560D01*
X189721851Y-87084337D01*
X189839995Y-87279709D01*
X189917194Y-87346687D01*
X190122838Y-87433142D01*
X190297021Y-87389111D01*
X190410890Y-87229614D01*
X190435595Y-86969670D01*
X190379906Y-86769044D01*
X190223257Y-86627412D01*
X190141280Y-86596354D01*
X189944639Y-86602813D01*
X189795181Y-86710133D01*
X189713916Y-86882560D01*
X189096210Y-86882560D01*
X189045260Y-86554016D01*
X189020487Y-86320638D01*
X189027700Y-86178842D01*
X189069726Y-86105809D01*
X189149391Y-86078722D01*
X189269522Y-86074764D01*
X189459085Y-86101420D01*
X189571329Y-86192845D01*
X189598359Y-86249952D01*
X189659144Y-86268832D01*
X189785226Y-86192845D01*
X189869153Y-86143566D01*
X190165015Y-86072911D01*
X190477414Y-86120871D01*
X190754599Y-86282651D01*
X190815382Y-86342309D01*
X190997622Y-86621063D01*
X191084796Y-86938030D01*
X191084412Y-86969670D01*
X191080898Y-87259322D01*
G37*
G36*
X190490396Y-91664623D02*
G01*
X190329223Y-91965393D01*
X190276869Y-92021294D01*
X190018922Y-92174236D01*
X189723737Y-92193855D01*
X189426141Y-92075891D01*
X189315110Y-92007554D01*
X189251910Y-91999173D01*
X189239812Y-92080455D01*
X189229942Y-92135862D01*
X189150200Y-92184717D01*
X188959940Y-92183643D01*
X188680068Y-92160181D01*
X188549785Y-91366431D01*
X188534163Y-91270103D01*
X189134693Y-91270103D01*
X189205059Y-91496127D01*
X189382414Y-91664215D01*
X189416686Y-91682627D01*
X189529840Y-91733532D01*
X189616061Y-91717494D01*
X189752159Y-91626728D01*
X189778572Y-91606602D01*
X189900320Y-91421363D01*
X189897521Y-91200164D01*
X189768979Y-90988455D01*
X189568191Y-90858613D01*
X189369483Y-90866122D01*
X189201749Y-91016048D01*
X189186621Y-91041056D01*
X189134693Y-91270103D01*
X188534163Y-91270103D01*
X188508833Y-91113909D01*
X188461371Y-90812281D01*
X188427903Y-90588493D01*
X188413883Y-90478187D01*
X188414268Y-90468466D01*
X188496442Y-90405587D01*
X188710646Y-90383693D01*
X188814005Y-90386593D01*
X188967870Y-90420581D01*
X189013027Y-90501372D01*
X189017285Y-90559041D01*
X189059695Y-90576792D01*
X189181037Y-90501372D01*
X189315486Y-90431987D01*
X189614991Y-90381078D01*
X189923027Y-90428506D01*
X190174484Y-90569785D01*
X190256799Y-90654782D01*
X190449886Y-90970556D01*
X190529184Y-91320090D01*
X190517783Y-91421363D01*
X190490396Y-91664623D01*
G37*
G36*
X182935620Y-87142220D02*
G01*
X182868629Y-87457850D01*
X182713475Y-87720716D01*
X182474038Y-87893181D01*
X182469649Y-87894973D01*
X182294137Y-87950055D01*
X182145249Y-87936085D01*
X181946384Y-87846249D01*
X181774786Y-87780149D01*
X181694400Y-87808917D01*
X181685898Y-87822352D01*
X181573929Y-87869852D01*
X181383443Y-87889050D01*
X181099197Y-87889050D01*
X180935753Y-86838035D01*
X181544740Y-86838035D01*
X181553956Y-87071461D01*
X181680288Y-87284288D01*
X181699591Y-87302828D01*
X181905441Y-87418399D01*
X182093984Y-87400065D01*
X182231696Y-87262464D01*
X182285050Y-87020235D01*
X182274291Y-86908367D01*
X182181051Y-86698920D01*
X182021561Y-86571505D01*
X181831836Y-86547211D01*
X181647890Y-86647128D01*
X181544740Y-86838035D01*
X180935753Y-86838035D01*
X180931676Y-86811818D01*
X180913493Y-86694849D01*
X180850227Y-86287261D01*
X180793334Y-85919835D01*
X180748444Y-85628979D01*
X180721191Y-85451103D01*
X180678227Y-85167621D01*
X180979898Y-85167621D01*
X181281569Y-85167621D01*
X181373030Y-85734586D01*
X181382492Y-85792120D01*
X181430044Y-86050895D01*
X181471734Y-86232826D01*
X181499454Y-86301550D01*
X181577681Y-86266304D01*
X181722210Y-86178504D01*
X181813360Y-86132263D01*
X182088935Y-86091794D01*
X182382575Y-86154685D01*
X182636918Y-86312532D01*
X182789606Y-86503210D01*
X182910572Y-86811461D01*
X182926382Y-87020235D01*
X182935620Y-87142220D01*
G37*
G36*
X161122865Y-87154824D02*
G01*
X161058199Y-87460484D01*
X160905614Y-87714018D01*
X160664812Y-87880202D01*
X160567218Y-87909897D01*
X160300976Y-87903357D01*
X160003354Y-87766043D01*
X159927270Y-87720466D01*
X159850053Y-87700695D01*
X159833265Y-87773914D01*
X159832454Y-87787708D01*
X159763163Y-87865100D01*
X159568681Y-87889050D01*
X159534875Y-87888895D01*
X159369657Y-87882667D01*
X159300552Y-87870151D01*
X159282597Y-87772832D01*
X159221880Y-87422120D01*
X159164039Y-87059317D01*
X159143664Y-86920737D01*
X159753164Y-86920737D01*
X159783450Y-87133744D01*
X159895913Y-87310369D01*
X159998300Y-87385226D01*
X160202410Y-87425927D01*
X160394829Y-87316686D01*
X160468725Y-87204374D01*
X160510827Y-86984520D01*
X160455768Y-86785337D01*
X160367157Y-86692433D01*
X160151940Y-86596924D01*
X159927759Y-86610428D01*
X159802501Y-86727452D01*
X159753164Y-86920737D01*
X159143664Y-86920737D01*
X159113657Y-86716638D01*
X159075319Y-86426293D01*
X159053609Y-86220497D01*
X159053111Y-86131461D01*
X159140800Y-86081471D01*
X159309227Y-86076536D01*
X159483328Y-86118722D01*
X159593028Y-86199234D01*
X159638362Y-86266963D01*
X159708680Y-86279762D01*
X159840390Y-86199234D01*
X160054584Y-86105687D01*
X160360492Y-86087657D01*
X160650468Y-86177034D01*
X160792309Y-86277312D01*
X160989623Y-86528015D01*
X161099907Y-86832260D01*
X161110744Y-86984520D01*
X161122865Y-87154824D01*
G37*
G36*
X200761057Y-87358758D02*
G01*
X200633381Y-87649597D01*
X200405740Y-87843469D01*
X200219258Y-87909729D01*
X199918848Y-87904174D01*
X199653056Y-87758051D01*
X199594837Y-87707453D01*
X199532853Y-87680939D01*
X199520765Y-87763941D01*
X199513277Y-87809470D01*
X199430978Y-87871442D01*
X199232271Y-87889050D01*
X198943776Y-87889050D01*
X198781546Y-86838035D01*
X199385216Y-86838035D01*
X199394432Y-87071461D01*
X199520765Y-87284288D01*
X199540067Y-87302828D01*
X199745917Y-87418399D01*
X199934460Y-87400065D01*
X200072172Y-87262464D01*
X200125527Y-87020235D01*
X200114767Y-86908367D01*
X200021527Y-86698920D01*
X199862037Y-86571505D01*
X199672312Y-86547211D01*
X199488367Y-86647128D01*
X199385216Y-86838035D01*
X198781546Y-86838035D01*
X198777499Y-86811818D01*
X198759467Y-86695100D01*
X198696253Y-86287439D01*
X198638929Y-85919936D01*
X198593191Y-85629015D01*
X198564733Y-85451103D01*
X198518244Y-85167621D01*
X198822103Y-85167621D01*
X198837854Y-85167595D01*
X198971299Y-85169415D01*
X199061907Y-85192901D01*
X199122898Y-85263597D01*
X199167496Y-85407048D01*
X199208922Y-85648798D01*
X199260398Y-86014392D01*
X199310043Y-86369794D01*
X199524000Y-86211610D01*
X199636426Y-86144366D01*
X199916508Y-86084177D01*
X200198839Y-86145502D01*
X200454139Y-86312190D01*
X200653126Y-86568089D01*
X200766520Y-86897044D01*
X200779666Y-86994822D01*
X200778367Y-87020235D01*
X200761057Y-87358758D01*
G37*
G36*
X195638681Y-91281871D02*
G01*
X195614128Y-91606456D01*
X195484235Y-91893393D01*
X195249634Y-92106673D01*
X195175078Y-92140013D01*
X194921557Y-92189867D01*
X194625299Y-92192167D01*
X194349134Y-92149366D01*
X194155891Y-92063922D01*
X194048884Y-91969358D01*
X194039950Y-91896538D01*
X194142129Y-91792498D01*
X194245914Y-91714820D01*
X194369259Y-91696285D01*
X194558913Y-91750953D01*
X194679904Y-91790408D01*
X194830221Y-91805937D01*
X194942276Y-91748537D01*
X195007272Y-91677375D01*
X195060646Y-91546163D01*
X195042577Y-91505586D01*
X194946252Y-91467747D01*
X194745888Y-91447824D01*
X194418086Y-91442026D01*
X193775527Y-91442026D01*
X193775527Y-91145460D01*
X193779881Y-91042233D01*
X193783274Y-91030484D01*
X194350334Y-91030484D01*
X194435802Y-91058560D01*
X194642212Y-91064050D01*
X194757368Y-91061663D01*
X194934018Y-91033432D01*
X194976270Y-90966529D01*
X194894336Y-90852383D01*
X194885882Y-90844294D01*
X194710712Y-90767284D01*
X194518641Y-90792909D01*
X194380288Y-90912859D01*
X194355651Y-90962415D01*
X194350334Y-91030484D01*
X193783274Y-91030484D01*
X193843036Y-90823573D01*
X194008127Y-90616293D01*
X194054342Y-90571225D01*
X194211624Y-90450878D01*
X194386349Y-90396448D01*
X194644887Y-90383693D01*
X194879798Y-90395011D01*
X195091545Y-90451837D01*
X195276585Y-90575155D01*
X195369229Y-90663805D01*
X195557259Y-90955651D01*
X195559974Y-90966529D01*
X195638681Y-91281871D01*
G37*
G36*
X176015127Y-87154824D02*
G01*
X175950461Y-87460484D01*
X175797876Y-87714018D01*
X175557074Y-87880202D01*
X175459480Y-87909897D01*
X175193238Y-87903357D01*
X174895616Y-87766043D01*
X174819532Y-87720466D01*
X174742314Y-87700695D01*
X174725527Y-87773914D01*
X174724984Y-87785270D01*
X174657486Y-87864445D01*
X174464369Y-87889050D01*
X174446916Y-87889134D01*
X174346415Y-87889461D01*
X174273715Y-87873526D01*
X174219871Y-87819214D01*
X174175940Y-87704408D01*
X174132977Y-87506990D01*
X174082038Y-87204844D01*
X174037201Y-86921399D01*
X174645341Y-86921399D01*
X174675778Y-87134009D01*
X174788175Y-87310369D01*
X174793273Y-87314922D01*
X174997538Y-87418727D01*
X175196062Y-87401098D01*
X175346345Y-87278700D01*
X175405884Y-87068194D01*
X175383026Y-86894482D01*
X175263544Y-86686883D01*
X175066536Y-86585250D01*
X174820021Y-86611428D01*
X174694314Y-86728528D01*
X174645341Y-86921399D01*
X174037201Y-86921399D01*
X174014177Y-86775853D01*
X173998729Y-86674679D01*
X173963668Y-86401478D01*
X173948024Y-86202221D01*
X173955142Y-86114395D01*
X173958330Y-86111762D01*
X174063658Y-86085545D01*
X174246757Y-86074764D01*
X174248621Y-86074766D01*
X174438288Y-86102368D01*
X174498741Y-86188157D01*
X174514112Y-86269620D01*
X174595329Y-86285882D01*
X174758874Y-86185753D01*
X174763726Y-86182149D01*
X174994130Y-86093379D01*
X175277094Y-86091415D01*
X175542730Y-86177034D01*
X175684571Y-86277312D01*
X175881885Y-86528015D01*
X175992169Y-86832260D01*
X176008961Y-87068194D01*
X176015127Y-87154824D01*
G37*
G36*
X167841550Y-87073695D02*
G01*
X167806597Y-87407591D01*
X167667596Y-87680212D01*
X167432418Y-87860834D01*
X167264018Y-87913212D01*
X166958997Y-87902216D01*
X166693532Y-87758051D01*
X166635313Y-87707453D01*
X166573330Y-87680939D01*
X166561241Y-87763941D01*
X166557636Y-87797034D01*
X166484427Y-87868368D01*
X166294285Y-87889050D01*
X166262599Y-87888393D01*
X166084297Y-87857469D01*
X165993732Y-87794556D01*
X165982405Y-87743014D01*
X165950029Y-87563051D01*
X165903066Y-87285753D01*
X165867074Y-87067194D01*
X166431647Y-87067194D01*
X166561241Y-87284288D01*
X166719391Y-87402914D01*
X166901031Y-87414827D01*
X167094274Y-87280421D01*
X167117461Y-87255275D01*
X167201521Y-87068635D01*
X167179055Y-86874337D01*
X167076657Y-86703684D01*
X166920923Y-86587980D01*
X166738447Y-86558528D01*
X166555823Y-86646631D01*
X166433605Y-86836289D01*
X166431647Y-87067194D01*
X165867074Y-87067194D01*
X165846429Y-86941828D01*
X165785029Y-86561982D01*
X165723778Y-86176924D01*
X165667588Y-85817360D01*
X165621371Y-85513997D01*
X165590038Y-85297543D01*
X165578503Y-85198706D01*
X165584822Y-85192307D01*
X165686556Y-85174694D01*
X165873123Y-85167621D01*
X166167744Y-85167621D01*
X166251100Y-85646284D01*
X166289320Y-85880502D01*
X166321920Y-86115370D01*
X166334455Y-86256532D01*
X166344305Y-86331528D01*
X166399149Y-86328828D01*
X166533638Y-86231441D01*
X166716699Y-86126617D01*
X167010111Y-86082599D01*
X167300029Y-86162869D01*
X167554640Y-86356358D01*
X167742128Y-86651993D01*
X167764585Y-86709248D01*
X167840481Y-87068635D01*
X167841550Y-87073695D01*
G37*
G36*
X150777746Y-87168052D02*
G01*
X150721108Y-87473143D01*
X150582399Y-87725348D01*
X150360554Y-87888324D01*
X150212526Y-87937953D01*
X149995513Y-87943614D01*
X149781755Y-87837045D01*
X149775236Y-87832507D01*
X149633482Y-87760035D01*
X149569647Y-87799248D01*
X149502549Y-87840948D01*
X149347666Y-87875450D01*
X149164459Y-87893375D01*
X149011547Y-87889230D01*
X148947550Y-87857525D01*
X148942910Y-87821069D01*
X148918754Y-87657696D01*
X148877466Y-87387343D01*
X148823006Y-87035861D01*
X148807411Y-86936230D01*
X149393801Y-86936230D01*
X149429508Y-87146351D01*
X149569133Y-87317799D01*
X149750127Y-87405184D01*
X149955563Y-87401331D01*
X150101535Y-87279549D01*
X150157074Y-87053746D01*
X150143046Y-86951135D01*
X150054672Y-86752259D01*
X149918575Y-86593319D01*
X149774128Y-86528336D01*
X149586889Y-86581939D01*
X149450199Y-86732929D01*
X149393801Y-86936230D01*
X148807411Y-86936230D01*
X148759337Y-86629103D01*
X148747334Y-86552880D01*
X148671141Y-86069381D01*
X148618091Y-85713449D01*
X148589568Y-85465634D01*
X148586954Y-85306487D01*
X148611632Y-85216561D01*
X148664985Y-85176407D01*
X148748395Y-85166576D01*
X148863245Y-85167621D01*
X149156915Y-85167621D01*
X149207914Y-85602294D01*
X149216062Y-85671316D01*
X149256680Y-85981730D01*
X149295769Y-86167293D01*
X149344779Y-86249776D01*
X149415158Y-86250952D01*
X149518357Y-86192591D01*
X149660370Y-86121121D01*
X149974343Y-86084175D01*
X150310739Y-86189437D01*
X150465893Y-86298896D01*
X150649073Y-86544584D01*
X150753379Y-86846417D01*
X150769086Y-87053746D01*
X150777746Y-87168052D01*
G37*
G36*
X210541310Y-87100070D02*
G01*
X210386591Y-87455494D01*
X210120367Y-87710486D01*
X209746114Y-87861875D01*
X209267311Y-87906492D01*
X209223089Y-87905804D01*
X208942784Y-87912478D01*
X208782209Y-87944402D01*
X208714517Y-88006428D01*
X208695185Y-88036861D01*
X208557733Y-88096719D01*
X208288338Y-88115836D01*
X207904142Y-88115836D01*
X208101720Y-87856798D01*
X208299297Y-87597760D01*
X208087944Y-87278383D01*
X208059307Y-87234256D01*
X207945194Y-87016988D01*
X207890141Y-86790629D01*
X207875314Y-86484890D01*
X207876157Y-86471233D01*
X208543245Y-86471233D01*
X208596954Y-86807345D01*
X208600255Y-86817318D01*
X208663748Y-86982121D01*
X208715557Y-87021955D01*
X208780848Y-86957349D01*
X208791806Y-86943677D01*
X208948739Y-86858046D01*
X209228035Y-86830717D01*
X209582626Y-86830717D01*
X209380818Y-87095300D01*
X209293007Y-87222022D01*
X209258615Y-87331919D01*
X209343327Y-87351043D01*
X209551091Y-87283760D01*
X209690678Y-87195240D01*
X209831379Y-86982007D01*
X209879907Y-86710621D01*
X209831552Y-86421775D01*
X209681604Y-86156159D01*
X209567365Y-86036398D01*
X209400759Y-85945974D01*
X209164154Y-85923574D01*
X209081820Y-85927118D01*
X208797244Y-86013098D01*
X208613863Y-86200476D01*
X208543245Y-86471233D01*
X207876157Y-86471233D01*
X207894367Y-86176057D01*
X207992048Y-85862696D01*
X208193303Y-85619436D01*
X208521024Y-85408102D01*
X208902476Y-85277501D01*
X209311440Y-85269071D01*
X209701072Y-85379664D01*
X210047181Y-85594034D01*
X210325577Y-85896935D01*
X210512070Y-86273120D01*
X210582470Y-86707344D01*
X210582127Y-86710621D01*
X210541310Y-87100070D01*
G37*
G36*
X204605161Y-91584179D02*
G01*
X204516831Y-91872763D01*
X204339871Y-92081818D01*
X204251988Y-92130626D01*
X203990134Y-92191307D01*
X203718032Y-92169214D01*
X203504921Y-92065687D01*
X203405881Y-91984686D01*
X203376614Y-92008249D01*
X203399379Y-92160181D01*
X203401205Y-92170033D01*
X203443993Y-92410781D01*
X203487845Y-92670449D01*
X203534163Y-92953931D01*
X203234363Y-92953931D01*
X203230535Y-92953929D01*
X203034313Y-92940756D01*
X202937913Y-92881538D01*
X202891475Y-92746044D01*
X202887189Y-92724900D01*
X202849773Y-92519951D01*
X202800309Y-92225990D01*
X202744047Y-91877042D01*
X202686240Y-91507130D01*
X202660852Y-91339676D01*
X203240029Y-91339676D01*
X203319425Y-91533337D01*
X203395041Y-91612954D01*
X203592621Y-91710922D01*
X203782222Y-91688223D01*
X203924693Y-91556942D01*
X203980884Y-91329163D01*
X203980481Y-91309758D01*
X203912954Y-91077908D01*
X203757383Y-90905087D01*
X203553689Y-90837264D01*
X203495856Y-90844400D01*
X203345010Y-90945391D01*
X203254145Y-91127089D01*
X203240029Y-91339676D01*
X202660852Y-91339676D01*
X202632138Y-91150280D01*
X202586992Y-90840515D01*
X202556054Y-90611859D01*
X202544574Y-90498336D01*
X202570657Y-90443074D01*
X202694024Y-90390434D01*
X202866274Y-90381549D01*
X203028446Y-90416658D01*
X203121582Y-90495999D01*
X203142903Y-90542301D01*
X203202333Y-90567751D01*
X203325018Y-90495999D01*
X203412572Y-90445567D01*
X203703852Y-90381043D01*
X204012726Y-90431475D01*
X204286085Y-90591580D01*
X204353475Y-90659765D01*
X204521972Y-90935829D01*
X204606371Y-91257917D01*
X204606107Y-91329163D01*
X204605161Y-91584179D01*
G37*
G36*
X173720295Y-91321520D02*
G01*
X173728968Y-91413977D01*
X173730166Y-91630151D01*
X173678379Y-91787776D01*
X173555968Y-91954831D01*
X173466666Y-92052187D01*
X173292607Y-92167546D01*
X173072532Y-92197978D01*
X173054024Y-92197730D01*
X172816625Y-92160828D01*
X172625680Y-92080299D01*
X172537599Y-92021755D01*
X172470937Y-92005906D01*
X172457669Y-92084862D01*
X172448372Y-92135545D01*
X172367511Y-92184419D01*
X172174750Y-92183643D01*
X171891830Y-92160181D01*
X171727421Y-91149580D01*
X172325789Y-91149580D01*
X172330251Y-91358185D01*
X172444723Y-91543703D01*
X172509449Y-91592516D01*
X172719497Y-91663933D01*
X172923141Y-91637138D01*
X173063959Y-91514766D01*
X173070339Y-91502237D01*
X173104682Y-91286067D01*
X173033204Y-91069957D01*
X172883823Y-90903743D01*
X172684455Y-90837264D01*
X172582721Y-90852216D01*
X172415294Y-90965165D01*
X172325789Y-91149580D01*
X171727421Y-91149580D01*
X171688910Y-90912859D01*
X171639842Y-90609453D01*
X171577845Y-90220395D01*
X171527825Y-89899674D01*
X171493968Y-89674241D01*
X171480461Y-89571044D01*
X171480718Y-89562344D01*
X171560882Y-89498814D01*
X171771306Y-89476550D01*
X171871310Y-89477352D01*
X171982945Y-89493903D01*
X172056699Y-89552735D01*
X172107386Y-89680697D01*
X172149817Y-89904637D01*
X172198806Y-90251401D01*
X172225821Y-90416189D01*
X172278089Y-90571293D01*
X172351207Y-90594306D01*
X172457669Y-90497086D01*
X172565758Y-90426102D01*
X172787883Y-90388111D01*
X173046271Y-90414911D01*
X173283767Y-90505891D01*
X173348536Y-90546711D01*
X173541079Y-90726130D01*
X173657615Y-90970604D01*
X173713962Y-91286067D01*
X173720295Y-91321520D01*
G37*
G36*
X187039457Y-91558237D02*
G01*
X186944146Y-91865558D01*
X186751720Y-92101080D01*
X186691224Y-92137244D01*
X186456090Y-92190240D01*
X186185262Y-92169057D01*
X185948760Y-92075891D01*
X185839268Y-92008361D01*
X185774938Y-91998072D01*
X185762431Y-92075891D01*
X185760154Y-92101403D01*
X185689253Y-92175902D01*
X185499288Y-92197978D01*
X185412352Y-92198817D01*
X185331394Y-92190910D01*
X185270227Y-92154300D01*
X185221571Y-92068889D01*
X185178147Y-91914578D01*
X185132676Y-91671268D01*
X185077880Y-91318863D01*
X185072274Y-91281052D01*
X185622983Y-91281052D01*
X185728920Y-91500801D01*
X185767892Y-91546381D01*
X185955392Y-91649748D01*
X186172938Y-91663151D01*
X186352074Y-91578097D01*
X186434371Y-91406937D01*
X186413978Y-91188704D01*
X186291598Y-90988455D01*
X186136526Y-90875979D01*
X185928337Y-90852125D01*
X185736350Y-90975508D01*
X185652405Y-91091645D01*
X185622983Y-91281052D01*
X185072274Y-91281052D01*
X185006479Y-90837264D01*
X184993922Y-90753041D01*
X184935526Y-90369189D01*
X184882808Y-90034519D01*
X184841129Y-89782510D01*
X184815849Y-89646639D01*
X184812244Y-89630409D01*
X184809177Y-89528756D01*
X184883739Y-89485557D01*
X185072546Y-89476550D01*
X185236885Y-89484090D01*
X185347958Y-89526438D01*
X185417072Y-89632543D01*
X185462692Y-89831349D01*
X185503281Y-90151803D01*
X185505515Y-90171342D01*
X185545888Y-90442057D01*
X185594911Y-90576920D01*
X185663465Y-90590431D01*
X185762431Y-90497086D01*
X185768621Y-90490081D01*
X185928709Y-90410220D01*
X186166158Y-90387140D01*
X186422258Y-90420088D01*
X186638300Y-90508311D01*
X186772278Y-90620793D01*
X186950566Y-90894322D01*
X187040612Y-91220647D01*
X187039975Y-91406937D01*
X187039457Y-91558237D01*
G37*
G36*
X188710147Y-87082216D02*
G01*
X188697194Y-87308813D01*
X188632995Y-87494439D01*
X188489675Y-87668079D01*
X188471822Y-87685459D01*
X188211263Y-87851279D01*
X187938631Y-87883593D01*
X187685660Y-87778061D01*
X187581804Y-87707446D01*
X187489300Y-87664668D01*
X187466630Y-87694836D01*
X187478286Y-87813523D01*
X187526654Y-87967434D01*
X187596892Y-88096937D01*
X187676996Y-88150798D01*
X187851348Y-88187496D01*
X188031501Y-88176692D01*
X188143681Y-88115836D01*
X188158010Y-88101458D01*
X188287031Y-88057813D01*
X188488321Y-88040240D01*
X188681944Y-88060063D01*
X188779695Y-88134323D01*
X188736915Y-88263959D01*
X188553655Y-88449294D01*
X188445673Y-88524649D01*
X188139469Y-88632951D01*
X187800658Y-88644880D01*
X187471316Y-88567866D01*
X187193521Y-88409334D01*
X187009350Y-88176711D01*
X187008031Y-88173813D01*
X186955927Y-88013591D01*
X186893467Y-87756315D01*
X186826834Y-87436931D01*
X186762210Y-87090383D01*
X186726728Y-86877375D01*
X187338637Y-86877375D01*
X187357529Y-87089022D01*
X187481863Y-87303187D01*
X187526913Y-87346288D01*
X187714590Y-87422279D01*
X187902967Y-87382634D01*
X188047770Y-87246546D01*
X188104726Y-87033204D01*
X188101728Y-86968733D01*
X188030825Y-86768874D01*
X187841300Y-86624181D01*
X187740991Y-86585519D01*
X187547729Y-86592826D01*
X187407824Y-86701044D01*
X187338637Y-86877375D01*
X186726728Y-86877375D01*
X186705780Y-86751617D01*
X186663726Y-86455578D01*
X186642230Y-86237211D01*
X186647476Y-86131461D01*
X186736378Y-86080713D01*
X186903748Y-86076776D01*
X187076502Y-86119196D01*
X187185290Y-86199234D01*
X187230624Y-86266963D01*
X187300942Y-86279762D01*
X187432652Y-86199234D01*
X187716349Y-86077194D01*
X188007170Y-86084296D01*
X188276907Y-86205592D01*
X188500614Y-86423839D01*
X188653343Y-86721795D01*
X188702422Y-87033204D01*
X188710147Y-87082216D01*
G37*
G36*
X156555336Y-86108249D02*
G01*
X156785684Y-86239132D01*
X156960646Y-86403500D01*
X156960646Y-86234342D01*
X156969666Y-86146420D01*
X157036431Y-86087516D01*
X157206330Y-86088873D01*
X157452015Y-86112562D01*
X157580464Y-86830717D01*
X157610701Y-87003923D01*
X157661935Y-87319341D01*
X157698084Y-87571992D01*
X157712756Y-87718961D01*
X157703831Y-87810480D01*
X157632287Y-87874051D01*
X157453455Y-87889050D01*
X157337580Y-87889049D01*
X157254506Y-87872356D01*
X157196798Y-87812741D01*
X157150250Y-87683964D01*
X157100656Y-87459785D01*
X157033808Y-87113964D01*
X156954162Y-86822491D01*
X156838388Y-86624806D01*
X156700115Y-86565820D01*
X156545774Y-86651625D01*
X156478398Y-86747785D01*
X156460598Y-86873157D01*
X156482479Y-86963171D01*
X156516627Y-87169530D01*
X156550305Y-87430374D01*
X156602198Y-87889050D01*
X156336046Y-87889050D01*
X156301175Y-87888925D01*
X156173349Y-87878188D01*
X156088726Y-87829987D01*
X156031443Y-87716233D01*
X155985635Y-87508833D01*
X155935437Y-87179696D01*
X155888897Y-86968893D01*
X155779103Y-86727984D01*
X155636317Y-86590203D01*
X155478808Y-86579560D01*
X155459938Y-86587894D01*
X155407629Y-86640012D01*
X155383370Y-86748201D01*
X155383770Y-86943814D01*
X155405441Y-87258203D01*
X155456628Y-87889050D01*
X155196918Y-87889050D01*
X155098513Y-87885293D01*
X154990385Y-87854470D01*
X154916607Y-87771470D01*
X154866442Y-87611601D01*
X154829153Y-87350171D01*
X154794003Y-86962487D01*
X154774092Y-86656608D01*
X154778736Y-86455306D01*
X154813199Y-86324848D01*
X154882248Y-86225434D01*
X154932640Y-86179175D01*
X155157198Y-86088030D01*
X155420616Y-86100457D01*
X155667215Y-86217048D01*
X155792381Y-86304144D01*
X155881048Y-86307767D01*
X155988495Y-86215367D01*
X156054711Y-86161853D01*
X156292107Y-86081906D01*
X156555336Y-86108249D01*
G37*
G36*
X180996642Y-90384176D02*
G01*
X181160291Y-90402898D01*
X181227005Y-90440389D01*
X181229809Y-90469537D01*
X181251419Y-90623044D01*
X181289708Y-90871284D01*
X181339078Y-91177443D01*
X181360848Y-91313042D01*
X181407180Y-91625399D01*
X181439617Y-91878659D01*
X181452183Y-92027889D01*
X181443430Y-92113984D01*
X181373490Y-92181760D01*
X181197115Y-92197978D01*
X181173364Y-92197913D01*
X181045687Y-92187874D01*
X180960927Y-92140901D01*
X180903408Y-92028756D01*
X180857450Y-91823199D01*
X180807375Y-91495991D01*
X180759002Y-91268370D01*
X180651655Y-91017426D01*
X180513169Y-90875704D01*
X180358452Y-90864187D01*
X180288654Y-90908416D01*
X180254047Y-90996702D01*
X180250189Y-91164093D01*
X180271814Y-91445953D01*
X180272385Y-91452088D01*
X180299471Y-91729017D01*
X180323455Y-91950069D01*
X180339205Y-92067882D01*
X180340000Y-92077440D01*
X180268773Y-92144785D01*
X180079159Y-92183329D01*
X179800946Y-92206477D01*
X179750972Y-91843150D01*
X179687969Y-91453826D01*
X179610572Y-91146497D01*
X179520325Y-90958990D01*
X179411422Y-90874741D01*
X179364373Y-90861271D01*
X179224776Y-90856171D01*
X179146666Y-90940555D01*
X179120994Y-91133676D01*
X179138706Y-91454785D01*
X179165487Y-91728888D01*
X179189457Y-91949720D01*
X179205276Y-92067882D01*
X179206088Y-92076829D01*
X179136113Y-92144478D01*
X178948428Y-92183138D01*
X178673413Y-92206096D01*
X178589351Y-91723375D01*
X178549895Y-91475372D01*
X178510210Y-91045406D01*
X178534218Y-90735115D01*
X178626525Y-90530640D01*
X178791736Y-90418119D01*
X179034455Y-90383693D01*
X179236225Y-90408970D01*
X179450266Y-90534924D01*
X179587128Y-90686155D01*
X179693054Y-90534924D01*
X179819555Y-90437219D01*
X180047428Y-90384879D01*
X180303457Y-90405487D01*
X180529539Y-90501372D01*
X180616132Y-90559041D01*
X180683885Y-90576792D01*
X180697550Y-90501372D01*
X180698926Y-90482739D01*
X180769242Y-90406793D01*
X180962134Y-90383693D01*
X180996642Y-90384176D01*
G37*
%TO.C,D2*%
X83074500Y-47587000D02*
X83074500Y-43687000D01*
X85074500Y-47587000D02*
X83074500Y-47587000D01*
X85074500Y-47587000D02*
X85074500Y-43687000D01*
%TO.C,D29*%
X135462000Y-85687000D02*
X135462000Y-81787000D01*
X137462000Y-85687000D02*
X135462000Y-85687000D01*
X137462000Y-85687000D02*
X137462000Y-81787000D01*
%TO.C,D16*%
X125937000Y-66637000D02*
X125937000Y-62737000D01*
X127937000Y-66637000D02*
X125937000Y-66637000D01*
X127937000Y-66637000D02*
X127937000Y-62737000D01*
%TO.C,C_LDO1*%
X57679000Y-50399836D02*
X57679000Y-50184164D01*
X58399000Y-50399836D02*
X58399000Y-50184164D01*
%TO.C,D15*%
X106887000Y-66637000D02*
X106887000Y-62737000D01*
X108887000Y-66637000D02*
X106887000Y-66637000D01*
X108887000Y-66637000D02*
X108887000Y-62737000D01*
%TO.C,C_Flash1*%
X116693836Y-87482000D02*
X116478164Y-87482000D01*
X116693836Y-86762000D02*
X116478164Y-86762000D01*
%TO.C,D3*%
X102124500Y-47587000D02*
X102124500Y-43687000D01*
X104124500Y-47587000D02*
X102124500Y-47587000D01*
X104124500Y-47587000D02*
X104124500Y-43687000D01*
%TO.C,C_Crystal2*%
X94684336Y-99991234D02*
X94836839Y-99838731D01*
X95193453Y-100500351D02*
X95345956Y-100347848D01*
%TO.C,R2*%
X35707000Y-45536000D02*
X35707000Y-46536000D01*
X37067000Y-46536000D02*
X37067000Y-45536000D01*
%TO.C,R_DATA2*%
X49402000Y-63473359D02*
X49402000Y-63780641D01*
X48642000Y-63473359D02*
X48642000Y-63780641D01*
D14*
%TO.C,U5*%
X34839000Y-45333400D02*
G75*
G03*
X34839000Y-45333400I0J0D01*
G01*
D11*
%TO.C,D26*%
X78312000Y-85687000D02*
X78312000Y-81787000D01*
X80312000Y-85687000D02*
X78312000Y-85687000D01*
X80312000Y-85687000D02*
X80312000Y-81787000D01*
%TO.C,D39*%
X159274500Y-104737000D02*
X159274500Y-100837000D01*
X161274500Y-104737000D02*
X159274500Y-104737000D01*
X161274500Y-104737000D02*
X161274500Y-100837000D01*
%TO.C,C_3V-Decoup9*%
X104850693Y-91262810D02*
X104698190Y-91110307D01*
X105359810Y-90753693D02*
X105207307Y-90601190D01*
%TO.C,D23*%
X261668250Y-66637000D02*
X261668250Y-62737000D01*
X263668250Y-66637000D02*
X261668250Y-66637000D01*
X263668250Y-66637000D02*
X263668250Y-62737000D01*
%TO.C,D30*%
X154512000Y-85687000D02*
X154512000Y-81787000D01*
X156512000Y-85687000D02*
X154512000Y-85687000D01*
X156512000Y-85687000D02*
X156512000Y-81787000D01*
%TO.C,Y1*%
X96653513Y-99654060D02*
X99481940Y-102482487D01*
X94320060Y-101987513D02*
X96653513Y-99654060D01*
%TO.C,C_3V-Decoup8*%
X112446307Y-100126190D02*
X112598810Y-100278693D01*
X111937190Y-100635307D02*
X112089693Y-100787810D01*
%TO.C,C_3V-Decoup5*%
X109271307Y-103047190D02*
X109423810Y-103199693D01*
X108762190Y-103556307D02*
X108914693Y-103708810D01*
%TO.C,D12*%
X42593250Y-66637000D02*
X42593250Y-62737000D01*
X44593250Y-66637000D02*
X42593250Y-66637000D01*
X44593250Y-66637000D02*
X44593250Y-62737000D01*
%TO.C,D21*%
X221187000Y-66637000D02*
X221187000Y-62737000D01*
X223187000Y-66637000D02*
X221187000Y-66637000D01*
X223187000Y-66637000D02*
X223187000Y-62737000D01*
%TO.C,D14*%
X87837000Y-66637000D02*
X87837000Y-62737000D01*
X89837000Y-66637000D02*
X87837000Y-66637000D01*
X89837000Y-66637000D02*
X89837000Y-62737000D01*
%TO.C,J3*%
X58404750Y-53468500D02*
X55904750Y-53468500D01*
X55904750Y-53468500D02*
X55904750Y-54518500D01*
X55904750Y-54518500D02*
X54914750Y-54518500D01*
X60374750Y-54638500D02*
X60374750Y-58518500D01*
X58404750Y-59688500D02*
X55904750Y-59688500D01*
X55904750Y-59688500D02*
X55904750Y-58638500D01*
%TO.C,R1*%
X29738000Y-45536001D02*
X29738000Y-46536001D01*
X31098000Y-46536001D02*
X31098000Y-45536001D01*
D10*
%TO.C,U4*%
X51509000Y-57292000D02*
X51509000Y-55992000D01*
X54409000Y-57292000D02*
X51509000Y-57292000D01*
X54409000Y-55992000D02*
X54409000Y-57292000D01*
X54409000Y-55992000D02*
X51509000Y-55992000D01*
D11*
%TO.C,D27*%
X97362000Y-85687000D02*
X97362000Y-81787000D01*
X99362000Y-85687000D02*
X97362000Y-85687000D01*
X99362000Y-85687000D02*
X99362000Y-81787000D01*
%TO.C,D6*%
X159274500Y-47587000D02*
X159274500Y-43687000D01*
X161274500Y-47587000D02*
X159274500Y-47587000D01*
X161274500Y-47587000D02*
X161274500Y-43687000D01*
%TO.C,D36*%
X26432000Y-104737000D02*
X26432000Y-100837000D01*
X28432000Y-104737000D02*
X26432000Y-104737000D01*
X28432000Y-104737000D02*
X28432000Y-100837000D01*
%TO.C,D42*%
X211662000Y-104847000D02*
X211662000Y-100837000D01*
X213662000Y-104847000D02*
X211662000Y-104847000D01*
X213662000Y-104847000D02*
X213662000Y-100837000D01*
%TO.C,D11*%
X259287000Y-47587000D02*
X259287000Y-43687000D01*
X261287000Y-47587000D02*
X259287000Y-47587000D01*
X261287000Y-47587000D02*
X261287000Y-43687000D01*
%TO.C,D19*%
X183087000Y-66637000D02*
X183087000Y-62737000D01*
X185087000Y-66637000D02*
X183087000Y-66637000D01*
X185087000Y-66637000D02*
X185087000Y-62737000D01*
%TO.C,C_3V-Decoup6*%
X97389836Y-96499000D02*
X97174164Y-96499000D01*
X97389836Y-95779000D02*
X97174164Y-95779000D01*
%TO.C,R_Crystal1*%
X99444659Y-100804940D02*
X99661940Y-100587659D01*
X99982060Y-101342341D02*
X100199341Y-101125060D01*
%TO.C,SW1*%
X125155000Y-80065000D02*
X122495000Y-80065000D01*
X125155000Y-77465000D02*
X125155000Y-80065000D01*
X125155000Y-77465000D02*
X122495000Y-77465000D01*
X125155000Y-76195000D02*
X125155000Y-74865000D01*
X125155000Y-74865000D02*
X123825000Y-74865000D01*
X122495000Y-77465000D02*
X122495000Y-80065000D01*
%TO.C,D35*%
X256905750Y-85687000D02*
X256905750Y-81787000D01*
X258905750Y-85687000D02*
X256905750Y-85687000D01*
X258905750Y-85687000D02*
X258905750Y-81787000D01*
%TO.C,D25*%
X59262000Y-85687000D02*
X59262000Y-81787000D01*
X61262000Y-85687000D02*
X59262000Y-85687000D01*
X61262000Y-85687000D02*
X61262000Y-81787000D01*
%TO.C,C_1V-Decoup2*%
X110286190Y-94182693D02*
X110438693Y-94030190D01*
X110795307Y-94691810D02*
X110947810Y-94539307D01*
%TO.C,R_Flash1*%
X124205000Y-83031359D02*
X124205000Y-83338641D01*
X123445000Y-83031359D02*
X123445000Y-83338641D01*
%TO.C,D1*%
X64024500Y-47587000D02*
X64024500Y-43687000D01*
X66024500Y-47587000D02*
X64024500Y-47587000D01*
X66024500Y-47587000D02*
X66024500Y-43687000D01*
%TO.C,D24*%
X37830750Y-88610000D02*
X37830750Y-84710000D01*
X39830750Y-88610000D02*
X37830750Y-88610000D01*
X39830750Y-88610000D02*
X39830750Y-84710000D01*
%TO.C,D22*%
X240237000Y-66637000D02*
X240237000Y-62737000D01*
X242237000Y-66637000D02*
X240237000Y-66637000D01*
X242237000Y-66637000D02*
X242237000Y-62737000D01*
%TO.C,D37*%
X68977000Y-104737000D02*
X68977000Y-100837000D01*
X70977000Y-104737000D02*
X68977000Y-104737000D01*
X70977000Y-104737000D02*
X70977000Y-100837000D01*
%TO.C,D33*%
X211662000Y-85687000D02*
X211662000Y-81787000D01*
X213662000Y-85687000D02*
X211662000Y-85687000D01*
X213662000Y-85687000D02*
X213662000Y-81787000D01*
%TO.C,D5*%
X140224500Y-47587000D02*
X140224500Y-43687000D01*
X142224500Y-47587000D02*
X140224500Y-47587000D01*
X142224500Y-47587000D02*
X142224500Y-43687000D01*
%TO.C,D31*%
X173562000Y-85687000D02*
X173562000Y-81787000D01*
X175562000Y-85687000D02*
X173562000Y-85687000D01*
X175562000Y-85687000D02*
X175562000Y-81787000D01*
%TO.C,C_3V-Decoup7*%
X105612693Y-90500810D02*
X105460190Y-90348307D01*
X106121810Y-89991693D02*
X105969307Y-89839190D01*
%TO.C,C_3V-Decoup1*%
X64281164Y-53615000D02*
X64496836Y-53615000D01*
X64281164Y-54335000D02*
X64496836Y-54335000D01*
%TD*%
%LPC*%
D15*
%TO.C,MX45*%
X56832500Y-101600000D03*
D16*
X61912500Y-101600000D03*
D15*
X66992500Y-101600000D03*
D17*
X58102500Y-99060000D03*
X64452500Y-96520000D03*
%TD*%
D16*
%TO.C,MX41*%
X251301000Y-42036750D03*
X251301000Y-65912750D03*
D18*
X259556000Y-48894750D03*
D16*
X259556000Y-53974750D03*
D18*
X259556000Y-59054750D03*
D19*
X266541000Y-42036750D03*
X266541000Y-65912750D03*
D17*
X262096000Y-50164750D03*
X264636000Y-56514750D03*
%TD*%
D15*
%TO.C,MX29*%
X128270000Y-82550000D03*
D16*
X133350000Y-82550000D03*
D15*
X138430000Y-82550000D03*
D17*
X129540000Y-80010000D03*
X135890000Y-77470000D03*
%TD*%
D16*
%TO.C,MX39*%
X100012500Y-93345000D03*
D19*
X100012500Y-108585000D03*
D15*
X152082500Y-101600000D03*
D16*
X157162500Y-101600000D03*
D15*
X162242500Y-101600000D03*
D16*
X214312500Y-93345000D03*
D19*
X214312500Y-108585000D03*
D17*
X153352500Y-99060000D03*
X159702500Y-96520000D03*
%TD*%
D15*
%TO.C,MX30*%
X147320000Y-82550000D03*
D16*
X152400000Y-82550000D03*
D15*
X157480000Y-82550000D03*
D17*
X148590000Y-80010000D03*
X154940000Y-77470000D03*
%TD*%
D15*
%TO.C,MX37*%
X54451250Y-101600000D03*
D16*
X59531250Y-101600000D03*
D15*
X64611250Y-101600000D03*
D17*
X55721250Y-99060000D03*
X62071250Y-96520000D03*
%TD*%
D16*
%TO.C,MX51*%
X90487916Y-93344991D03*
D19*
X90487916Y-108584991D03*
D15*
X142557916Y-101599991D03*
D16*
X147637916Y-101599991D03*
D15*
X152717916Y-101599991D03*
D16*
X204787916Y-93344991D03*
D19*
X204787916Y-108584991D03*
D17*
X143827916Y-99059991D03*
X150177916Y-96519991D03*
%TD*%
D15*
%TO.C,MX40*%
X228282500Y-101600000D03*
D16*
X233362500Y-101600000D03*
D15*
X238442500Y-101600000D03*
D17*
X229552500Y-99060000D03*
X235902500Y-96520000D03*
%TD*%
D16*
%TO.C,MX48*%
X114268000Y-93345000D03*
D19*
X114268000Y-108585000D03*
D15*
X121126250Y-101600000D03*
D16*
X126206250Y-101600000D03*
D15*
X131286250Y-101600000D03*
D16*
X138144500Y-93345000D03*
D19*
X138144500Y-108585000D03*
D17*
X122396250Y-99060000D03*
X128746250Y-96520000D03*
%TD*%
D15*
%TO.C,MX46*%
X33020000Y-101600000D03*
D16*
X38100000Y-101600000D03*
D15*
X43180000Y-101600000D03*
D17*
X34290000Y-99060000D03*
X40640000Y-96520000D03*
%TD*%
D15*
%TO.C,MX7*%
X171132500Y-44450000D03*
D16*
X176212500Y-44450000D03*
D15*
X181292500Y-44450000D03*
D17*
X172402500Y-41910000D03*
X178752500Y-39370000D03*
%TD*%
D15*
%TO.C,MX27*%
X90170000Y-82550000D03*
D16*
X95250000Y-82550000D03*
D15*
X100330000Y-82550000D03*
D17*
X91440000Y-80010000D03*
X97790000Y-77470000D03*
%TD*%
D15*
%TO.C,MX17*%
X137795000Y-63500000D03*
D16*
X142875000Y-63500000D03*
D15*
X147955000Y-63500000D03*
D17*
X139065000Y-60960000D03*
X145415000Y-58420000D03*
%TD*%
D15*
%TO.C,MX1*%
X56832500Y-44450000D03*
D16*
X61912500Y-44450000D03*
D15*
X66992500Y-44450000D03*
D17*
X58102500Y-41910000D03*
X64452500Y-39370000D03*
%TD*%
D15*
%TO.C,MX15*%
X99695000Y-63500000D03*
D16*
X104775000Y-63500000D03*
D15*
X109855000Y-63500000D03*
D17*
X100965000Y-60960000D03*
X107315000Y-58420000D03*
%TD*%
D15*
%TO.C,MX32*%
X185420000Y-82550000D03*
D16*
X190500000Y-82550000D03*
D15*
X195580000Y-82550000D03*
D17*
X186690000Y-80010000D03*
X193040000Y-77470000D03*
%TD*%
D15*
%TO.C,MX35*%
X249713750Y-82550000D03*
D16*
X254793750Y-82550000D03*
D15*
X259873750Y-82550000D03*
D17*
X250983750Y-80010000D03*
X257333750Y-77470000D03*
%TD*%
D15*
%TO.C,MX47*%
X80645000Y-101600000D03*
D16*
X85725000Y-101600000D03*
D15*
X90805000Y-101600000D03*
D17*
X81915000Y-99060000D03*
X88265000Y-96520000D03*
%TD*%
D15*
%TO.C,MX24*%
X30638750Y-82550000D03*
D16*
X35718750Y-82550000D03*
D15*
X40798750Y-82550000D03*
D17*
X31908750Y-80010000D03*
X38258750Y-77470000D03*
%TD*%
D15*
%TO.C,MX13*%
X61595000Y-63500000D03*
D16*
X66675000Y-63500000D03*
D15*
X71755000Y-63500000D03*
D17*
X62865000Y-60960000D03*
X69215000Y-58420000D03*
%TD*%
D15*
%TO.C,MX23*%
X254476250Y-63500000D03*
D16*
X259556250Y-63500000D03*
D15*
X264636250Y-63500000D03*
D17*
X255746250Y-60960000D03*
X262096250Y-58420000D03*
%TD*%
D16*
%TO.C,MX49*%
X161893250Y-93345000D03*
D19*
X161893250Y-108585000D03*
D15*
X168751250Y-101600000D03*
D16*
X173831250Y-101600000D03*
D15*
X178911250Y-101600000D03*
D16*
X185769250Y-93345000D03*
D19*
X185769250Y-108585000D03*
D17*
X170021250Y-99060000D03*
X176371250Y-96520000D03*
%TD*%
D15*
%TO.C,MX9*%
X209232500Y-44450000D03*
D16*
X214312500Y-44450000D03*
D15*
X219392500Y-44450000D03*
D17*
X210502500Y-41910000D03*
X216852500Y-39370000D03*
%TD*%
D15*
%TO.C,MX31*%
X166370000Y-82550000D03*
D16*
X171450000Y-82550000D03*
D15*
X176530000Y-82550000D03*
D17*
X167640000Y-80010000D03*
X173990000Y-77470000D03*
%TD*%
D15*
%TO.C,MX14*%
X80645000Y-63500000D03*
D16*
X85725000Y-63500000D03*
D15*
X90805000Y-63500000D03*
D17*
X81915000Y-60960000D03*
X88265000Y-58420000D03*
%TD*%
D15*
%TO.C,MX10*%
X228282500Y-44450000D03*
D16*
X233362500Y-44450000D03*
D15*
X238442500Y-44450000D03*
D17*
X229552500Y-41910000D03*
X235902500Y-39370000D03*
%TD*%
D15*
%TO.C,MX20*%
X194945000Y-63500000D03*
D16*
X200025000Y-63500000D03*
D15*
X205105000Y-63500000D03*
D17*
X196215000Y-60960000D03*
X202565000Y-58420000D03*
%TD*%
D15*
%TO.C,MX25*%
X52070000Y-82550000D03*
D16*
X57150000Y-82550000D03*
D15*
X62230000Y-82550000D03*
D17*
X53340000Y-80010000D03*
X59690000Y-77470000D03*
%TD*%
D15*
%TO.C,MX22*%
X233045000Y-63500000D03*
D16*
X238125000Y-63500000D03*
D15*
X243205000Y-63500000D03*
D17*
X234315000Y-60960000D03*
X240665000Y-58420000D03*
%TD*%
D15*
%TO.C,MX5*%
X133032500Y-44450000D03*
D16*
X138112500Y-44450000D03*
D15*
X143192500Y-44450000D03*
D17*
X134302500Y-41910000D03*
X140652500Y-39370000D03*
%TD*%
D15*
%TO.C,MX36*%
X30638750Y-101600000D03*
D16*
X35718750Y-101600000D03*
D15*
X40798750Y-101600000D03*
D17*
X31908750Y-99060000D03*
X38258750Y-96520000D03*
%TD*%
D19*
%TO.C,MX42*%
X238092916Y-56514991D03*
D16*
X238092916Y-71754991D03*
D15*
X244951166Y-63499991D03*
D16*
X250031166Y-63499991D03*
D15*
X255111166Y-63499991D03*
D19*
X261969416Y-56514991D03*
D16*
X261969416Y-71754991D03*
D17*
X246221166Y-60959991D03*
X252571166Y-58419991D03*
%TD*%
D19*
%TO.C,MX43*%
X33305500Y-75565000D03*
D16*
X33305500Y-90805000D03*
D15*
X40163750Y-82550000D03*
D16*
X45243750Y-82550000D03*
D15*
X50323750Y-82550000D03*
D19*
X57182000Y-75565000D03*
D16*
X57182000Y-90805000D03*
D17*
X41433750Y-80010000D03*
X47783750Y-77470000D03*
%TD*%
D15*
%TO.C,MX18*%
X156845000Y-63500000D03*
D16*
X161925000Y-63500000D03*
D15*
X167005000Y-63500000D03*
D17*
X158115000Y-60960000D03*
X164465000Y-58420000D03*
%TD*%
D16*
%TO.C,MX44*%
X80962916Y-93344991D03*
D19*
X80962916Y-108584991D03*
D18*
X142557916Y-101599991D03*
D16*
X147637916Y-101599991D03*
D18*
X152717916Y-101599991D03*
D16*
X214312916Y-93344991D03*
D19*
X214312916Y-108584991D03*
D17*
X143827916Y-99059991D03*
X150177916Y-96519991D03*
%TD*%
D15*
%TO.C,MX6*%
X152082500Y-44450000D03*
D16*
X157162500Y-44450000D03*
D15*
X162242500Y-44450000D03*
D17*
X153352500Y-41910000D03*
X159702500Y-39370000D03*
%TD*%
D15*
%TO.C,MX21*%
X213995000Y-63500000D03*
D16*
X219075000Y-63500000D03*
D15*
X224155000Y-63500000D03*
D17*
X215265000Y-60960000D03*
X221615000Y-58420000D03*
%TD*%
D15*
%TO.C,MX16*%
X118745000Y-63500000D03*
D16*
X123825000Y-63500000D03*
D15*
X128905000Y-63500000D03*
D17*
X120015000Y-60960000D03*
X126365000Y-58420000D03*
%TD*%
D15*
%TO.C,MX8*%
X190182500Y-44450000D03*
D16*
X195262500Y-44450000D03*
D15*
X200342500Y-44450000D03*
D17*
X191452500Y-41910000D03*
X197802500Y-39370000D03*
%TD*%
D15*
%TO.C,MX50*%
X204470000Y-101600000D03*
D16*
X209550000Y-101600000D03*
D15*
X214630000Y-101600000D03*
D17*
X205740000Y-99060000D03*
X212090000Y-96520000D03*
%TD*%
D15*
%TO.C,MX11*%
X252095000Y-44450000D03*
D16*
X257175000Y-44450000D03*
D15*
X262255000Y-44450000D03*
D17*
X253365000Y-41910000D03*
X259715000Y-39370000D03*
%TD*%
D15*
%TO.C,MX12*%
X30638250Y-63500000D03*
D16*
X35718250Y-63500000D03*
X40481250Y-63500000D03*
D15*
X45561250Y-63500000D03*
D17*
X31908250Y-60960000D03*
X36671250Y-60960000D03*
X38258250Y-58420000D03*
X43021250Y-58420000D03*
%TD*%
D15*
%TO.C,MX3*%
X94932500Y-44450000D03*
D16*
X100012500Y-44450000D03*
D15*
X105092500Y-44450000D03*
D17*
X96202500Y-41910000D03*
X102552500Y-39370000D03*
%TD*%
D15*
%TO.C,MX33*%
X204470000Y-82550000D03*
D16*
X209550000Y-82550000D03*
D15*
X214630000Y-82550000D03*
D17*
X205740000Y-80010000D03*
X212090000Y-77470000D03*
%TD*%
D15*
%TO.C,MX34*%
X223520000Y-82550000D03*
D16*
X228600000Y-82550000D03*
D15*
X233680000Y-82550000D03*
D17*
X224790000Y-80010000D03*
X231140000Y-77470000D03*
%TD*%
D15*
%TO.C,MX4*%
X113982500Y-44450000D03*
D16*
X119062500Y-44450000D03*
D15*
X124142500Y-44450000D03*
D17*
X115252500Y-41910000D03*
X121602500Y-39370000D03*
%TD*%
D15*
%TO.C,MX19*%
X175895000Y-63500000D03*
D16*
X180975000Y-63500000D03*
D15*
X186055000Y-63500000D03*
D17*
X177165000Y-60960000D03*
X183515000Y-58420000D03*
%TD*%
D15*
%TO.C,MX28*%
X109220000Y-82550000D03*
D16*
X114300000Y-82550000D03*
D15*
X119380000Y-82550000D03*
D17*
X110490000Y-80010000D03*
X116840000Y-77470000D03*
%TD*%
D15*
%TO.C,MX26*%
X71120000Y-82550000D03*
D16*
X76200000Y-82550000D03*
D15*
X81280000Y-82550000D03*
D17*
X72390000Y-80010000D03*
X78740000Y-77470000D03*
%TD*%
D15*
%TO.C,MX38*%
X75882500Y-101600000D03*
D16*
X80962500Y-101600000D03*
D15*
X86042500Y-101600000D03*
D17*
X77152500Y-99060000D03*
X83502500Y-96520000D03*
%TD*%
D15*
%TO.C,MX2*%
X75882500Y-44450000D03*
D16*
X80962500Y-44450000D03*
D15*
X86042500Y-44450000D03*
D17*
X77152500Y-41910000D03*
X83502500Y-39370000D03*
%TD*%
D20*
%TO.C,D17*%
X145987000Y-66037000D03*
X145987000Y-62737000D03*
%TD*%
D21*
%TO.C,R_DATA1*%
X50165000Y-63117000D03*
X50165000Y-64137000D03*
%TD*%
D22*
%TO.C,C_3V-Decoup2*%
X107229589Y-91398411D03*
X107908411Y-90719589D03*
%TD*%
D23*
%TO.C,MH4*%
X26337000Y-49950000D03*
%TD*%
D22*
%TO.C,C_1V-Decoup1*%
X108118589Y-92160411D03*
X108797411Y-91481589D03*
%TD*%
D24*
%TO.C,C_LDO2*%
X63909000Y-52832000D03*
X64869000Y-52832000D03*
%TD*%
D25*
%TO.C,J1*%
X55814750Y-54778500D03*
X55814750Y-55978500D03*
X55814750Y-57178500D03*
X55814750Y-58378500D03*
D26*
X59589750Y-53628500D03*
X59589750Y-59528500D03*
%TD*%
D20*
%TO.C,D9*%
X217424500Y-46987000D03*
X217424500Y-43687000D03*
%TD*%
%TO.C,D20*%
X203137000Y-66037000D03*
X203137000Y-62737000D03*
%TD*%
%TO.C,D18*%
X165037000Y-66037000D03*
X165037000Y-62737000D03*
%TD*%
D27*
%TO.C,C_Crystal1*%
X99036462Y-104230456D03*
X98357640Y-104909278D03*
%TD*%
D28*
%TO.C,C_3V-Decoup4*%
X115189000Y-90142000D03*
X115189000Y-89182000D03*
%TD*%
D20*
%TO.C,D4*%
X122174500Y-46987000D03*
X122174500Y-43687000D03*
%TD*%
D29*
%TO.C,F1*%
X55753000Y-51278000D03*
X55753000Y-49403000D03*
%TD*%
D20*
%TO.C,D8*%
X198374500Y-46987000D03*
X198374500Y-43687000D03*
%TD*%
D30*
%TO.C,D41*%
X129318250Y-104137000D03*
X129318250Y-100837000D03*
%TD*%
D20*
%TO.C,D34*%
X231712000Y-85087000D03*
X231712000Y-81787000D03*
%TD*%
%TO.C,D40*%
X236474500Y-104137000D03*
X236474500Y-100837000D03*
%TD*%
%TO.C,D13*%
X69787000Y-66037000D03*
X69787000Y-62737000D03*
%TD*%
%TO.C,D32*%
X193612000Y-85087000D03*
X193612000Y-81787000D03*
%TD*%
%TO.C,D7*%
X179324500Y-46987000D03*
X179324500Y-43687000D03*
%TD*%
%TO.C,D38*%
X72771000Y-104137000D03*
X72771000Y-100837000D03*
%TD*%
D27*
%TO.C,C_1V-Decoup3*%
X98510411Y-98847589D03*
X97831589Y-99526411D03*
%TD*%
D23*
%TO.C,MH3*%
X40337000Y-49950000D03*
%TD*%
D31*
%TO.C,U3*%
X127425000Y-85979000D03*
X127425000Y-87249000D03*
X127425000Y-88519000D03*
X127425000Y-89789000D03*
X120225000Y-89789000D03*
X120225000Y-88519000D03*
X120225000Y-87249000D03*
X120225000Y-85979000D03*
%TD*%
D32*
%TO.C,D43*%
X38039000Y-45797000D03*
X41339000Y-45797000D03*
%TD*%
D33*
%TO.C,R_RST1*%
X95760000Y-97155000D03*
X94740000Y-97155000D03*
%TD*%
D34*
%TO.C,U1*%
X110466279Y-99017202D03*
X110183436Y-99300045D03*
X109900594Y-99582887D03*
X109617751Y-99865730D03*
X109334908Y-100148573D03*
X109052066Y-100431415D03*
X108769223Y-100714258D03*
X108486380Y-100997101D03*
X108203537Y-101279944D03*
X107920695Y-101562786D03*
X107637852Y-101845629D03*
X107355009Y-102128472D03*
X107072167Y-102411314D03*
X106789324Y-102694157D03*
D35*
X105604920Y-102694157D03*
X105322077Y-102411314D03*
X105039235Y-102128472D03*
X104756392Y-101845629D03*
X104473549Y-101562786D03*
X104190707Y-101279944D03*
X103907864Y-100997101D03*
X103625021Y-100714258D03*
X103342178Y-100431415D03*
X103059336Y-100148573D03*
X102776493Y-99865730D03*
X102493650Y-99582887D03*
X102210808Y-99300045D03*
X101927965Y-99017202D03*
D34*
X101927965Y-97832798D03*
X102210808Y-97549955D03*
X102493650Y-97267113D03*
X102776493Y-96984270D03*
X103059336Y-96701427D03*
X103342178Y-96418585D03*
X103625021Y-96135742D03*
X103907864Y-95852899D03*
X104190707Y-95570056D03*
X104473549Y-95287214D03*
X104756392Y-95004371D03*
X105039235Y-94721528D03*
X105322077Y-94438686D03*
X105604920Y-94155843D03*
D35*
X106789324Y-94155843D03*
X107072167Y-94438686D03*
X107355009Y-94721528D03*
X107637852Y-95004371D03*
X107920695Y-95287214D03*
X108203537Y-95570056D03*
X108486380Y-95852899D03*
X108769223Y-96135742D03*
X109052066Y-96418585D03*
X109334908Y-96701427D03*
X109617751Y-96984270D03*
X109900594Y-97267113D03*
X110183436Y-97549955D03*
X110466279Y-97832798D03*
D36*
X106197122Y-98425000D03*
%TD*%
D27*
%TO.C,C_3V-Decoup3*%
X99272411Y-99609589D03*
X98593589Y-100288411D03*
%TD*%
D20*
%TO.C,D10*%
X236474500Y-46987000D03*
X236474500Y-43687000D03*
%TD*%
D37*
%TO.C,F2*%
X40451000Y-40714000D03*
X40451000Y-43514000D03*
%TD*%
D38*
%TO.C,L1*%
X26354000Y-46181001D03*
X26354000Y-43381001D03*
%TD*%
D39*
%TO.C,U2*%
X62073000Y-49596000D03*
X62073000Y-51496000D03*
X60198000Y-50546000D03*
%TD*%
D20*
%TO.C,D28*%
X117412000Y-85087000D03*
X117412000Y-81787000D03*
%TD*%
D40*
%TO.C,J5*%
X36137000Y-50800000D03*
X30537000Y-50800000D03*
D41*
X34837000Y-46925000D03*
X33837000Y-46925000D03*
X32837000Y-46925000D03*
X31837000Y-46925000D03*
%TD*%
D42*
%TO.C,J2*%
X94361000Y-94361000D03*
D43*
X94361000Y-91821000D03*
%TD*%
D20*
%TO.C,D2*%
X84074500Y-46987000D03*
X84074500Y-43687000D03*
%TD*%
%TO.C,D29*%
X136462000Y-85087000D03*
X136462000Y-81787000D03*
%TD*%
%TO.C,D16*%
X126937000Y-66037000D03*
X126937000Y-62737000D03*
%TD*%
D28*
%TO.C,C_LDO1*%
X58039000Y-50772000D03*
X58039000Y-49812000D03*
%TD*%
D20*
%TO.C,D15*%
X107887000Y-66037000D03*
X107887000Y-62737000D03*
%TD*%
D44*
%TO.C,C_Flash1*%
X117066000Y-87122000D03*
X116106000Y-87122000D03*
%TD*%
D20*
%TO.C,D3*%
X103124500Y-46987000D03*
X103124500Y-43687000D03*
%TD*%
D22*
%TO.C,C_Crystal2*%
X94675735Y-100508952D03*
X95354557Y-99830130D03*
%TD*%
D45*
%TO.C,R2*%
X36387000Y-45286000D03*
X36387000Y-46786000D03*
%TD*%
D21*
%TO.C,R_DATA2*%
X49022000Y-63117000D03*
X49022000Y-64137000D03*
%TD*%
D46*
%TO.C,U5*%
X34339000Y-45318400D03*
D47*
X33839000Y-45318400D03*
D48*
X33339000Y-45318400D03*
D47*
X32839000Y-45318400D03*
X32339000Y-45318400D03*
X32339000Y-44548400D03*
X32839000Y-44548400D03*
D48*
X33339000Y-44548400D03*
D47*
X33839000Y-44548400D03*
X34339000Y-44548400D03*
%TD*%
D20*
%TO.C,D26*%
X79312000Y-85087000D03*
X79312000Y-81787000D03*
%TD*%
%TO.C,D39*%
X160274500Y-104137000D03*
X160274500Y-100837000D03*
%TD*%
D49*
%TO.C,C_3V-Decoup9*%
X105368411Y-91271411D03*
X104689589Y-90592589D03*
%TD*%
D20*
%TO.C,D23*%
X262668250Y-66037000D03*
X262668250Y-62737000D03*
%TD*%
%TO.C,D30*%
X155512000Y-85087000D03*
X155512000Y-81787000D03*
%TD*%
D50*
%TO.C,Y1*%
X96724223Y-100856142D03*
X98279858Y-102411777D03*
X97077777Y-103613858D03*
X95522142Y-102058223D03*
%TD*%
D23*
%TO.C,MH2*%
X26337000Y-37450000D03*
%TD*%
D51*
%TO.C,C_3V-Decoup8*%
X111928589Y-100117589D03*
X112607411Y-100796411D03*
%TD*%
%TO.C,C_3V-Decoup5*%
X108753589Y-103038589D03*
X109432411Y-103717411D03*
%TD*%
D20*
%TO.C,D12*%
X43593250Y-66037000D03*
X43593250Y-62737000D03*
%TD*%
%TO.C,D21*%
X222187000Y-66037000D03*
X222187000Y-62737000D03*
%TD*%
%TO.C,D14*%
X88837000Y-66037000D03*
X88837000Y-62737000D03*
%TD*%
D52*
%TO.C,J3*%
X55689750Y-55078500D03*
X55689750Y-56078500D03*
X55689750Y-57078500D03*
X55689750Y-58078500D03*
D53*
X59564750Y-53778500D03*
X59564750Y-59378500D03*
%TD*%
D54*
%TO.C,J4*%
X30448999Y-41699000D03*
X36228999Y-41699000D03*
D55*
X30088999Y-43025000D03*
X30888999Y-43025000D03*
D56*
X32088999Y-43025000D03*
X33084999Y-43025000D03*
X33588999Y-43025000D03*
X34588999Y-43025000D03*
D55*
X36588999Y-43025000D03*
X35788999Y-43025000D03*
D56*
X35088999Y-43025000D03*
X34088999Y-43025000D03*
X32588999Y-43025000D03*
X31588999Y-43025000D03*
D57*
X29038999Y-38050000D03*
D58*
X29038999Y-42250000D03*
D57*
X37638999Y-38050000D03*
D58*
X37638999Y-42250000D03*
%TD*%
D45*
%TO.C,R1*%
X30418000Y-45286001D03*
X30418000Y-46786001D03*
%TD*%
D59*
%TO.C,U4*%
X53709000Y-57642000D03*
D60*
X52009000Y-57642000D03*
X52009000Y-55642000D03*
X53909000Y-55642000D03*
%TD*%
D20*
%TO.C,D27*%
X98362000Y-85087000D03*
X98362000Y-81787000D03*
%TD*%
D23*
%TO.C,MH1*%
X40337000Y-37450000D03*
%TD*%
D20*
%TO.C,D6*%
X160274500Y-46987000D03*
X160274500Y-43687000D03*
%TD*%
%TO.C,D36*%
X27432000Y-104137000D03*
X27432000Y-100837000D03*
%TD*%
D30*
%TO.C,D42*%
X212662000Y-104137000D03*
X212662000Y-100837000D03*
%TD*%
D20*
%TO.C,D11*%
X260287000Y-46987000D03*
X260287000Y-43687000D03*
%TD*%
%TO.C,D19*%
X184087000Y-66037000D03*
X184087000Y-62737000D03*
%TD*%
D44*
%TO.C,C_3V-Decoup6*%
X97762000Y-96139000D03*
X96802000Y-96139000D03*
%TD*%
D61*
%TO.C,R_Crystal1*%
X99461376Y-101325624D03*
X100182624Y-100604376D03*
%TD*%
D42*
%TO.C,SW1*%
X123825000Y-76195000D03*
D43*
X123825000Y-78735000D03*
%TD*%
D20*
%TO.C,D35*%
X257905750Y-85087000D03*
X257905750Y-81787000D03*
%TD*%
%TO.C,D25*%
X60262000Y-85087000D03*
X60262000Y-81787000D03*
%TD*%
D22*
%TO.C,C_1V-Decoup2*%
X110277589Y-94700411D03*
X110956411Y-94021589D03*
%TD*%
D21*
%TO.C,R_Flash1*%
X123825000Y-82675000D03*
X123825000Y-83695000D03*
%TD*%
D20*
%TO.C,D1*%
X65024500Y-46987000D03*
X65024500Y-43687000D03*
%TD*%
%TO.C,D24*%
X38830750Y-88010000D03*
X38830750Y-84710000D03*
%TD*%
%TO.C,D22*%
X241237000Y-66037000D03*
X241237000Y-62737000D03*
%TD*%
%TO.C,D37*%
X69977000Y-104137000D03*
X69977000Y-100837000D03*
%TD*%
%TO.C,D33*%
X212662000Y-85087000D03*
X212662000Y-81787000D03*
%TD*%
%TO.C,D5*%
X141224500Y-46987000D03*
X141224500Y-43687000D03*
%TD*%
%TO.C,D31*%
X174562000Y-85087000D03*
X174562000Y-81787000D03*
%TD*%
D49*
%TO.C,C_3V-Decoup7*%
X106130411Y-90509411D03*
X105451589Y-89830589D03*
%TD*%
D24*
%TO.C,C_3V-Decoup1*%
X63909000Y-53975000D03*
X64869000Y-53975000D03*
%TD*%
%LPD*%
M02*
