%TF.GenerationSoftware,KiCad,Pcbnew,7.0.1*%
%TF.CreationDate,2023-04-14T20:37:59+02:00*%
%TF.ProjectId,no-escape,6e6f2d65-7363-4617-9065-2e6b69636164,rev?*%
%TF.SameCoordinates,Original*%
%TF.FileFunction,Soldermask,Top*%
%TF.FilePolarity,Negative*%
%FSLAX46Y46*%
G04 Gerber Fmt 4.6, Leading zero omitted, Abs format (unit mm)*
G04 Created by KiCad (PCBNEW 7.0.1) date 2023-04-14 20:37:59*
%MOMM*%
%LPD*%
G01*
G04 APERTURE LIST*
%ADD10C,3.987800*%
%ADD11C,1.750000*%
%ADD12C,2.500000*%
%ADD13C,1.701800*%
%ADD14C,3.048000*%
%ADD15R,1.700000X1.700000*%
%ADD16O,1.700000X1.700000*%
G04 APERTURE END LIST*
D10*
%TO.C,MX46*%
X38100000Y-101600000D03*
D11*
X43180000Y-101600000D03*
X33020000Y-101600000D03*
D12*
X34290000Y-99060000D03*
X40640000Y-96520000D03*
%TD*%
%TO.C,MX45*%
X64452500Y-96520000D03*
X58102500Y-99060000D03*
D11*
X56832500Y-101600000D03*
X66992500Y-101600000D03*
D10*
X61912500Y-101600000D03*
%TD*%
%TO.C,MX41*%
X251301000Y-42036750D03*
X251301000Y-65912750D03*
D13*
X259556000Y-48894750D03*
D10*
X259556000Y-53974750D03*
D13*
X259556000Y-59054750D03*
D14*
X266541000Y-42036750D03*
X266541000Y-65912750D03*
%TD*%
D11*
%TO.C,MX29*%
X128270000Y-82550000D03*
D10*
X133350000Y-82550000D03*
D11*
X138430000Y-82550000D03*
%TD*%
D10*
%TO.C,MX39*%
X100012500Y-93345000D03*
D14*
X100012500Y-108585000D03*
D11*
X152082500Y-101600000D03*
D10*
X157162500Y-101600000D03*
D11*
X162242500Y-101600000D03*
D10*
X214312500Y-93345000D03*
D14*
X214312500Y-108585000D03*
%TD*%
D11*
%TO.C,MX30*%
X147320000Y-82550000D03*
D10*
X152400000Y-82550000D03*
D11*
X157480000Y-82550000D03*
%TD*%
%TO.C,MX37*%
X54451250Y-101600000D03*
D10*
X59531250Y-101600000D03*
D11*
X64611250Y-101600000D03*
%TD*%
%TO.C,MX40*%
X228282500Y-101600000D03*
D10*
X233362500Y-101600000D03*
D11*
X238442500Y-101600000D03*
%TD*%
%TO.C,MX7*%
X171132500Y-44450000D03*
D10*
X176212500Y-44450000D03*
D11*
X181292500Y-44450000D03*
%TD*%
%TO.C,MX27*%
X90170000Y-82550000D03*
D10*
X95250000Y-82550000D03*
D11*
X100330000Y-82550000D03*
%TD*%
%TO.C,MX17*%
X137795000Y-63500000D03*
D10*
X142875000Y-63500000D03*
D11*
X147955000Y-63500000D03*
%TD*%
%TO.C,MX1*%
X56832500Y-44450000D03*
D10*
X61912500Y-44450000D03*
D11*
X66992500Y-44450000D03*
%TD*%
%TO.C,MX15*%
X99695000Y-63500000D03*
D10*
X104775000Y-63500000D03*
D11*
X109855000Y-63500000D03*
%TD*%
%TO.C,MX32*%
X185420000Y-82550000D03*
D10*
X190500000Y-82550000D03*
D11*
X195580000Y-82550000D03*
%TD*%
%TO.C,MX35*%
X249713750Y-82550000D03*
D10*
X254793750Y-82550000D03*
D11*
X259873750Y-82550000D03*
%TD*%
%TO.C,MX24*%
X30638750Y-82550000D03*
D10*
X35718750Y-82550000D03*
D11*
X40798750Y-82550000D03*
%TD*%
%TO.C,MX13*%
X61595000Y-63500000D03*
D10*
X66675000Y-63500000D03*
D11*
X71755000Y-63500000D03*
%TD*%
%TO.C,MX23*%
X254476250Y-63500000D03*
D10*
X259556250Y-63500000D03*
D11*
X264636250Y-63500000D03*
%TD*%
%TO.C,MX9*%
X209232500Y-44450000D03*
D10*
X214312500Y-44450000D03*
D11*
X219392500Y-44450000D03*
%TD*%
%TO.C,MX31*%
X166370000Y-82550000D03*
D10*
X171450000Y-82550000D03*
D11*
X176530000Y-82550000D03*
%TD*%
%TO.C,MX14*%
X80645000Y-63500000D03*
D10*
X85725000Y-63500000D03*
D11*
X90805000Y-63500000D03*
%TD*%
%TO.C,MX10*%
X228282500Y-44450000D03*
D10*
X233362500Y-44450000D03*
D11*
X238442500Y-44450000D03*
%TD*%
%TO.C,MX20*%
X194945000Y-63500000D03*
D10*
X200025000Y-63500000D03*
D11*
X205105000Y-63500000D03*
%TD*%
%TO.C,MX25*%
X52070000Y-82550000D03*
D10*
X57150000Y-82550000D03*
D11*
X62230000Y-82550000D03*
%TD*%
%TO.C,MX22*%
X233045000Y-63500000D03*
D10*
X238125000Y-63500000D03*
D11*
X243205000Y-63500000D03*
%TD*%
%TO.C,MX5*%
X133032500Y-44450000D03*
D10*
X138112500Y-44450000D03*
D11*
X143192500Y-44450000D03*
%TD*%
%TO.C,MX36*%
X30638750Y-101600000D03*
D10*
X35718750Y-101600000D03*
D11*
X40798750Y-101600000D03*
%TD*%
D14*
%TO.C,MX42*%
X238092916Y-56514991D03*
D10*
X238092916Y-71754991D03*
D11*
X244951166Y-63499991D03*
D10*
X250031166Y-63499991D03*
D11*
X255111166Y-63499991D03*
D14*
X261969416Y-56514991D03*
D10*
X261969416Y-71754991D03*
%TD*%
D14*
%TO.C,MX43*%
X33305500Y-75565000D03*
D10*
X33305500Y-90805000D03*
D11*
X40163750Y-82550000D03*
D10*
X45243750Y-82550000D03*
D11*
X50323750Y-82550000D03*
D14*
X57182000Y-75565000D03*
D10*
X57182000Y-90805000D03*
%TD*%
D11*
%TO.C,MX18*%
X156845000Y-63500000D03*
D10*
X161925000Y-63500000D03*
D11*
X167005000Y-63500000D03*
%TD*%
D10*
%TO.C,MX44*%
X80962916Y-93344991D03*
D14*
X80962916Y-108584991D03*
D13*
X142557916Y-101599991D03*
D10*
X147637916Y-101599991D03*
D13*
X152717916Y-101599991D03*
D10*
X214312916Y-93344991D03*
D14*
X214312916Y-108584991D03*
%TD*%
D11*
%TO.C,MX6*%
X152082500Y-44450000D03*
D10*
X157162500Y-44450000D03*
D11*
X162242500Y-44450000D03*
%TD*%
%TO.C,MX21*%
X213995000Y-63500000D03*
D10*
X219075000Y-63500000D03*
D11*
X224155000Y-63500000D03*
%TD*%
%TO.C,MX16*%
X118745000Y-63500000D03*
D10*
X123825000Y-63500000D03*
D11*
X128905000Y-63500000D03*
%TD*%
%TO.C,MX8*%
X190182500Y-44450000D03*
D10*
X195262500Y-44450000D03*
D11*
X200342500Y-44450000D03*
%TD*%
%TO.C,MX11*%
X252095000Y-44450000D03*
D10*
X257175000Y-44450000D03*
D11*
X262255000Y-44450000D03*
%TD*%
%TO.C,MX12*%
X30638250Y-63500000D03*
D10*
X35718250Y-63500000D03*
X40481250Y-63500000D03*
D11*
X45561250Y-63500000D03*
%TD*%
%TO.C,MX3*%
X94932500Y-44450000D03*
D10*
X100012500Y-44450000D03*
D11*
X105092500Y-44450000D03*
%TD*%
%TO.C,MX33*%
X204470000Y-82550000D03*
D10*
X209550000Y-82550000D03*
D11*
X214630000Y-82550000D03*
%TD*%
%TO.C,MX34*%
X223520000Y-82550000D03*
D10*
X228600000Y-82550000D03*
D11*
X233680000Y-82550000D03*
%TD*%
%TO.C,MX4*%
X113982500Y-44450000D03*
D10*
X119062500Y-44450000D03*
D11*
X124142500Y-44450000D03*
%TD*%
%TO.C,MX19*%
X175895000Y-63500000D03*
D10*
X180975000Y-63500000D03*
D11*
X186055000Y-63500000D03*
%TD*%
%TO.C,MX28*%
X109220000Y-82550000D03*
D10*
X114300000Y-82550000D03*
D11*
X119380000Y-82550000D03*
%TD*%
%TO.C,MX26*%
X71120000Y-82550000D03*
D10*
X76200000Y-82550000D03*
D11*
X81280000Y-82550000D03*
%TD*%
%TO.C,MX38*%
X75882500Y-101600000D03*
D10*
X80962500Y-101600000D03*
D11*
X86042500Y-101600000D03*
%TD*%
%TO.C,MX2*%
X75882500Y-44450000D03*
D10*
X80962500Y-44450000D03*
D11*
X86042500Y-44450000D03*
%TD*%
D15*
%TO.C,J2*%
X106843750Y-108743750D03*
D16*
X109383750Y-108743750D03*
X111923750Y-108743750D03*
X114463750Y-108743750D03*
X117003750Y-108743750D03*
%TD*%
D15*
%TO.C,SW1*%
X142875000Y-78735000D03*
D16*
X142875000Y-81275000D03*
%TD*%
M02*
