M48
; DRILL file {KiCad 7.0.1} date Fri Apr 14 20:37:59 2023
; FORMAT={-:-/ absolute / inch / decimal}
; #@! TF.CreationDate,2023-04-14T20:37:59+02:00
; #@! TF.GenerationSoftware,Kicad,Pcbnew,7.0.1
; #@! TF.FileFunction,Plated,1,2,PTH
FMAT,2
INCH
; #@! TA.AperFunction,Plated,PTH,ViaDrill
T1C0.0138
; #@! TA.AperFunction,Plated,PTH,ComponentDrill
T2C0.0138
; #@! TA.AperFunction,Plated,PTH,ViaDrill
T3C0.0157
; #@! TA.AperFunction,Plated,PTH,ComponentDrill
T4C0.0394
; #@! TA.AperFunction,Plated,PTH,ComponentDrill
T5C0.0579
; #@! TA.AperFunction,Plated,PTH,ComponentDrill
T6C0.0600
%
G90
G05
T1
X4.7902Y-3.789
X4.805Y-3.9588
T2
X4.7848Y-3.8259
X4.7848Y-3.8761
X4.7848Y-3.9263
X4.835Y-3.8259
X4.835Y-3.8761
X4.835Y-3.9263
X4.8852Y-3.8259
X4.8852Y-3.8761
X4.8852Y-3.9263
T3
X1.43Y-3.555
X1.79Y-2.6
X1.875Y-3.86
X2.425Y-2.6
X2.525Y-2.545
X2.525Y-3.415
X2.64Y-3.865
X3.685Y-3.55
X3.715Y-3.58
X4.465Y-3.525
X4.495Y-3.915
X4.505Y-3.75
X4.55Y-3.89
X4.675Y-3.35
X4.715Y-4.13
X4.74Y-3.01
X4.8547Y-3.625
X4.865Y-3.35
X4.925Y-3.585
X4.935Y-3.53
X5.015Y-3.725
X5.08Y-3.7967
X5.435Y-3.35
X5.5125Y-3.9975
X5.515Y-4.04
X5.518Y-4.082
X5.5192Y-4.1221
X5.52Y-4.165
X5.65Y-3.48
X5.8225Y-3.35
X6.39Y-3.77
X6.805Y-3.945
X8.65Y-3.715
T4
X4.2064Y-4.2812
X4.3064Y-4.2812
X4.4064Y-4.2812
X4.5064Y-4.2812
X4.6064Y-4.2812
X5.625Y-3.0998
X5.625Y-3.1998
T5
X10.3187Y-1.975
X10.4187Y-2.225
T6
X1.2562Y-2.4
X1.2562Y-3.15
X1.2562Y-3.9
X1.35Y-3.9
X1.4437Y-2.4
X1.5062Y-2.3
X1.5062Y-3.05
X1.5062Y-3.8
X1.6Y-3.8
X1.6312Y-3.15
X1.6937Y-2.3
X1.8812Y-3.05
X2.1Y-3.15
X2.1938Y-3.9
X2.2875Y-1.65
X2.2875Y-3.9
X2.35Y-3.05
X2.4438Y-3.8
X2.475Y-2.4
X2.5375Y-1.55
X2.5375Y-3.8
X2.725Y-2.3
X2.85Y-3.15
X3.0375Y-1.65
X3.0375Y-3.9
X3.1Y-3.05
X3.225Y-2.4
X3.2875Y-1.55
X3.2875Y-3.8
X3.475Y-2.3
X3.6Y-3.15
X3.7875Y-1.65
X3.85Y-3.05
X3.975Y-2.4
X4.0375Y-1.55
X4.225Y-2.3
X4.35Y-3.15
X4.5375Y-1.65
X4.6Y-3.05
X4.725Y-2.4
X4.7875Y-1.55
X4.975Y-2.3
X5.1Y-3.15
X5.2875Y-1.65
X5.35Y-3.05
X5.475Y-2.4
X5.5375Y-1.55
X5.6625Y-3.9
X5.725Y-2.3
X5.85Y-3.15
X5.9125Y-3.8
X6.0375Y-1.65
X6.0375Y-3.9
X6.1Y-3.05
X6.225Y-2.4
X6.2875Y-1.55
X6.2875Y-3.8
X6.475Y-2.3
X6.6Y-3.15
X6.7875Y-1.65
X6.85Y-3.05
X6.975Y-2.4
X7.0375Y-1.55
X7.225Y-2.3
X7.35Y-3.15
X7.5375Y-1.65
X7.6Y-3.05
X7.725Y-2.4
X7.7875Y-1.55
X7.975Y-2.3
X8.1Y-3.15
X8.2875Y-1.65
X8.35Y-3.05
X8.475Y-2.4
X8.5375Y-1.55
X8.725Y-2.3
X8.85Y-3.15
X9.0375Y-1.65
X9.0375Y-3.9
X9.1Y-3.05
X9.225Y-2.4
X9.2875Y-1.55
X9.2875Y-3.8
X9.475Y-2.3
X9.6937Y-2.4
X9.8812Y-3.15
X9.9437Y-2.3
X9.975Y-1.65
X10.0687Y-2.4
X10.1312Y-3.05
X10.225Y-1.55
X10.3187Y-2.3
T0
M30
