M48
; DRILL file {KiCad 7.0.5-0} date 2023 December 30, Saturday 22:52:48
; FORMAT={-:-/ absolute / inch / decimal}
; #@! TF.CreationDate,2023-12-30T22:52:48+01:00
; #@! TF.GenerationSoftware,Kicad,Pcbnew,7.0.5-0
; #@! TF.FileFunction,Plated,1,2,PTH
FMAT,2
INCH
; #@! TA.AperFunction,Plated,PTH,ViaDrill
T1C0.0120
; #@! TA.AperFunction,Plated,PTH,ViaDrill
T2C0.0138
; #@! TA.AperFunction,Plated,PTH,ComponentDrill
T3C0.0138
; #@! TA.AperFunction,Plated,PTH,ViaDrill
T4C0.0157
; #@! TA.AperFunction,Plated,PTH,ComponentDrill
T5C0.0236
; #@! TA.AperFunction,Plated,PTH,ComponentDrill
T6C0.0394
; #@! TA.AperFunction,Plated,PTH,ComponentDrill
T7C0.0579
; #@! TA.AperFunction,Plated,PTH,ComponentDrill
T8C0.0600
; #@! TA.AperFunction,Plated,PTH,ComponentDrill
T9C0.0866
%
G90
G05
T1
X1.2161Y-1.738
X1.2626Y-1.803
X1.2929Y-1.8474
X1.3126Y-1.769
X1.3322Y-1.8474
X1.3626Y-1.803
X1.409Y-1.738
T2
X4.1045Y-3.9155
X4.2131Y-3.7903
T3
X4.11Y-3.875
X4.1455Y-3.8395
X4.1455Y-3.9105
X4.181Y-3.804
X4.181Y-3.875
X4.181Y-3.946
X4.2165Y-3.8395
X4.2165Y-3.9105
X4.252Y-3.875
T4
X1.43Y-3.555
X1.79Y-2.6
X1.875Y-3.86
X2.06Y-2.6
X2.51Y-2.56
X2.51Y-3.415
X2.64Y-3.865
X3.535Y-3.02
X3.6Y-3.519
X3.685Y-4.1
X3.755Y-3.5348
X3.765Y-3.81
X3.795Y-3.895
X3.85Y-3.8775
X4.17Y-4.131
X4.19Y-3.35
X4.2167Y-3.525
X4.3Y-3.57
X4.3393Y-4.1057
X4.395Y-3.73
X4.405Y-3.35
X4.41Y-3.585
X4.475Y-3.95
X4.6089Y-3.5239
X4.695Y-3.3499
X4.74Y-3.01
X4.96Y-3.89
X5.1175Y-3.3499
X5.485Y-3.78
X5.805Y-3.8
X6.6Y-3.58
X7.295Y-3.415
X7.35Y-3.565
X8.65Y-3.715
X9.495Y-3.495
T6
X3.5625Y-3.5752
X3.5625Y-3.6752
X4.875Y-2.9998
X4.875Y-3.0998
T7
X5.0687Y-3.8
X10.3187Y-1.975
X10.4187Y-2.225
T8
X1.2562Y-2.4
X1.2562Y-3.15
X1.2562Y-3.9
X1.35Y-3.9
X1.4437Y-2.4
X1.5062Y-2.3
X1.5062Y-3.05
X1.5062Y-3.8
X1.6Y-3.8
X1.6312Y-3.15
X1.6937Y-2.3
X1.8812Y-3.05
X2.1Y-3.15
X2.1938Y-3.9
X2.2875Y-1.65
X2.2875Y-3.9
X2.35Y-3.05
X2.4438Y-3.8
X2.475Y-2.4
X2.5375Y-1.55
X2.5375Y-3.8
X2.725Y-2.3
X2.85Y-3.15
X3.0375Y-1.65
X3.0375Y-3.9
X3.1Y-3.05
X3.225Y-2.4
X3.225Y-3.9
X3.2875Y-1.55
X3.2875Y-3.8
X3.475Y-2.3
X3.475Y-3.8
X3.6Y-3.15
X3.7875Y-1.65
X3.85Y-3.05
X3.975Y-2.4
X4.0375Y-1.55
X4.225Y-2.3
X4.35Y-3.15
X4.5375Y-1.65
X4.6Y-3.05
X4.725Y-2.4
X4.7875Y-1.55
X4.8187Y-3.9
X4.975Y-2.3
X5.1Y-3.15
X5.2875Y-1.65
X5.35Y-3.05
X5.475Y-2.4
X5.5375Y-1.55
X5.6625Y-3.9
X5.725Y-2.3
X5.85Y-3.15
X5.9125Y-3.8
X6.0375Y-1.65
X6.0375Y-3.9
X6.1Y-3.05
X6.225Y-2.4
X6.2875Y-1.55
X6.2875Y-3.8
X6.475Y-2.3
X6.6Y-3.15
X6.6937Y-3.9
X6.7875Y-1.65
X6.85Y-3.05
X6.9437Y-3.8
X6.975Y-2.4
X7.0375Y-1.55
X7.225Y-2.3
X7.35Y-3.15
X7.5375Y-1.65
X7.6Y-3.05
X7.725Y-2.4
X7.7875Y-1.55
X7.975Y-2.3
X8.1Y-3.15
X8.1Y-3.9
X8.2875Y-1.65
X8.35Y-3.05
X8.35Y-3.8
X8.475Y-2.4
X8.5375Y-1.55
X8.725Y-2.3
X8.85Y-3.15
X9.0375Y-1.65
X9.0375Y-3.9
X9.1Y-3.05
X9.225Y-2.4
X9.2875Y-1.55
X9.2875Y-3.8
X9.475Y-2.3
X9.6937Y-2.4
X9.8812Y-3.15
X9.9437Y-2.3
X9.975Y-1.65
X10.0687Y-2.4
X10.1312Y-3.05
X10.225Y-1.55
X10.3187Y-2.3
T9
X1.0369Y-1.4744
T5
G00X1.1433Y-1.4862
M15
G01X1.1433Y-1.5098
M16
G05
G00X1.1433Y-1.6417
M15
G01X1.1433Y-1.685
M16
G05
G00X1.4819Y-1.4862
M15
G01X1.4819Y-1.5098
M16
G05
G00X1.4819Y-1.6417
M15
G01X1.4819Y-1.685
M16
G05
T0
M30
