%TF.GenerationSoftware,KiCad,Pcbnew,7.0.5-0*%
%TF.CreationDate,2023-12-30T22:52:48+01:00*%
%TF.ProjectId,no-escape,6e6f2d65-7363-4617-9065-2e6b69636164,rev?*%
%TF.SameCoordinates,Original*%
%TF.FileFunction,Profile,NP*%
%FSLAX46Y46*%
G04 Gerber Fmt 4.6, Leading zero omitted, Abs format (unit mm)*
G04 Created by KiCad (PCBNEW 7.0.5-0) date 2023-12-30 22:52:48*
%MOMM*%
%LPD*%
G01*
G04 APERTURE LIST*
%TA.AperFunction,Profile*%
%ADD10C,0.200000*%
%TD*%
G04 APERTURE END LIST*
D10*
X66674500Y-73775000D02*
X228599500Y-73775000D01*
X228599500Y-73775000D02*
G75*
G03*
X228599500Y-72275000I0J750000D01*
G01*
X66674500Y-72275000D02*
X228599500Y-72275000D01*
X66674500Y-72275000D02*
G75*
G03*
X66674500Y-73775000I0J-750000D01*
G01*
X31387000Y-54600000D02*
G75*
G03*
X31387000Y-54600000I-300000J0D01*
G01*
X32287000Y-54600000D02*
G75*
G03*
X32287000Y-54600000I-300000J0D01*
G01*
X33187000Y-54600000D02*
G75*
G03*
X33187000Y-54600000I-300000J0D01*
G01*
X34087000Y-54600000D02*
G75*
G03*
X34087000Y-54600000I-300000J0D01*
G01*
X34987000Y-54600000D02*
G75*
G03*
X34987000Y-54600000I-300000J0D01*
G01*
X35887000Y-54600000D02*
G75*
G03*
X35887000Y-54600000I-300000J0D01*
G01*
X35887000Y-51850000D02*
G75*
G03*
X35887000Y-51850000I-300000J0D01*
G01*
X34987000Y-51850000D02*
G75*
G03*
X34987000Y-51850000I-300000J0D01*
G01*
X34087000Y-51850000D02*
G75*
G03*
X34087000Y-51850000I-300000J0D01*
G01*
X33187000Y-51850000D02*
G75*
G03*
X33187000Y-51850000I-300000J0D01*
G01*
X32287000Y-51850000D02*
G75*
G03*
X32287000Y-51850000I-300000J0D01*
G01*
X31387000Y-51850000D02*
G75*
G03*
X31387000Y-51850000I-300000J0D01*
G01*
X51387000Y-54500000D02*
X36587000Y-54500000D01*
X51387000Y-54500000D02*
G75*
G03*
X52912000Y-52975000I1J1524999D01*
G01*
X52912000Y-36925000D02*
X52912000Y-52975000D01*
X54387000Y-35450000D02*
G75*
G03*
X52912000Y-36925000I-2J-1474998D01*
G01*
X269462000Y-35450000D02*
X54387000Y-35450000D01*
X270937000Y-36925000D02*
G75*
G03*
X269462000Y-35450000I-1475000J0D01*
G01*
X270937000Y-90075000D02*
X270937000Y-36925000D01*
X269462000Y-91550000D02*
G75*
G03*
X270937000Y-90075000I0J1475000D01*
G01*
X243887000Y-91550000D02*
X269462000Y-91550000D01*
X243887000Y-91550000D02*
G75*
G03*
X242362000Y-93075000I0J-1525000D01*
G01*
X242362000Y-109125000D02*
X242362000Y-93075000D01*
X240887000Y-110600000D02*
G75*
G03*
X242362000Y-109125000I0J1475000D01*
G01*
X25812000Y-110600000D02*
X240887000Y-110600000D01*
X24337000Y-109125000D02*
G75*
G03*
X25812000Y-110600000I1474998J-2D01*
G01*
X24337000Y-55975000D02*
X24337000Y-109125000D01*
X25812000Y-54500000D02*
G75*
G03*
X24337000Y-55975000I-2J-1474998D01*
G01*
X30087000Y-54500000D02*
X25812000Y-54500000D01*
X30087000Y-54500000D02*
G75*
G03*
X30087000Y-51950000I0J1275000D01*
G01*
X26337000Y-51950000D02*
X30087000Y-51950000D01*
X24337000Y-49950000D02*
G75*
G03*
X26337000Y-51950000I1999999J-1D01*
G01*
X24337000Y-37450000D02*
X24337000Y-49950000D01*
X26337000Y-35450000D02*
G75*
G03*
X24337000Y-37450000I-1J-1999999D01*
G01*
X26337000Y-35450000D02*
X40337000Y-35450000D01*
X42337000Y-37450000D02*
G75*
G03*
X40337000Y-35450000I-1999999J1D01*
G01*
X42337000Y-37450000D02*
X42337000Y-49950000D01*
X40337000Y-51950000D02*
G75*
G03*
X42337000Y-49950000I1J1999999D01*
G01*
X36587000Y-51950000D02*
X40337000Y-51950000D01*
X36587000Y-51950000D02*
G75*
G03*
X36587000Y-54500000I0J-1275000D01*
G01*
X63912000Y-44450000D02*
G75*
G03*
X63912000Y-44450000I-2000000J0D01*
G01*
X247558875Y-44450000D02*
G75*
G03*
X247558875Y-44450000I-1100000J0D01*
G01*
X242796375Y-82550000D02*
G75*
G03*
X242796375Y-82550000I-1100000J0D01*
G01*
X49915125Y-101600000D02*
G75*
G03*
X49915125Y-101600000I-1100000J0D01*
G01*
X54677625Y-63500000D02*
G75*
G03*
X54677625Y-63500000I-1100000J0D01*
G01*
M02*
