%TF.GenerationSoftware,KiCad,Pcbnew,7.0.1*%
%TF.CreationDate,2023-04-12T22:37:38+02:00*%
%TF.ProjectId,no-escape,6e6f2d65-7363-4617-9065-2e6b69636164,rev?*%
%TF.SameCoordinates,Original*%
%TF.FileFunction,Paste,Bot*%
%TF.FilePolarity,Positive*%
%FSLAX46Y46*%
G04 Gerber Fmt 4.6, Leading zero omitted, Abs format (unit mm)*
G04 Created by KiCad (PCBNEW 7.0.1) date 2023-04-12 22:37:38*
%MOMM*%
%LPD*%
G01*
G04 APERTURE LIST*
G04 Aperture macros list*
%AMRoundRect*
0 Rectangle with rounded corners*
0 $1 Rounding radius*
0 $2 $3 $4 $5 $6 $7 $8 $9 X,Y pos of 4 corners*
0 Add a 4 corners polygon primitive as box body*
4,1,4,$2,$3,$4,$5,$6,$7,$8,$9,$2,$3,0*
0 Add four circle primitives for the rounded corners*
1,1,$1+$1,$2,$3*
1,1,$1+$1,$4,$5*
1,1,$1+$1,$6,$7*
1,1,$1+$1,$8,$9*
0 Add four rect primitives between the rounded corners*
20,1,$1+$1,$2,$3,$4,$5,0*
20,1,$1+$1,$4,$5,$6,$7,0*
20,1,$1+$1,$6,$7,$8,$9,0*
20,1,$1+$1,$8,$9,$2,$3,0*%
G04 Aperture macros list end*
%ADD10R,1.200000X0.900000*%
%ADD11RoundRect,0.135000X-0.185000X0.135000X-0.185000X-0.135000X0.185000X-0.135000X0.185000X0.135000X0*%
%ADD12RoundRect,0.140000X0.170000X-0.140000X0.170000X0.140000X-0.170000X0.140000X-0.170000X-0.140000X0*%
%ADD13RoundRect,0.140000X-0.140000X-0.170000X0.140000X-0.170000X0.140000X0.170000X-0.140000X0.170000X0*%
%ADD14RoundRect,0.150000X-0.275000X0.150000X-0.275000X-0.150000X0.275000X-0.150000X0.275000X0.150000X0*%
%ADD15RoundRect,0.175000X-0.225000X0.175000X-0.225000X-0.175000X0.225000X-0.175000X0.225000X0.175000X0*%
%ADD16RoundRect,0.140000X-0.170000X0.140000X-0.170000X-0.140000X0.170000X-0.140000X0.170000X0.140000X0*%
%ADD17RoundRect,0.243750X0.456250X-0.243750X0.456250X0.243750X-0.456250X0.243750X-0.456250X-0.243750X0*%
%ADD18RoundRect,0.150000X-0.150000X0.650000X-0.150000X-0.650000X0.150000X-0.650000X0.150000X0.650000X0*%
%ADD19RoundRect,0.135000X0.135000X0.185000X-0.135000X0.185000X-0.135000X-0.185000X0.135000X-0.185000X0*%
%ADD20RoundRect,0.250000X0.292217X0.292217X-0.292217X0.292217X-0.292217X-0.292217X0.292217X-0.292217X0*%
%ADD21RoundRect,0.050000X0.387500X0.050000X-0.387500X0.050000X-0.387500X-0.050000X0.387500X-0.050000X0*%
%ADD22RoundRect,0.050000X0.050000X0.387500X-0.050000X0.387500X-0.050000X-0.387500X0.050000X-0.387500X0*%
%ADD23RoundRect,0.150000X0.587500X0.150000X-0.587500X0.150000X-0.587500X-0.150000X0.587500X-0.150000X0*%
%ADD24RoundRect,0.140000X0.140000X0.170000X-0.140000X0.170000X-0.140000X-0.170000X0.140000X-0.170000X0*%
%ADD25R,1.400000X1.200000*%
%ADD26R,1.000000X0.700000*%
%ADD27R,0.600000X0.700000*%
%ADD28RoundRect,0.135000X0.185000X-0.135000X0.185000X0.135000X-0.185000X0.135000X-0.185000X-0.135000X0*%
G04 APERTURE END LIST*
D10*
%TO.C,D17*%
X145987000Y-66037000D03*
X145987000Y-62737000D03*
%TD*%
D11*
%TO.C,R_DATA1*%
X50165000Y-63117000D03*
X50165000Y-64137000D03*
%TD*%
D12*
%TO.C,C_3V-Decoup2*%
X118872000Y-92555000D03*
X118872000Y-91595000D03*
%TD*%
%TO.C,C_1V-Decoup1*%
X120142000Y-92555000D03*
X120142000Y-91595000D03*
%TD*%
D13*
%TO.C,C_LDO2*%
X63909000Y-52832000D03*
X64869000Y-52832000D03*
%TD*%
D14*
%TO.C,J1*%
X55814750Y-54778500D03*
X55814750Y-55978500D03*
X55814750Y-57178500D03*
X55814750Y-58378500D03*
D15*
X59589750Y-53628500D03*
X59589750Y-59528500D03*
%TD*%
D10*
%TO.C,D9*%
X217424500Y-46987000D03*
X217424500Y-43687000D03*
%TD*%
%TO.C,D20*%
X203137000Y-66037000D03*
X203137000Y-62737000D03*
%TD*%
%TO.C,D18*%
X165037000Y-66037000D03*
X165037000Y-62737000D03*
%TD*%
D16*
%TO.C,C_Crystal1*%
X127000000Y-108260000D03*
X127000000Y-109220000D03*
%TD*%
D12*
%TO.C,C_3V-Decoup4*%
X122555000Y-90269000D03*
X122555000Y-89309000D03*
%TD*%
D10*
%TO.C,D4*%
X122174500Y-46987000D03*
X122174500Y-43687000D03*
%TD*%
D17*
%TO.C,F1*%
X55753000Y-51278000D03*
X55753000Y-49403000D03*
%TD*%
D10*
%TO.C,D8*%
X198374500Y-46987000D03*
X198374500Y-43687000D03*
%TD*%
%TO.C,D34*%
X231712000Y-85087000D03*
X231712000Y-81787000D03*
%TD*%
%TO.C,D40*%
X236474500Y-104137000D03*
X236474500Y-100837000D03*
%TD*%
%TO.C,D13*%
X69787000Y-66037000D03*
X69787000Y-62737000D03*
%TD*%
%TO.C,D32*%
X193612000Y-85087000D03*
X193612000Y-81787000D03*
%TD*%
%TO.C,D7*%
X179324500Y-46987000D03*
X179324500Y-43687000D03*
%TD*%
%TO.C,D38*%
X84074500Y-104137000D03*
X84074500Y-100837000D03*
%TD*%
D16*
%TO.C,C_1V-Decoup3*%
X120650000Y-104775000D03*
X120650000Y-105735000D03*
%TD*%
D18*
%TO.C,U3*%
X140843000Y-86189000D03*
X142113000Y-86189000D03*
X143383000Y-86189000D03*
X144653000Y-86189000D03*
X144653000Y-93389000D03*
X143383000Y-93389000D03*
X142113000Y-93389000D03*
X140843000Y-93389000D03*
%TD*%
D19*
%TO.C,R_RST1*%
X108714000Y-104648000D03*
X107694000Y-104648000D03*
%TD*%
D20*
%TO.C,U1*%
X123446500Y-99090500D03*
X123446500Y-97815500D03*
X122171500Y-99090500D03*
X122171500Y-97815500D03*
D21*
X126246500Y-95853000D03*
X126246500Y-96253000D03*
X126246500Y-96653000D03*
X126246500Y-97053000D03*
X126246500Y-97453000D03*
X126246500Y-97853000D03*
X126246500Y-98253000D03*
X126246500Y-98653000D03*
X126246500Y-99053000D03*
X126246500Y-99453000D03*
X126246500Y-99853000D03*
X126246500Y-100253000D03*
X126246500Y-100653000D03*
X126246500Y-101053000D03*
D22*
X125409000Y-101890500D03*
X125009000Y-101890500D03*
X124609000Y-101890500D03*
X124209000Y-101890500D03*
X123809000Y-101890500D03*
X123409000Y-101890500D03*
X123009000Y-101890500D03*
X122609000Y-101890500D03*
X122209000Y-101890500D03*
X121809000Y-101890500D03*
X121409000Y-101890500D03*
X121009000Y-101890500D03*
X120609000Y-101890500D03*
X120209000Y-101890500D03*
D21*
X119371500Y-101053000D03*
X119371500Y-100653000D03*
X119371500Y-100253000D03*
X119371500Y-99853000D03*
X119371500Y-99453000D03*
X119371500Y-99053000D03*
X119371500Y-98653000D03*
X119371500Y-98253000D03*
X119371500Y-97853000D03*
X119371500Y-97453000D03*
X119371500Y-97053000D03*
X119371500Y-96653000D03*
X119371500Y-96253000D03*
X119371500Y-95853000D03*
D22*
X120209000Y-95015500D03*
X120609000Y-95015500D03*
X121009000Y-95015500D03*
X121409000Y-95015500D03*
X121809000Y-95015500D03*
X122209000Y-95015500D03*
X122609000Y-95015500D03*
X123009000Y-95015500D03*
X123409000Y-95015500D03*
X123809000Y-95015500D03*
X124209000Y-95015500D03*
X124609000Y-95015500D03*
X125009000Y-95015500D03*
X125409000Y-95015500D03*
%TD*%
D16*
%TO.C,C_3V-Decoup3*%
X121793000Y-104775000D03*
X121793000Y-105735000D03*
%TD*%
D10*
%TO.C,D10*%
X236474500Y-46987000D03*
X236474500Y-43687000D03*
%TD*%
D23*
%TO.C,U2*%
X62073000Y-49596000D03*
X62073000Y-51496000D03*
X60198000Y-50546000D03*
%TD*%
D10*
%TO.C,D28*%
X117412000Y-85087000D03*
X117412000Y-81787000D03*
%TD*%
%TO.C,D2*%
X84074500Y-46987000D03*
X84074500Y-43687000D03*
%TD*%
%TO.C,D29*%
X136462000Y-85087000D03*
X136462000Y-81787000D03*
%TD*%
%TO.C,D16*%
X126937000Y-66037000D03*
X126937000Y-62737000D03*
%TD*%
D12*
%TO.C,C_LDO1*%
X58039000Y-50772000D03*
X58039000Y-49812000D03*
%TD*%
D10*
%TO.C,D15*%
X107887000Y-66037000D03*
X107887000Y-62737000D03*
%TD*%
D12*
%TO.C,C_Flash1*%
X138684000Y-93345000D03*
X138684000Y-92385000D03*
%TD*%
D10*
%TO.C,D3*%
X103124500Y-46987000D03*
X103124500Y-43687000D03*
%TD*%
D12*
%TO.C,C_Crystal2*%
X121285000Y-108712000D03*
X121285000Y-107752000D03*
%TD*%
D11*
%TO.C,R_DATA2*%
X49022000Y-63117000D03*
X49022000Y-64137000D03*
%TD*%
D10*
%TO.C,D26*%
X79312000Y-85087000D03*
X79312000Y-81787000D03*
%TD*%
%TO.C,D39*%
X160274500Y-104137000D03*
X160274500Y-100837000D03*
%TD*%
D24*
%TO.C,C_3V-Decoup9*%
X116177000Y-95250000D03*
X115217000Y-95250000D03*
%TD*%
D10*
%TO.C,D23*%
X262668250Y-66037000D03*
X262668250Y-62737000D03*
%TD*%
%TO.C,D30*%
X155512000Y-85087000D03*
X155512000Y-81787000D03*
%TD*%
D25*
%TO.C,Y1*%
X122979000Y-107509000D03*
X125179000Y-107509000D03*
X125179000Y-109209000D03*
X122979000Y-109209000D03*
%TD*%
D12*
%TO.C,C_3V-Decoup8*%
X128270000Y-95476000D03*
X128270000Y-94516000D03*
%TD*%
D16*
%TO.C,C_3V-Decoup5*%
X128397000Y-99977000D03*
X128397000Y-100937000D03*
%TD*%
D10*
%TO.C,D12*%
X43593250Y-66037000D03*
X43593250Y-62737000D03*
%TD*%
%TO.C,D21*%
X222187000Y-66037000D03*
X222187000Y-62737000D03*
%TD*%
%TO.C,D14*%
X88837000Y-66037000D03*
X88837000Y-62737000D03*
%TD*%
D26*
%TO.C,U4*%
X53709000Y-57642000D03*
D27*
X52009000Y-57642000D03*
X52009000Y-55642000D03*
X53909000Y-55642000D03*
%TD*%
D10*
%TO.C,D27*%
X98362000Y-85087000D03*
X98362000Y-81787000D03*
%TD*%
%TO.C,D6*%
X160274500Y-46987000D03*
X160274500Y-43687000D03*
%TD*%
%TO.C,D36*%
X38830750Y-104137000D03*
X38830750Y-100837000D03*
%TD*%
%TO.C,D11*%
X260287000Y-46987000D03*
X260287000Y-43687000D03*
%TD*%
%TO.C,D19*%
X184087000Y-66037000D03*
X184087000Y-62737000D03*
%TD*%
D24*
%TO.C,C_3V-Decoup6*%
X116939000Y-99441000D03*
X115979000Y-99441000D03*
%TD*%
D28*
%TO.C,R_Crystal1*%
X122936000Y-105793000D03*
X122936000Y-104773000D03*
%TD*%
D10*
%TO.C,D35*%
X257905750Y-85087000D03*
X257905750Y-81787000D03*
%TD*%
%TO.C,D25*%
X60262000Y-85087000D03*
X60262000Y-81787000D03*
%TD*%
D12*
%TO.C,C_1V-Decoup2*%
X123825000Y-92047000D03*
X123825000Y-91087000D03*
%TD*%
D11*
%TO.C,R_Flash1*%
X140462000Y-83183000D03*
X140462000Y-84203000D03*
%TD*%
D10*
%TO.C,D1*%
X65024500Y-46987000D03*
X65024500Y-43687000D03*
%TD*%
%TO.C,D24*%
X38830750Y-88010000D03*
X38830750Y-84710000D03*
%TD*%
%TO.C,D22*%
X241237000Y-66037000D03*
X241237000Y-62737000D03*
%TD*%
%TO.C,D37*%
X62643250Y-104137000D03*
X62643250Y-100837000D03*
%TD*%
%TO.C,D33*%
X212662000Y-85087000D03*
X212662000Y-81787000D03*
%TD*%
%TO.C,D5*%
X141224500Y-46987000D03*
X141224500Y-43687000D03*
%TD*%
%TO.C,D31*%
X174562000Y-85087000D03*
X174562000Y-81787000D03*
%TD*%
D24*
%TO.C,C_3V-Decoup7*%
X116177000Y-94107000D03*
X115217000Y-94107000D03*
%TD*%
D13*
%TO.C,C_3V-Decoup1*%
X63909000Y-53975000D03*
X64869000Y-53975000D03*
%TD*%
M02*
