M48
; DRILL file {KiCad 7.0.5} date Wed Jan  3 16:25:20 2024
; FORMAT={-:-/ absolute / inch / decimal}
; #@! TF.CreationDate,2024-01-03T16:25:20+01:00
; #@! TF.GenerationSoftware,Kicad,Pcbnew,7.0.5
; #@! TF.FileFunction,NonPlated,1,2,NPTH
FMAT,2
INCH
; #@! TA.AperFunction,NonPlated,NPTH,ComponentDrill
T1C0.0256
; #@! TA.AperFunction,NonPlated,NPTH,ComponentDrill
T2C0.0670
; #@! TA.AperFunction,NonPlated,NPTH,ComponentDrill
T3C0.0689
; #@! TA.AperFunction,NonPlated,NPTH,ComponentDrill
T4C0.0866
; #@! TA.AperFunction,NonPlated,NPTH,ComponentDrill
T5C0.1200
; #@! TA.AperFunction,NonPlated,NPTH,ComponentDrill
T6C0.1570
%
G90
G05
T1
X1.1988Y-1.6417
X1.4263Y-1.6417
T2
X5.6125Y-4.0
X6.0125Y-4.0
X10.2187Y-1.925
X10.2187Y-2.325
T3
X1.2062Y-2.5
X1.2063Y-3.25
X1.2063Y-4.0
X1.3Y-4.0
X1.5813Y-3.25
X1.6062Y-3.25
X1.6062Y-4.0
X1.7Y-4.0
X1.7937Y-2.5
X1.9812Y-3.25
X2.05Y-3.25
X2.1437Y-4.0
X2.2375Y-1.75
X2.2375Y-4.0
X2.425Y-2.5
X2.45Y-3.25
X2.5437Y-4.0
X2.6375Y-1.75
X2.6375Y-4.0
X2.8Y-3.25
X2.825Y-2.5
X2.9875Y-1.75
X2.9875Y-4.0
X3.175Y-2.5
X3.175Y-4.0
X3.2Y-3.25
X3.3875Y-1.75
X3.3875Y-4.0
X3.55Y-3.25
X3.575Y-2.5
X3.575Y-4.0
X3.7375Y-1.75
X3.925Y-2.5
X3.95Y-3.25
X4.1375Y-1.75
X4.3Y-3.25
X4.325Y-2.5
X4.4875Y-1.75
X4.675Y-2.5
X4.7Y-3.25
X4.7687Y-4.0
X4.8875Y-1.75
X5.05Y-3.25
X5.075Y-2.5
X5.1688Y-4.0
X5.2375Y-1.75
X5.425Y-2.5
X5.45Y-3.25
X5.6125Y-4.0
X5.6375Y-1.75
X5.8Y-3.25
X5.825Y-2.5
X5.9875Y-1.75
X5.9875Y-4.0
X6.0125Y-4.0
X6.175Y-2.5
X6.2Y-3.25
X6.3875Y-1.75
X6.3875Y-4.0
X6.55Y-3.25
X6.575Y-2.5
X6.6437Y-4.0
X6.7375Y-1.75
X6.925Y-2.5
X6.95Y-3.25
X7.0438Y-4.0
X7.1375Y-1.75
X7.3Y-3.25
X7.325Y-2.5
X7.4875Y-1.75
X7.675Y-2.5
X7.7Y-3.25
X7.8875Y-1.75
X8.05Y-3.25
X8.05Y-4.0
X8.075Y-2.5
X8.2375Y-1.75
X8.425Y-2.5
X8.45Y-3.25
X8.45Y-4.0
X8.6375Y-1.75
X8.8Y-3.25
X8.825Y-2.5
X8.9875Y-1.75
X8.9875Y-4.0
X9.175Y-2.5
X9.2Y-3.25
X9.3875Y-1.75
X9.3875Y-4.0
X9.575Y-2.5
X9.6437Y-2.5
X9.8312Y-3.25
X9.925Y-1.75
X10.0187Y-2.5
X10.0437Y-2.5
X10.2312Y-3.25
X10.325Y-1.75
X10.4187Y-2.5
T4
X1.0369Y-1.9665
X1.5881Y-1.4744
X1.5881Y-1.9665
T5
X1.3112Y-2.975
X2.2513Y-2.975
X3.1875Y-4.275
X3.5625Y-4.275
X3.9375Y-4.275
X4.4987Y-4.275
X5.4388Y-4.275
X6.3738Y-4.275
X7.3137Y-4.275
X8.0625Y-4.275
X8.4375Y-4.275
X8.4375Y-4.275
X9.3737Y-2.225
X10.3138Y-2.225
X10.4937Y-1.655
X10.4937Y-2.595
T6
X1.3112Y-3.575
X1.4062Y-2.5
X1.4062Y-3.25
X1.4062Y-4.0
X1.5Y-4.0
X1.5938Y-2.5
X1.7812Y-3.25
X2.25Y-3.25
X2.2513Y-3.575
X2.3438Y-4.0
X2.4375Y-1.75
X2.4375Y-4.0
X2.625Y-2.5
X3.0Y-3.25
X3.1875Y-1.75
X3.1875Y-4.0
X3.1875Y-3.675
X3.375Y-2.5
X3.375Y-4.0
X3.5625Y-3.675
X3.75Y-3.25
X3.9375Y-1.75
X3.9375Y-3.675
X4.125Y-2.5
X4.4987Y-3.675
X4.5Y-3.25
X4.6875Y-1.75
X4.875Y-2.5
X4.9688Y-4.0
X5.25Y-3.25
X5.4375Y-1.75
X5.4388Y-3.675
X5.625Y-2.5
X5.8125Y-4.0
X5.8125Y-4.0
X6.0Y-3.25
X6.1875Y-1.75
X6.1875Y-4.0
X6.3738Y-3.675
X6.375Y-2.5
X6.75Y-3.25
X6.8438Y-4.0
X6.9375Y-1.75
X7.125Y-2.5
X7.3137Y-3.675
X7.5Y-3.25
X7.6875Y-1.75
X7.875Y-2.5
X8.0625Y-3.675
X8.25Y-3.25
X8.25Y-4.0
X8.4375Y-1.75
X8.4375Y-3.675
X8.4375Y-3.675
X8.625Y-2.5
X9.0Y-3.25
X9.1875Y-1.75
X9.1875Y-4.0
X9.3737Y-2.825
X9.375Y-2.5
X9.8437Y-2.5
X9.8937Y-1.655
X9.8937Y-2.595
X10.0312Y-3.25
X10.125Y-1.75
X10.2187Y-2.125
X10.2188Y-2.5
X10.3138Y-2.825
T0
M30
