%TF.GenerationSoftware,KiCad,Pcbnew,7.0.5*%
%TF.CreationDate,2024-01-03T16:25:20+01:00*%
%TF.ProjectId,no-escape,6e6f2d65-7363-4617-9065-2e6b69636164,rev?*%
%TF.SameCoordinates,Original*%
%TF.FileFunction,Paste,Bot*%
%TF.FilePolarity,Positive*%
%FSLAX46Y46*%
G04 Gerber Fmt 4.6, Leading zero omitted, Abs format (unit mm)*
G04 Created by KiCad (PCBNEW 7.0.5) date 2024-01-03 16:25:20*
%MOMM*%
%LPD*%
G01*
G04 APERTURE LIST*
G04 Aperture macros list*
%AMRoundRect*
0 Rectangle with rounded corners*
0 $1 Rounding radius*
0 $2 $3 $4 $5 $6 $7 $8 $9 X,Y pos of 4 corners*
0 Add a 4 corners polygon primitive as box body*
4,1,4,$2,$3,$4,$5,$6,$7,$8,$9,$2,$3,0*
0 Add four circle primitives for the rounded corners*
1,1,$1+$1,$2,$3*
1,1,$1+$1,$4,$5*
1,1,$1+$1,$6,$7*
1,1,$1+$1,$8,$9*
0 Add four rect primitives between the rounded corners*
20,1,$1+$1,$2,$3,$4,$5,0*
20,1,$1+$1,$4,$5,$6,$7,0*
20,1,$1+$1,$6,$7,$8,$9,0*
20,1,$1+$1,$8,$9,$2,$3,0*%
%AMRotRect*
0 Rectangle, with rotation*
0 The origin of the aperture is its center*
0 $1 length*
0 $2 width*
0 $3 Rotation angle, in degrees counterclockwise*
0 Add horizontal line*
21,1,$1,$2,0,0,$3*%
G04 Aperture macros list end*
%ADD10R,1.200000X0.900000*%
%ADD11RoundRect,0.135000X-0.185000X0.135000X-0.185000X-0.135000X0.185000X-0.135000X0.185000X0.135000X0*%
%ADD12RoundRect,0.140000X0.021213X-0.219203X0.219203X-0.021213X-0.021213X0.219203X-0.219203X0.021213X0*%
%ADD13RoundRect,0.140000X-0.140000X-0.170000X0.140000X-0.170000X0.140000X0.170000X-0.140000X0.170000X0*%
%ADD14RoundRect,0.150000X-0.275000X0.150000X-0.275000X-0.150000X0.275000X-0.150000X0.275000X0.150000X0*%
%ADD15RoundRect,0.175000X-0.225000X0.175000X-0.225000X-0.175000X0.225000X-0.175000X0.225000X0.175000X0*%
%ADD16RoundRect,0.140000X-0.021213X0.219203X-0.219203X0.021213X0.021213X-0.219203X0.219203X-0.021213X0*%
%ADD17RoundRect,0.140000X0.170000X-0.140000X0.170000X0.140000X-0.170000X0.140000X-0.170000X-0.140000X0*%
%ADD18RoundRect,0.243750X0.456250X-0.243750X0.456250X0.243750X-0.456250X0.243750X-0.456250X-0.243750X0*%
%ADD19RoundRect,0.225000X0.375000X-0.225000X0.375000X0.225000X-0.375000X0.225000X-0.375000X-0.225000X0*%
%ADD20RoundRect,0.150000X0.650000X0.150000X-0.650000X0.150000X-0.650000X-0.150000X0.650000X-0.150000X0*%
%ADD21RoundRect,0.250000X-0.250000X-0.350000X0.250000X-0.350000X0.250000X0.350000X-0.250000X0.350000X0*%
%ADD22RoundRect,0.135000X0.135000X0.185000X-0.135000X0.185000X-0.135000X-0.185000X0.135000X-0.185000X0*%
%ADD23RoundRect,0.250000X0.413257X0.000000X0.000000X0.413257X-0.413257X0.000000X0.000000X-0.413257X0*%
%ADD24RoundRect,0.050000X0.309359X-0.238649X-0.238649X0.309359X-0.309359X0.238649X0.238649X-0.309359X0*%
%ADD25RoundRect,0.050000X0.309359X0.238649X0.238649X0.309359X-0.309359X-0.238649X-0.238649X-0.309359X0*%
%ADD26RoundRect,0.250000X-0.625000X0.375000X-0.625000X-0.375000X0.625000X-0.375000X0.625000X0.375000X0*%
%ADD27RoundRect,0.250000X0.625000X-0.375000X0.625000X0.375000X-0.625000X0.375000X-0.625000X-0.375000X0*%
%ADD28RoundRect,0.150000X0.587500X0.150000X-0.587500X0.150000X-0.587500X-0.150000X0.587500X-0.150000X0*%
%ADD29R,1.200000X1.800000*%
%ADD30R,0.600000X1.550000*%
%ADD31RoundRect,0.140000X0.140000X0.170000X-0.140000X0.170000X-0.140000X-0.170000X0.140000X-0.170000X0*%
%ADD32R,0.900000X0.500000*%
%ADD33RoundRect,0.125000X0.000000X0.150000X0.000000X0.150000X0.000000X-0.150000X0.000000X-0.150000X0*%
%ADD34R,0.250000X0.550000*%
%ADD35R,0.300000X0.550000*%
%ADD36RoundRect,0.140000X0.219203X0.021213X0.021213X0.219203X-0.219203X-0.021213X-0.021213X-0.219203X0*%
%ADD37RotRect,1.400000X1.200000X315.000000*%
%ADD38RoundRect,0.140000X-0.219203X-0.021213X-0.021213X-0.219203X0.219203X0.021213X0.021213X0.219203X0*%
%ADD39RoundRect,0.150000X-0.625000X0.150000X-0.625000X-0.150000X0.625000X-0.150000X0.625000X0.150000X0*%
%ADD40RoundRect,0.250000X-0.650000X0.350000X-0.650000X-0.350000X0.650000X-0.350000X0.650000X0.350000X0*%
%ADD41RoundRect,0.150000X-0.150000X-0.575000X0.150000X-0.575000X0.150000X0.575000X-0.150000X0.575000X0*%
%ADD42RoundRect,0.075000X-0.075000X-0.650000X0.075000X-0.650000X0.075000X0.650000X-0.075000X0.650000X0*%
%ADD43R,1.000000X0.700000*%
%ADD44R,0.600000X0.700000*%
%ADD45RoundRect,0.135000X0.035355X-0.226274X0.226274X-0.035355X-0.035355X0.226274X-0.226274X0.035355X0*%
G04 APERTURE END LIST*
D10*
%TO.C,D17*%
X145987000Y-66037000D03*
X145987000Y-62737000D03*
%TD*%
D11*
%TO.C,R_DATA1*%
X50165000Y-63117000D03*
X50165000Y-64137000D03*
%TD*%
D12*
%TO.C,C_3V-Decoup2*%
X107229589Y-91398411D03*
X107908411Y-90719589D03*
%TD*%
%TO.C,C_1V-Decoup1*%
X108118589Y-92160411D03*
X108797411Y-91481589D03*
%TD*%
D13*
%TO.C,C_LDO2*%
X63909000Y-52832000D03*
X64869000Y-52832000D03*
%TD*%
D14*
%TO.C,J1*%
X55814750Y-54778500D03*
X55814750Y-55978500D03*
X55814750Y-57178500D03*
X55814750Y-58378500D03*
D15*
X59589750Y-53628500D03*
X59589750Y-59528500D03*
%TD*%
D10*
%TO.C,D9*%
X217424500Y-46987000D03*
X217424500Y-43687000D03*
%TD*%
%TO.C,D20*%
X203137000Y-66037000D03*
X203137000Y-62737000D03*
%TD*%
%TO.C,D18*%
X165037000Y-66037000D03*
X165037000Y-62737000D03*
%TD*%
D16*
%TO.C,C_Crystal1*%
X99036462Y-104230456D03*
X98357640Y-104909278D03*
%TD*%
D17*
%TO.C,C_3V-Decoup4*%
X115189000Y-90142000D03*
X115189000Y-89182000D03*
%TD*%
D10*
%TO.C,D4*%
X122174500Y-46987000D03*
X122174500Y-43687000D03*
%TD*%
D18*
%TO.C,F1*%
X55753000Y-51278000D03*
X55753000Y-49403000D03*
%TD*%
D10*
%TO.C,D8*%
X198374500Y-46987000D03*
X198374500Y-43687000D03*
%TD*%
D19*
%TO.C,D41*%
X129318250Y-104137000D03*
X129318250Y-100837000D03*
%TD*%
D10*
%TO.C,D34*%
X231712000Y-85087000D03*
X231712000Y-81787000D03*
%TD*%
%TO.C,D40*%
X236474500Y-104137000D03*
X236474500Y-100837000D03*
%TD*%
%TO.C,D13*%
X69787000Y-66037000D03*
X69787000Y-62737000D03*
%TD*%
%TO.C,D32*%
X193612000Y-85087000D03*
X193612000Y-81787000D03*
%TD*%
%TO.C,D7*%
X179324500Y-46987000D03*
X179324500Y-43687000D03*
%TD*%
%TO.C,D38*%
X72771000Y-104137000D03*
X72771000Y-100837000D03*
%TD*%
D16*
%TO.C,C_1V-Decoup3*%
X98510411Y-98847589D03*
X97831589Y-99526411D03*
%TD*%
D20*
%TO.C,U3*%
X127425000Y-85979000D03*
X127425000Y-87249000D03*
X127425000Y-88519000D03*
X127425000Y-89789000D03*
X120225000Y-89789000D03*
X120225000Y-88519000D03*
X120225000Y-87249000D03*
X120225000Y-85979000D03*
%TD*%
D21*
%TO.C,D43*%
X38039000Y-45797000D03*
X41339000Y-45797000D03*
%TD*%
D22*
%TO.C,R_RST1*%
X95760000Y-97155000D03*
X94740000Y-97155000D03*
%TD*%
D23*
%TO.C,U1*%
X106197122Y-99326561D03*
X107098683Y-98425000D03*
X105295561Y-98425000D03*
X106197122Y-97523439D03*
D24*
X110466279Y-99017202D03*
X110183436Y-99300045D03*
X109900594Y-99582887D03*
X109617751Y-99865730D03*
X109334908Y-100148573D03*
X109052066Y-100431415D03*
X108769223Y-100714258D03*
X108486380Y-100997101D03*
X108203537Y-101279944D03*
X107920695Y-101562786D03*
X107637852Y-101845629D03*
X107355009Y-102128472D03*
X107072167Y-102411314D03*
X106789324Y-102694157D03*
D25*
X105604920Y-102694157D03*
X105322077Y-102411314D03*
X105039235Y-102128472D03*
X104756392Y-101845629D03*
X104473549Y-101562786D03*
X104190707Y-101279944D03*
X103907864Y-100997101D03*
X103625021Y-100714258D03*
X103342178Y-100431415D03*
X103059336Y-100148573D03*
X102776493Y-99865730D03*
X102493650Y-99582887D03*
X102210808Y-99300045D03*
X101927965Y-99017202D03*
D24*
X101927965Y-97832798D03*
X102210808Y-97549955D03*
X102493650Y-97267113D03*
X102776493Y-96984270D03*
X103059336Y-96701427D03*
X103342178Y-96418585D03*
X103625021Y-96135742D03*
X103907864Y-95852899D03*
X104190707Y-95570056D03*
X104473549Y-95287214D03*
X104756392Y-95004371D03*
X105039235Y-94721528D03*
X105322077Y-94438686D03*
X105604920Y-94155843D03*
D25*
X106789324Y-94155843D03*
X107072167Y-94438686D03*
X107355009Y-94721528D03*
X107637852Y-95004371D03*
X107920695Y-95287214D03*
X108203537Y-95570056D03*
X108486380Y-95852899D03*
X108769223Y-96135742D03*
X109052066Y-96418585D03*
X109334908Y-96701427D03*
X109617751Y-96984270D03*
X109900594Y-97267113D03*
X110183436Y-97549955D03*
X110466279Y-97832798D03*
%TD*%
D16*
%TO.C,C_3V-Decoup3*%
X99272411Y-99609589D03*
X98593589Y-100288411D03*
%TD*%
D10*
%TO.C,D10*%
X236474500Y-46987000D03*
X236474500Y-43687000D03*
%TD*%
D26*
%TO.C,F2*%
X40451000Y-40714000D03*
X40451000Y-43514000D03*
%TD*%
D27*
%TO.C,L1*%
X26354000Y-46181001D03*
X26354000Y-43381001D03*
%TD*%
D28*
%TO.C,U2*%
X62073000Y-49596000D03*
X62073000Y-51496000D03*
X60198000Y-50546000D03*
%TD*%
D10*
%TO.C,D28*%
X117412000Y-85087000D03*
X117412000Y-81787000D03*
%TD*%
D29*
%TO.C,J5*%
X36137000Y-50800000D03*
X30537000Y-50800000D03*
D30*
X34837000Y-46925000D03*
X33837000Y-46925000D03*
X32837000Y-46925000D03*
X31837000Y-46925000D03*
%TD*%
D10*
%TO.C,D2*%
X84074500Y-46987000D03*
X84074500Y-43687000D03*
%TD*%
%TO.C,D29*%
X136462000Y-85087000D03*
X136462000Y-81787000D03*
%TD*%
%TO.C,D16*%
X126937000Y-66037000D03*
X126937000Y-62737000D03*
%TD*%
D17*
%TO.C,C_LDO1*%
X58039000Y-50772000D03*
X58039000Y-49812000D03*
%TD*%
D10*
%TO.C,D15*%
X107887000Y-66037000D03*
X107887000Y-62737000D03*
%TD*%
D31*
%TO.C,C_Flash1*%
X117066000Y-87122000D03*
X116106000Y-87122000D03*
%TD*%
D10*
%TO.C,D3*%
X103124500Y-46987000D03*
X103124500Y-43687000D03*
%TD*%
D12*
%TO.C,C_Crystal2*%
X94675735Y-100508952D03*
X95354557Y-99830130D03*
%TD*%
D32*
%TO.C,R2*%
X36387000Y-45286000D03*
X36387000Y-46786000D03*
%TD*%
D11*
%TO.C,R_DATA2*%
X49022000Y-63117000D03*
X49022000Y-64137000D03*
%TD*%
D33*
%TO.C,U5*%
X34339000Y-45318400D03*
D34*
X33839000Y-45318400D03*
D35*
X33339000Y-45318400D03*
D34*
X32839000Y-45318400D03*
X32339000Y-45318400D03*
X32339000Y-44548400D03*
X32839000Y-44548400D03*
D35*
X33339000Y-44548400D03*
D34*
X33839000Y-44548400D03*
X34339000Y-44548400D03*
%TD*%
D10*
%TO.C,D26*%
X79312000Y-85087000D03*
X79312000Y-81787000D03*
%TD*%
%TO.C,D39*%
X160274500Y-104137000D03*
X160274500Y-100837000D03*
%TD*%
D36*
%TO.C,C_3V-Decoup9*%
X105368411Y-91271411D03*
X104689589Y-90592589D03*
%TD*%
D10*
%TO.C,D23*%
X262668250Y-66037000D03*
X262668250Y-62737000D03*
%TD*%
%TO.C,D30*%
X155512000Y-85087000D03*
X155512000Y-81787000D03*
%TD*%
D37*
%TO.C,Y1*%
X96724223Y-100856142D03*
X98279858Y-102411777D03*
X97077777Y-103613858D03*
X95522142Y-102058223D03*
%TD*%
D38*
%TO.C,C_3V-Decoup8*%
X111928589Y-100117589D03*
X112607411Y-100796411D03*
%TD*%
%TO.C,C_3V-Decoup5*%
X108753589Y-103038589D03*
X109432411Y-103717411D03*
%TD*%
D10*
%TO.C,D12*%
X43593250Y-66037000D03*
X43593250Y-62737000D03*
%TD*%
%TO.C,D21*%
X222187000Y-66037000D03*
X222187000Y-62737000D03*
%TD*%
%TO.C,D14*%
X88837000Y-66037000D03*
X88837000Y-62737000D03*
%TD*%
D39*
%TO.C,J3*%
X55689750Y-55078500D03*
X55689750Y-56078500D03*
X55689750Y-57078500D03*
X55689750Y-58078500D03*
D40*
X59564750Y-53778500D03*
X59564750Y-59378500D03*
%TD*%
D41*
%TO.C,J4*%
X30088999Y-43025000D03*
X30888999Y-43025000D03*
D42*
X32088999Y-43025000D03*
X33084999Y-43025000D03*
X33588999Y-43025000D03*
X34588999Y-43025000D03*
D41*
X36588999Y-43025000D03*
X35788999Y-43025000D03*
D42*
X35088999Y-43025000D03*
X34088999Y-43025000D03*
X32588999Y-43025000D03*
X31588999Y-43025000D03*
%TD*%
D32*
%TO.C,R1*%
X30418000Y-45286001D03*
X30418000Y-46786001D03*
%TD*%
D43*
%TO.C,U4*%
X53709000Y-57642000D03*
D44*
X52009000Y-57642000D03*
X52009000Y-55642000D03*
X53909000Y-55642000D03*
%TD*%
D10*
%TO.C,D27*%
X98362000Y-85087000D03*
X98362000Y-81787000D03*
%TD*%
%TO.C,D6*%
X160274500Y-46987000D03*
X160274500Y-43687000D03*
%TD*%
%TO.C,D36*%
X27432000Y-104137000D03*
X27432000Y-100837000D03*
%TD*%
D19*
%TO.C,D42*%
X212662000Y-104137000D03*
X212662000Y-100837000D03*
%TD*%
D10*
%TO.C,D11*%
X260287000Y-46987000D03*
X260287000Y-43687000D03*
%TD*%
%TO.C,D19*%
X184087000Y-66037000D03*
X184087000Y-62737000D03*
%TD*%
D31*
%TO.C,C_3V-Decoup6*%
X97762000Y-96139000D03*
X96802000Y-96139000D03*
%TD*%
D45*
%TO.C,R_Crystal1*%
X99461376Y-101325624D03*
X100182624Y-100604376D03*
%TD*%
D10*
%TO.C,D35*%
X257905750Y-85087000D03*
X257905750Y-81787000D03*
%TD*%
%TO.C,D25*%
X60262000Y-85087000D03*
X60262000Y-81787000D03*
%TD*%
D12*
%TO.C,C_1V-Decoup2*%
X110277589Y-94700411D03*
X110956411Y-94021589D03*
%TD*%
D11*
%TO.C,R_Flash1*%
X123825000Y-82675000D03*
X123825000Y-83695000D03*
%TD*%
D10*
%TO.C,D1*%
X65024500Y-46987000D03*
X65024500Y-43687000D03*
%TD*%
%TO.C,D24*%
X38830750Y-88010000D03*
X38830750Y-84710000D03*
%TD*%
%TO.C,D22*%
X241237000Y-66037000D03*
X241237000Y-62737000D03*
%TD*%
%TO.C,D37*%
X69977000Y-104137000D03*
X69977000Y-100837000D03*
%TD*%
%TO.C,D33*%
X212662000Y-85087000D03*
X212662000Y-81787000D03*
%TD*%
%TO.C,D5*%
X141224500Y-46987000D03*
X141224500Y-43687000D03*
%TD*%
%TO.C,D31*%
X174562000Y-85087000D03*
X174562000Y-81787000D03*
%TD*%
D36*
%TO.C,C_3V-Decoup7*%
X106130411Y-90509411D03*
X105451589Y-89830589D03*
%TD*%
D13*
%TO.C,C_3V-Decoup1*%
X63909000Y-53975000D03*
X64869000Y-53975000D03*
%TD*%
M02*
